<svg xmlns="http://www.w3.org/2000/svg" width="157" height="24" viewBox="0 0 157 24" fill="none">
  <path fill-rule="evenodd" clip-rule="evenodd"
    d="M36.7398 18.5085C36.1128 18.0267 35.7709 17.2898 35.7124 16.2995L38.1304 15.1108C38.18 15.6671 38.3235 16.0816 38.5644 16.3544C38.8054 16.6272 39.1579 16.7618 39.6255 16.7618C40.2385 16.7618 40.715 16.5369 41.0515 16.0851C41.3881 15.6334 41.6414 14.9319 41.8097 13.9789L43.319 5.42261H45.9868L44.4332 14.2393C44.1215 16.009 43.4855 17.2827 42.5254 18.0621C41.5653 18.8416 40.4475 19.2313 39.172 19.2313C38.1765 19.2331 37.3669 18.9921 36.7398 18.5085ZM47.4908 11.5502C48.0736 10.7831 48.7769 10.1914 49.5971 9.77691C50.419 9.36239 51.264 9.15512 52.1356 9.15512C52.9947 9.15512 53.7582 9.36239 54.4278 9.77691C55.0974 10.1914 55.5881 10.7831 55.8999 11.5502C56.2117 12.3172 56.2808 13.2012 56.1036 14.2038C55.9265 15.2065 55.5474 16.0905 54.9646 16.8575C54.3818 17.6246 53.6838 18.2127 52.869 18.6201C52.0541 19.0276 51.218 19.2331 50.3588 19.2331C49.4873 19.2331 48.7131 19.0293 48.0364 18.6201C47.3598 18.2127 46.8655 17.6246 46.5537 16.8575C46.2402 16.0905 46.1729 15.2065 46.35 14.2038C46.529 13.2012 46.908 12.3172 47.4908 11.5502ZM49.2782 16.2357C49.613 16.737 50.1002 16.9868 50.7379 16.9868C51.3756 16.9868 51.9478 16.737 52.4527 16.2357C52.9575 15.7344 53.287 15.0577 53.4358 14.2038C53.5864 13.35 53.4978 12.6697 53.1701 12.1613C52.8424 11.6547 52.3588 11.3996 51.7211 11.3996C51.0833 11.3996 50.5076 11.6529 49.9957 12.1613C49.4819 12.668 49.1507 13.3482 49.0001 14.2038C48.8513 15.0577 48.9434 15.7344 49.2782 16.2357ZM67.4621 9.39624H64.7943L61.3223 16.0233L59.9689 9.39801H57.0974L59.5137 19.1784C59.1682 19.747 58.8777 20.1775 58.6421 20.468C58.4065 20.7585 58.178 20.9622 57.9548 21.0809C57.7316 21.1978 57.4783 21.2563 57.1966 21.2563C56.7555 21.2563 56.3746 21.1217 56.054 20.8489L54.6953 22.817C54.938 23.0384 55.2427 23.2155 55.6058 23.3449C55.969 23.4742 56.3729 23.5397 56.814 23.5397C57.7227 23.5397 58.5252 23.2829 59.2231 22.7691C59.9211 22.2554 60.5978 21.4246 61.255 20.2731L67.4621 9.39624ZM69.9281 19.0099H67.2603L69.6553 5.42441H72.3231L69.9281 19.0099ZM83.0509 6.22335C82.0837 5.69013 80.9429 5.42441 79.6302 5.42441V5.42618H75.1396L72.7446 19.0117H77.2352C78.5603 19.0117 79.7985 18.7424 80.9482 18.2039C82.0996 17.6671 83.0704 16.8841 83.8658 15.8567C84.6594 14.8292 85.1802 13.6104 85.43 12.2003C85.6797 10.7884 85.5876 9.57321 85.1536 8.55284C84.7196 7.53069 84.0181 6.75656 83.0509 6.22335ZM80.8649 15.5396C79.9544 16.319 78.7746 16.7087 77.3274 16.7087H75.8181L77.4053 7.70785H78.9146C80.3494 7.70785 81.3875 8.10111 82.0288 8.88587C82.6683 9.67241 82.8649 10.776 82.6133 12.1985C82.3583 13.6476 81.7755 14.7601 80.8649 15.5396Z"
    fill="white" />
  <path
    d="M17.0822 7.12109L15.518 14.5578C15.3728 15.2522 14.751 15.7553 14.0424 15.7553C13.5836 15.7553 13.1567 15.5498 12.868 15.1937C12.643 14.9156 12.5296 14.5737 12.5349 14.2229L9.70947 14.9528C9.82993 15.6933 10.1346 16.4001 10.62 17.0042C11.4579 18.044 12.705 18.641 14.0407 18.641C16.1062 18.641 17.913 17.1742 18.3382 15.153L20.0281 7.12286H17.0822V7.12109Z"
    fill="#C1C1C1" />
  <path fill-rule="evenodd" clip-rule="evenodd"
    d="M30.3215 1.83702C29.3738 0.669618 27.9673 0 26.4633 0H22.9824L22.3748 2.88396H26.4633C27.094 2.88396 27.6838 3.16386 28.0807 3.65456C28.4775 4.14349 28.6316 4.77944 28.5023 5.39592L27.8946 8.28167H30.8423L31.3259 5.99114C31.6342 4.51904 31.2692 3.00443 30.3215 1.83702ZM11.3997 9.69666C11.3997 8.91544 12.0338 8.28125 12.815 8.28125C13.5963 8.28125 14.2287 8.91544 14.2304 9.69666C14.2304 10.4779 13.5963 11.1121 12.815 11.1121C12.0338 11.1121 11.3997 10.4779 11.3997 9.69666ZM24.8828 9.84192C24.8828 10.7039 24.184 11.4026 23.3221 11.4026C22.4602 11.4026 21.7615 10.7039 21.7615 9.84192C21.7615 8.97999 22.4602 8.28125 23.3221 8.28125C24.184 8.28125 24.8828 8.97999 24.8828 9.84192ZM21.6354 21.116C23.6992 21.116 25.5043 19.651 25.9294 17.6315L26.3138 15.798H29.2615L28.7513 18.2249C28.0481 21.5713 25.0543 24 21.6354 24H17.9296L18.5372 21.116H21.6354ZM4.68279 5.77503L4.15491 8.28345H7.10259L7.50471 6.37025C7.92985 4.35076 9.73496 2.88575 11.7987 2.88575H14.7676L15.3752 0.00178625H11.7987C8.3798 1.4767e-05 5.38606 2.42871 4.68279 5.77503ZM4.93138 18.6023C4.80206 19.2188 4.95617 19.8547 5.35297 20.3437C5.74978 20.8344 6.33967 21.1143 6.9703 21.116H10.9295L10.3219 24H6.9703C5.46635 24 4.05982 23.3304 3.1121 22.163C2.16438 20.9956 1.79769 19.4809 2.10769 18.0088L2.35214 16.8503L5.46989 16.0461L4.93138 18.6023Z"
    fill="#8CDD00" />
  <path fill-rule="evenodd" clip-rule="evenodd"
    d="M91.6034 6L89 19.1973H90.5981L91.5685 14.3772H94.2841C95.3065 14.3772 96.1765 14.1882 96.8939 13.8101C97.6156 13.4321 98.187 12.9252 98.608 12.2894C99.0333 11.6535 99.3104 10.949 99.4393 10.1757C99.5682 9.39385 99.5252 8.68715 99.3104 8.05564C99.0999 7.42413 98.6939 6.92364 98.0925 6.55418C97.4954 6.18473 96.6813 6 95.6502 6H91.6034ZM91.8539 12.9595H94.4645C95.1691 12.9595 95.7576 12.8371 96.2302 12.5922C96.7027 12.3474 97.0722 12.0144 97.3386 11.5934C97.6049 11.1724 97.781 10.6998 97.867 10.1757C97.9529 9.64302 97.9314 9.17045 97.8025 8.75804C97.6779 8.34132 97.418 8.01483 97.0228 7.77855C96.6319 7.53797 96.0798 7.41768 95.3667 7.41768H92.9695L91.8539 12.9595ZM128.783 15.7727L128.128 19.1973H126.427L129.132 6H130.652L129.178 13.707H129.544L134.622 9.29934H136.504L131.61 13.5371L135.163 19.1973H133.23L130.32 14.512L128.783 15.7727ZM139.893 19.404C138.944 19.404 138.16 19.1935 137.541 18.7725C136.922 18.3472 136.491 17.7543 136.246 16.9939C136.001 16.2292 135.962 15.34 136.13 14.3261C136.297 13.3123 136.63 12.4187 137.129 11.6454C137.627 10.8678 138.248 10.2621 138.991 9.82819C139.734 9.38999 140.55 9.1709 141.44 9.1709C141.955 9.1709 142.451 9.25682 142.928 9.42866C143.405 9.6005 143.817 9.87974 144.165 10.2664C144.513 10.6487 144.756 11.1557 144.894 11.7872C145.031 12.4187 145.022 13.1963 144.868 14.1199L144.765 14.7643H137.565C137.445 15.5607 137.467 16.1965 137.631 16.6717C137.803 17.1572 138.102 17.5073 138.527 17.7221C138.952 17.9326 139.485 18.0379 140.125 18.0379C140.533 18.0379 140.909 17.982 141.253 17.8703C141.596 17.7543 141.904 17.5825 142.174 17.3548C142.445 17.1228 142.673 16.835 142.857 16.4913L144.249 16.9037C144.013 17.4021 143.68 17.8402 143.25 18.2183C142.825 18.592 142.327 18.8842 141.755 19.0947C141.188 19.3009 140.567 19.404 139.893 19.404ZM138.372 12.1609C138.071 12.5834 137.873 13.013 137.778 13.4497H143.424C143.523 12.8912 143.497 12.3929 143.347 11.9547C143.201 11.5165 142.945 11.1707 142.58 10.9172C142.219 10.6638 141.762 10.537 141.208 10.537C140.636 10.537 140.103 10.6917 139.609 11.001C139.115 11.306 138.703 11.6927 138.372 12.1609ZM145.803 22.9096C145.546 22.9096 145.318 22.8881 145.12 22.8451C144.927 22.8065 144.794 22.7678 144.721 22.7291L145.339 21.3888C145.692 21.4833 146.005 21.5112 146.28 21.4725C146.559 21.4382 146.824 21.3029 147.073 21.0666C147.326 20.8346 147.59 20.4694 147.865 19.9711L148.291 19.1978L146.306 9.2998H147.891L149.309 17.2131H149.412L153.459 9.2998H155.173L149.103 20.6284C148.819 21.1568 148.508 21.5885 148.168 21.9236C147.829 22.2587 147.462 22.5057 147.066 22.6647C146.671 22.8279 146.25 22.9096 145.803 22.9096ZM126.395 11.5165L124.952 11.9032C124.9 11.6712 124.81 11.4478 124.681 11.233C124.556 11.0139 124.363 10.8356 124.101 10.6981C123.843 10.5564 123.491 10.4855 123.044 10.4855C122.439 10.4855 121.912 10.6251 121.465 10.9043C121.019 11.1793 120.763 11.5294 120.699 11.9547C120.634 12.3285 120.72 12.627 120.956 12.8504C121.193 13.0738 121.588 13.2564 122.142 13.3982L123.56 13.759C124.41 13.9781 125.016 14.3068 125.377 14.745C125.742 15.1789 125.867 15.7438 125.751 16.4397C125.656 17.0068 125.409 17.5137 125.01 17.9605C124.61 18.4073 124.099 18.7596 123.476 19.0174C122.853 19.2751 122.159 19.404 121.395 19.404C120.376 19.404 119.573 19.1849 118.985 18.7467C118.396 18.3042 118.082 17.6641 118.044 16.8264L119.564 16.4655C119.603 16.9939 119.792 17.3935 120.132 17.6641C120.475 17.9305 120.956 18.0636 121.575 18.0636C122.284 18.0636 122.875 17.9133 123.347 17.6126C123.82 17.3075 124.088 16.9424 124.153 16.5171C124.217 16.1691 124.148 15.8791 123.946 15.6471C123.749 15.4151 123.405 15.2412 122.915 15.1252L121.343 14.7385C120.467 14.5194 119.852 14.1843 119.5 13.7333C119.152 13.2822 119.036 12.7151 119.152 12.032C119.247 11.4736 119.487 10.9795 119.874 10.5499C120.265 10.1203 120.754 9.78308 121.343 9.53821C121.936 9.29333 122.58 9.1709 123.276 9.1709C124.256 9.1709 124.988 9.3857 125.474 9.8153C125.959 10.2406 126.266 10.8077 126.395 11.5165ZM116.106 11.9032L117.549 11.5165C117.421 10.8077 117.113 10.2406 116.628 9.8153C116.142 9.3857 115.41 9.1709 114.431 9.1709C113.735 9.1709 113.09 9.29333 112.497 9.53821C111.909 9.78308 111.419 10.1203 111.028 10.5499C110.641 10.9795 110.401 11.4736 110.306 12.032C110.19 12.7151 110.306 13.2822 110.654 13.7333C111.007 14.1843 111.621 14.5194 112.497 14.7385L114.07 15.1252C114.559 15.2412 114.903 15.4151 115.101 15.6471C115.303 15.8791 115.371 16.1691 115.307 16.5171C115.242 16.9424 114.974 17.3075 114.501 17.6126C114.029 17.9133 113.438 18.0636 112.729 18.0636C112.111 18.0636 111.63 17.9305 111.286 17.6641C110.946 17.3935 110.757 16.9939 110.719 16.4655L109.198 16.8264C109.237 17.6641 109.55 18.3042 110.139 18.7467C110.727 19.1849 111.531 19.404 112.549 19.404C113.314 19.404 114.007 19.2751 114.63 19.0174C115.253 18.7596 115.764 18.4073 116.164 17.9605C116.564 17.5137 116.811 17.0068 116.905 16.4397C117.021 15.7438 116.896 15.1789 116.531 14.745C116.17 14.3068 115.565 13.9781 114.714 13.759L113.296 13.3982C112.742 13.2564 112.347 13.0738 112.111 12.8504C111.874 12.627 111.788 12.3285 111.853 11.9547C111.917 11.5294 112.173 11.1793 112.62 10.9043C113.067 10.6251 113.593 10.4855 114.199 10.4855C114.645 10.4855 114.998 10.5564 115.255 10.6981C115.517 10.8356 115.711 11.0139 115.835 11.233C115.964 11.4478 116.054 11.6712 116.106 11.9032ZM102.546 19.4298C101.919 19.4298 101.369 19.3116 100.897 19.0753C100.424 18.8348 100.074 18.4889 99.8464 18.0379C99.6187 17.5825 99.5564 17.0326 99.6595 16.3882C99.7583 15.8211 99.9495 15.3614 100.233 15.0092C100.517 14.6526 100.86 14.3734 101.264 14.1715C101.672 13.9652 102.11 13.8127 102.579 13.7139C103.051 13.6108 103.522 13.5313 103.99 13.4755C104.6 13.3982 105.096 13.338 105.478 13.2951C105.861 13.2521 106.149 13.1812 106.342 13.0824C106.535 12.9836 106.653 12.8139 106.696 12.5733V12.5218C106.799 11.8903 106.716 11.3984 106.445 11.0461C106.174 10.6895 105.691 10.5113 104.995 10.5113C104.273 10.5113 103.67 10.6702 103.184 10.9881C102.699 11.306 102.34 11.6454 102.108 12.0063L100.768 11.4907C101.12 10.8893 101.541 10.421 102.031 10.0859C102.521 9.74656 103.034 9.51028 103.571 9.37711C104.108 9.23963 104.626 9.1709 105.124 9.1709C105.442 9.1709 105.801 9.20956 106.2 9.28689C106.6 9.35992 106.973 9.51243 107.321 9.74441C107.674 9.9764 107.938 10.3265 108.114 10.7948C108.295 11.2631 108.32 11.8903 108.191 12.6764L107.109 19.1978H105.588L105.82 17.8574H105.743C105.605 18.0722 105.395 18.3021 105.111 18.5469C104.832 18.7918 104.478 19.0002 104.048 19.172C103.623 19.3438 103.122 19.4298 102.546 19.4298ZM102.985 18.0636C103.586 18.0636 104.112 17.9455 104.563 17.7092C105.019 17.4729 105.384 17.1679 105.659 16.7942C105.938 16.4204 106.112 16.0273 106.181 15.6149L106.413 14.223C106.336 14.3003 106.183 14.3712 105.955 14.4357C105.728 14.4958 105.47 14.5495 105.182 14.5968C104.899 14.6397 104.621 14.6784 104.351 14.7127C104.084 14.7428 103.87 14.7686 103.706 14.7901C103.303 14.8416 102.918 14.9254 102.553 15.0414C102.192 15.1531 101.887 15.3228 101.638 15.5505C101.393 15.7739 101.24 16.0789 101.18 16.4655C101.09 16.9939 101.217 17.3935 101.561 17.6641C101.904 17.9305 102.379 18.0636 102.985 18.0636Z"
    fill="#8CDD00" />
</svg>
