<svg viewBox="0 0 20 20" fill="none" xmlns="http://www.w3.org/2000/svg">
<rect x="0.5" y="0.5" width="19" height="19" rx="9.5" fill="black"/>
<path d="M15 8.24988C15 9.87988 13.8 11.2249 12.24 11.4599V11.4299C12.085 9.48988 10.51 7.91488 8.55504 7.75988H8.54004C8.77504 6.19988 10.12 4.99988 11.75 4.99988C13.545 4.99988 15 6.45488 15 8.24988Z" fill="white"/>
<path d="M11.49 11.49C11.365 9.905 10.095 8.635 8.51 8.51C8.425 8.505 8.335 8.5 8.25 8.5C6.455 8.5 5 9.955 5 11.75C5 13.545 6.455 15 8.25 15C10.045 15 11.5 13.545 11.5 11.75C11.5 11.665 11.495 11.575 11.49 11.49ZM8.69 12.19L8.25 13L7.81 12.19L7 11.75L7.81 11.31L8.25 10.5L8.69 11.31L9.5 11.75L8.69 12.19Z" fill="white"/>
<rect x="0.5" y="0.5" width="19" height="19" rx="9.5" stroke="#F4F4F4"/>
</svg>
