<svg width="24" height="24" viewBox="0 0 24 24" fill="none" xmlns="http://www.w3.org/2000/svg">
<rect x="0.5" y="0.5" width="23" height="23" rx="11.5" fill="white"/>
<path d="M19.0005 9.55C19.0005 11.832 17.3205 13.715 15.1365 14.044V14.002C14.9195 11.286 12.7145 9.081 9.97754 8.864H9.95654C10.2855 6.68 12.1685 5 14.4505 5C16.9635 5 19.0005 7.037 19.0005 9.55Z" fill="#292D32"/>
<path d="M14.0865 14.0861C13.9115 11.8671 12.1335 10.0891 9.91449 9.91415C9.79549 9.90715 9.66949 9.90015 9.55049 9.90015C7.03749 9.90015 5.00049 11.9371 5.00049 14.4501C5.00049 16.9631 7.03749 19.0001 9.55049 19.0001C12.0635 19.0001 14.1005 16.9631 14.1005 14.4501C14.1005 14.3311 14.0935 14.2051 14.0865 14.0861ZM10.1665 15.0661L9.55049 16.2001L8.93449 15.0661L7.80049 14.4501L8.93449 13.8341L9.55049 12.7001L10.1665 13.8341L11.3005 14.4501L10.1665 15.0661Z" fill="#292D32"/>
<rect x="0.5" y="0.5" width="23" height="23" rx="11.5" stroke="#F4F4F4"/>
</svg>
