<svg width="24" height="24" viewBox="0 0 24 24" fill="none" xmlns="http://www.w3.org/2000/svg">
<circle cx="12" cy="12" r="11.5" fill="white" stroke="#F3F3F3"/>
<path d="M11.979 14.9246C14.5515 14.9246 16.6452 12.8313 16.6452 10.2583C16.6462 9.24852 16.318 8.26596 15.7104 7.45954C16.0007 7.24243 16.2365 6.96055 16.3987 6.63633C16.561 6.31211 16.6454 5.95449 16.6452 5.59192H11.979C9.4066 5.59192 7.3125 7.68528 7.3125 10.2583C7.3125 12.8313 9.4066 14.9246 11.979 14.9246ZM11.979 7.72778C13.3743 7.72778 14.5093 8.863 14.5093 10.2583C14.5093 11.6535 13.3743 12.7884 11.979 12.7884C10.5838 12.7884 9.44855 11.6532 9.44855 10.2581C9.44855 8.863 10.5838 7.72778 11.979 7.72778Z" fill="#00DF9B"/>
<path d="M11.9792 18.6287C9.83554 18.6287 7.69055 17.8124 6.05762 16.1801C6.19006 15.833 6.40172 15.5216 6.67573 15.2708C6.94974 15.02 7.27854 14.8366 7.63593 14.7352C8.80083 15.8628 10.3585 16.4933 11.9798 16.4933C13.601 16.4933 15.1588 15.8628 16.3237 14.7352C16.6809 14.8366 17.0096 15.0201 17.2835 15.2709C17.5575 15.5217 17.769 15.8331 17.9014 16.1801C16.2679 17.8124 14.1239 18.6287 11.9792 18.6287Z" fill="#2471FE"/>
</svg>
