<svg width="24" height="24" viewBox="0 0 24 24" fill="none" xmlns="http://www.w3.org/2000/svg">
<circle cx="12" cy="12" r="11.5" fill="white" stroke="#F3F3F3"/>
<path d="M16.0018 6H14.8618C13.5538 6 12.8638 6.69 12.8638 7.998V9.138C12.8638 10.446 13.5538 11.136 14.8618 11.136H16.0018C17.3098 11.136 17.9998 10.446 17.9998 9.138V7.998C17.9998 6.69 17.3098 6 16.0018 6Z" fill="black"/>
<path d="M9.144 12.8578H8.004C6.69 12.8578 6 13.5478 6 14.8558V15.9958C6 17.3098 6.69 17.9998 7.998 17.9998H9.138C10.446 17.9998 11.136 17.3098 11.136 16.0018V14.8618C11.142 13.5478 10.452 12.8578 9.144 12.8578Z" fill="black"/>
<path d="M8.574 11.148C9.99558 11.148 11.148 9.99558 11.148 8.574C11.148 7.15242 9.99558 6 8.574 6C7.15242 6 6 7.15242 6 8.574C6 9.99558 7.15242 11.148 8.574 11.148Z" fill="black"/>
<path d="M15.426 17.9999C16.8476 17.9999 18.0001 16.8475 18.0001 15.4259C18.0001 14.0043 16.8476 12.8519 15.426 12.8519C14.0045 12.8519 12.8521 14.0043 12.8521 15.4259C12.8521 16.8475 14.0045 17.9999 15.426 17.9999Z" fill="black"/>
</svg>
