<svg width="25" height="24" viewBox="0 0 25 24" fill="none" xmlns="http://www.w3.org/2000/svg">
<rect x="1" y="0.5" width="23" height="23" rx="11.5" fill="white"/>
<path d="M9.58274 11.025L11.5627 10.035C11.8327 9.90002 12.1027 9.54002 12.1477 9.24002L12.4477 7.44752C12.6427 6.30002 13.4677 6.03002 14.2927 6.85502L15.6952 8.25002C15.9277 8.48252 16.3852 8.61752 16.7152 8.54252L18.4477 8.14502C19.8127 7.83002 20.3452 8.55752 19.6327 9.76502L18.6352 11.445C18.4552 11.7525 18.4552 12.2475 18.6352 12.555L19.6252 14.2425C20.3377 15.45 19.8052 16.1775 18.4402 15.8625L16.7077 15.465C16.3852 15.39 15.9277 15.525 15.6877 15.7575L14.3002 17.145C13.4752 17.97 12.6427 17.7 12.4552 16.5525L12.1552 14.76C12.1027 14.46 11.8402 14.1 11.5702 13.965L9.59024 12.975C8.51024 12.4425 8.51024 11.5575 9.58274 11.025Z" fill="#FCC12D"/>
<path d="M10.8125 16.5C10.8125 16.8075 10.5575 17.0625 10.25 17.0625L5 17.0625C4.6925 17.0625 4.4375 16.8075 4.4375 16.5C4.4375 16.1925 4.6925 15.9375 5 15.9375L10.25 15.9375C10.5575 15.9375 10.8125 16.1925 10.8125 16.5Z" fill="#FCC12D"/>
<path d="M10.8125 7.5C10.8125 7.8075 10.5575 8.0625 10.25 8.0625L5 8.0625C4.6925 8.0625 4.4375 7.8075 4.4375 7.5C4.4375 7.1925 4.6925 6.9375 5 6.9375L10.25 6.9375C10.5575 6.9375 10.8125 7.1925 10.8125 7.5Z" fill="#FCC12D"/>
<path d="M7.0625 12C7.0625 12.3075 6.8075 12.5625 6.5 12.5625L5 12.5625C4.6925 12.5625 4.4375 12.3075 4.4375 12C4.4375 11.6925 4.6925 11.4375 5 11.4375L6.5 11.4375C6.8075 11.4375 7.0625 11.6925 7.0625 12Z" fill="#FCC12D"/>
<rect x="1" y="0.5" width="23" height="23" rx="11.5" stroke="#F4F4F4"/>
</svg>
