<svg width="25" height="24" viewBox="0 0 25 24" fill="none" xmlns="http://www.w3.org/2000/svg">
<rect x="1" y="0.5" width="23" height="23" rx="11.5" fill="white"/>
<path d="M13.6533 6.34L14.8267 8.68667C14.9867 9.01334 15.4133 9.32667 15.7733 9.38667L17.9 9.74C19.26 9.96667 19.58 10.9533 18.6 11.9267L16.9467 13.58C16.6667 13.86 16.5133 14.4 16.6 14.7867L17.0733 16.8333C17.4467 18.4533 16.5867 19.08 15.1533 18.2333L13.16 17.0533C12.8 16.84 12.2067 16.84 11.84 17.0533L9.84667 18.2333C8.42 19.08 7.55333 18.4467 7.92667 16.8333L8.4 14.7867C8.48667 14.4 8.33333 13.86 8.05333 13.58L6.4 11.9267C5.42667 10.9533 5.74 9.96667 7.1 9.74L9.22667 9.38667C9.58 9.32667 10.0067 9.01334 10.1667 8.68667L11.34 6.34C11.98 5.06667 13.02 5.06667 13.6533 6.34Z" fill="#FFA800"/>
<path d="M19.5667 15.8667C19.5667 16.4667 19.4 17.0333 19.1 17.5133C18.5467 18.44 17.5333 19.0666 16.3667 19.0666C15.2 19.0666 14.18 18.44 13.6333 17.5133C13.34 17.0333 13.1667 16.4667 13.1667 15.8667C13.1667 14.1 14.6 12.6667 16.3667 12.6667C18.1333 12.6667 19.5667 14.1 19.5667 15.8667Z" fill="#FFA800" stroke="white" stroke-width="0.5" stroke-miterlimit="10" stroke-linecap="round" stroke-linejoin="round"/>
<path d="M15.12 15.8667L15.9067 16.6533L17.6133 15.08" stroke="white" stroke-width="0.5" stroke-linecap="round" stroke-linejoin="round"/>
<rect x="1" y="0.5" width="23" height="23" rx="11.5" stroke="#F4F4F4"/>
</svg>
