<svg width="24" height="24" viewBox="0 0 24 24" fill="none" xmlns="http://www.w3.org/2000/svg">
<rect x="0.5" y="0.5" width="23" height="23" rx="11.5" fill="white"/>
<path d="M7.99839 5.99683V10.0031H4.99683L7.99839 5.99683Z" fill="#FCC12D"/>
<path d="M16 5.99683V10.0031L12.0453 5.99683H16Z" fill="#FFA800"/>
<path d="M19.0031 10.0031H16V5.99683L19.0031 10.0031Z" fill="#FCC12D"/>
<path d="M19.0031 10.0032L11.9875 18.0032L16 10.0032H19.0031ZM11.9875 18.0032L4.99683 10.0032H7.99839L11.9875 18.0032Z" fill="#FFA800"/>
<path d="M16 10.0032L11.9875 18.0032L7.99841 10.0032H16Z" fill="#FCC12D"/>
<path d="M12.0453 5.99683L7.99841 10.0031V5.99683H12.0453Z" fill="#FFA800"/>
<path d="M16 10.0031H7.99841L12.0453 5.99683L16 10.0031Z" fill="#FFF142"/>
<rect x="0.5" y="0.5" width="23" height="23" rx="11.5" stroke="#F4F4F4"/>
</svg>
