<svg width="24" height="24" viewBox="0 0 24 24" fill="none" xmlns="http://www.w3.org/2000/svg">
<path d="M11.8685 2.72893C11.6354 2.92143 11.2785 3.21528 10.2162 4.22412C8.93077 5.44353 8.15385 7.15714 8.15385 9.00668V15.484C8.15385 16.2878 8.51077 17.1261 8.95692 17.867C9.17 18.2206 9.56923 18.7808 9.96462 19.3001C10.16 19.5563 10.3485 19.7951 10.5031 19.9837C10.59 20.0885 10.6792 20.1912 10.7708 20.2917L10.7923 20.3137L10.8 20.3215C10.9892 20.4944 11.1315 20.5816 11.2308 20.6201V18.2858C11.2308 18.1826 11.2507 18.0804 11.2893 17.9851C11.328 17.8898 11.3846 17.8032 11.4561 17.7302C11.5275 17.6573 11.6123 17.5994 11.7056 17.5599C11.799 17.5204 11.899 17.5001 12 17.5001C12.101 17.5001 12.201 17.5204 12.2944 17.5599C12.3877 17.5994 12.4725 17.6573 12.5439 17.7302C12.6154 17.8032 12.672 17.8898 12.7107 17.9851C12.7493 18.0804 12.7692 18.1826 12.7692 18.2858V20.6185C12.8677 20.5808 13.0092 20.4936 13.2031 20.3176L13.2292 20.2909L13.2954 20.2186C13.3492 20.1581 13.4154 20.0796 13.4923 19.9853C13.6462 19.7967 13.8323 19.5586 14.0269 19.3017C14.386 18.8326 14.7272 18.3495 15.05 17.8537C15.5038 17.1324 15.8462 16.2933 15.8462 15.4832V9.00668C15.8462 7.15871 15.0638 5.44431 13.7831 4.22412C12.7254 3.21607 12.3692 2.92379 12.1346 2.73129L12 2.62051L11.8685 2.7305V2.72893ZM14.2254 21.4922C13.9192 21.7696 13.4123 22.1687 12.7692 22.2112V22.2143C12.7692 22.3175 12.7493 22.4196 12.7107 22.515C12.672 22.6103 12.6154 22.6969 12.5439 22.7699C12.4725 22.8428 12.3877 22.9007 12.2944 22.9402C12.201 22.9797 12.101 23 12 23C11.899 23 11.799 22.9797 11.7056 22.9402C11.6123 22.9007 11.5275 22.8428 11.4561 22.7699C11.3846 22.6969 11.328 22.6103 11.2893 22.515C11.2507 22.4196 11.2308 22.3175 11.2308 22.2143V22.2104C10.5877 22.1687 10.0792 21.7712 9.77231 21.4899C9.56 21.2958 9.13769 20.7725 8.75077 20.2642C8.36077 19.7527 7.93308 19.1587 7.67077 18.7305L4.35231 19.5068C4.07058 19.5727 3.77793 19.5728 3.49612 19.5073C3.21431 19.4418 2.95059 19.3122 2.72456 19.1282C2.49853 18.9442 2.31601 18.7106 2.19057 18.4446C2.06513 18.1787 1.99999 17.8872 2 17.592V14.7501C1.99995 13.4636 2.47527 12.2245 3.33094 11.2805C4.1866 10.3364 5.35958 9.75699 6.61539 9.65802V9.00589C6.61539 6.69908 7.58692 4.57533 9.16923 3.07386C10.2862 2.01237 10.7038 1.66824 10.9246 1.48674C10.9869 1.43567 11.0338 1.39717 11.0754 1.35946C11.6085 0.880181 12.3908 0.880181 12.9246 1.35946C12.9654 1.39639 13.0115 1.4341 13.0731 1.48517C13.2946 1.66588 13.7169 2.01159 14.8323 3.07464C16.4077 4.57533 17.3846 6.69829 17.3846 9.00589V9.65802C18.6404 9.75699 19.8134 10.3364 20.6691 11.2805C21.5247 12.2245 22.0001 13.4636 22 14.7501V17.592C22 17.8872 21.9349 18.1787 21.8094 18.4446C21.684 18.7106 21.5015 18.9442 21.2754 19.1282C21.0494 19.3122 20.7857 19.4418 20.5039 19.5073C20.2221 19.5728 19.9294 19.5727 19.6477 19.5068L16.3285 18.7297C16.0623 19.1501 15.6362 19.7441 15.2438 20.2626C15.0415 20.5298 14.8438 20.7843 14.6731 20.9925C14.5162 21.1842 14.35 21.3783 14.2254 21.4922V21.4922ZM17.3846 11.2365V15.4832C17.3846 16.1181 17.25 16.7278 17.0469 17.2864L19.9908 17.9754C20.0472 17.9887 20.1058 17.9888 20.1622 17.9756C20.2186 17.9625 20.2715 17.9366 20.3167 17.8997C20.362 17.8629 20.3985 17.8161 20.4236 17.7628C20.4486 17.7095 20.4616 17.6511 20.4615 17.592V14.7501C20.4617 13.8803 20.148 13.041 19.5803 12.3926C19.0126 11.7442 18.2309 11.3324 17.3846 11.2357V11.2365ZM6.96 17.2832C6.75615 16.7301 6.61539 16.1204 6.61539 15.484V11.2373C5.76935 11.3339 4.98783 11.7456 4.42021 12.3936C3.85259 13.0416 3.53868 13.8806 3.53846 14.7501V17.592C3.53838 17.6511 3.55136 17.7095 3.57644 17.7628C3.60151 17.8161 3.63804 17.8629 3.68329 17.8997C3.72854 17.9366 3.78135 17.9625 3.83779 17.9756C3.89422 17.9888 3.95283 17.9887 4.00923 17.9754L6.96 17.284V17.2832ZM6.61539 19.8572C6.7164 19.8572 6.81643 19.8775 6.90976 19.917C7.00308 19.9565 7.08788 20.0144 7.15931 20.0873C7.23074 20.1603 7.2874 20.2469 7.32606 20.3422C7.36472 20.4376 7.38462 20.5397 7.38462 20.6429V22.2143C7.38462 22.3175 7.36472 22.4196 7.32606 22.515C7.2874 22.6103 7.23074 22.6969 7.15931 22.7699C7.08788 22.8428 7.00308 22.9007 6.90976 22.9402C6.81643 22.9797 6.7164 23 6.61539 23C6.51437 23 6.41434 22.9797 6.32101 22.9402C6.22769 22.9007 6.14289 22.8428 6.07146 22.7699C6.00003 22.6969 5.94337 22.6103 5.90471 22.515C5.86605 22.4196 5.84615 22.3175 5.84615 22.2143V20.6429C5.84615 20.5397 5.86605 20.4376 5.90471 20.3422C5.94337 20.2469 6.00003 20.1603 6.07146 20.0873C6.14289 20.0144 6.22769 19.9565 6.32101 19.917C6.41434 19.8775 6.51437 19.8572 6.61539 19.8572V19.8572ZM17.3846 19.8572C17.4856 19.8572 17.5857 19.8775 17.679 19.917C17.7723 19.9565 17.8571 20.0144 17.9285 20.0873C18 20.1603 18.0566 20.2469 18.0953 20.3422C18.134 20.4376 18.1538 20.5397 18.1538 20.6429V22.2143C18.1538 22.4227 18.0728 22.6225 17.9285 22.7699C17.7843 22.9172 17.5886 23 17.3846 23C17.1806 23 16.9849 22.9172 16.8407 22.7699C16.6964 22.6225 16.6154 22.4227 16.6154 22.2143V20.6429C16.6154 20.5397 16.6353 20.4376 16.6739 20.3422C16.7126 20.2469 16.7693 20.1603 16.8407 20.0873C16.9121 20.0144 16.9969 19.9565 17.0902 19.917C17.1836 19.8775 17.2836 19.8572 17.3846 19.8572V19.8572ZM11.2308 8.8574C11.2308 8.64902 11.3118 8.44917 11.4561 8.30182C11.6003 8.15447 11.796 8.0717 12 8.0717C12.204 8.0717 12.3997 8.15447 12.5439 8.30182C12.6882 8.44917 12.7692 8.64902 12.7692 8.8574C12.7692 9.06578 12.6882 9.26562 12.5439 9.41297C12.3997 9.56032 12.204 9.6431 12 9.6431C11.796 9.6431 11.6003 9.56032 11.4561 9.41297C11.3118 9.26562 11.2308 9.06578 11.2308 8.8574V8.8574ZM12 6.5003C11.388 6.5003 10.801 6.74863 10.3682 7.19067C9.93544 7.63272 9.69231 8.23225 9.69231 8.8574C9.69231 9.48254 9.93544 10.0821 10.3682 10.5241C10.801 10.9662 11.388 11.2145 12 11.2145C12.612 11.2145 13.199 10.9662 13.6318 10.5241C14.0646 10.0821 14.3077 9.48254 14.3077 8.8574C14.3077 8.23225 14.0646 7.63272 13.6318 7.19067C13.199 6.74863 12.612 6.5003 12 6.5003Z" fill="#4E51F4"/>
</svg>
