<svg width="21" height="20" viewBox="0 0 21 20" fill="none" xmlns="http://www.w3.org/2000/svg">
<path d="M17.9585 15.3917L16.5835 15.7167C16.2752 15.7917 16.0335 16.025 15.9669 16.3333L15.6752 17.5583C15.5169 18.225 14.6669 18.4333 14.2252 17.9083L11.7335 15.0417C11.5335 14.8083 11.6419 14.4417 11.9419 14.3667C13.4169 14.0083 14.7419 13.1833 15.7169 12.0083C15.8752 11.8167 16.1585 11.7917 16.3335 11.9667L18.1835 13.8167C18.8169 14.45 18.5919 15.2417 17.9585 15.3917Z" fill="black"/>
<path d="M2.50014 15.3917L3.87514 15.7167C4.18347 15.7917 4.42514 16.025 4.4918 16.3333L4.78347 17.5583C4.9418 18.225 5.7918 18.4333 6.23347 17.9083L8.72514 15.0417C8.92514 14.8083 8.8168 14.4417 8.5168 14.3667C7.0418 14.0083 5.7168 13.1833 4.7418 12.0083C4.58347 11.8167 4.30014 11.7917 4.12514 11.9667L2.27514 13.8167C1.6418 14.45 1.8668 15.2417 2.50014 15.3917Z" fill="black"/>
<path d="M10.2498 1.66675C7.02484 1.66675 4.4165 4.27508 4.4165 7.50008C4.4165 8.70842 4.77484 9.81675 5.3915 10.7417C6.2915 12.0751 7.7165 13.0167 9.37484 13.2584C9.65817 13.3084 9.94984 13.3334 10.2498 13.3334C10.5498 13.3334 10.8415 13.3084 11.1248 13.2584C12.7832 13.0167 14.2082 12.0751 15.1082 10.7417C15.7248 9.81675 16.0832 8.70842 16.0832 7.50008C16.0832 4.27508 13.4748 1.66675 10.2498 1.66675ZM12.7998 7.31675L12.1082 8.00841C11.9915 8.12508 11.9248 8.35008 11.9665 8.51675L12.1665 9.37508C12.3248 10.0501 11.9665 10.3167 11.3665 9.95842L10.5332 9.46675C10.3832 9.37508 10.1332 9.37508 9.98317 9.46675L9.14984 9.95842C8.54984 10.3084 8.1915 10.0501 8.34984 9.37508L8.54984 8.51675C8.58317 8.35842 8.52484 8.12508 8.40817 8.00841L7.69984 7.31675C7.2915 6.90841 7.42484 6.50008 7.9915 6.40841L8.88317 6.25842C9.03317 6.23342 9.20817 6.10008 9.27484 5.96675L9.7665 4.98341C10.0332 4.45008 10.4665 4.45008 10.7332 4.98341L11.2248 5.96675C11.2915 6.10008 11.4665 6.23342 11.6248 6.25842L12.5165 6.40841C13.0748 6.50008 13.2082 6.90841 12.7998 7.31675Z" fill="black"/>
</svg>
