<svg viewBox="0 0 1280 720" fill="none" xmlns="http://www.w3.org/2000/svg">
  <mask id="mask0_19_1204" style="mask-type:alpha" maskUnits="userSpaceOnUse" x="0" y="0" width="1280" height="720">
    <rect width="1280" height="720" fill="white"/>
  </mask>
  <g mask="url(#mask0_19_1204)">
    <g opacity="0.6">
      <path fill-rule="evenodd" clip-rule="evenodd" d="M318.563 -229.66C318.632 -229.66 318.688 -229.604 318.688 -229.535V541.23C318.688 541.283 318.655 541.33 318.606 541.348L-78.8322 685.929C-78.8971 685.953 -78.9688 685.919 -78.9924 685.855C-79.016 685.79 -78.9826 685.718 -78.9177 685.694L318.438 541.143V-229.535C318.438 -229.604 318.494 -229.66 318.563 -229.66ZM382.931 -229.66C383 -229.66 383.056 -229.604 383.056 -229.535V541.23C383.056 541.251 383.051 541.27 383.042 541.288C383.034 541.304 383.022 541.318 383.008 541.329C383 541.335 382.992 541.34 382.983 541.344L-78.8232 751.334C-78.8861 751.362 -78.9602 751.335 -78.9888 751.272C-79.0173 751.209 -78.9896 751.135 -78.9267 751.106L382.806 541.15V-229.535C382.806 -229.604 382.862 -229.66 382.931 -229.66ZM447.424 -229.535C447.424 -229.604 447.368 -229.66 447.299 -229.66C447.23 -229.66 447.174 -229.604 447.174 -229.535V541.16L-78.9398 860.086C-78.9988 860.122 -79.0176 860.198 -78.9819 860.257C-78.9461 860.317 -78.8692 860.335 -78.8102 860.3L447.364 541.337C447.392 541.32 447.412 541.293 447.42 541.262C447.421 541.258 447.422 541.253 447.423 541.249C447.424 541.243 447.424 541.236 447.424 541.23V-229.535ZM511.667 -229.659C511.736 -229.659 511.792 -229.603 511.792 -229.534V541.231C511.792 541.266 511.777 541.3 511.751 541.324L-78.5012 1077.85C-78.5523 1077.89 -78.6314 1077.89 -78.6778 1077.84C-78.7242 1077.79 -78.7205 1077.71 -78.6694 1077.66L511.542 541.176V-229.534C511.542 -229.603 511.598 -229.659 511.667 -229.659ZM576.162 -229.534C576.162 -229.603 576.106 -229.659 576.037 -229.659C575.968 -229.659 575.912 -229.603 575.912 -229.534V541.199L280.556 1077.69C280.54 1077.72 280.537 1077.76 280.545 1077.79C280.553 1077.82 280.574 1077.85 280.605 1077.86C280.629 1077.88 280.656 1077.88 280.681 1077.88C280.692 1077.88 280.703 1077.87 280.713 1077.87C280.739 1077.86 280.761 1077.84 280.775 1077.81L576.146 541.292C576.149 541.287 576.151 541.282 576.153 541.278C576.159 541.263 576.162 541.247 576.162 541.231V-229.534ZM640.405 -229.659C640.474 -229.659 640.53 -229.603 640.53 -229.534V541.231L640.04 1077.75C640.039 1077.82 639.983 1077.88 639.914 1077.88C639.845 1077.88 639.789 1077.82 639.79 1077.75L640.28 541.231V-229.534C640.28 -229.603 640.336 -229.659 640.405 -229.659ZM704.92 -229.534C704.92 -229.603 704.864 -229.659 704.795 -229.659C704.726 -229.659 704.67 -229.603 704.67 -229.534V541.231C704.67 541.242 704.671 541.252 704.674 541.262C704.675 541.266 704.676 541.27 704.678 541.274C704.68 541.28 704.682 541.286 704.685 541.291L999.032 1077.81C999.041 1077.83 999.054 1077.85 999.068 1077.86C999.084 1077.87 999.104 1077.88 999.123 1077.88C999.128 1077.88 999.133 1077.88 999.138 1077.88C999.141 1077.88 999.144 1077.88 999.147 1077.88L999.15 1077.88C999.167 1077.88 999.185 1077.87 999.202 1077.86C999.262 1077.83 999.284 1077.75 999.251 1077.69L704.92 541.199V-229.534ZM769.163 -229.659C769.232 -229.659 769.288 -229.603 769.288 -229.534V541.176L1358.48 1077.66C1358.5 1077.68 1358.51 1077.71 1358.52 1077.74C1358.52 1077.78 1358.51 1077.81 1358.48 1077.84C1358.46 1077.86 1358.43 1077.88 1358.4 1077.88C1358.36 1077.88 1358.33 1077.87 1358.31 1077.85L769.079 541.324C769.053 541.3 769.038 541.266 769.038 541.231V-229.534C769.038 -229.603 769.094 -229.659 769.163 -229.659ZM833.655 -229.534C833.655 -229.603 833.599 -229.659 833.53 -229.659C833.461 -229.659 833.405 -229.603 833.405 -229.534V541.231C833.405 541.275 833.428 541.315 833.465 541.338L1359.86 860.786C1359.92 860.822 1360 860.803 1360.03 860.744C1360.05 860.716 1360.06 860.685 1360.05 860.655C1360.04 860.622 1360.02 860.591 1359.99 860.572L833.655 541.161V-229.534ZM897.899 -229.659C897.968 -229.659 898.024 -229.603 898.024 -229.534V541.151L1359.98 751.39C1360.04 751.419 1360.07 751.493 1360.04 751.556C1360.04 751.567 1360.03 751.577 1360.02 751.586C1360.02 751.592 1360.01 751.597 1360.01 751.602C1359.97 751.63 1359.92 751.638 1359.88 751.618L897.847 541.345C897.831 541.338 897.817 541.327 897.806 541.315C897.786 541.292 897.774 541.263 897.774 541.231V-229.534C897.774 -229.603 897.83 -229.659 897.899 -229.659ZM962.392 -229.534C962.392 -229.603 962.336 -229.659 962.267 -229.659C962.198 -229.659 962.142 -229.603 962.142 -229.534V541.231C962.142 541.284 962.175 541.331 962.225 541.349L1359.89 686.113C1359.92 686.125 1359.95 686.122 1359.98 686.107C1360.01 686.093 1360.03 686.069 1360.05 686.038C1360.07 685.973 1360.04 685.901 1359.97 685.878L962.392 541.144V-229.534ZM1026.66 -229.659C1026.73 -229.659 1026.78 -229.603 1026.78 -229.534V541.138L1359.96 642.209C1360.03 642.229 1360.07 642.299 1360.05 642.365C1360.04 642.396 1360.02 642.42 1359.99 642.436L1359.99 642.439L1359.98 642.443C1359.97 642.449 1359.95 642.453 1359.94 642.454C1359.92 642.455 1359.91 642.453 1359.89 642.449L1026.62 541.351C1026.57 541.335 1026.53 541.286 1026.53 541.231V-229.534C1026.53 -229.603 1026.59 -229.659 1026.66 -229.659ZM1091.15 -229.534C1091.15 -229.603 1091.09 -229.659 1091.03 -229.659C1090.96 -229.659 1090.9 -229.603 1090.9 -229.534V541.231C1090.9 541.288 1090.94 541.338 1090.99 541.352L1359.9 611.274C1359.96 611.292 1360.03 611.252 1360.05 611.185C1360.06 611.156 1360.05 611.126 1360.04 611.101C1360.04 611.095 1360.04 611.089 1360.03 611.084C1360.02 611.071 1360.01 611.06 1360 611.051C1359.99 611.043 1359.97 611.036 1359.96 611.032L1091.15 541.134V-229.534ZM1155.39 -229.659C1155.46 -229.659 1155.52 -229.603 1155.52 -229.534V541.131L1359.96 587.65C1360.02 587.665 1360.06 587.732 1360.05 587.8C1360.03 587.867 1359.97 587.909 1359.9 587.894L1155.37 541.353C1155.31 541.34 1155.27 541.29 1155.27 541.231V-229.534C1155.27 -229.603 1155.32 -229.659 1155.39 -229.659ZM1219.89 -229.534C1219.89 -229.603 1219.83 -229.659 1219.76 -229.659C1219.69 -229.659 1219.64 -229.603 1219.64 -229.534V541.231C1219.64 541.291 1219.68 541.342 1219.74 541.354L1359.9 569.695C1359.97 569.709 1360.04 569.665 1360.05 569.597C1360.06 569.53 1360.02 569.464 1359.95 569.45L1219.89 541.129V-229.534ZM1284.13 -229.659C1284.2 -229.659 1284.25 -229.603 1284.25 -229.534V541.127L1359.95 554.914C1359.95 554.915 1359.96 554.916 1359.96 554.918L1359.97 554.921C1359.98 554.924 1359.99 554.928 1360 554.933C1360.04 554.959 1360.06 555.009 1360.05 555.06C1360.04 555.128 1359.97 555.173 1359.91 555.16L1284.11 541.354C1284.05 541.343 1284 541.292 1284 541.231V-229.534C1284 -229.603 1284.06 -229.659 1284.13 -229.659ZM1348.62 -229.534C1348.62 -229.603 1348.57 -229.659 1348.5 -229.659C1348.43 -229.659 1348.37 -229.603 1348.37 -229.534V541.231C1348.37 541.292 1348.42 541.344 1348.48 541.354L1359.91 543.257C1359.98 543.269 1360.04 543.223 1360.05 543.155C1360.06 543.123 1360.05 543.093 1360.03 543.068C1360.02 543.038 1359.99 543.017 1359.95 543.011L1348.62 541.125V-229.534ZM189.805 -229.66C189.874 -229.66 189.93 -229.604 189.93 -229.535V541.23C189.93 541.287 189.891 541.337 189.836 541.351L-78.8435 611.172C-78.9103 611.19 -78.9786 611.15 -78.9959 611.083C-79.0133 611.016 -78.9732 610.948 -78.9064 610.93L189.68 541.133V-229.535C189.68 -229.604 189.735 -229.66 189.805 -229.66ZM254.298 -229.535C254.298 -229.604 254.242 -229.66 254.173 -229.66C254.104 -229.66 254.048 -229.604 254.048 -229.535V541.138L-78.9112 642.087C-78.9773 642.107 -79.0146 642.177 -78.9946 642.243C-78.9746 642.309 -78.9048 642.346 -78.8387 642.326L254.209 541.35C254.23 541.343 254.249 541.332 254.263 541.316C254.285 541.293 254.298 541.263 254.298 541.23V-229.535ZM125.436 -229.66C125.505 -229.66 125.561 -229.604 125.561 -229.535V541.23C125.561 541.266 125.546 541.3 125.52 541.323C125.516 541.327 125.512 541.33 125.507 541.334C125.502 541.337 125.496 541.34 125.491 541.343C125.482 541.347 125.473 541.35 125.464 541.352L-78.8472 587.812C-78.9146 587.827 -78.9815 587.785 -78.9969 587.718C-79.0122 587.65 -78.97 587.583 -78.9027 587.568L125.311 541.13V-229.535C125.311 -229.604 125.367 -229.66 125.436 -229.66ZM61.1933 -229.535C61.1933 -229.604 61.1373 -229.66 61.0683 -229.66C60.9992 -229.66 60.9433 -229.604 60.9433 -229.535V541.128L-78.8997 569.388C-78.9674 569.402 -79.0112 569.468 -78.9975 569.536C-78.9838 569.603 -78.9179 569.647 -78.8502 569.633L61.093 541.353C61.1514 541.341 61.1933 541.29 61.1933 541.23V-229.535ZM-3.29982 -229.66C-3.23078 -229.66 -3.17482 -229.604 -3.17482 -229.535V541.23C-3.17482 541.291 -3.21802 541.342 -3.27745 541.353L-78.8526 555.099C-78.9205 555.111 -78.9856 555.066 -78.9979 554.998C-79.0103 554.93 -78.9653 554.865 -78.8973 554.853L-3.42482 541.126V-229.535C-3.42482 -229.604 -3.36885 -229.66 -3.29982 -229.66ZM-67.5652 -229.535C-67.5652 -229.604 -67.6212 -229.66 -67.6902 -229.66C-67.7592 -229.66 -67.8152 -229.604 -67.8152 -229.535V541.124L-78.8955 542.969C-78.9636 542.981 -79.0096 543.045 -78.9983 543.113C-78.9869 543.181 -78.9225 543.227 -78.8544 543.216L-67.6697 541.354C-67.6094 541.344 -67.5652 541.291 -67.5652 541.23V-229.535Z" fill="url(#paint0_linear_19_1204)"/>
      <path fill-rule="evenodd" clip-rule="evenodd" d="M-78.875 -219.234C-78.944 -219.234 -79 -219.178 -79 -219.109C-79 -219.04 -78.944 -218.984 -78.875 -218.984H1359.93C1360 -218.984 1360.05 -219.04 1360.05 -219.109C1360.05 -219.178 1360 -219.234 1359.93 -219.234H-78.875ZM-78.9992 -160.624C-78.9992 -160.693 -78.9432 -160.749 -78.8742 -160.749H1359.93C1360 -160.749 1360.05 -160.693 1360.05 -160.624C1360.05 -160.555 1360 -160.499 1359.93 -160.499H-78.8742C-78.9432 -160.499 -78.9992 -160.555 -78.9992 -160.624ZM-78.8742 -102.265C-78.9432 -102.265 -78.9992 -102.209 -78.9992 -102.14C-78.9992 -102.071 -78.9432 -102.015 -78.8742 -102.015H1359.93C1360 -102.015 1360.05 -102.071 1360.05 -102.14C1360.05 -102.209 1360 -102.265 1359.93 -102.265H-78.8742ZM-78.9992 -43.6348C-78.9992 -43.7038 -78.9432 -43.7598 -78.8742 -43.7598H1359.93C1360 -43.7598 1360.05 -43.7038 1360.05 -43.6348C1360.05 -43.5658 1360 -43.5098 1359.93 -43.5098H-78.8742C-78.9432 -43.5098 -78.9992 -43.5658 -78.9992 -43.6348ZM-78.8742 14.7246C-78.9432 14.7246 -78.9992 14.7806 -78.9992 14.8496C-78.9992 14.9186 -78.9432 14.9746 -78.8742 14.9746H1359.93C1359.96 14.9746 1359.99 14.9637 1360.01 14.9457C1360.04 14.9228 1360.05 14.8882 1360.05 14.8496C1360.05 14.7806 1360 14.7246 1359.93 14.7246H-78.8742ZM-78.9992 73.3344C-78.9992 73.2654 -78.9432 73.2094 -78.8742 73.2094H1359.93C1360 73.2094 1360.05 73.2654 1360.05 73.3344C1360.05 73.4034 1360 73.4594 1359.93 73.4594H-78.8742C-78.9432 73.4594 -78.9992 73.4034 -78.9992 73.3344ZM-78.8742 131.693C-78.9432 131.693 -78.9992 131.749 -78.9992 131.818C-78.9992 131.887 -78.9432 131.943 -78.8742 131.943H1359.93C1359.97 131.943 1360 131.926 1360.02 131.899C1360.04 131.877 1360.05 131.849 1360.05 131.818C1360.05 131.799 1360.05 131.781 1360.04 131.765C1360.02 131.723 1359.98 131.693 1359.93 131.693H-78.8742ZM-78.9992 190.303C-78.9992 190.234 -78.9432 190.178 -78.8742 190.178H1359.93C1360 190.178 1360.05 190.234 1360.05 190.303C1360.05 190.372 1360 190.428 1359.93 190.428H-78.8742C-78.9432 190.428 -78.9992 190.372 -78.9992 190.303ZM-78.8742 248.663C-78.9432 248.663 -78.9992 248.719 -78.9992 248.788C-78.9992 248.857 -78.9432 248.913 -78.8742 248.913H1359.93C1360 248.913 1360.05 248.857 1360.05 248.788C1360.05 248.719 1360 248.663 1359.93 248.663H-78.8742ZM-78.9992 307.293C-78.9992 307.224 -78.9432 307.168 -78.8742 307.168H1359.93C1360 307.168 1360.05 307.224 1360.05 307.293C1360.05 307.308 1360.05 307.323 1360.04 307.337L1360.04 307.344L1360.04 307.351C1360.04 307.357 1360.03 307.361 1360.03 307.366C1360.01 307.397 1359.97 307.418 1359.93 307.418H-78.8742C-78.9432 307.418 -78.9992 307.362 -78.9992 307.293ZM-78.8742 365.652C-78.9432 365.652 -78.9992 365.708 -78.9992 365.777C-78.9992 365.846 -78.9432 365.902 -78.8742 365.902H1359.93C1360 365.902 1360.05 365.846 1360.05 365.777C1360.05 365.708 1360 365.652 1359.93 365.652H-78.8742ZM-78.9992 424.262C-78.9992 424.193 -78.9432 424.137 -78.8742 424.137H1359.93C1360 424.137 1360.05 424.193 1360.05 424.262C1360.05 424.331 1360 424.387 1359.93 424.387H-78.8742C-78.9432 424.387 -78.9992 424.331 -78.9992 424.262ZM-78.9992 482.746C-78.9992 482.677 -78.9432 482.621 -78.8742 482.621H1359.93C1359.94 482.621 1359.96 482.624 1359.97 482.629C1360.02 482.647 1360.05 482.693 1360.05 482.746C1360.05 482.815 1360 482.871 1359.93 482.871H-78.8742C-78.9432 482.871 -78.9992 482.815 -78.9992 482.746ZM-78.9992 798.551C-78.9992 798.482 -78.9432 798.426 -78.8742 798.426H1359.93C1359.94 798.426 1359.94 798.426 1359.95 798.428L1359.96 798.429C1359.98 798.434 1359.99 798.443 1360.01 798.455C1360.04 798.478 1360.05 798.512 1360.05 798.551C1360.05 798.62 1360 798.676 1359.93 798.676H-78.8742C-78.9432 798.676 -78.9992 798.62 -78.9992 798.551ZM-78.8742 753.221C-78.9432 753.221 -78.9992 753.277 -78.9992 753.346C-78.9992 753.415 -78.9432 753.471 -78.8742 753.471H1359.93C1360 753.471 1360.05 753.415 1360.05 753.346C1360.05 753.308 1360.04 753.275 1360.01 753.252C1359.99 753.232 1359.96 753.221 1359.93 753.221H-78.8742ZM-78.9992 717.879C-78.9992 717.81 -78.9432 717.754 -78.8742 717.754H1359.93C1360 717.754 1360.05 717.81 1360.05 717.879C1360.05 717.91 1360.04 717.939 1360.02 717.961C1360 717.987 1359.97 718.004 1359.93 718.004H-78.8742C-78.9432 718.004 -78.9992 717.948 -78.9992 717.879ZM-78.8742 858.023C-78.9432 858.023 -78.9992 858.079 -78.9992 858.148C-78.9992 858.217 -78.9432 858.273 -78.8742 858.273H1359.93C1359.96 858.273 1359.99 858.261 1360.01 858.242C1360.04 858.219 1360.05 858.185 1360.05 858.148C1360.05 858.079 1360 858.023 1359.93 858.023H-78.8742ZM-78.9992 689.315C-78.9992 689.246 -78.9432 689.19 -78.8742 689.19H1359.93C1360 689.19 1360.05 689.246 1360.05 689.315C1360.05 689.384 1360 689.44 1359.93 689.44H-78.8742C-78.9432 689.44 -78.9992 689.384 -78.9992 689.315ZM-78.8742 665.686C-78.9432 665.686 -78.9992 665.742 -78.9992 665.811C-78.9992 665.88 -78.9432 665.936 -78.8742 665.936H1359.93C1360 665.936 1360.05 665.88 1360.05 665.811C1360.05 665.742 1360 665.686 1359.93 665.686H-78.8742ZM-78.9992 546.494C-78.9992 546.425 -78.9432 546.369 -78.8742 546.369H1359.93C1360 546.369 1360.05 546.425 1360.05 546.494C1360.05 546.532 1360.04 546.566 1360.01 546.589C1359.99 546.607 1359.96 546.619 1359.93 546.619H-78.8742C-78.9432 546.619 -78.9992 546.563 -78.9992 546.494ZM-78.8742 541.106C-78.9432 541.106 -78.9992 541.161 -78.9992 541.231C-78.9992 541.3 -78.9432 541.356 -78.8742 541.356H1359.93C1360 541.356 1360.05 541.3 1360.05 541.231C1360.05 541.161 1360 541.106 1359.93 541.106H-78.8742ZM-78.9992 558.559C-78.9992 558.49 -78.9432 558.434 -78.8742 558.434H1359.93C1360 558.434 1360.05 558.49 1360.05 558.559C1360.05 558.628 1360 558.684 1359.93 558.684H-78.8742C-78.9432 558.684 -78.9992 558.628 -78.9992 558.559ZM-78.8742 552.118C-78.9432 552.118 -78.9992 552.174 -78.9992 552.243C-78.9992 552.312 -78.9432 552.368 -78.8742 552.368H1359.93C1360 552.368 1360.05 552.312 1360.05 552.243C1360.05 552.226 1360.05 552.21 1360.04 552.196C1360.04 552.181 1360.03 552.168 1360.02 552.157C1360.02 552.154 1360.01 552.151 1360.01 552.148C1359.99 552.13 1359.96 552.118 1359.93 552.118H-78.8742ZM-78.9992 615.04C-78.9992 614.971 -78.9432 614.915 -78.8742 614.915H1359.93C1360 614.915 1360.05 614.971 1360.05 615.04C1360.05 615.109 1360 615.165 1359.93 615.165H-78.8742C-78.9432 615.165 -78.9992 615.109 -78.9992 615.04ZM-78.8742 646.009C-78.9432 646.009 -78.9992 646.065 -78.9992 646.134C-78.9992 646.203 -78.9432 646.259 -78.8742 646.259H1359.93C1360 646.259 1360.05 646.203 1360.05 646.134C1360.05 646.065 1360 646.009 1359.93 646.009H-78.8742ZM-78.9992 940.318C-78.9992 940.249 -78.9432 940.193 -78.8742 940.193H1359.93C1360 940.193 1360.05 940.249 1360.05 940.318C1360.05 940.387 1360 940.443 1359.93 940.443H-78.8742C-78.9432 940.443 -78.9992 940.387 -78.9992 940.318ZM-78.8742 573.152C-78.9432 573.152 -78.9992 573.208 -78.9992 573.277C-78.9992 573.346 -78.9432 573.402 -78.8742 573.402H1359.93C1360 573.402 1360.05 573.346 1360.05 573.277C1360.05 573.208 1360 573.152 1359.93 573.152H-78.8742ZM-78.9992 565.523C-78.9992 565.454 -78.9432 565.398 -78.8742 565.398H1359.93C1359.96 565.398 1359.99 565.412 1360.02 565.435C1360.04 565.458 1360.05 565.489 1360.05 565.523C1360.05 565.562 1360.03 565.598 1360.01 565.62C1359.99 565.638 1359.96 565.648 1359.93 565.648H-78.8742C-78.9432 565.648 -78.9992 565.592 -78.9992 565.523ZM-78.8742 602.424C-78.9432 602.424 -78.9992 602.48 -78.9992 602.549C-78.9992 602.618 -78.9432 602.674 -78.8742 602.674H1359.93C1359.93 602.674 1359.94 602.674 1359.95 602.673C1359.95 602.672 1359.96 602.67 1359.97 602.668C1359.97 602.666 1359.98 602.663 1359.99 602.659C1359.99 602.656 1360 602.652 1360.01 602.647C1360.03 602.624 1360.05 602.589 1360.05 602.549C1360.05 602.48 1360 602.424 1359.93 602.424H-78.8742ZM-78.9992 591.577C-78.9992 591.508 -78.9432 591.452 -78.8742 591.452H1359.93C1359.96 591.452 1360 591.468 1360.02 591.493C1360.04 591.515 1360.05 591.545 1360.05 591.577C1360.05 591.646 1360 591.702 1359.93 591.702H-78.8742C-78.9432 591.702 -78.9992 591.646 -78.9992 591.577ZM-78.8742 581.775C-78.9432 581.775 -78.9992 581.831 -78.9992 581.9C-78.9992 581.969 -78.9432 582.025 -78.8742 582.025H1359.93C1360 582.025 1360.05 581.969 1360.05 581.9C1360.05 581.858 1360.03 581.821 1360 581.799C1359.98 581.784 1359.96 581.775 1359.93 581.775H-78.8742ZM-78.9992 629.413C-78.9992 629.344 -78.9432 629.288 -78.8742 629.288H1359.93C1359.97 629.288 1360.01 629.311 1360.03 629.346C1360.05 629.366 1360.05 629.388 1360.05 629.413C1360.05 629.482 1360 629.538 1359.93 629.538H-78.8742C-78.9432 629.538 -78.9992 629.482 -78.9992 629.413ZM-78.5853 1077.63C-78.6543 1077.63 -78.7103 1077.68 -78.7103 1077.75C-78.7103 1077.82 -78.6543 1077.88 -78.5853 1077.88H1358.39C1358.43 1077.88 1358.47 1077.86 1358.49 1077.83C1358.51 1077.81 1358.51 1077.78 1358.51 1077.75C1358.51 1077.68 1358.46 1077.63 1358.39 1077.63H-78.5853Z" fill="url(#paint1_linear_19_1204)"/>
    </g>
  </g>
  <defs>
    <linearGradient id="paint0_linear_19_1204" x1="640.527" y1="-229.66" x2="640.527" y2="1077.88" gradientUnits="userSpaceOnUse">
      <stop stop-color="white"/>
      <stop offset="0.519512"/>
      <stop offset="1" stop-opacity="0"/>
    </linearGradient>
    <linearGradient id="paint1_linear_19_1204" x1="640.526" y1="-219.234" x2="640.526" y2="1077.88" gradientUnits="userSpaceOnUse">
      <stop stop-color="white"/>
      <stop offset="0.519512"/>
      <stop offset="1" stop-opacity="0"/>
    </linearGradient>
  </defs>
</svg>
