<svg viewBox="0 0 375 660" fill="none" xmlns="http://www.w3.org/2000/svg">
  <mask id="mask0_705_5919" style="mask-type:alpha" maskUnits="userSpaceOnUse" x="-86" y="0" width="547" height="660">
    <rect x="-86" width="547" height="660" fill="white"/>
  </mask>
  <g mask="url(#mask0_705_5919)">
    <g opacity="0.6">
      <path fill-rule="evenodd" clip-rule="evenodd" d="M22.3107 60.0107C22.3797 60.0107 22.4357 60.0667 22.4357 60.1357V456.739C22.4357 456.792 22.4028 456.839 22.3535 456.857L-181.915 531.252C-181.98 531.276 -182.052 531.243 -182.075 531.178C-182.099 531.113 -182.066 531.041 -182.001 531.018L22.1857 456.652V60.1357C22.1857 60.0667 22.2417 60.0107 22.3107 60.0107ZM55.3936 60.0107C55.4626 60.0107 55.5186 60.0667 55.5186 60.1357V456.739C55.5186 456.788 55.49 456.833 55.4454 456.853L-181.906 564.905C-181.969 564.934 -182.043 564.906 -182.072 564.843C-182.1 564.78 -182.073 564.706 -182.01 564.678L55.2686 456.659V60.1357C55.2686 60.0667 55.3246 60.0107 55.3936 60.0107ZM88.6014 60.1357C88.6014 60.0667 88.5455 60.0107 88.4764 60.0107C88.4074 60.0107 88.3514 60.0667 88.3514 60.1357V456.669L-182.023 620.757C-182.082 620.793 -182.101 620.87 -182.065 620.929C-182.029 620.988 -181.952 621.007 -181.893 620.971L88.5413 456.846C88.5786 456.824 88.6014 456.783 88.6014 456.739V60.1357ZM121.56 60.0112C121.629 60.0112 121.685 60.0672 121.685 60.1362V456.74C121.685 456.775 121.67 456.809 121.644 456.832L-181.725 732.905C-181.776 732.951 -181.855 732.948 -181.901 732.897C-181.948 732.845 -181.944 732.766 -181.893 732.72L121.435 456.685V60.1362C121.435 60.0672 121.49 60.0112 121.56 60.0112ZM154.768 60.1362C154.768 60.0672 154.712 60.0112 154.643 60.0112C154.574 60.0112 154.518 60.0672 154.518 60.1362V456.708L2.72324 732.752C2.68997 732.813 2.71204 732.889 2.77254 732.922C2.83302 732.955 2.90903 732.933 2.94229 732.873L154.753 456.8C154.763 456.782 154.768 456.761 154.768 456.74V60.1362ZM187.726 60.0112C187.795 60.0112 187.851 60.0672 187.851 60.1362V456.74L187.599 732.812C187.599 732.882 187.543 732.937 187.474 732.937C187.404 732.937 187.349 732.881 187.349 732.812L187.601 456.74V60.1362C187.601 60.0672 187.657 60.0112 187.726 60.0112ZM220.945 60.1362C220.945 60.0672 220.889 60.0112 220.82 60.0112C220.751 60.0112 220.695 60.0672 220.695 60.1362V456.74C220.695 456.761 220.7 456.781 220.71 456.8L371.994 732.872C372.001 732.886 372.011 732.898 372.022 732.907C372.032 732.916 372.044 732.923 372.057 732.928C372.063 732.931 372.069 732.933 372.076 732.934C372.083 732.936 372.09 732.937 372.097 732.937C372.119 732.938 372.142 732.934 372.164 732.922C372.224 732.889 372.246 732.813 372.213 732.752L220.945 456.708V60.1362ZM253.903 60.0112C253.972 60.0112 254.028 60.0672 254.028 60.1362V456.685L556.829 732.72C556.88 732.767 556.884 732.846 556.837 732.897C556.791 732.948 556.712 732.951 556.661 732.905L253.819 456.832C253.793 456.809 253.778 456.775 253.778 456.74V60.1362C253.778 60.0672 253.834 60.0112 253.903 60.0112ZM287.11 60.1362C287.11 60.0672 287.054 60.0112 286.985 60.0112C286.916 60.0112 286.86 60.0672 286.86 60.1362V456.74C286.86 456.783 286.883 456.824 286.92 456.847L557.469 621.221C557.528 621.257 557.605 621.238 557.641 621.179C557.656 621.155 557.661 621.127 557.658 621.1C557.656 621.083 557.65 621.066 557.642 621.052C557.632 621.034 557.617 621.019 557.599 621.008L287.11 456.669V60.1362ZM320.068 60.0112C320.137 60.0112 320.193 60.0672 320.193 60.1362V456.659L557.586 564.824C557.649 564.852 557.677 564.927 557.648 564.989C557.62 565.052 557.545 565.08 557.483 565.051L320.017 456.854C319.972 456.833 319.943 456.789 319.943 456.74V60.1362C319.943 60.0672 319.999 60.0112 320.068 60.0112ZM353.277 60.1362C353.277 60.0672 353.221 60.0112 353.152 60.0112C353.083 60.0112 353.027 60.0672 353.027 60.1362V456.74C353.027 456.792 353.059 456.839 353.109 456.857L557.492 531.347C557.541 531.365 557.594 531.35 557.627 531.314C557.638 531.302 557.646 531.288 557.652 531.272C557.676 531.207 557.642 531.136 557.578 531.112L353.277 456.652V60.1362ZM386.246 60.0112C386.315 60.0112 386.371 60.0672 386.371 60.1362V456.647L557.571 508.641C557.637 508.661 557.674 508.731 557.654 508.797C557.634 508.863 557.564 508.9 557.498 508.88L386.209 456.859C386.157 456.843 386.121 456.795 386.121 456.74V60.1362C386.121 60.0672 386.177 60.0112 386.246 60.0112ZM419.454 60.1362C419.454 60.0672 419.398 60.0112 419.329 60.0112C419.26 60.0112 419.204 60.0672 419.204 60.1362V456.74C419.204 456.761 419.209 456.781 419.218 456.798C419.234 456.828 419.263 456.852 419.297 456.861L557.503 492.84C557.525 492.845 557.546 492.845 557.566 492.84C557.609 492.829 557.644 492.796 557.656 492.75C557.666 492.712 557.657 492.673 557.635 492.644C557.633 492.641 557.63 492.638 557.628 492.635C557.626 492.633 557.623 492.63 557.621 492.628C557.606 492.614 557.588 492.603 557.566 492.598L419.454 456.643V60.1362ZM452.411 60.0112C452.48 60.0112 452.536 60.0672 452.536 60.1362V456.64L557.562 480.566C557.63 480.581 557.672 480.648 557.656 480.715C557.641 480.783 557.574 480.825 557.507 480.81L452.384 456.862C452.327 456.849 452.286 456.798 452.286 456.74V60.1362C452.286 60.0672 452.342 60.0112 452.411 60.0112ZM485.619 60.1362C485.619 60.0672 485.563 60.0112 485.494 60.0112C485.425 60.0112 485.369 60.0672 485.369 60.1362V456.74C485.369 456.799 485.411 456.851 485.469 456.862L557.51 471.446C557.577 471.459 557.643 471.416 557.657 471.348C557.671 471.28 557.627 471.214 557.559 471.201L485.619 456.638V60.1362ZM518.577 60.0112C518.646 60.0112 518.702 60.0672 518.702 60.1362V456.636L557.557 463.721C557.625 463.733 557.67 463.798 557.658 463.866C557.645 463.934 557.58 463.979 557.512 463.967L518.555 456.863C518.495 456.852 518.452 456.8 518.452 456.74V60.1362C518.452 60.0672 518.508 60.0112 518.577 60.0112ZM551.785 60.1362C551.785 60.0672 551.729 60.0112 551.66 60.0112C551.591 60.0112 551.535 60.0672 551.535 60.1362V456.74C551.535 456.765 551.543 456.79 551.557 456.81C551.575 456.837 551.605 456.857 551.64 456.863L557.514 457.842C557.582 457.854 557.647 457.808 557.658 457.74C557.67 457.671 557.624 457.607 557.555 457.596L551.785 456.634V60.1362ZM-43.8665 60.0107C-43.7974 60.0107 -43.7415 60.0667 -43.7415 60.1357V456.739C-43.7415 456.796 -43.7799 456.846 -43.835 456.86L-181.927 492.787C-181.993 492.805 -182.062 492.765 -182.079 492.698C-182.096 492.631 -182.056 492.563 -181.989 492.545L-43.9915 456.643V60.1357C-43.9915 60.0667 -43.9355 60.0107 -43.8665 60.0107ZM-10.6586 60.1357C-10.6586 60.0667 -10.7146 60.0107 -10.7836 60.0107C-10.8527 60.0107 -10.9086 60.0667 -10.9086 60.1357V456.647L-181.994 508.578C-182.06 508.598 -182.098 508.668 -182.078 508.734C-182.058 508.8 -181.988 508.837 -181.922 508.817L-10.7473 456.859C-10.6947 456.843 -10.6586 456.794 -10.6586 456.739V60.1357ZM-76.9493 60.0107C-76.8803 60.0107 -76.8243 60.0667 -76.8243 60.1357V456.739C-76.8243 456.798 -76.8647 456.848 -76.9216 456.861L-181.93 480.767C-181.998 480.783 -182.065 480.741 -182.08 480.673C-182.095 480.606 -182.053 480.539 -181.986 480.524L-77.0743 456.64V60.1357C-77.0743 60.0667 -77.0184 60.0107 -76.9493 60.0107ZM-109.907 60.1357C-109.907 60.0667 -109.963 60.0107 -110.032 60.0107C-110.101 60.0107 -110.157 60.0667 -110.157 60.1357V456.637L-181.983 471.169C-182.05 471.183 -182.094 471.249 -182.08 471.316C-182.067 471.384 -182.001 471.428 -181.933 471.414L-110.007 456.862C-109.949 456.85 -109.907 456.799 -109.907 456.739V60.1357ZM-143.115 60.0107C-143.046 60.0107 -142.99 60.0667 -142.99 60.1357V456.739C-142.99 456.8 -143.033 456.851 -143.093 456.862L-181.936 463.935C-182.003 463.948 -182.069 463.902 -182.081 463.835C-182.093 463.767 -182.048 463.702 -181.98 463.689L-143.24 456.635V60.1357C-143.24 60.0667 -143.184 60.0107 -143.115 60.0107ZM-176.084 60.1357C-176.084 60.0667 -176.14 60.0107 -176.209 60.0107C-176.278 60.0107 -176.334 60.0667 -176.334 60.1357V456.633L-181.979 457.574C-182.047 457.586 -182.093 457.65 -182.081 457.718C-182.07 457.786 -182.006 457.832 -181.937 457.821L-176.189 456.863C-176.129 456.853 -176.084 456.8 -176.084 456.739V60.1357Z" fill="url(#paint0_linear_705_5919)"/>
      <path fill-rule="evenodd" clip-rule="evenodd" d="M-181.958 65.3746C-182.027 65.3746 -182.083 65.4306 -182.083 65.4996C-182.083 65.5687 -182.027 65.6246 -181.958 65.6246H557.534C557.603 65.6246 557.659 65.5687 557.659 65.4996C557.659 65.4306 557.603 65.3746 557.534 65.3746H-181.958ZM-182.083 95.5939C-182.083 95.5248 -182.027 95.4689 -181.958 95.4689H557.535C557.604 95.4689 557.66 95.5248 557.66 95.5939C557.66 95.6629 557.604 95.7189 557.535 95.7189H-181.958C-182.027 95.7189 -182.083 95.6629 -182.083 95.5939ZM-181.958 125.563C-182.027 125.563 -182.083 125.619 -182.083 125.688C-182.083 125.757 -182.027 125.813 -181.958 125.813H557.535C557.604 125.813 557.66 125.757 557.66 125.688C557.66 125.619 557.604 125.563 557.535 125.563H-181.958ZM-182.083 155.792C-182.083 155.723 -182.027 155.667 -181.958 155.667H557.535C557.604 155.667 557.66 155.723 557.66 155.792C557.66 155.861 557.604 155.917 557.535 155.917H-181.958C-182.027 155.917 -182.083 155.861 -182.083 155.792ZM-181.958 185.76C-182.027 185.76 -182.083 185.816 -182.083 185.885C-182.083 185.954 -182.027 186.01 -181.958 186.01H557.535C557.604 186.01 557.66 185.954 557.66 185.885C557.66 185.816 557.604 185.76 557.535 185.76H-181.958ZM-182.083 215.979C-182.083 215.91 -182.027 215.854 -181.958 215.854H557.535C557.604 215.854 557.66 215.91 557.66 215.979C557.66 216.048 557.604 216.104 557.535 216.104H-181.958C-182.027 216.104 -182.083 216.048 -182.083 215.979ZM-181.958 245.947C-182.027 245.947 -182.083 246.003 -182.083 246.072C-182.083 246.142 -182.027 246.197 -181.958 246.197H557.535C557.604 246.197 557.66 246.142 557.66 246.072C557.66 246.003 557.604 245.947 557.535 245.947H-181.958ZM-182.083 276.167C-182.083 276.098 -182.027 276.042 -181.958 276.042H557.535C557.604 276.042 557.66 276.098 557.66 276.167C557.66 276.236 557.604 276.292 557.535 276.292H-181.958C-182.027 276.292 -182.083 276.236 -182.083 276.167ZM-181.958 306.135C-182.027 306.135 -182.083 306.191 -182.083 306.26C-182.083 306.329 -182.027 306.385 -181.958 306.385H557.535C557.604 306.385 557.66 306.329 557.66 306.26C557.66 306.191 557.604 306.135 557.535 306.135H-181.958ZM-182.083 336.364C-182.083 336.295 -182.027 336.239 -181.958 336.239H557.535C557.604 336.239 557.66 336.295 557.66 336.364C557.66 336.433 557.604 336.489 557.535 336.489H-181.958C-182.027 336.489 -182.083 336.433 -182.083 336.364ZM-181.958 366.334C-182.027 366.334 -182.083 366.389 -182.083 366.459C-182.083 366.528 -182.027 366.584 -181.958 366.584H557.535C557.604 366.584 557.66 366.528 557.66 366.459C557.66 366.389 557.604 366.334 557.535 366.334H-181.958ZM-182.083 396.552C-182.083 396.483 -182.027 396.427 -181.958 396.427H557.535C557.604 396.427 557.66 396.483 557.66 396.552C557.66 396.621 557.604 396.677 557.535 396.677H-181.958C-182.027 396.677 -182.083 396.621 -182.083 396.552ZM-182.083 426.645C-182.083 426.576 -182.027 426.52 -181.958 426.52H557.535C557.604 426.52 557.66 426.576 557.66 426.645C557.66 426.714 557.604 426.77 557.535 426.77H-181.958C-182.027 426.77 -182.083 426.714 -182.083 426.645ZM-182.083 589.145C-182.083 589.076 -182.027 589.02 -181.958 589.02H557.535C557.604 589.02 557.66 589.076 557.66 589.145C557.66 589.214 557.604 589.27 557.535 589.27H-181.958C-182.027 589.27 -182.083 589.214 -182.083 589.145ZM-181.958 565.76C-182.027 565.76 -182.083 565.816 -182.083 565.885C-182.083 565.954 -182.027 566.01 -181.958 566.01H557.535C557.604 566.01 557.66 565.954 557.66 565.885C557.66 565.816 557.604 565.76 557.535 565.76H-181.958ZM-182.083 547.635C-182.083 547.566 -182.027 547.51 -181.958 547.51H557.535C557.604 547.51 557.66 547.566 557.66 547.635C557.66 547.704 557.604 547.76 557.535 547.76H-181.958C-182.027 547.76 -182.083 547.704 -182.083 547.635ZM-181.958 619.687C-182.027 619.687 -182.083 619.743 -182.083 619.812C-182.083 619.881 -182.027 619.937 -181.958 619.937H557.535C557.604 619.937 557.66 619.881 557.66 619.812C557.66 619.743 557.604 619.687 557.535 619.687H-181.958ZM-182.083 532.937C-182.083 532.868 -182.027 532.812 -181.958 532.812H557.535C557.604 532.812 557.66 532.868 557.66 532.937C557.66 533.006 557.604 533.062 557.535 533.062H-181.958C-182.027 533.062 -182.083 533.006 -182.083 532.937ZM-181.958 520.718C-182.027 520.718 -182.083 520.774 -182.083 520.843C-182.083 520.912 -182.027 520.968 -181.958 520.968H557.535C557.604 520.968 557.66 520.912 557.66 520.843C557.66 520.774 557.604 520.718 557.535 520.718H-181.958ZM-182.083 459.447C-182.083 459.378 -182.027 459.322 -181.958 459.322H557.535C557.604 459.322 557.66 459.378 557.66 459.447C557.66 459.517 557.604 459.572 557.535 459.572H-181.958C-182.027 459.572 -182.083 459.517 -182.083 459.447ZM-181.958 456.614C-182.027 456.614 -182.083 456.67 -182.083 456.739C-182.083 456.808 -182.027 456.864 -181.958 456.864H557.535C557.604 456.864 557.66 456.808 557.66 456.739C557.66 456.67 557.604 456.614 557.535 456.614H-181.958ZM-182.083 465.656C-182.083 465.587 -182.027 465.531 -181.958 465.531H557.535C557.604 465.531 557.66 465.587 557.66 465.656C557.66 465.725 557.604 465.781 557.535 465.781H-181.958C-182.027 465.781 -182.083 465.725 -182.083 465.656ZM-181.958 462.28C-182.027 462.28 -182.083 462.336 -182.083 462.405C-182.083 462.475 -182.027 462.53 -181.958 462.53H557.535C557.604 462.53 557.66 462.475 557.66 462.405C557.66 462.336 557.604 462.28 557.535 462.28H-181.958ZM-182.083 494.718C-182.083 494.649 -182.027 494.593 -181.958 494.593H557.535C557.604 494.593 557.66 494.649 557.66 494.718C557.66 494.787 557.604 494.843 557.535 494.843H-181.958C-182.027 494.843 -182.083 494.787 -182.083 494.718ZM-181.958 510.593C-182.027 510.593 -182.083 510.649 -182.083 510.718C-182.083 510.787 -182.027 510.843 -181.958 510.843H557.535C557.604 510.843 557.66 510.787 557.66 510.718C557.66 510.699 557.655 510.681 557.647 510.664C557.627 510.622 557.584 510.593 557.535 510.593H-181.958ZM-182.083 662.093C-182.083 662.024 -182.027 661.968 -181.958 661.968H557.535C557.604 661.968 557.66 662.024 557.66 662.093C557.66 662.101 557.659 662.109 557.657 662.117C557.656 662.124 557.654 662.131 557.651 662.138C557.65 662.141 557.649 662.143 557.648 662.146C557.646 662.15 557.644 662.153 557.642 662.156L557.639 662.161C557.636 662.166 557.632 662.171 557.628 662.175C557.606 662.201 557.572 662.218 557.535 662.218H-181.958C-182.027 662.218 -182.083 662.162 -182.083 662.093ZM-181.958 473.104C-182.027 473.104 -182.083 473.16 -182.083 473.229C-182.083 473.298 -182.027 473.354 -181.958 473.354H557.535C557.604 473.354 557.66 473.298 557.66 473.229C557.66 473.16 557.604 473.104 557.535 473.104H-181.958ZM-182.083 469.239C-182.083 469.17 -182.027 469.114 -181.958 469.114H557.535C557.586 469.114 557.631 469.145 557.65 469.19C557.653 469.198 557.656 469.207 557.658 469.216C557.659 469.223 557.66 469.231 557.66 469.239C557.66 469.308 557.604 469.364 557.535 469.364H-181.958C-182.027 469.364 -182.083 469.308 -182.083 469.239ZM-181.958 488.166C-182.027 488.166 -182.083 488.222 -182.083 488.291C-182.083 488.36 -182.027 488.416 -181.958 488.416H557.535C557.604 488.416 557.66 488.36 557.66 488.291C557.66 488.222 557.604 488.166 557.535 488.166H-181.958ZM-182.083 482.645C-182.083 482.576 -182.027 482.52 -181.958 482.52H557.535C557.604 482.52 557.66 482.576 557.66 482.645C557.66 482.714 557.604 482.77 557.535 482.77H-181.958C-182.027 482.77 -182.083 482.714 -182.083 482.645ZM-181.958 477.541C-182.027 477.541 -182.083 477.597 -182.083 477.666C-182.083 477.735 -182.027 477.791 -181.958 477.791H557.535C557.604 477.791 557.66 477.735 557.66 477.666C557.66 477.635 557.648 477.606 557.629 477.585C557.606 477.558 557.572 477.541 557.535 477.541H-181.958ZM-182.083 502.114C-182.083 502.045 -182.027 501.989 -181.958 501.989H557.535C557.604 501.989 557.66 502.045 557.66 502.114C557.66 502.183 557.604 502.239 557.535 502.239H-181.958C-182.027 502.239 -182.083 502.183 -182.083 502.114ZM-181.809 732.687C-181.878 732.687 -181.934 732.743 -181.934 732.812C-181.934 732.881 -181.878 732.937 -181.809 732.937H556.744C556.813 732.937 556.869 732.881 556.869 732.812C556.869 732.743 556.813 732.687 556.744 732.687H-181.809Z" fill="url(#paint1_linear_705_5919)"/>
    </g>
  </g>
  <defs>
    <linearGradient id="paint0_linear_705_5919" x1="187.788" y1="60.0107" x2="187.788" y2="732.938" gradientUnits="userSpaceOnUse">
      <stop stop-color="white"/>
      <stop offset="0.519512"/>
      <stop offset="1" stop-opacity="0"/>
    </linearGradient>
    <linearGradient id="paint1_linear_705_5919" x1="187.788" y1="65.3746" x2="187.788" y2="732.937" gradientUnits="userSpaceOnUse">
      <stop stop-color="white"/>
      <stop offset="0.519512"/>
      <stop offset="1" stop-opacity="0"/>
    </linearGradient>
  </defs>
</svg>
