<svg viewBox="0 0 1440 340" fill="none" xmlns="http://www.w3.org/2000/svg">
  <mask id="mask0_129_2536" style="mask-type:alpha" maskUnits="userSpaceOnUse" x="0" y="0" width="1440" height="340">
    <rect width="1440" height="340" fill="white"/>
  </mask>
  <g mask="url(#mask0_129_2536)">
    <g opacity="0.6">
      <path fill-rule="evenodd" clip-rule="evenodd" d="M511.922 -453.882C511.992 -453.882 512.047 -453.826 512.047 -453.757V208.713C512.047 208.736 512.041 208.758 512.03 208.777C512.015 208.802 511.992 208.821 511.964 208.831L-7.56826 389.316C-7.63347 389.339 -7.7047 389.305 -7.72736 389.239C-7.75001 389.174 -7.71551 389.103 -7.6503 389.08L511.797 208.624V-453.757C511.797 -453.826 511.853 -453.882 511.922 -453.882ZM439.508 -453.882C439.577 -453.882 439.633 -453.826 439.633 -453.757V208.713C439.633 208.769 439.596 208.818 439.542 208.833L-7.57581 333.101C-7.64232 333.119 -7.71123 333.08 -7.72971 333.014C-7.7482 332.947 -7.70927 332.878 -7.64275 332.86L439.383 208.618V-453.757C439.383 -453.826 439.439 -453.882 439.508 -453.882ZM584.462 -453.757C584.462 -453.826 584.406 -453.882 584.337 -453.882C584.268 -453.882 584.212 -453.826 584.212 -453.757V208.633L-7.66181 482.747C-7.72445 482.776 -7.75172 482.85 -7.72271 482.913C-7.69369 482.975 -7.61939 483.003 -7.55675 482.974L584.389 208.826C584.433 208.806 584.462 208.762 584.462 208.713V-453.757ZM656.751 -453.881C656.82 -453.881 656.876 -453.825 656.876 -453.756V208.714C656.876 208.73 656.872 208.747 656.866 208.761C656.861 208.774 656.854 208.785 656.845 208.795C656.839 208.803 656.831 208.81 656.822 208.817L-7.2121 669.957C-7.2688 669.996 -7.34669 669.982 -7.38607 669.925C-7.42545 669.869 -7.4114 669.791 -7.3547 669.751L656.626 208.648V-453.756C656.626 -453.825 656.682 -453.881 656.751 -453.881ZM729.292 -453.756C729.292 -453.825 729.236 -453.881 729.167 -453.881C729.097 -453.881 729.042 -453.825 729.042 -453.756V208.674L396.772 669.781C396.732 669.837 396.745 669.915 396.801 669.955C396.857 669.996 396.935 669.983 396.975 669.927L729.268 208.787C729.275 208.777 729.28 208.767 729.284 208.756C729.289 208.743 729.292 208.728 729.292 208.714V-453.756ZM801.58 -453.881C801.649 -453.881 801.705 -453.825 801.705 -453.756V208.714L801.154 669.854L801.154 669.859C801.154 669.866 801.153 669.874 801.151 669.881C801.146 669.904 801.134 669.925 801.118 669.941C801.096 669.965 801.064 669.979 801.029 669.979C801.003 669.979 800.98 669.971 800.96 669.958C800.926 669.936 800.904 669.897 800.904 669.854L801.455 208.714V-453.756C801.455 -453.825 801.511 -453.881 801.58 -453.881ZM874.144 -453.756C874.144 -453.825 874.088 -453.881 874.019 -453.881C873.95 -453.881 873.894 -453.825 873.894 -453.756V208.714C873.894 208.74 873.903 208.766 873.918 208.787L1205.06 669.927C1205.1 669.983 1205.18 669.996 1205.23 669.956C1205.29 669.915 1205.3 669.837 1205.26 669.781L874.144 208.674V-453.756ZM946.434 -453.881C946.503 -453.881 946.559 -453.825 946.559 -453.756V208.649L1609.39 669.751C1609.44 669.791 1609.46 669.869 1609.42 669.925C1609.38 669.982 1609.3 669.996 1609.24 669.957L946.362 208.816C946.355 208.811 946.348 208.806 946.342 208.799C946.333 208.789 946.326 208.778 946.32 208.766C946.313 208.75 946.309 208.732 946.309 208.714V-453.756C946.309 -453.825 946.365 -453.881 946.434 -453.881ZM1018.97 -453.756C1018.97 -453.825 1018.91 -453.881 1018.85 -453.881C1018.78 -453.881 1018.72 -453.825 1018.72 -453.756V208.714C1018.72 208.763 1018.75 208.807 1018.79 208.827L1610.99 483.392C1611 483.396 1611.01 483.399 1611.01 483.4C1611.02 483.402 1611.03 483.403 1611.04 483.404C1611.06 483.404 1611.08 483.4 1611.09 483.393C1611.1 483.39 1611.11 483.385 1611.11 483.381C1611.12 483.375 1611.13 483.369 1611.14 483.363L1611.14 483.355L1611.15 483.349L1611.15 483.344C1611.15 483.34 1611.15 483.336 1611.16 483.331C1611.17 483.293 1611.17 483.25 1611.15 483.216C1611.15 483.207 1611.14 483.197 1611.13 483.189C1611.13 483.184 1611.12 483.18 1611.11 483.176C1611.11 483.172 1611.1 483.168 1611.1 483.165L1018.97 208.634V-453.756ZM1091.26 -453.881C1091.33 -453.881 1091.39 -453.825 1091.39 -453.756V208.625L1611.09 389.325C1611.15 389.347 1611.18 389.418 1611.16 389.484C1611.14 389.549 1611.07 389.583 1611 389.561L1091.22 208.832C1091.17 208.814 1091.14 208.767 1091.14 208.714V-453.756C1091.14 -453.825 1091.19 -453.881 1091.26 -453.881ZM1163.8 -453.756C1163.8 -453.825 1163.74 -453.881 1163.68 -453.881C1163.61 -453.881 1163.55 -453.825 1163.55 -453.756V208.714C1163.55 208.77 1163.59 208.819 1163.64 208.834L1611.01 333.258C1611.08 333.277 1611.15 333.238 1611.16 333.171C1611.18 333.105 1611.14 333.036 1611.08 333.018L1163.8 208.619V-453.756ZM1236.11 -453.881C1236.18 -453.881 1236.24 -453.825 1236.24 -453.756V208.615L1611.07 295.485C1611.14 295.501 1611.18 295.568 1611.17 295.635C1611.15 295.703 1611.08 295.745 1611.02 295.729L1236.09 208.836C1236.03 208.823 1235.99 208.772 1235.99 208.714V-453.756C1235.99 -453.825 1236.05 -453.881 1236.11 -453.881ZM1308.65 -453.756C1308.65 -453.825 1308.6 -453.881 1308.53 -453.881C1308.46 -453.881 1308.4 -453.825 1308.4 -453.756V208.714C1308.4 208.773 1308.45 208.825 1308.5 208.836L1611.02 268.934C1611.05 268.941 1611.09 268.933 1611.11 268.915C1611.14 268.898 1611.16 268.87 1611.17 268.836C1611.18 268.768 1611.14 268.703 1611.07 268.689L1308.65 208.611V-453.756ZM1380.94 -453.881C1381.01 -453.881 1381.07 -453.825 1381.07 -453.756V208.609L1611.06 248.592C1611.13 248.604 1611.18 248.669 1611.17 248.737C1611.16 248.785 1611.12 248.822 1611.08 248.835C1611.06 248.841 1611.04 248.842 1611.02 248.839L1380.92 208.837C1380.86 208.827 1380.82 208.775 1380.82 208.714V-453.756C1380.82 -453.825 1380.87 -453.881 1380.94 -453.881ZM1453.48 -453.756C1453.48 -453.825 1453.43 -453.881 1453.36 -453.881C1453.29 -453.881 1453.23 -453.825 1453.23 -453.756V208.714C1453.23 208.775 1453.28 208.828 1453.34 208.837L1611.02 233.197C1611.09 233.207 1611.16 233.16 1611.17 233.092C1611.18 233.024 1611.13 232.96 1611.06 232.949L1453.48 208.606V-453.756ZM1525.77 -453.881C1525.84 -453.881 1525.9 -453.825 1525.9 -453.756V208.605L1611.06 220.456C1611.13 220.466 1611.18 220.529 1611.17 220.598C1611.16 220.666 1611.1 220.714 1611.03 220.704L1525.75 208.838C1525.69 208.829 1525.65 208.776 1525.65 208.714V-453.756C1525.65 -453.825 1525.7 -453.881 1525.77 -453.881ZM1598.31 -453.756C1598.31 -453.825 1598.26 -453.881 1598.19 -453.881C1598.12 -453.881 1598.06 -453.825 1598.06 -453.756V208.714C1598.06 208.738 1598.07 208.762 1598.08 208.781C1598.1 208.811 1598.13 208.833 1598.17 208.838L1611.03 210.473C1611.04 210.475 1611.06 210.475 1611.07 210.472C1611.08 210.469 1611.09 210.465 1611.11 210.458C1611.11 210.456 1611.11 210.454 1611.12 210.451C1611.12 210.449 1611.12 210.447 1611.13 210.444C1611.15 210.425 1611.16 210.397 1611.17 210.365C1611.18 210.297 1611.13 210.234 1611.06 210.225L1598.31 208.604V-453.756ZM294.655 -453.882C294.724 -453.882 294.78 -453.826 294.78 -453.757V208.713C294.78 208.749 294.765 208.781 294.74 208.804C294.724 208.82 294.703 208.831 294.679 208.836L-7.58494 268.846C-7.65265 268.86 -7.71844 268.816 -7.73189 268.748C-7.74533 268.681 -7.70134 268.615 -7.63362 268.601L294.53 208.61V-453.757C294.53 -453.826 294.586 -453.882 294.655 -453.882ZM367.194 -453.757C367.194 -453.826 367.138 -453.882 367.069 -453.882C367 -453.882 366.944 -453.826 366.944 -453.757V208.613L-7.63749 295.38C-7.70474 295.396 -7.74663 295.463 -7.73106 295.53C-7.71548 295.597 -7.64833 295.639 -7.58107 295.623L367.097 208.835C367.154 208.821 367.194 208.771 367.194 208.713V-453.757ZM222.241 -453.882C222.31 -453.882 222.366 -453.826 222.366 -453.757V208.713C222.366 208.738 222.358 208.762 222.345 208.782C222.338 208.792 222.33 208.802 222.32 208.81C222.303 208.823 222.284 208.832 222.262 208.836L-7.58788 248.768C-7.6559 248.78 -7.72062 248.734 -7.73244 248.666C-7.74425 248.598 -7.69869 248.533 -7.63068 248.522L222.116 208.608V-453.757C222.116 -453.826 222.172 -453.882 222.241 -453.882ZM149.952 -453.757C149.952 -453.826 149.896 -453.882 149.827 -453.882C149.758 -453.882 149.702 -453.826 149.702 -453.757V208.606L-7.62835 232.896C-7.69658 232.907 -7.74335 232.971 -7.73282 233.039C-7.72228 233.107 -7.65843 233.154 -7.59021 233.144L149.846 208.836C149.907 208.827 149.952 208.774 149.952 208.713V-453.757ZM77.4128 -453.882C77.4818 -453.882 77.5378 -453.826 77.5378 -453.757V208.713C77.5378 208.775 77.4918 208.828 77.43 208.837L-7.59208 220.651C-7.66045 220.66 -7.72359 220.613 -7.73309 220.544C-7.74259 220.476 -7.69486 220.413 -7.62648 220.403L77.2878 208.604V-453.757C77.2878 -453.826 77.3437 -453.882 77.4128 -453.882ZM5.09858 -453.757C5.09858 -453.826 5.04262 -453.882 4.97358 -453.882C4.90455 -453.882 4.84858 -453.826 4.84858 -453.757V208.603L-7.62506 210.19C-7.69354 210.198 -7.74199 210.261 -7.73328 210.329C-7.72457 210.398 -7.66199 210.446 -7.5935 210.438L4.98936 208.837C5.05179 208.829 5.09858 208.776 5.09858 208.713V-453.757Z" fill="url(#paint0_linear_129_2536)"/>
      <path fill-rule="evenodd" clip-rule="evenodd" d="M-7.60938 -444.922C-7.67841 -444.922 -7.73438 -444.866 -7.73438 -444.797C-7.73438 -444.728 -7.67841 -444.672 -7.60938 -444.672H1611.04C1611.11 -444.672 1611.17 -444.728 1611.17 -444.797C1611.17 -444.866 1611.11 -444.922 1611.04 -444.922H-7.60938ZM-7.73348 -394.529C-7.73348 -394.598 -7.67752 -394.654 -7.60848 -394.654H1611.04C1611.11 -394.654 1611.17 -394.598 1611.17 -394.529C1611.17 -394.46 1611.11 -394.404 1611.04 -394.404H-7.60848C-7.67752 -394.404 -7.73348 -394.46 -7.73348 -394.529ZM-7.60848 -344.387C-7.67752 -344.387 -7.73348 -344.331 -7.73348 -344.262C-7.73348 -344.193 -7.67752 -344.137 -7.60848 -344.137H1611.04C1611.11 -344.137 1611.17 -344.193 1611.17 -344.262C1611.17 -344.331 1611.11 -344.387 1611.04 -344.387H-7.60848ZM-7.73348 -293.977C-7.73348 -294.046 -7.67752 -294.102 -7.60848 -294.102H1611.04C1611.11 -294.102 1611.17 -294.046 1611.17 -293.977C1611.17 -293.908 1611.11 -293.852 1611.04 -293.852H-7.60848C-7.67752 -293.852 -7.73348 -293.908 -7.73348 -293.977ZM-7.60848 -243.834C-7.67752 -243.834 -7.73348 -243.779 -7.73348 -243.709C-7.73348 -243.64 -7.67752 -243.584 -7.60848 -243.584H1611.04C1611.11 -243.584 1611.17 -243.64 1611.17 -243.709C1611.17 -243.779 1611.11 -243.834 1611.04 -243.834H-7.60848ZM-7.73348 -193.442C-7.73348 -193.511 -7.67752 -193.567 -7.60848 -193.567H1611.04C1611.09 -193.567 1611.13 -193.544 1611.15 -193.509C1611.16 -193.49 1611.17 -193.467 1611.17 -193.442C1611.17 -193.373 1611.11 -193.317 1611.04 -193.317H-7.60848C-7.67752 -193.317 -7.73348 -193.373 -7.73348 -193.442ZM-7.60848 -143.301C-7.67752 -143.301 -7.73348 -143.245 -7.73348 -143.176C-7.73348 -143.107 -7.67752 -143.051 -7.60848 -143.051H1611.04C1611.11 -143.051 1611.17 -143.107 1611.17 -143.176C1611.17 -143.192 1611.17 -143.207 1611.16 -143.221C1611.16 -143.229 1611.15 -143.236 1611.15 -143.243C1611.14 -143.257 1611.13 -143.269 1611.12 -143.278C1611.11 -143.285 1611.1 -143.29 1611.09 -143.294C1611.07 -143.298 1611.06 -143.301 1611.04 -143.301H-7.60848ZM-7.73348 -92.9077C-7.73348 -92.9767 -7.67752 -93.0327 -7.60848 -93.0327H1611.04C1611.11 -93.0327 1611.17 -92.9767 1611.17 -92.9077C1611.17 -92.8387 1611.11 -92.7827 1611.04 -92.7827H-7.60848C-7.67752 -92.7827 -7.73348 -92.8387 -7.73348 -92.9077ZM-7.60848 -42.7659C-7.67752 -42.7659 -7.73348 -42.7099 -7.73348 -42.6409C-7.73348 -42.5718 -7.67752 -42.5159 -7.60848 -42.5159H1611.04C1611.08 -42.5159 1611.11 -42.5285 1611.13 -42.5491C1611.15 -42.5719 1611.17 -42.6046 1611.17 -42.6409C1611.17 -42.6477 1611.17 -42.6544 1611.17 -42.661C1611.17 -42.6674 1611.16 -42.6736 1611.16 -42.6795L1611.16 -42.6889C1611.16 -42.6973 1611.15 -42.7053 1611.15 -42.7126C1611.14 -42.7184 1611.14 -42.7239 1611.13 -42.729C1611.13 -42.7362 1611.12 -42.7426 1611.11 -42.7479C1611.1 -42.7508 1611.1 -42.7535 1611.09 -42.7558C1611.08 -42.7595 1611.08 -42.7622 1611.07 -42.7639C1611.06 -42.7652 1611.05 -42.7659 1611.04 -42.7659H-7.60848ZM-7.73348 7.64404C-7.73348 7.57501 -7.67752 7.51904 -7.60848 7.51904H1611.04C1611.11 7.51904 1611.17 7.57501 1611.17 7.64404C1611.17 7.71307 1611.11 7.76904 1611.04 7.76904H-7.60848C-7.67752 7.76904 -7.73348 7.71307 -7.73348 7.64404ZM-7.60848 57.7864C-7.67752 57.7864 -7.73348 57.8423 -7.73348 57.9114C-7.73348 57.9804 -7.67752 58.0364 -7.60848 58.0364H1611.04C1611.11 58.0364 1611.17 57.9804 1611.17 57.9114C1611.17 57.8767 1611.15 57.8453 1611.13 57.8226C1611.11 57.8002 1611.08 57.7864 1611.04 57.7864H-7.60848ZM-7.73348 108.179C-7.73348 108.11 -7.67752 108.054 -7.60848 108.054H1611.04C1611.11 108.054 1611.17 108.11 1611.17 108.179C1611.17 108.216 1611.15 108.249 1611.13 108.272C1611.12 108.275 1611.12 108.278 1611.12 108.28C1611.11 108.287 1611.1 108.293 1611.09 108.297C1611.08 108.299 1611.07 108.301 1611.07 108.302L1611.06 108.303L1611.04 108.304H-7.60848C-7.67752 108.304 -7.73348 108.248 -7.73348 108.179ZM-7.73348 158.446C-7.73348 158.377 -7.67752 158.321 -7.60848 158.321H1611.04C1611.06 158.321 1611.08 158.325 1611.1 158.332C1611.11 158.338 1611.12 158.346 1611.13 158.355C1611.15 158.378 1611.17 158.41 1611.17 158.446C1611.17 158.515 1611.11 158.571 1611.04 158.571H-7.60848C-7.67752 158.571 -7.73348 158.515 -7.73348 158.446ZM-7.73348 429.878C-7.73348 429.809 -7.67752 429.753 -7.60848 429.753H1611.04C1611.11 429.753 1611.17 429.809 1611.17 429.878C1611.17 429.919 1611.15 429.955 1611.12 429.978C1611.1 429.994 1611.07 430.003 1611.04 430.003H-7.60848C-7.67752 430.003 -7.73348 429.947 -7.73348 429.878ZM-7.60848 390.9C-7.67752 390.9 -7.73348 390.956 -7.73348 391.025C-7.73348 391.094 -7.67752 391.15 -7.60848 391.15H1611.04C1611.11 391.15 1611.17 391.094 1611.17 391.025C1611.17 390.956 1611.11 390.9 1611.04 390.9H-7.60848ZM-7.73348 360.542C-7.73348 360.472 -7.67752 360.417 -7.60848 360.417H1611.04C1611.11 360.417 1611.17 360.472 1611.17 360.542C1611.17 360.58 1611.15 360.615 1611.12 360.638C1611.1 360.656 1611.07 360.667 1611.04 360.667H-7.60848C-7.67752 360.667 -7.73348 360.611 -7.73348 360.542ZM-7.60848 480.978C-7.67752 480.978 -7.73348 481.034 -7.73348 481.103C-7.73348 481.172 -7.67752 481.228 -7.60848 481.228H1611.04C1611.11 481.228 1611.17 481.172 1611.17 481.103C1611.17 481.034 1611.11 480.978 1611.04 480.978H-7.60848ZM-7.73348 335.991C-7.73348 335.922 -7.67752 335.866 -7.60848 335.866H1611.04C1611.11 335.866 1611.17 335.922 1611.17 335.991C1611.17 336.06 1611.11 336.116 1611.04 336.116H-7.60848C-7.67752 336.116 -7.73348 336.06 -7.73348 335.991ZM-7.60848 315.665C-7.67752 315.665 -7.73348 315.721 -7.73348 315.79C-7.73348 315.859 -7.67752 315.915 -7.60848 315.915H1611.04C1611.07 315.915 1611.1 315.906 1611.12 315.891C1611.13 315.881 1611.14 315.867 1611.15 315.852C1611.16 315.834 1611.17 315.812 1611.17 315.79C1611.17 315.721 1611.11 315.665 1611.04 315.665H-7.60848ZM-7.73348 213.237C-7.73348 213.168 -7.67752 213.112 -7.60848 213.112H1611.04C1611.06 213.112 1611.08 213.115 1611.09 213.122C1611.11 213.127 1611.12 213.136 1611.13 213.146C1611.15 213.169 1611.17 213.201 1611.17 213.237C1611.17 213.244 1611.17 213.25 1611.17 213.257C1611.17 213.265 1611.16 213.272 1611.16 213.279L1611.16 213.285L1611.16 213.291C1611.15 213.297 1611.15 213.304 1611.15 213.31C1611.12 213.342 1611.09 213.362 1611.04 213.362H-7.60848C-7.67752 213.362 -7.73348 213.306 -7.73348 213.237ZM-7.60848 208.588C-7.67752 208.588 -7.73348 208.644 -7.73348 208.713C-7.73348 208.782 -7.67752 208.838 -7.60848 208.838H1611.04C1611.07 208.838 1611.1 208.828 1611.12 208.81C1611.15 208.787 1611.17 208.752 1611.17 208.713C1611.17 208.704 1611.17 208.696 1611.17 208.688C1611.16 208.68 1611.16 208.672 1611.16 208.665C1611.15 208.653 1611.15 208.641 1611.14 208.631C1611.12 208.605 1611.08 208.588 1611.04 208.588H-7.60848ZM-7.73348 223.607C-7.73348 223.538 -7.67752 223.482 -7.60848 223.482H1611.04C1611.11 223.482 1611.17 223.538 1611.17 223.607C1611.17 223.676 1611.11 223.732 1611.04 223.732H-7.60848C-7.67752 223.732 -7.73348 223.676 -7.73348 223.607ZM-7.60848 218.053C-7.67752 218.053 -7.73348 218.109 -7.73348 218.178C-7.73348 218.247 -7.67752 218.303 -7.60848 218.303H1611.04C1611.05 218.303 1611.06 218.303 1611.07 218.301C1611.08 218.299 1611.09 218.294 1611.1 218.288L1611.11 218.283L1611.12 218.279L1611.12 218.274L1611.13 218.268L1611.14 218.261C1611.15 218.251 1611.15 218.24 1611.16 218.228C1611.17 218.213 1611.17 218.196 1611.17 218.178C1611.17 218.109 1611.11 218.053 1611.04 218.053H-7.60848ZM-7.73348 272.152C-7.73348 272.083 -7.67752 272.027 -7.60848 272.027H1611.04C1611.11 272.027 1611.17 272.083 1611.17 272.152C1611.17 272.221 1611.11 272.277 1611.04 272.277H-7.60848C-7.67752 272.277 -7.73348 272.221 -7.73348 272.152ZM-7.60848 298.753C-7.67752 298.753 -7.73348 298.809 -7.73348 298.878C-7.73348 298.947 -7.67752 299.003 -7.60848 299.003H1611.04C1611.11 299.003 1611.17 298.947 1611.17 298.878C1611.17 298.809 1611.11 298.753 1611.04 298.753H-7.60848ZM-7.73348 551.727C-7.73348 551.658 -7.67752 551.602 -7.60848 551.602H1611.04C1611.11 551.602 1611.17 551.658 1611.17 551.727C1611.17 551.796 1611.11 551.852 1611.04 551.852H-7.60848C-7.67752 551.852 -7.73348 551.796 -7.73348 551.727ZM-7.60848 236.132C-7.67752 236.132 -7.73348 236.188 -7.73348 236.257C-7.73348 236.326 -7.67752 236.382 -7.60848 236.382H1611.04C1611.11 236.382 1611.17 236.326 1611.17 236.257C1611.17 236.188 1611.11 236.132 1611.04 236.132H-7.60848ZM-7.73348 229.593C-7.73348 229.524 -7.67752 229.468 -7.60848 229.468H1611.04C1611.11 229.468 1611.17 229.524 1611.17 229.593C1611.17 229.662 1611.11 229.718 1611.04 229.718H-7.60848C-7.67752 229.718 -7.73348 229.662 -7.73348 229.593ZM-7.60848 261.291C-7.67752 261.291 -7.73348 261.347 -7.73348 261.416C-7.73348 261.485 -7.67752 261.541 -7.60848 261.541H1611.04C1611.11 261.541 1611.17 261.485 1611.17 261.416C1611.17 261.347 1611.11 261.291 1611.04 261.291H-7.60848ZM-7.73348 251.986C-7.73348 251.917 -7.67752 251.861 -7.60848 251.861H1611.04C1611.11 251.861 1611.17 251.917 1611.17 251.986C1611.17 252.055 1611.11 252.111 1611.04 252.111H-7.60848C-7.67752 252.111 -7.73348 252.055 -7.73348 251.986ZM-7.60848 243.543C-7.67752 243.543 -7.73348 243.599 -7.73348 243.668C-7.73348 243.737 -7.67752 243.793 -7.60848 243.793H1611.04C1611.11 243.793 1611.17 243.737 1611.17 243.668C1611.17 243.599 1611.11 243.543 1611.04 243.543H-7.60848ZM-7.73348 284.506C-7.73348 284.437 -7.67752 284.381 -7.60848 284.381H1611.04C1611.11 284.381 1611.17 284.437 1611.17 284.506C1611.17 284.575 1611.11 284.631 1611.04 284.631H-7.60848C-7.67752 284.631 -7.73348 284.575 -7.73348 284.506ZM-7.28342 669.728C-7.35246 669.728 -7.40842 669.784 -7.40842 669.853C-7.40842 669.922 -7.35246 669.978 -7.28342 669.978H1609.31C1609.38 669.978 1609.44 669.922 1609.44 669.853C1609.44 669.784 1609.38 669.728 1609.31 669.728H-7.28342Z" fill="url(#paint1_linear_129_2536)"/>
    </g>
  </g>
  <defs>
    <linearGradient id="paint0_linear_129_2536" x1="801.718" y1="-453.882" x2="801.718" y2="669.979" gradientUnits="userSpaceOnUse">
      <stop stop-color="white"/>
      <stop offset="0.519512"/>
      <stop offset="1" stop-opacity="0"/>
    </linearGradient>
    <linearGradient id="paint1_linear_129_2536" x1="801.717" y1="-444.922" x2="801.717" y2="669.978" gradientUnits="userSpaceOnUse">
      <stop stop-color="white"/>
      <stop offset="0.519512"/>
      <stop offset="1" stop-opacity="0"/>
    </linearGradient>
  </defs>
</svg>
