<svg viewBox="0 0 35 35" fill="none" xmlns="http://www.w3.org/2000/svg">
  <path d="M4.8125 4.8125H29.6043C31.0626 4.8125 31.7918 5.54167 31.7918 7C31.7918 8.45833 31.0626 9.1875 29.6043 9.1875H4.8125C3.35417 9.1875 2.625 8.45833 2.625 7C2.625 5.54167 3.35417 4.8125 4.8125 4.8125Z" fill="black"/>
  <path d="M4.8125 15.0205H29.6043C31.0626 15.0205 31.7918 15.7497 31.7918 17.208C31.7918 18.6663 31.0626 19.3955 29.6043 19.3955H4.8125C3.35417 19.3955 2.625 18.6663 2.625 17.208C2.625 15.7497 3.35417 15.0205 4.8125 15.0205Z" fill="black"/>
  <path d="M4.8125 25.2295H17.9375C19.3958 25.2295 20.125 25.9587 20.125 27.417C20.125 28.8753 19.3958 29.6045 17.9375 29.6045H4.8125C3.35417 29.6045 2.625 28.8753 2.625 27.417C2.625 25.9587 3.35417 25.2295 4.8125 25.2295Z" fill="black"/>
</svg>
