<svg viewBox="0 0 20 20" fill="none" xmlns="http://www.w3.org/2000/svg">
  <path d="M12.0458 1.6665L17.5 6.79484V16.6665C17.5 16.8854 17.4569 17.1021 17.3731 17.3043C17.2894 17.5065 17.1666 17.6903 17.0118 17.845C16.8571 17.9998 16.6733 18.1225 16.4711 18.2063C16.2689 18.2901 16.0522 18.3332 15.8333 18.3332H4.16667C3.9478 18.3332 3.73107 18.2901 3.52886 18.2063C3.32665 18.1225 3.14292 17.9998 2.98816 17.845C2.83339 17.6903 2.71063 17.5065 2.62687 17.3043C2.54311 17.1021 2.5 16.8854 2.5 16.6665V3.33317C2.5 3.1143 2.54311 2.89757 2.62687 2.69536C2.71063 2.49316 2.83339 2.30942 2.98816 2.15466C3.14292 1.99989 3.32665 1.87713 3.52886 1.79337C3.73107 1.70961 3.9478 1.6665 4.16667 1.6665H12.0458ZM16.8183 7.43567L11.3633 2.30817V5.76984C11.3633 6.21186 11.5389 6.63579 11.8515 6.94835C12.164 7.26091 12.588 7.4365 13.03 7.4365H16.8183V7.43567ZM4.54583 9.99984V14.3907H5.09417V12.3873H5.375C5.915 12.3873 6.29167 12.3657 6.50417 12.324C6.71667 12.2823 6.89583 12.2098 7.04333 12.1073C7.19 12.0065 7.3025 11.8773 7.38083 11.7215C7.46 11.5657 7.49917 11.389 7.49917 11.1932C7.49917 10.9973 7.45917 10.8215 7.37833 10.6657C7.29883 10.5112 7.18407 10.3776 7.04333 10.2757C6.90311 10.1728 6.74352 10.0994 6.57417 10.0598C6.40417 10.0198 6.04667 9.99984 5.5025 9.99984H4.54583ZM5.09417 11.889V10.504H5.86C6.57417 10.504 6.93167 10.7315 6.93167 11.1873C6.93331 11.2844 6.91321 11.3805 6.87284 11.4688C6.83246 11.557 6.77283 11.6351 6.69833 11.6973C6.54333 11.8332 6.25083 11.8973 5.82167 11.889H5.09417ZM8.3225 9.99984V14.3907H9.8275C10.4525 14.3907 10.9275 14.2973 11.2533 14.1115C11.5783 13.9257 11.83 13.6673 12.0067 13.3373C12.1825 13.0082 12.2708 12.6565 12.2708 12.2848C12.2708 11.9132 12.2117 11.5848 12.0925 11.3015C11.9785 11.0248 11.8029 10.7777 11.5792 10.579C11.3492 10.3772 11.0783 10.2277 10.785 10.1407C10.4783 10.0465 9.98917 9.99984 9.3175 9.99984H8.3225ZM8.85167 13.8982V10.504H9.1325C9.65583 10.504 10.0575 10.529 10.3383 10.579C10.6192 10.629 10.8633 10.729 11.0717 10.879C11.28 11.029 11.4408 11.2223 11.5533 11.4607C11.6658 11.6982 11.7225 11.9573 11.7225 12.2373C11.7225 12.5173 11.675 12.764 11.5792 12.9782C11.4849 13.1895 11.3415 13.3752 11.1608 13.5198C10.9775 13.6682 10.7633 13.7682 10.5167 13.8198C10.27 13.8723 9.87667 13.8982 9.33667 13.8982H8.85167ZM15.4542 12.279V11.769H13.6175V10.5098H15.4542V9.99984H13.0683V14.3907H13.6175V12.279H15.4542Z" fill="currentColor"/>
</svg>
