<svg width="40" height="40" viewBox="0 0 40 40" fill="none" xmlns="http://www.w3.org/2000/svg">
<rect width="40" height="40" rx="20" fill="black"/>
<path fill-rule="evenodd" clip-rule="evenodd" d="M31 15.6V15.391C31 15.171 30.989 14.951 30.967 14.731C30.747 11.343 28.657 9.253 25.269 9.033C25.049 9.011 24.829 9 24.609 9H15.391C15.171 9 14.951 9.011 14.731 9.033C11.343 9.253 9.253 11.343 9.033 14.731C9.011 14.951 9 15.171 9 15.391V15.611C9 16.216 9.495 16.711 10.1 16.711L29.9 16.7C30.505 16.7 31 16.205 31 15.6ZM10.1 17.7998H29.9C30.505 17.7998 31 18.2948 31 18.8998V24.6088C31 24.8288 30.989 25.0488 30.967 25.2688C30.747 28.6568 28.657 30.7468 25.269 30.9668C25.049 30.9888 24.829 30.9998 24.609 30.9998H15.391C15.171 30.9998 14.951 30.9888 14.731 30.9668C11.343 30.7468 9.253 28.6568 9.033 25.2688C9.011 25.0488 9 24.8288 9 24.6088V18.8998C9 18.2948 9.495 17.7998 10.1 17.7998ZM17.063 25.8628C16.48 25.5658 15.974 25.1148 15.6 24.5648C15.534 24.4658 15.534 24.3338 15.6 24.2348C15.974 23.6848 16.48 23.2338 17.063 22.9368C17.481 22.7388 17.646 22.2438 17.437 21.8258C17.239 21.4188 16.744 21.2538 16.337 21.4628C15.479 21.8808 14.753 22.5298 14.236 23.3108C13.796 23.9708 13.796 24.8288 14.236 25.4888C14.753 26.2698 15.479 26.9188 16.337 27.3368C16.447 27.3918 16.579 27.4248 16.7 27.4248C16.997 27.4248 17.294 27.2598 17.437 26.9738C17.646 26.5558 17.481 26.0608 17.063 25.8628ZM23.894 27.3368C24.741 26.9188 25.467 26.2698 25.995 25.4888C26.435 24.8288 26.435 23.9708 25.995 23.3108C25.467 22.5298 24.741 21.8808 23.894 21.4628C23.487 21.2538 22.992 21.4188 22.794 21.8258C22.585 22.2438 22.75 22.7388 23.157 22.9368C23.751 23.2338 24.257 23.6848 24.62 24.2348C24.697 24.3338 24.697 24.4658 24.62 24.5648C24.257 25.1148 23.751 25.5658 23.157 25.8628C22.75 26.0608 22.585 26.5558 22.794 26.9738C22.937 27.2598 23.223 27.4248 23.531 27.4248C23.652 27.4248 23.773 27.3918 23.894 27.3368Z" fill="white"/>
</svg>
