<svg width="245" height="67" viewBox="0 0 245 67" fill="none" xmlns="http://www.w3.org/2000/svg">
<path fill-rule="evenodd" clip-rule="evenodd" d="M0 0H23.5002L31.4625 41.1534L39.4247 0H62.9249V66.8148H47.4643V24.6528H47.1551L38.1879 66.8148H24.8144L15.6926 24.6528H15.4607V66.8148H0V0ZM104.983 66.8148L102.122 53.788H84.8838L82.0236 66.8148H65.2488L81.7144 0H105.292L121.835 66.8148H104.983ZM87.8214 40.341H99.185L93.6191 14.5396H93.4645L87.8214 40.341ZM126.469 66.8148H141.93V0H126.469V66.8148ZM187.998 66.8148H148.882V0H164.343V50.5663H187.998V66.8148ZM194.299 16.8088V3.16137e-05H244.804V16.8088H194.299ZM194.299 24.9965V41.8052H244.804V24.9965H194.299ZM194.299 49.9922V66.8009H244.804V49.9922H194.299Z" fill="url(#paint0_linear_485_12947)"/>
<defs>
<linearGradient id="paint0_linear_485_12947" x1="1.23127e-07" y1="12.8062" x2="257.856" y2="60.4412" gradientUnits="userSpaceOnUse">
<stop stop-color="#FFD568"/>
<stop offset="0.515625" stop-color="#5EE2FF"/>
<stop offset="1" stop-color="#BC2FFF"/>
</linearGradient>
</defs>
</svg>
