<svg viewBox="0 0 227 250" fill="none" xmlns="http://www.w3.org/2000/svg">
<g clip-path="url(#clip0_485_12932)">
<path d="M26.8137 254.63C31.7239 196.149 44.0427 102.513 60.1141 46.0371C62.2234 38.6297 64.2206 31.2223 66.8339 23.9074C68.9431 18.0926 71.8737 12.0741 77.0254 8.35189L71.9297 7.01856C78.8101 19.0852 84.3489 31.8577 88.4488 45.1112C89.8301 49.5 91.6407 53.8334 96.0645 55.8148C99.9388 57.3603 104.045 58.2553 108.216 58.463C116.323 59.3298 124.518 58.8858 132.482 57.1482C136.873 56.2076 140.781 53.7374 143.495 50.1852C145.697 47 146.201 43.0926 147.228 39.463C148.152 36.688 149.359 34.0136 150.831 31.4815C152.4 28.2834 153.771 24.9933 154.937 21.6297C157.046 16.0741 159.902 9.24078 166.137 7.22226L161.526 4.72226C170.68 35.1886 178.287 66.0917 184.317 97.3148C190.368 128.632 194.804 160.235 197.607 192C199.188 209.889 200.258 233.012 200.818 250.926C200.948 255.685 208.415 255.704 208.284 250.926C207.283 218.877 204.654 181.676 200.407 149.889C196.164 118.069 190.314 86.4795 182.88 55.2408C178.661 37.6111 173.945 20.1112 168.731 2.74078C168.601 2.27124 168.38 1.83165 168.079 1.44716C167.778 1.06267 167.403 0.740825 166.977 0.500031C166.55 0.259238 166.08 0.104221 165.593 0.0438487C165.106 -0.0165238 164.612 0.0189324 164.139 0.148189C158.664 2.12889 154.153 6.10105 151.521 11.2593C148.516 16.5371 147.191 22.5371 144.391 27.926C142.115 32.1397 140.361 36.6102 139.164 41.2408C138.306 44.6482 137.615 46.8889 134.367 48.6482C131.694 49.9159 128.809 50.6818 125.855 50.9074C121.722 51.3578 117.562 51.531 113.405 51.426C109.566 51.4311 105.739 50.9961 102 50.1297C100.831 49.8706 99.7013 49.4596 98.6404 48.9074C98.4537 48.8149 97.7631 48.2037 98.3977 48.7963C98.1829 48.6006 97.989 48.3834 97.8191 48.1482C97.0932 47.0382 96.5218 45.8359 96.1205 44.5741C93.7873 37.6667 91.566 30.7778 88.6541 24.0371C85.6357 16.9244 82.1889 9.99833 78.3321 3.29634C77.8376 2.48173 77.0463 1.88702 76.122 1.63536C75.1977 1.3837 74.2112 1.49438 73.3669 1.94449C62.6714 9.66671 59.2929 22.7037 55.7463 34.6667C51.4532 49.1729 47.5209 63.7716 43.9495 78.463C36.7196 108.006 31.0078 137.846 26.8142 167.982C24.4499 184.895 20.7908 237.617 19.3473 254.63C18.9367 259.389 26.4217 259.37 26.8137 254.63Z" fill="black"/>
<path d="M56.8027 68.3806C72.9706 65.2971 88.6125 70.7086 100.557 81.6859C110.282 90.5934 117.517 101.867 121.552 114.402C122.527 117.328 123.049 120.385 123.099 123.467C123.099 125.641 122.65 128.247 121.273 129.449C121.273 129.449 120.747 129.819 120.639 129.866C120.871 129.773 120.36 129.866 120.268 129.958C119.726 130.082 120.422 129.958 120.02 129.958C119.71 129.995 119.397 129.97 119.097 129.885C118.797 129.801 118.516 129.658 118.272 129.465C116.487 128.074 115.205 126.142 114.62 123.961C112.238 116.56 113.708 107.942 115.889 100.665C117.948 93.6162 121.546 87.1087 126.425 81.6088C137.627 69.2748 154.274 64.9116 170.489 66.3455C172.98 66.5613 175.455 66.9159 177.931 67.363C180.839 67.9026 182.093 63.447 179.153 62.9073C160.587 59.5155 140.721 62.0131 126.379 75.0872C120.334 80.7157 115.684 87.6667 112.795 95.3921C109.7 103.548 107.906 113.045 109.314 121.725C110.18 126.967 113.46 134.722 119.912 134.614C126.363 134.506 128.096 126.566 127.648 121.371C126.839 114.742 124.798 108.321 121.629 102.438C118.217 95.5574 113.887 89.1681 108.757 83.4435C97.1374 70.4774 80.9076 61.7665 63.0687 62.9382C60.5385 63.1056 58.0217 63.4352 55.534 63.9249C52.6098 64.4954 53.8476 68.951 56.7717 68.3806H56.8027Z" fill="black"/>
<path d="M83.3584 76.9231H55.1493C41.6901 76.9231 30.7793 91.012 30.7793 108.392C30.7793 125.771 47.2448 146.154 60.704 146.154H77.8038C91.263 146.154 107.728 125.771 107.728 108.392C107.728 91.012 96.8176 76.9231 83.3584 76.9231Z" fill="black"/>
<path d="M179.545 76.9231H151.336C137.877 76.9231 126.966 91.012 126.966 108.392C126.966 125.771 143.431 146.154 156.89 146.154H173.99C187.449 146.154 203.915 125.771 203.915 108.392C203.915 91.012 193.004 76.9231 179.545 76.9231Z" fill="black"/>
<path d="M30.7793 92.3077C51.2991 100 76.564 96.1538 121.195 96.1538C165.825 96.1538 182.113 97.4359 201.991 92.3077" stroke="black" stroke-width="6" stroke-linecap="round"/>
<path d="M102.307 185.638C104.607 187.147 107.339 187.863 110.092 187.676C112.844 187.49 115.468 186.412 117.568 184.605C119.668 182.798 121.13 180.36 121.734 177.658C122.337 174.956 122.05 172.136 120.915 169.624L118.246 173.654C123.941 174.381 129.128 173.428 132.75 168.53C136.218 163.933 136.103 157.903 134.2 152.726C132.955 149.373 127.958 151.884 129.198 155.211C129.893 156.867 130.159 158.675 129.97 160.467C129.781 162.259 129.143 163.977 128.117 165.462C125.628 168.649 122.183 168.516 118.527 168.065C118.045 168.051 117.566 168.16 117.137 168.383C116.707 168.606 116.341 168.935 116.074 169.339C115.806 169.743 115.645 170.209 115.607 170.691C115.57 171.173 115.656 171.657 115.857 172.094C116.403 173.503 116.494 175.05 116.117 176.519C115.74 177.988 114.914 179.305 113.755 180.284C112.596 181.263 111.163 181.856 109.656 181.978C108.15 182.101 106.647 181.747 105.358 180.966C102.31 179.127 99.2024 183.784 102.266 185.633L102.307 185.638Z" fill="black"/>
<path d="M76.9492 96.1539C74.201 101.981 66.5061 113.986 57.7119 115.385" stroke="white" stroke-width="3" stroke-linecap="round"/>
<path d="M173.136 96.1539C170.388 101.981 162.693 113.986 153.898 115.385" stroke="white" stroke-width="3" stroke-linecap="round"/>
<path d="M88.4912 107.692C85.743 113.52 78.0481 125.524 69.2539 126.923" stroke="white" stroke-width="3" stroke-linecap="round"/>
<path d="M184.678 107.692C181.93 113.52 174.235 125.524 165.44 126.923" stroke="white" stroke-width="3" stroke-linecap="round"/>
</g>
<defs>
<clipPath id="clip0_485_12932">
<rect width="227" height="250" fill="white"/>
</clipPath>
</defs>
</svg>
