<svg viewBox="0 0 371 149" fill="none" xmlns="http://www.w3.org/2000/svg">
  <g clip-path="url(#clip0_485_13042)">
    <path d="M363.085 123.435C357.143 119.663 350.918 116.356 344.465 113.544C333.761 108.965 322.773 105.046 311.786 100.821C315.33 95.344 319.324 89.9146 322.514 84.0604C335.155 61.0211 332.201 36.4946 309.659 20.1122C274.972 -5.12243 238.654 -6.04307 201.202 14.1635C180.456 25.4235 162.474 40.366 145.626 56.654C136.175 65.8603 127.456 75.9872 117.98 85.2879C111.293 91.8739 104.252 92.2044 96.5724 87.0819C86.462 80.2124 74.9694 75.636 62.901 73.6738C52.2686 71.7018 41.2809 73.4175 31.7579 78.5366C7.51443 74.3348 5.88403 78.0409 5.2933 79.4573C3.4266 83.8007 10.7044 89.7022 17.2732 93.1014C18.7382 98.3183 21.2666 102.803 20.2269 108.799C19.1872 114.795 17.864 115.574 13.3036 125.323C6.42749 126.905 -0.613969 129.62 0.000387147 134.105C0.213049 135.663 3.07217 140.313 28.9224 142.438C31.1803 143.51 33.5608 144.302 36.0111 144.798C44.4077 146.354 52.9038 147.317 61.436 147.678C74.7864 148.339 126.534 148.622 138.16 148.693C198.351 149.055 258.526 149.126 318.686 148.906C331.989 148.906 345.292 148.127 358.548 147.112C361.406 147.057 364.163 146.049 366.381 144.248C368.599 142.447 370.15 139.957 370.788 137.174C372.229 130.658 367.976 126.456 363.085 123.435ZM362.636 140.714C359.666 142.352 356.36 143.288 352.971 143.453C321.261 144.09 289.551 144.515 257.864 144.963C257.581 144.963 257.297 144.727 256.47 144.373C257.223 143.594 257.787 142.653 258.119 141.622C258.451 140.591 258.542 139.497 258.384 138.426C258.227 137.354 257.825 136.333 257.211 135.441C256.596 134.548 255.785 133.809 254.84 133.279C248.994 129.47 242.961 125.956 236.764 122.75C234.429 121.688 232.011 120.82 229.533 120.154C231.896 113.969 234.259 108.162 236.622 102.497C241.608 91.2366 246.31 79.8113 252.028 68.9291C255.383 62.5319 260.511 57.1261 264.717 51.1066C265.43 49.7415 265.962 48.2893 266.3 46.7868C264.764 47.2117 262.756 47.1645 261.763 48.1323C258.691 51.1539 255.856 54.4351 252.477 58.2592C252.052 59.0146 251.603 59.7464 251.201 60.5018C251.059 60.7614 249.972 63.1456 250.516 61.7529C249.745 63.7741 248.553 65.6086 247.019 67.135C246.945 68.4374 246.666 69.7201 246.192 70.9355C239.386 86.6334 232.345 102.237 225.091 118.501C223.957 118.265 222.137 117.982 220.365 117.533C202.998 113.048 185.63 108.587 168.192 104.338C166.845 104.007 165.168 104.904 163.655 105.258C164.86 106.203 166.018 107.619 167.294 108.044C185.418 112.765 203.588 117.486 221.641 122.207C231.589 124.804 241.348 128.062 249.712 134.294C251.366 135.918 252.789 137.76 253.942 139.77C251.815 140.974 249.76 143.004 247.539 143.24C237.202 144.614 226.797 145.402 216.372 145.601C182.37 145.27 148.367 144.444 114.365 143.571C112.191 143.571 93.5006 144.019 91.4213 144.137C72.3423 145.224 53.2019 143.972 34.4279 140.408C30.2692 139.629 20.2505 136.418 20.4395 136.678C15.2106 136.22 10.0547 135.142 5.08064 133.467C7.67568 132.161 10.3604 131.041 13.1145 130.115C14.5433 129.565 15.8167 128.675 16.8251 127.524C17.8336 126.373 18.5469 124.994 18.9036 123.506C19.967 119.611 23.8657 115.409 24.2202 111.254C24.9291 103.37 22.448 90.0091 21.6446 89.6078C17.6151 87.1803 13.7548 84.4831 10.09 81.5346C12.6419 81.0152 27.1266 84.1076 28.0245 84.4853C28.6324 84.7233 29.2177 85.0156 29.773 85.3587C34.1636 81.9983 39.1942 79.568 44.5571 78.2164C49.9201 76.8648 55.5026 76.6203 60.9634 77.498C72.6396 78.9855 83.7718 83.314 93.3825 90.1035C105.504 98.9321 116.468 94.8247 125.022 84.9102C145.319 61.3752 167.247 39.6814 193.759 23.2046C214.056 10.599 235.795 2.36061 260.204 4.91004C280.997 7.12899 300.16 14.3524 314.385 30.0975C327.854 45.1108 329.886 61.3752 319.111 81.6054C312.282 94.3525 302.571 104.574 291.961 114.229C291.489 114.677 290.827 115.031 290.614 115.574C290.243 116.759 289.943 117.965 289.716 119.186C290.992 119.021 292.67 119.351 293.426 118.667C297.349 115.149 300.893 111.183 304.91 107.761C305.69 107.086 306.599 106.575 307.581 106.258C308.564 105.942 309.6 105.827 310.628 105.919C329.235 110.279 346.891 117.99 362.73 128.675C368.378 132.547 368.354 137.126 362.636 140.714Z" fill="black"/>
    <path d="M43.1465 136.111C43.1465 137.339 45.1077 138.472 46.1947 139.51C47.3761 138.33 49.2428 137.291 49.5264 135.946C49.8099 134.6 47.8723 133.585 46.2419 131.225C44.706 133.562 43.0284 134.907 43.1465 136.111Z" fill="black"/>
    <path d="M50.0225 92.4168C51.2039 93.4555 52.3854 95.2495 53.5668 95.3676C54.7483 95.4856 56.1188 93.8568 58.2926 92.346C56.0479 90.67 54.5829 88.8051 53.5668 89.0176C52.2672 89.3009 51.2275 91.1893 50.0225 92.4168Z" fill="black"/>
    <path d="M63.4909 118.029C63.0419 119.56 62.1087 120.905 60.8309 121.863C59.5531 122.82 57.9994 123.339 56.4022 123.34C54.4071 123.507 52.4029 123.149 50.5894 122.302C47.0663 120.631 44.0975 117.984 42.0357 114.677C34.498 119.516 27.8583 129.195 24.3375 141.21L20.8877 140.242C24.5502 127.33 31.9225 116.92 40.2635 111.538C35.963 102.591 35.2069 89.8674 38.9167 76.837L42.3665 77.8048C39.0585 89.7021 39.7437 101.505 43.5952 109.649C47.3017 107.785 51.496 107.117 55.5988 107.737C57.0156 107.963 58.3685 108.486 59.5685 109.271C61.1274 110.062 62.3674 111.363 63.0814 112.957C63.7954 114.551 63.9399 116.341 63.4909 118.029ZM45.4147 112.883C47.0762 115.464 49.4244 117.532 52.1962 118.855C53.4601 119.461 54.8644 119.714 56.2604 119.587C59.4031 119.304 59.8993 117.604 60.0411 117.061C60.5136 115.409 59.6866 113.875 57.6782 112.529C56.8587 112.007 55.9428 111.653 54.9844 111.49C51.7339 110.97 48.4018 111.43 45.4147 112.812V112.883Z" fill="black"/>
  </g>
  <defs>
    <clipPath id="clip0_485_13042">
      <rect width="371" height="149" fill="white"/>
    </clipPath>
  </defs>
</svg>
