<svg width="20" height="20" viewBox="0 0 20 20" fill="none" xmlns="http://www.w3.org/2000/svg">
<path d="M14.6084 6.47533C14.55 6.46699 14.4917 6.46699 14.4334 6.47533C13.1417 6.43366 12.1167 5.37533 12.1167 4.07533C12.1167 2.75033 13.1917 1.66699 14.525 1.66699C15.85 1.66699 16.9334 2.74199 16.9334 4.07533C16.925 5.37533 15.9 6.43366 14.6084 6.47533Z" fill="currentColor"/>
<path d="M17.325 12.2503C16.3917 12.8753 15.0834 13.1087 13.875 12.9503C14.1917 12.267 14.3584 11.5087 14.3667 10.7087C14.3667 9.87534 14.1834 9.08367 13.8334 8.392C15.0667 8.22534 16.375 8.45867 17.3167 9.08367C18.6334 9.95034 18.6334 11.3753 17.325 12.2503Z" fill="currentColor"/>
<path d="M5.36672 6.47533C5.42505 6.46699 5.48338 6.46699 5.54172 6.47533C6.83338 6.43366 7.85838 5.37533 7.85838 4.07533C7.85838 2.74199 6.78338 1.66699 5.45005 1.66699C4.12505 1.66699 3.05005 2.74199 3.05005 4.07533C3.05005 5.37533 4.07505 6.43366 5.36672 6.47533Z" fill="currentColor"/>
<path d="M5.45831 10.7079C5.45831 11.5162 5.63331 12.2829 5.94998 12.9745C4.77498 13.0995 3.54998 12.8495 2.64998 12.2579C1.33331 11.3829 1.33331 9.95785 2.64998 9.08285C3.54164 8.48285 4.79998 8.24118 5.98331 8.37452C5.64164 9.07452 5.45831 9.86618 5.45831 10.7079Z" fill="currentColor"/>
<path d="M10.1 13.225C10.0333 13.2167 9.95833 13.2167 9.88333 13.225C8.35 13.175 7.125 11.9167 7.125 10.3667C7.13333 8.78333 8.40833 7.5 10 7.5C11.5833 7.5 12.8667 8.78333 12.8667 10.3667C12.8583 11.9167 11.6417 13.175 10.1 13.225Z" fill="currentColor"/>
<path d="M7.39163 14.9502C6.13329 15.7919 6.13329 17.1752 7.39163 18.0085C8.82496 18.9669 11.175 18.9669 12.6083 18.0085C13.8666 17.1669 13.8666 15.7835 12.6083 14.9502C11.1833 13.9919 8.83329 13.9919 7.39163 14.9502Z" fill="currentColor"/>
</svg>
