<svg viewBox="0 0 16 16" fill="none" xmlns="http://www.w3.org/2000/svg">
    <path d="M13.3615 4.54667L9.52146 1.86C8.47479 1.12667 6.86813 1.16667 5.86146 1.94667L2.52146 4.55333C1.85479 5.07333 1.32812 6.14 1.32812 6.98V11.58C1.32812 13.28 2.70812 14.6667 4.40812 14.6667H11.5948C13.2948 14.6667 14.6748 13.2867 14.6748 11.5867V7.06667C14.6748 6.16667 14.0948 5.06 13.3615 4.54667ZM8.50146 12C8.50146 12.2733 8.27479 12.5 8.00146 12.5C7.72813 12.5 7.50146 12.2733 7.50146 12V10C7.50146 9.72667 7.72813 9.5 8.00146 9.5C8.27479 9.5 8.50146 9.72667 8.50146 10V12Z" fill="currentColor"/>
</svg>
