<svg viewBox="0 0 16 16" fill="none" xmlns="http://www.w3.org/2000/svg">
    <path d="M10.5318 1.47329C10.2585 1.19995 9.78516 1.38662 9.78516 1.76662V4.09329C9.78516 5.06662 10.6118 5.87329 11.6185 5.87329C12.2518 5.87995 13.1318 5.87995 13.8852 5.87995C14.2652 5.87995 14.4652 5.43329 14.1985 5.16662C13.2385 4.19995 11.5185 2.45995 10.5318 1.47329Z" fill="currentColor"/>
    <path d="M13.668 6.79337H11.7413C10.1613 6.79337 8.87464 5.50671 8.87464 3.92671V2.00004C8.87464 1.63337 8.57464 1.33337 8.20797 1.33337H5.3813C3.32797 1.33337 1.66797 2.66671 1.66797 5.04671V10.9534C1.66797 13.3334 3.32797 14.6667 5.3813 14.6667H10.6213C12.6746 14.6667 14.3346 13.3334 14.3346 10.9534V7.46004C14.3346 7.09337 14.0346 6.79337 13.668 6.79337ZM7.66797 11.8334H5.0013C4.72797 11.8334 4.5013 11.6067 4.5013 11.3334C4.5013 11.06 4.72797 10.8334 5.0013 10.8334H7.66797C7.9413 10.8334 8.16797 11.06 8.16797 11.3334C8.16797 11.6067 7.9413 11.8334 7.66797 11.8334ZM9.0013 9.16671H5.0013C4.72797 9.16671 4.5013 8.94004 4.5013 8.66671C4.5013 8.39337 4.72797 8.16671 5.0013 8.16671H9.0013C9.27463 8.16671 9.5013 8.39337 9.5013 8.66671C9.5013 8.94004 9.27463 9.16671 9.0013 9.16671Z" fill="currentColor"/>
</svg>
