<svg viewBox="0 0 16 16" fill="none" xmlns="http://www.w3.org/2000/svg">
    <path d="M11.2148 1.33337H4.78818C3.36818 1.33337 2.21484 2.49337 2.21484 3.90671V13.3C2.21484 14.5 3.07484 15.0067 4.12818 14.4267L7.38151 12.62C7.72818 12.4267 8.28818 12.4267 8.62818 12.62L11.8815 14.4267C12.9348 15.0134 13.7948 14.5067 13.7948 13.3V3.90671C13.7882 2.49337 12.6348 1.33337 11.2148 1.33337ZM9.66818 7.60004H8.50151V8.80671C8.50151 9.08004 8.27484 9.30671 8.00151 9.30671C7.72818 9.30671 7.50151 9.08004 7.50151 8.80671V7.60004H6.33484C6.06151 7.60004 5.83484 7.37337 5.83484 7.10004C5.83484 6.82671 6.06151 6.60004 6.33484 6.60004H7.50151V5.47337C7.50151 5.20004 7.72818 4.97337 8.00151 4.97337C8.27484 4.97337 8.50151 5.20004 8.50151 5.47337V6.60004H9.66818C9.94151 6.60004 10.1682 6.82671 10.1682 7.10004C10.1682 7.37337 9.94151 7.60004 9.66818 7.60004Z" fill="currentColor"/>
</svg>
