<svg width="224" height="90" viewBox="0 0 224 90" fill="none" xmlns="http://www.w3.org/2000/svg">
<g clip-path="url(#clip0_6586_46369)">
<path d="M219.221 74.5581C215.633 72.2797 211.875 70.2823 207.979 68.5837C201.516 65.8176 194.882 63.4507 188.248 60.8984C190.388 57.5904 192.799 54.3109 194.725 50.7748C202.358 36.8585 200.574 22.0438 186.964 12.1484C166.021 -3.09401 144.093 -3.6501 121.48 8.55522C108.954 15.3566 98.0974 24.3822 87.9253 34.2206C82.2186 39.7815 76.9543 45.8984 71.2334 51.5163C67.1959 55.4944 62.9445 55.694 58.3078 52.5999C52.2034 48.4505 45.2645 45.6862 37.9779 44.501C31.5583 43.3099 24.9242 44.3462 19.1745 47.4383C4.53696 44.9003 3.55256 47.1389 3.1959 47.9944C2.06884 50.618 6.46295 54.1826 10.4291 56.2358C11.3136 59.387 12.8401 62.0961 12.2124 65.7178C11.5847 69.3394 10.7857 69.81 8.03228 75.6988C3.8807 76.6541 -0.370753 78.2938 0.000178473 81.0029C0.128578 81.944 1.85484 84.7529 17.4625 86.0362C18.8258 86.6838 20.2631 87.1626 21.7425 87.4621C26.8122 88.4019 31.9418 88.9832 37.0934 89.2016C45.154 89.6008 76.3979 89.7719 83.417 89.8147C119.759 90.0334 156.091 90.0761 192.414 89.9431C200.446 89.9431 208.478 89.4725 216.482 88.8594C218.207 88.8265 219.872 88.2177 221.211 87.1299C222.55 86.0421 223.487 84.5378 223.872 82.8566C224.742 78.9212 222.174 76.3832 219.221 74.5581ZM218.95 84.9953C217.157 85.9843 215.161 86.5501 213.115 86.6493C193.969 87.0343 174.823 87.291 155.692 87.5619C155.52 87.5619 155.349 87.4193 154.85 87.2054C155.305 86.7348 155.645 86.1662 155.846 85.5434C156.046 84.9206 156.101 84.2601 156.006 83.6129C155.91 82.9656 155.668 82.3488 155.297 81.8098C154.926 81.2708 154.436 80.8241 153.866 80.5039C150.336 78.2036 146.693 76.0812 142.952 74.1446C141.542 73.503 140.082 72.9784 138.586 72.5761C140.013 68.8404 141.439 65.3328 142.866 61.9107C145.876 55.1094 148.715 48.2083 152.168 41.6351C154.194 37.771 157.29 34.5058 159.829 30.8699C160.26 30.0453 160.581 29.1681 160.785 28.2605C159.858 28.5172 158.645 28.4887 158.046 29.0733C156.191 30.8984 154.479 32.8803 152.439 35.1902C152.182 35.6465 151.911 36.0885 151.668 36.5448C151.583 36.7016 150.927 38.1417 151.255 37.3005C150.789 38.5213 150.07 39.6294 149.143 40.5514C149.099 41.3381 148.93 42.1129 148.644 42.847C144.535 52.329 140.284 61.7539 135.904 71.578C135.219 71.4354 134.121 71.2643 133.051 70.9934C122.565 68.2843 112.079 65.5894 101.55 63.0229C100.737 62.8233 99.7238 63.3651 98.8107 63.579C99.5383 64.1493 100.237 65.0048 101.008 65.2615C111.95 68.1132 122.921 70.9649 133.821 73.8166C139.827 75.3851 145.719 77.3527 150.77 81.117C151.768 82.0981 152.627 83.2111 153.323 84.425C152.039 85.1522 150.798 86.3784 149.457 86.521C143.217 87.3506 136.934 87.8266 130.64 87.9469C110.11 87.7472 89.5802 87.2482 69.0506 86.7206C67.738 86.7206 56.4531 86.9915 55.1977 87.0628C43.6783 87.7195 32.1218 86.9629 20.7866 84.81C18.2757 84.3394 12.2267 82.4003 12.3408 82.5571C9.18367 82.2807 6.07069 81.6297 3.0675 80.618C4.63432 79.829 6.25529 79.1524 7.91815 78.5932C8.78079 78.2606 9.54964 77.7234 10.1585 77.0279C10.7674 76.3325 11.1981 75.4995 11.4135 74.6008C12.0555 72.2482 14.4095 69.7102 14.6235 67.2007C15.0514 62.4383 13.5535 54.368 13.0684 54.1256C10.6355 52.6593 8.3047 51.0301 6.09202 49.2491C7.63281 48.9355 16.3782 50.8033 16.9204 51.0315C17.2875 51.1752 17.6408 51.3518 17.9761 51.559C20.627 49.5292 23.6643 48.0613 26.9024 47.2449C30.1404 46.4285 33.511 46.2808 36.808 46.8109C43.8578 47.7094 50.5792 50.324 56.3818 54.425C63.7006 59.7577 70.3203 57.2767 75.4848 51.2881C87.7398 37.0723 100.979 23.9687 116.986 14.0162C129.241 6.40218 142.367 1.42595 157.104 2.96587C169.659 4.30617 181.229 8.66929 189.817 18.1797C197.949 27.2482 199.176 37.0723 192.671 49.2919C188.548 56.9915 182.684 63.1655 176.278 68.9972C175.993 69.2682 175.594 69.482 175.465 69.81C175.241 70.5257 175.06 71.2542 174.923 71.9915C175.693 71.8917 176.706 72.0913 177.163 71.6778C179.531 69.5533 181.671 67.1579 184.096 65.0904C184.568 64.6826 185.116 64.374 185.709 64.1829C186.303 63.9918 186.928 63.9222 187.549 63.9782C198.783 66.6116 209.444 71.2695 219.007 77.7235C222.417 80.0619 222.402 82.828 218.95 84.9953Z" fill="black"/>
<path d="M26.0504 82.2149C26.0504 82.9564 27.2346 83.6408 27.8908 84.2682C28.6042 83.5552 29.7312 82.9279 29.9024 82.1151C30.0736 81.3024 28.9038 80.6893 27.9194 79.2634C26.992 80.675 25.9791 81.4878 26.0504 82.2149Z" fill="black"/>
<path d="M30.2021 55.8223C30.9155 56.4497 31.6288 57.5333 32.3421 57.6046C33.0555 57.6759 33.8829 56.6921 35.1955 55.7795C33.8401 54.7672 32.9556 53.6407 32.3421 53.7691C31.5575 53.9402 30.9297 55.0809 30.2021 55.8223Z" fill="black"/>
<path d="M38.334 71.2928C38.0629 72.2177 37.4994 73.0301 36.728 73.6084C35.9565 74.1867 35.0184 74.4998 34.054 74.501C32.8494 74.6018 31.6394 74.3855 30.5445 73.8736C28.4173 72.8642 26.6248 71.2658 25.3799 69.2681C20.8289 72.1911 16.82 78.0371 14.6943 85.2947L12.6113 84.7101C14.8227 76.9107 19.2738 70.6226 24.3099 67.3717C21.7134 61.9677 21.2569 54.2823 23.4967 46.4116L25.5797 46.9962C23.5823 54.1825 23.9961 61.3118 26.3215 66.231C28.5594 65.1053 31.0918 64.7018 33.569 65.0761C34.4244 65.2124 35.2413 65.5283 35.9658 66.0029C36.907 66.4802 37.6557 67.266 38.0868 68.2289C38.5178 69.1917 38.6051 70.2733 38.334 71.2928ZM27.4201 68.1844C28.4232 69.7436 29.841 70.9927 31.5146 71.7918C32.2777 72.1576 33.1256 72.3103 33.9684 72.2339C35.8659 72.0628 36.1655 71.0361 36.2511 70.7082C36.5364 69.7101 36.0371 68.7833 34.8244 67.9706C34.3297 67.655 33.7767 67.4416 33.198 67.3432C31.2355 67.0287 29.2236 67.3068 27.4201 68.1417V68.1844Z" fill="black"/>
</g>
<defs>
<clipPath id="clip0_6586_46369">
<rect width="224" height="90" fill="white"/>
</clipPath>
</defs>
</svg>
