<svg width="192" height="132" viewBox="0 0 192 132" fill="none" xmlns="http://www.w3.org/2000/svg">
<g clip-path="url(#clip0_6614_48158)">
<path d="M135.572 96.1461C135.504 97.2974 135.812 98.4397 136.451 99.4011C137.09 100.363 138.024 101.091 139.114 101.477C140.203 101.863 141.389 101.885 142.492 101.54C143.595 101.196 144.557 100.503 145.231 99.5659L143.223 99.4385C144.139 101.668 145.555 103.348 148.08 103.663C150.464 103.958 152.627 102.66 154.1 100.89C155.062 99.7334 153.113 98.4441 152.164 99.6089C151.215 100.774 149.757 101.575 148.233 101.355C146.564 101.121 145.872 99.8348 145.313 98.4162C144.953 97.5479 143.798 97.6507 143.3 98.2844C141.507 100.581 137.83 99.1842 137.905 96.3175C137.944 94.8257 135.613 94.6647 135.574 96.1565L135.572 96.1461Z" fill="black"/>
<path d="M154.968 61.3555L154.963 61.3565C152.353 61.8486 150.637 64.3587 151.131 66.9629L151.808 70.534C152.302 73.1383 154.819 74.8505 157.429 74.3583L157.434 74.3574C160.045 73.8652 161.761 71.3552 161.267 68.751L160.589 65.1798C160.096 62.5756 157.579 60.8634 154.968 61.3555Z" fill="black"/>
<path d="M118.806 66.44L118.801 66.441C116.19 66.9331 114.475 69.4432 114.969 72.0474L115.646 75.6185C116.14 78.2227 118.656 79.9349 121.267 79.4428L121.272 79.4418C123.883 78.9497 125.599 76.4396 125.105 73.8354L124.427 70.2643C123.933 67.6601 121.417 65.9479 118.806 66.44Z" fill="black"/>
<path d="M177.048 55.7383C172.257 56.8031 167.478 57.9014 162.698 58.9911C160.542 59.4816 158.363 59.843 156.189 60.2345C153.136 60.7968 150.056 61.2663 147.021 61.9232C145.527 62.2466 144.111 62.8304 142.867 63.636C138.662 66.306 137.316 71.0252 137.243 75.0829C137.169 78.3785 137.595 81.6419 138.51 84.7932C139.005 86.4551 139.717 88.5752 141.607 89.4373C142.382 89.815 143.312 89.9316 144.223 89.7651C145.396 89.549 145.916 88.5323 146.221 87.6529C146.969 85.3027 147.387 82.9031 147.468 80.505C147.589 77.6885 147.265 74.8948 146.503 72.1982C145.916 70.0329 144.989 67.8499 143.171 66.2539C141.958 65.0775 140.301 64.29 138.449 64.0094C136.729 63.8784 134.987 63.9011 133.25 64.0772C127.994 64.4402 122.803 65.1518 117.57 65.9244C113.19 66.5664 108.825 67.2816 104.455 68.002L102.904 68.252C100.908 68.5664 101.391 71.1468 103.383 70.8334C106.776 70.3017 110.16 69.7185 113.554 69.1868C118.619 68.3962 123.692 67.653 128.78 67.1028C129.949 66.9765 131.115 66.8597 132.284 66.7644L133.027 66.6943C133.248 66.6535 132.732 66.713 132.96 66.7066L133.134 66.6968L133.534 66.6721C134.018 66.6408 134.498 66.6191 134.985 66.6007C135.779 66.5694 136.571 66.5718 137.36 66.608C137.671 66.6219 137.982 66.6582 138.291 66.6902C138.6 66.7222 137.923 66.6022 138.322 66.6845L138.657 66.7696C139.065 66.8724 138.456 66.6598 138.657 66.7696C138.858 66.8793 139.111 66.9795 139.324 67.0917C139.717 67.2986 140.093 67.5265 140.451 67.7739C140.224 67.6154 140.402 67.7427 140.515 67.8332L140.748 68.0262C140.926 68.1846 141.094 68.345 141.254 68.5158C141.413 68.6867 141.544 68.8493 141.692 69.0135C141.839 69.1776 141.587 68.8504 141.733 69.0637C141.814 69.1824 141.899 69.2957 141.974 69.4153C142.243 69.8273 142.48 70.2546 142.685 70.6948C142.793 70.9358 142.897 71.1792 142.996 71.425C143.007 71.4852 143.148 71.8419 143.072 71.6334C143.1 71.784 143.175 71.9304 143.218 72.0781C143.619 73.4047 143.911 74.7587 144.091 76.1305C144.215 76.9709 144.318 77.8107 144.384 78.6571L144.4 78.9167C144.426 79.0586 144.409 79.2531 144.414 78.9941C144.414 79.2479 144.412 79.4973 144.406 79.752C144.367 80.8937 144.25 82.0409 144.088 83.1786C143.926 84.3162 143.719 85.3821 143.438 86.4794C143.377 86.7221 143.509 86.2883 143.406 86.5921L143.313 86.8673C143.251 87.0508 143.178 87.2321 143.094 87.4103C143.064 87.4849 143.025 87.5574 142.98 87.6271C142.98 87.6271 143.232 87.3183 143.04 87.5182C142.848 87.7182 143.126 87.44 143.183 87.3985C143.038 87.5096 143.453 87.2507 143.424 87.265L143.695 87.1751C143.638 87.1855 143.571 87.1979 143.51 87.2092C143.278 87.2519 143.929 87.2299 143.649 87.1836C143.589 87.1781 143.528 87.1774 143.467 87.1815C143.186 87.1887 143.493 87.1767 143.567 87.2031C143.459 87.1568 143.342 87.1258 143.22 87.1113C143.22 87.1113 143.539 87.2838 143.322 87.1459L143.132 87.0386C142.937 86.9322 143.054 86.9639 143.184 87.0912C143.138 87.0419 143.078 87.0041 143.027 86.96C142.909 86.8394 142.804 86.7074 142.674 86.5801C142.544 86.4527 142.818 86.8116 142.681 86.6145C142.633 86.5298 142.57 86.448 142.518 86.3686C142.404 86.1849 142.3 85.995 142.2 85.8042C142.101 85.6134 142.008 85.3948 141.927 85.1916C141.882 85.0888 141.846 84.9841 141.801 84.8813C141.801 84.8813 141.731 84.6804 141.79 84.8253C141.849 84.9702 141.772 84.7264 141.767 84.7006C141.577 84.1082 141.414 83.511 141.275 82.9049C140.902 81.3051 140.628 79.6849 140.455 78.0506C140.297 76.6259 140.282 75.1849 140.412 73.7428C140.47 73.108 140.566 72.4741 140.699 71.8435C140.753 71.5889 140.817 71.3324 140.882 71.0758C140.875 71.0414 140.952 70.8227 140.877 71.05C140.897 70.9884 140.913 70.9277 140.934 70.8704L141.065 70.4591C141.234 69.9685 141.438 69.4852 141.676 69.012C141.78 68.8014 141.892 68.5985 142.008 68.3946C142.077 68.2752 142.168 68.1339 142.036 68.3406L142.26 68.0012C142.5 67.6576 142.764 67.3252 143.05 67.0059C143.187 66.8561 143.326 66.7148 143.469 66.5683C143.697 66.335 143.299 66.711 143.469 66.5683C143.552 66.4996 143.624 66.4285 143.703 66.3651C143.997 66.116 144.31 65.883 144.638 65.6678C144.781 65.5748 144.946 65.4909 145.082 65.3903C145.218 65.2897 144.752 65.5623 145.01 65.4303L145.252 65.3012C145.544 65.1489 145.845 65.0102 146.154 64.8858C146.293 64.8306 146.432 64.7782 146.572 64.7287L146.762 64.6626C147.103 64.5465 146.773 64.7185 146.67 64.6796C146.798 64.7138 147.258 64.5223 147.417 64.4886C148.148 64.354 148.884 64.2184 149.615 64.0838L154.479 63.1878C157.053 62.7137 159.641 62.317 162.226 61.7608C165.441 61.0707 168.633 60.2869 171.838 59.5676C173.723 59.1403 175.61 58.7216 177.496 58.3029C177.906 58.2275 178.273 58.0191 178.518 57.7237C178.763 57.4283 178.865 57.0701 178.801 56.7278C178.738 56.3855 178.514 56.0871 178.18 55.8984C177.845 55.7097 177.427 55.6461 177.018 55.7215L177.048 55.7383Z" fill="black"/>
<path d="M155.182 148.423C154.319 147.815 153.504 147.143 152.743 146.413C153.083 146.724 152.704 146.371 152.629 146.298L152.284 145.962C152.014 145.697 151.75 145.433 151.489 145.162C150.939 144.598 150.403 144.027 149.872 143.45C147.301 140.61 144.852 137.633 142.5 134.6C136.956 127.522 131.877 120.094 127.295 112.361C125.376 109.152 123.649 105.832 122.124 102.418C120.847 99.4794 119.72 96.4533 118.583 93.4606C117.144 89.5391 115.751 85.5911 114.403 81.6166C113.746 79.7007 113.109 77.7781 112.492 75.8488C112.205 74.9565 111.924 74.0633 111.648 73.1693L111.434 72.5211C111.416 72.4076 111.257 71.9462 111.357 72.2741C111.233 71.8601 111.109 71.4462 110.99 71.0314C109.786 66.7805 108.972 62.4203 108.058 58.0971C106.766 51.9568 105.201 45.7695 104.776 39.487C104.678 37.9675 104.67 36.4436 104.751 34.9231L102.624 36.2103C107.051 38.2242 111.519 40.2633 115.614 42.9269C117.584 44.1836 119.434 45.6171 121.143 47.2095C122.023 48.0495 122.85 48.9432 123.619 49.8854C124.353 50.902 125.169 51.8571 126.059 52.7412C128.198 54.6296 131.507 54.3403 134.159 54.2551C137.077 54.1621 139.976 53.758 142.807 53.0495C144.277 52.6848 145.726 52.2462 147.151 51.7352C148.48 51.256 149.913 50.7709 150.824 49.6332C151.565 48.6916 151.848 47.4363 152.167 46.3075C152.486 45.1786 152.801 43.9553 153.095 42.7722C154.383 37.5255 155.441 31.9396 158.171 27.2002L155.686 27.2697C163.018 36.7345 168.466 47.4585 173.467 58.3007C177.277 66.5446 180.951 74.8312 183.934 83.4117C185.898 89.1077 187.701 94.8608 189.498 100.61C189.754 101.42 190.876 101.709 191.578 101.392C191.951 101.212 192.24 100.897 192.386 100.511C192.532 100.125 192.523 99.6974 192.362 99.3173C189.472 90.0929 186.611 80.843 182.927 71.8918C181.1 67.422 179.122 63.0762 177.126 58.7122C174.61 53.2459 172.071 47.7992 169.172 42.5203C165.949 36.4928 162.252 30.7295 158.116 25.2845C157.549 24.5492 156.134 24.4816 155.632 25.3591C153.134 29.6549 151.928 34.4446 150.761 39.2176C150.215 41.4185 149.691 43.6634 149.039 45.8333C148.744 46.8104 148.613 47.7193 147.63 48.1705C146.396 48.7192 145.125 49.1811 143.826 49.5528C141.172 50.3255 138.446 50.8246 135.689 51.0425C134.335 51.1564 132.975 51.1944 131.616 51.1563C130.551 51.1234 129.231 51.1888 128.335 50.5212C127.44 49.8536 126.889 48.8884 126.223 48.063C125.48 47.144 124.685 46.2686 123.841 45.4411C122.088 43.7421 120.185 42.2038 118.156 40.8447C113.658 37.8164 108.695 35.5276 103.766 33.2915C103.542 33.2038 103.301 33.1687 103.061 33.189C102.821 33.2092 102.589 33.2842 102.383 33.4083C102.176 33.5323 102.001 33.7019 101.871 33.9041C101.741 34.1064 101.66 34.3357 101.633 34.5744C101.293 41.0832 102.618 47.4616 103.958 53.7689L105.987 63.3828C106.412 65.3934 106.798 67.421 107.32 69.411C109.324 77.0252 112.015 84.531 114.696 91.9114C115.92 95.2817 117.17 98.6479 118.529 101.97C119.828 105.102 121.314 108.153 122.979 111.107C127.508 119.112 132.583 126.797 138.166 134.11C140.637 137.389 143.194 140.612 145.895 143.702C147.82 146.007 149.933 148.149 152.211 150.107C152.574 150.419 152.953 150.713 153.346 150.986C155.024 152.106 156.875 149.578 155.192 148.453L155.182 148.423Z" fill="black"/>
<rect x="165" y="-31" width="86" height="210" rx="14" fill="white" stroke="black" stroke-width="3" stroke-linejoin="round"/>
<path d="M136.817 149.767C136.84 149.631 136.862 149.495 136.906 149.366C136.949 149.237 136.932 149.204 136.967 149.129C137.02 148.943 137.103 148.842 136.97 149.111C137.138 148.694 137.284 148.268 137.409 147.836C137.846 146.667 138.328 145.513 138.823 144.368C140.209 141.168 141.719 138.017 143.233 134.883C144.992 131.286 146.802 127.718 148.664 124.18C150.319 121.047 152.008 117.929 153.812 114.879C154.171 114.275 154.532 113.675 154.903 113.081L155.04 112.86C155.16 112.666 155.035 112.885 155.04 112.86C155.123 112.734 155.204 112.604 155.287 112.477C155.438 112.237 155.595 112.001 155.752 111.766C156.198 111.073 156.698 110.416 157.248 109.802C157.27 109.776 157.3 109.755 157.322 109.73C157.4 109.639 157.072 109.928 157.2 109.842C157.242 109.816 157.282 109.771 157.324 109.741L155.603 108.969C155.648 109.418 155.726 109.862 155.752 110.312C155.767 110.48 155.77 110.649 155.761 110.817C155.711 111.118 155.746 111.043 155.615 111.25C155.31 111.756 155.658 112.472 156.153 112.697C156.417 112.811 156.716 112.82 156.986 112.721C157.256 112.622 157.478 112.423 157.605 112.165C157.539 112.272 157.584 112.29 157.598 112.204C157.583 112.294 157.497 112.276 157.635 112.185C157.689 112.146 158.001 111.958 157.872 112.025C158.185 111.873 158.51 111.747 158.843 111.646C159.42 111.465 160.003 111.336 160.595 111.197L160.024 111.255L159.18 110.568C159.146 110.414 159.128 110.256 159.124 110.099C159.114 110.138 159.107 110.179 159.104 110.22C159.084 110.342 159.064 110.464 159.045 110.579C158.964 110.934 158.873 111.287 158.774 111.639L158.693 111.931C158.685 111.978 158.677 112.028 158.651 112.075C158.668 111.968 158.671 111.953 158.658 112.032C158.6 112.214 158.541 112.396 158.479 112.577C158.424 112.734 158.364 112.893 158.299 113.044C158.233 113.196 158.008 113.549 158.238 113.208C158.071 113.412 157.984 113.669 157.993 113.933C158.002 114.196 158.106 114.447 158.287 114.64C158.467 114.833 158.711 114.955 158.974 114.983C159.238 115.01 159.502 114.942 159.718 114.79C160.337 114.298 161 113.863 161.699 113.491L162.004 113.32L162.163 113.232C162.353 113.131 162.543 113.037 162.729 112.957C163.01 112.813 163.301 112.69 163.6 112.588L162.321 112.205C162.393 112.287 162.358 112.296 162.377 112.248C162.377 112.248 162.37 112.088 162.377 112.248C162.384 112.407 162.398 112.119 162.365 112.319C162.359 112.381 162.349 112.442 162.335 112.502C162.261 112.848 162.151 113.185 162.007 113.509C161.715 114.179 161.345 114.813 160.904 115.397C160.248 116.287 159.458 117.041 158.737 117.872C158.296 118.413 157.884 118.976 157.502 119.558C155.878 121.899 154.326 124.291 152.786 126.686C150.714 129.895 148.674 133.119 146.664 136.358C144.825 139.325 143.004 142.303 141.253 145.322C140.623 146.411 139.999 147.506 139.409 148.62C139.047 149.257 138.735 149.921 138.475 150.606C138.412 150.776 138.361 150.951 138.322 151.129C138.094 152.513 140.253 152.867 140.481 151.483C140.488 151.444 140.495 151.401 140.501 151.365C140.525 151.221 140.377 151.713 140.482 151.479C140.533 151.352 140.579 151.227 140.633 151.103C140.785 150.76 140.96 150.398 141.134 150.055C141.677 149.006 142.249 147.977 142.836 146.954C144.539 143.979 146.326 141.051 148.127 138.133C149.138 136.48 150.166 134.833 151.21 133.193C151.34 132.99 151.467 132.783 151.596 132.579C151.665 132.473 151.593 132.601 151.59 132.619C151.625 132.562 151.656 132.508 151.691 132.455C151.76 132.348 151.83 132.238 151.897 132.121C152.152 131.717 152.399 131.316 152.665 130.914C153.158 130.138 153.656 129.361 154.159 128.582C155.755 126.097 157.361 123.614 159.037 121.183C159.469 120.558 159.896 119.921 160.378 119.33C160.929 118.655 161.579 118.055 162.133 117.383C163.208 116.14 164.001 114.681 164.457 113.104C164.648 112.373 164.66 111.492 164.122 110.899C163.975 110.712 163.773 110.574 163.544 110.506C163.315 110.437 163.07 110.441 162.844 110.517C162.04 110.809 161.27 111.186 160.548 111.642C159.814 112.027 159.12 112.481 158.476 113L159.956 114.579C160.405 113.813 160.731 112.982 160.924 112.116C161.101 111.49 161.402 110.722 161.341 110.061C161.324 109.893 161.268 109.732 161.178 109.589C161.088 109.447 160.966 109.327 160.822 109.239C160.653 109.145 160.465 109.09 160.272 109.078C160.079 109.066 159.885 109.098 159.706 109.17C159.278 109.277 158.848 109.398 158.429 109.499C157.338 109.813 156.265 110.248 155.645 111.251L157.634 112.166C158.247 111.162 157.914 109.841 157.8 108.74C157.779 108.551 157.709 108.371 157.597 108.218C157.485 108.064 157.335 107.942 157.161 107.864C156.987 107.786 156.796 107.755 156.606 107.773C156.416 107.791 156.234 107.859 156.079 107.969C155.495 108.462 154.988 109.039 154.573 109.68C153.843 110.702 153.175 111.774 152.525 112.846C150.736 115.784 149.081 118.804 147.461 121.837C145.564 125.392 143.727 128.975 141.948 132.588C140.337 135.862 138.763 139.153 137.287 142.5C136.356 144.608 135.338 146.771 134.775 149.017C134.753 149.149 134.709 149.282 134.687 149.418C134.459 150.802 136.618 151.155 136.846 149.772L136.817 149.767Z" fill="black"/>
</g>
<defs>
<clipPath id="clip0_6614_48158">
<rect width="192" height="132" fill="white"/>
</clipPath>
</defs>
</svg>
