<svg width="14" height="12" viewBox="0 0 14 12" fill="none" xmlns="http://www.w3.org/2000/svg">
<path d="M12.7525 9.66562C12.7006 9.60312 12.6497 9.54062 12.5997 9.4803C11.9122 8.64874 11.4963 8.14687 11.4963 5.79281C11.4963 4.57406 11.2047 3.57406 10.63 2.82406C10.2063 2.26999 9.63345 1.84968 8.87845 1.53906C8.86873 1.53365 8.86005 1.52656 8.85282 1.51812C8.58126 0.608746 7.83813 -0.00031662 7.00001 -0.00031662C6.16188 -0.00031662 5.41907 0.608746 5.14751 1.51718C5.14026 1.52532 5.13171 1.53218 5.1222 1.5375C3.36032 2.26281 2.50407 3.65437 2.50407 5.79187C2.50407 8.14687 2.08876 8.64874 1.40064 9.47937C1.35064 9.53968 1.2997 9.60093 1.24782 9.66468C1.11382 9.82628 1.02892 10.0229 1.00317 10.2312C0.97742 10.4396 1.01189 10.6509 1.10251 10.8403C1.29532 11.2466 1.70626 11.4987 2.17532 11.4987H11.8281C12.295 11.4987 12.7031 11.2469 12.8966 10.8425C12.9876 10.6531 13.0224 10.4415 12.9968 10.233C12.9713 10.0244 12.8865 9.82748 12.7525 9.66562Z" fill="#6F6F6F"/>
</svg>
