<svg width="14" height="12" viewBox="0 0 14 12" fill="none" xmlns="http://www.w3.org/2000/svg">
<path d="M12.7525 9.66563C12.7006 9.60313 12.6497 9.54063 12.5997 9.48032C11.9122 8.64875 11.4963 8.14688 11.4963 5.79282C11.4963 4.57407 11.2047 3.57407 10.63 2.82407C10.2063 2.27001 9.63345 1.84969 8.87845 1.53907C8.86873 1.53366 8.86005 1.52658 8.85282 1.51813C8.58126 0.608757 7.83813 -0.000305176 7.00001 -0.000305176C6.16188 -0.000305176 5.41907 0.608757 5.14751 1.51719C5.14026 1.52533 5.13171 1.53219 5.1222 1.53751C3.36032 2.26282 2.50407 3.65438 2.50407 5.79188C2.50407 8.14688 2.08876 8.64875 1.40064 9.47938C1.35064 9.53969 1.2997 9.60094 1.24782 9.66469C1.11382 9.82629 1.02892 10.0229 1.00317 10.2312C0.97742 10.4396 1.01189 10.651 1.10251 10.8403C1.29532 11.2466 1.70626 11.4988 2.17532 11.4988H11.8281C12.295 11.4988 12.7031 11.2469 12.8966 10.8425C12.9876 10.6531 13.0224 10.4416 12.9968 10.233C12.9713 10.0244 12.8865 9.8275 12.7525 9.66563Z" fill="white"/>
</svg>
