<svg width="16" height="16" viewBox="0 0 16 16" fill="none" xmlns="http://www.w3.org/2000/svg">
<g clip-path="url(#clip0_4619_2026)">
<rect x="1" y="1" width="14" height="14" rx="4" fill="white"/>
<path d="M13.1644 6.76341C13.2312 6.50972 13.2652 6.2519 13.2652 5.9948C13.2652 4.33062 11.911 2.97621 10.2466 2.97621C10.0606 2.97621 9.86953 2.99539 9.67604 3.03326C9.10092 2.32316 8.25754 1.91895 7.3389 1.91895C5.99177 1.91895 4.82551 2.79826 4.44679 4.07741C3.00716 4.32309 1.94141 5.5736 1.94141 7.05231C1.94141 7.88938 2.28711 8.68251 2.89549 9.25423C2.78867 9.56959 2.73429 9.89514 2.73429 10.2243C2.73429 11.8885 4.08846 13.2429 5.75289 13.2429C5.85801 13.2429 5.96507 13.2364 6.08791 13.2218C6.66473 13.9091 7.49816 14.3002 8.39616 14.3002C9.82244 14.3002 11.0569 13.2825 11.3463 11.9021C12.8823 11.7494 14.058 10.4678 14.058 8.9027C14.0583 8.10059 13.7344 7.32931 13.1644 6.76341ZM12.7796 5.9948C12.7796 6.15163 12.7626 6.30871 12.7328 6.46505L9.74839 4.72075L6.55694 6.66072V5.46872L9.66779 3.53336C9.86516 3.48699 10.0599 3.46175 10.2463 3.46175C11.6432 3.46175 12.7796 4.59815 12.7796 5.9948ZM9.30995 8.75801L7.95942 9.56303L6.55718 8.76116V7.22905L7.88392 6.42256L7.87639 6.43519L9.30995 7.28003V8.75801ZM7.3389 2.40448C8.06648 2.40448 8.73604 2.70819 9.21503 3.24374L6.07165 5.19901V8.48344L4.88256 7.80344V4.32771C5.16393 3.19446 6.16972 2.40448 7.3389 2.40448ZM2.4267 7.05231C2.4267 5.85715 3.25673 4.84092 4.39702 4.58358V8.08529L7.48044 9.84877L6.21148 10.605L3.32325 8.98476C2.75396 8.4997 2.4267 7.79664 2.4267 7.05231ZM3.21983 10.2243C3.21983 9.99249 3.25333 9.76259 3.31694 9.53778L6.21901 11.1658L9.30995 9.32366V10.8458L6.11219 12.7283C5.97381 12.7472 5.85898 12.7574 5.75289 12.7574C4.35624 12.7574 3.21983 11.621 3.21983 10.2243ZM8.39616 13.8147C7.69553 13.8147 7.042 13.5294 6.56422 13.0252L9.79549 11.1231V7.56601L10.8974 8.21542V11.6516C10.7168 12.8856 9.644 13.8147 8.39616 13.8147ZM11.383 11.4091V7.93793L9.79549 7.00254L9.76757 6.98603L8.34033 6.14484L9.75349 5.28592L12.7417 7.03264C13.2695 7.51357 13.5725 8.19357 13.5725 8.9027C13.5727 10.1865 12.6293 11.2428 11.383 11.4091Z" fill="black" stroke="black" stroke-width="0.25"/>
</g>
<defs>
<clipPath id="clip0_4619_2026">
<rect x="1" y="1" width="14" height="14" rx="4" fill="white"/>
</clipPath>
</defs>
</svg>
