<svg width="16" height="12" viewBox="0 0 16 12" fill="none" xmlns="http://www.w3.org/2000/svg">
<path d="M15.5 1.42215C14.9373 1.66664 14.342 1.82771 13.7328 1.90028C14.373 1.5254 14.8545 0.929831 15.0869 0.22528C14.4816 0.579214 13.8205 0.827552 13.1319 0.959654C12.8419 0.655758 12.4932 0.414 12.1069 0.249075C11.7205 0.0841504 11.3047 -0.000496381 10.8847 0.00027995C9.18406 0.00027995 7.80781 1.35653 7.80781 3.0284C7.80661 3.26095 7.83325 3.49281 7.88719 3.71903C6.66771 3.66186 5.4736 3.35077 4.38124 2.80567C3.28889 2.26057 2.32234 1.49345 1.54344 0.553405C1.27018 1.01407 1.12567 1.53967 1.125 2.07528C1.125 3.12528 1.67281 4.0534 2.5 4.59715C2.00991 4.58552 1.52987 4.45581 1.10062 4.21903V4.25653C1.10062 5.72528 2.16312 6.94715 3.56937 7.22528C3.30493 7.29577 3.03243 7.33149 2.75875 7.33153C2.56456 7.33186 2.3708 7.31302 2.18031 7.27528C2.57125 8.4784 3.70906 9.3534 5.05687 9.3784C3.96168 10.2224 2.61707 10.6786 1.23437 10.6753C0.988943 10.6749 0.743739 10.6603 0.5 10.6315C1.90662 11.5297 3.5417 12.0048 5.21062 12.0003C10.8781 12.0003 13.9744 7.38465 13.9744 3.38153C13.9744 3.25028 13.9709 3.11903 13.9647 2.9909C14.5656 2.56342 15.0856 2.03219 15.5 1.42215Z" fill="black"/>
</svg>
