<svg width="14" height="14" viewBox="0 0 14 14" fill="none" xmlns="http://www.w3.org/2000/svg">
<g clip-path="url(#clip0_4619_3583)">
<rect x="1" y="1" width="12" height="12" rx="4" fill="black"/>
<path d="M11.4273 5.93951C11.4846 5.72206 11.5137 5.50107 11.5137 5.2807C11.5137 3.85426 10.353 2.69333 8.92632 2.69333C8.76692 2.69333 8.60315 2.70977 8.43731 2.74223C7.94435 2.13358 7.22145 1.78711 6.43404 1.78711C5.27936 1.78711 4.27971 2.5408 3.95509 3.63722C2.72112 3.84781 1.80762 4.91967 1.80762 6.18714C1.80762 6.90462 2.10393 7.58445 2.6254 8.0745C2.53385 8.3448 2.48723 8.62385 2.48723 8.90602C2.48723 10.3325 3.64795 11.4934 5.0746 11.4934C5.1647 11.4934 5.25647 11.4878 5.36176 11.4753C5.85618 12.0644 6.57055 12.3996 7.34027 12.3996C8.56279 12.3996 9.62091 11.5273 9.86895 10.3441C11.1855 10.2132 12.1933 9.11473 12.1933 7.77318C12.1935 7.08566 11.9159 6.42456 11.4273 5.93951ZM11.0975 5.2807C11.0975 5.41513 11.0829 5.54976 11.0573 5.68377L8.49932 4.18866L5.76379 5.85149V4.82978L8.43023 3.1709C8.59941 3.13115 8.7663 3.10951 8.92611 3.10951C10.1234 3.10951 11.0975 4.08357 11.0975 5.2807ZM8.12351 7.64916L6.96592 8.33918L5.764 7.65187V6.33862L6.9012 5.64735L6.89475 5.65817L8.12351 6.38232V7.64916ZM6.43404 2.20329C7.05768 2.20329 7.63159 2.4636 8.04215 2.92265L5.34782 4.59859V7.41382L4.32861 6.83096V3.85176C4.56978 2.88041 5.43189 2.20329 6.43404 2.20329ZM2.22359 6.18714C2.22359 5.16272 2.93504 4.29166 3.91243 4.07109V7.07255L6.55536 8.5841L5.46768 9.2323L2.99206 7.84352C2.50409 7.42776 2.22359 6.82513 2.22359 6.18714ZM2.90341 8.90602C2.90341 8.70729 2.93213 8.51023 2.98665 8.31754L5.47413 9.71298L8.12351 8.13401V9.43872L5.38257 11.0522C5.26396 11.0685 5.16554 11.0772 5.0746 11.0772C3.87747 11.0772 2.90341 10.1031 2.90341 8.90602ZM7.34027 11.9834C6.73972 11.9834 6.17955 11.7389 5.77003 11.3067L8.53969 9.67636V6.62745L9.4842 7.18409V10.1294C9.32938 11.1871 8.40984 11.9834 7.34027 11.9834ZM9.90038 9.92149V6.94624L8.53969 6.14448L8.51576 6.13033L7.29241 5.4093L8.50369 4.67308L11.065 6.17028C11.5174 6.5825 11.7771 7.16536 11.7771 7.77318C11.7773 8.87355 10.9687 9.77895 9.90038 9.92149Z" fill="white" stroke="white" stroke-width="0.25"/>
</g>
<defs>
<clipPath id="clip0_4619_3583">
<rect x="1" y="1" width="12" height="12" rx="4" fill="white"/>
</clipPath>
</defs>
</svg>
