<svg width="200" height="200" viewBox="0 0 200 200" fill="none" xmlns="http://www.w3.org/2000/svg">
<path d="M100 0C44.8 0 0 44.8 0 100C0 155.2 44.8 200 100 200C155.2 200 200 155.2 200 100C200 44.8 155.2 0 100 0ZM66.5 127.7C65.4 130.7 62.5 132.6 59.5 132.6C58.6 132.6 57.8 132.5 56.9 132.1C48.8 129.1 42 123.2 37.7 115.5C27.7 97.5 33.9 74 51.4 63.1L74.8 48.6C83.4 43.3 93.5 41.7 103.1 44.2C112.7 46.7 120.8 53 125.7 61.8C135.7 79.8 129.5 103.3 112 114.2L109.4 116.1C106 118.5 101.3 117.7 98.9 114.4C96.5 111 97.3 106.3 100.6 103.9L103.7 101.7C114.9 94.7 118.7 80.2 112.6 69.1C109.7 63.9 105 60.2 99.4 58.7C93.8 57.2 87.9 58.1 82.8 61.3L59.2 75.9C48.4 82.6 44.6 97.1 50.7 108.3C53.2 112.8 57.2 116.3 62 118.1C65.9 119.5 67.9 123.8 66.5 127.7ZM149.2 136.5L125.8 151C119.9 154.7 113.3 156.5 106.6 156.5C103.6 156.5 100.5 156.1 97.5 155.3C87.9 152.8 79.8 146.5 75 137.7C65 119.7 71.2 96.2 88.7 85.3L91.3 83.4C94.7 81 99.4 81.8 101.8 85.1C104.2 88.5 103.4 93.2 100.1 95.6L97 97.8C85.8 104.8 82 119.3 88.1 130.4C91 135.6 95.7 139.3 101.3 140.8C106.9 142.3 112.8 141.4 117.9 138.2L141.3 123.7C152.1 117 155.9 102.5 149.8 91.3C147.3 86.8 143.3 83.3 138.5 81.5C134.6 80.1 132.6 75.8 134.1 71.9C135.5 68 139.9 66 143.7 67.5C151.8 70.5 158.6 76.4 162.9 84.1C172.8 102.1 166.7 125.6 149.2 136.5Z" fill="black"/>
</svg>
