<svg width="33" height="32" viewBox="0 0 33 32" fill="none" xmlns="http://www.w3.org/2000/svg">
<path d="M16.5 2.66699C9.13996 2.66699 3.16663 8.64033 3.16663 16.0003C3.16663 23.3603 9.13996 29.3337 16.5 29.3337C23.86 29.3337 29.8333 23.3603 29.8333 16.0003C29.8333 8.64033 23.86 2.66699 16.5 2.66699ZM12.0333 19.6937C11.8866 20.0937 11.5 20.347 11.1 20.347C10.98 20.347 10.8733 20.3337 10.7533 20.2803C9.67329 19.8803 8.76663 19.0937 8.19329 18.067C6.85996 15.667 7.68663 12.5337 10.02 11.0803L13.14 9.14699C14.2866 8.44033 15.6333 8.22699 16.9133 8.56033C18.1933 8.89366 19.2733 9.73366 19.9266 10.907C21.26 13.307 20.4333 16.4403 18.1 17.8937L17.7533 18.147C17.3 18.467 16.6733 18.3603 16.3533 17.9203C16.0333 17.467 16.14 16.8403 16.58 16.5203L16.9933 16.227C18.4866 15.2937 18.9933 13.3603 18.18 11.8803C17.7933 11.187 17.1666 10.6937 16.42 10.4937C15.6733 10.2937 14.8866 10.4137 14.2066 10.8403L11.06 12.787C9.61996 13.6803 9.11329 15.6137 9.92663 17.107C10.26 17.707 10.7933 18.1737 11.4333 18.4137C11.9533 18.6003 12.22 19.1737 12.0333 19.6937ZM23.06 20.867L19.94 22.8003C19.1533 23.2937 18.2733 23.5337 17.38 23.5337C16.98 23.5337 16.5666 23.4803 16.1666 23.3737C14.8866 23.0403 13.8066 22.2003 13.1666 21.027C11.8333 18.627 12.66 15.4937 14.9933 14.0403L15.34 13.787C15.7933 13.467 16.42 13.5737 16.74 14.0137C17.06 14.467 16.9533 15.0937 16.5133 15.4137L16.1 15.707C14.6066 16.6403 14.1 18.5737 14.9133 20.0537C15.3 20.747 15.9266 21.2403 16.6733 21.4403C17.42 21.6403 18.2066 21.5203 18.8866 21.0937L22.0066 19.1603C23.4466 18.267 23.9533 16.3337 23.14 14.8403C22.8066 14.2403 22.2733 13.7737 21.6333 13.5337C21.1133 13.347 20.8466 12.7737 21.0466 12.2537C21.2333 11.7337 21.82 11.467 22.3266 11.667C23.4066 12.067 24.3133 12.8537 24.8866 13.8803C26.2066 16.2803 25.3933 19.4137 23.06 20.867Z" fill="#292D32"/>
</svg>
