<svg width="24" height="24" viewBox="0 0 24 24" fill="none" xmlns="http://www.w3.org/2000/svg">
<circle cx="12" cy="12" r="12" fill="#231815"/>
<path d="M15.3625 9.89697H12.5238V14.2775C12.5238 14.5649 12.2855 14.8032 11.9982 14.8032C11.7108 14.8032 11.4725 14.5649 11.4725 14.2775V9.89697H8.63389C6.39104 9.89697 4.98926 11.2988 4.98926 13.5416V15.3569C4.98926 17.6068 6.39104 19.0086 8.63389 19.0086H15.3554C17.5983 19.0086 19.0001 17.6068 19.0001 15.3639V13.5416C19.0071 11.2988 17.6053 9.89697 15.3625 9.89697Z" fill="white"/>
<path d="M12.5235 6.78521L13.9744 8.23605C14.0795 8.34118 14.2127 8.39025 14.3459 8.39025C14.479 8.39025 14.6122 8.34118 14.7173 8.23605C14.9206 8.03279 14.9206 7.69636 14.7173 7.49311L12.3694 5.14512C12.1661 4.94186 11.8297 4.94186 11.6264 5.14512L9.27842 7.49311C9.07516 7.69636 9.07516 8.03279 9.27842 8.23605C9.48168 8.43931 9.81811 8.43931 10.0214 8.23605L11.4722 6.78521V9.89716H12.5235V6.78521Z" fill="white"/>
</svg>
