<svg width="33" height="32" viewBox="0 0 33 32" fill="none" xmlns="http://www.w3.org/2000/svg">
<rect x="2.27783" y="1.77734" width="28.4444" height="28.4444" rx="14.2222" fill="black"/>
<path fill-rule="evenodd" clip-rule="evenodd" d="M8.44986 14.8879C13.4606 12.6299 16.802 11.1413 18.4738 10.4221C23.2472 8.36862 24.2391 8.0119 24.8856 8.00013C25.0278 7.99753 25.3457 8.03398 25.5516 8.20682C25.7255 8.35275 25.7734 8.5499 25.7963 8.68826C25.8192 8.82663 25.8477 9.14183 25.825 9.38811C25.5663 12.1992 24.4471 19.021 23.8776 22.1694C23.6367 23.5017 23.1623 23.9484 22.703 23.9921C21.7048 24.0871 20.9468 23.3098 19.9801 22.6543C18.4672 21.6287 17.6126 20.9902 16.1442 19.9893C14.4471 18.8327 15.5472 18.1969 16.5144 17.158C16.7675 16.8861 21.1654 12.7487 21.2506 12.3733C21.2612 12.3264 21.2711 12.1514 21.1706 12.059C21.0701 11.9666 20.9217 11.9982 20.8147 12.0234C20.663 12.059 18.2462 13.7111 13.5645 16.9798C12.8785 17.467 12.2572 17.7044 11.7005 17.6919C11.0868 17.6782 9.90622 17.333 9.0286 17.038C7.95218 16.6761 7.09665 16.4847 7.17115 15.8701C7.20995 15.55 7.63619 15.2226 8.44986 14.8879Z" fill="white"/>
</svg>
