<svg width="200" height="200" viewBox="0 0 200 200" fill="none" xmlns="http://www.w3.org/2000/svg">
<g clip-path="url(#clip0_851_16255)">
<path d="M132.7 145.871L149.107 68.5286C150.557 61.7214 146.65 59.0429 142.186 60.7143L45.7571 97.8786C39.1714 100.443 39.2857 104.129 44.6429 105.8L69.3071 113.5L126.564 77.45C129.243 75.6643 131.7 76.6714 129.693 78.4571L83.3786 120.307L81.5929 145.757C84.1571 145.757 85.2786 144.643 86.6143 143.3L98.6643 131.693L123.664 150.107C128.243 152.671 131.479 151.336 132.707 145.864L132.7 145.871ZM200 100C200 155.243 155.243 200 100 200C44.7571 200 0 155.243 0 100C0 44.7571 44.7571 0 100 0C155.243 0 200 44.7571 200 100Z" fill="black"/>
</g>
<defs>
<clipPath id="clip0_851_16255">
<rect width="200" height="200" fill="white"/>
</clipPath>
</defs>
</svg>
