<svg width="200" height="200" viewBox="0 0 200 200" fill="none" xmlns="http://www.w3.org/2000/svg">
<g clip-path="url(#clip0_851_16254)">
<path d="M100 0C44.6154 0 0 44.6154 0 100C0 155.385 44.6154 200 100 200C155.385 200 200 155.385 200 100C200 44.6154 155.385 0 100 0ZM148.462 71.5385C147.692 72.3077 147.692 73.0769 146.923 73.0769C145.385 74.6154 143.846 75.3846 142.308 76.1538C141.538 76.1538 141.538 76.9231 141.538 77.6923C142.308 86.1538 140.769 94.6154 137.692 103.077C132.308 117.692 120.769 129.231 106.923 136.154C95.3846 143.077 81.5385 145.385 69.2308 142.308C63.0769 141.538 57.6923 139.231 53.0769 136.154L52.3077 135.385C52.3077 134.615 53.0769 133.846 53.8462 133.846C57.6923 133.846 61.5385 133.077 65.3846 131.538C69.2308 130 73.0769 127.692 76.1538 125.385L76.9231 124.615C76.9231 123.846 76.9231 123.077 76.1538 123.077C73.0769 122.308 70.7692 120.769 68.4615 119.231C65.3846 117.692 63.0769 114.615 61.5385 111.538V110.769C61.5385 110 62.3077 109.231 63.0769 109.231H65.3846C66.1538 109.231 66.1538 109.231 66.1538 108.462C66.9231 107.692 66.1538 106.923 65.3846 106.154C62.3077 104.615 60 102.308 57.6923 100C54.6154 96.9231 53.0769 93.0769 53.0769 89.2308V88.4615C53.0769 87.6923 54.6154 87.6923 54.6154 87.6923C55.3846 87.6923 56.1538 88.4615 56.9231 88.4615H58.4615C59.2308 88.4615 59.2308 88.4615 60 87.6923C60.7692 86.9231 60.7692 86.1538 60 85.3846C56.9231 82.3077 54.6154 78.4615 53.8462 73.8462C53.0769 70 53.8462 65.3846 55.3846 61.5385V60.7692C53.8462 61.5385 54.6154 61.5385 55.3846 62.3077C60.7692 67.6923 66.1538 72.3077 73.0769 76.1538C80.7692 80 89.2308 82.3077 97.6923 82.3077C98.4615 82.3077 99.2308 81.5385 99.2308 80.7692C99.2308 76.1538 100.769 60.7692 114.615 56.9231C121.538 54.6154 130 56.1538 135.385 62.3077C135.385 62.3077 136.154 63.0769 136.923 63.0769C138.462 63.0769 140 62.3077 142.308 62.3077C143.846 61.5385 145.385 61.5385 146.923 60.7692H148.462C149.231 60.7692 149.231 62.3077 149.231 63.0769C148.462 64.6154 146.923 66.1538 145.385 67.6923L144.615 68.4615C143.846 68.4615 143.846 69.2308 143.846 70C143.846 70.7692 144.615 71.5385 145.385 71.5385C146.154 71.5385 146.923 71.5385 148.462 70.7692H150C149.231 70 149.231 71.5385 148.462 71.5385Z" fill="black"/>
</g>
<defs>
<clipPath id="clip0_851_16254">
<rect width="200" height="200" fill="white"/>
</clipPath>
</defs>
</svg>
