<svg width="33" height="32" viewBox="0 0 33 32" fill="none" xmlns="http://www.w3.org/2000/svg">
<rect x="2.27783" y="1.77734" width="28.4444" height="28.4444" rx="14.2222" fill="black"/>
<path d="M19.0619 8.89278C19.9298 8.84264 20.7724 9.25343 21.369 10.021C21.8927 9.91879 22.3988 9.70857 22.8638 9.4L23.2271 9.15507C23.051 9.81657 22.7225 10.4029 22.2798 10.8426C22.183 10.9525 22.0751 11.047 21.9593 11.1222V11.128C22.5305 11.0547 23.0891 10.8696 23.6111 10.5784V10.588C23.3446 11.1145 23.0098 11.587 22.621 11.9862C22.4687 12.1328 22.3179 12.2813 22.1656 12.4337C22.191 13.207 22.145 13.9804 22.0307 14.7422C21.3008 18.7768 19.3713 21.5173 16.3136 22.6918C14.9712 23.1682 13.5542 23.2396 12.1848 22.9001C11.5977 22.7285 11.0249 22.4971 10.4695 22.2078C10.1855 22.0554 9.90938 21.8818 9.64439 21.6832C9.56029 21.6176 9.47301 21.5559 9.38892 21.4903C9.69834 21.5424 10.0093 21.5578 10.3219 21.5366C10.6091 21.4749 10.89 21.4903 11.155 21.419C11.7691 21.2743 12.3609 21.012 12.9068 20.6418C13.1956 20.4798 13.4606 20.2657 13.697 20.0053C13.4003 20.0053 13.1067 19.9397 12.829 19.8125C11.9484 19.4441 11.2613 18.5917 10.9773 17.5136C11.2629 17.5483 12.0864 17.6409 12.28 17.4422C11.9341 17.3824 11.6072 17.2204 11.3264 16.9697C10.4441 16.3217 9.9189 15.1453 9.95222 13.8936C10.0522 13.9495 10.1506 14.0113 10.2505 14.0672C10.4473 14.1636 10.6536 14.233 10.863 14.2755C10.9916 14.3295 11.128 14.3449 11.2629 14.3218H11.2486C11.101 14.1135 10.8614 13.9708 10.7155 13.747C10.0776 12.8483 9.8348 11.6372 10.0569 10.4839C10.1299 10.1579 10.2363 9.84358 10.3695 9.5485C10.3743 9.55429 10.3791 9.55429 10.3838 9.55814C10.46 9.69507 10.5473 9.82236 10.6472 9.93422C10.9043 10.3142 11.1947 10.6574 11.5152 10.9564C12.5498 11.9959 13.7716 12.723 15.0822 13.0817C15.5107 13.2148 15.9502 13.2842 16.3913 13.29C16.2787 12.7345 16.2834 12.154 16.4056 11.6024C16.6167 10.5302 17.2276 9.63722 18.0574 9.19171C18.2669 9.08371 18.4827 9.00078 18.7048 8.94292C18.8254 8.92749 18.9429 8.91207 19.0619 8.89278Z" fill="white"/>
</svg>
