<svg viewBox="0 0 20 20" fill="none" xmlns="http://www.w3.org/2000/svg">
    <path d="M9.99984 1.66699C5.40817 1.66699 1.6665 5.40866 1.6665 10.0003C1.6665 14.592 5.40817 18.3337 9.99984 18.3337C14.5915 18.3337 18.3332 14.592 18.3332 10.0003C18.3332 5.40866 14.5915 1.66699 9.99984 1.66699ZM12.7998 11.917C13.0415 12.1587 13.0415 12.5587 12.7998 12.8003C12.6748 12.9253 12.5165 12.9837 12.3582 12.9837C12.1998 12.9837 12.0415 12.9253 11.9165 12.8003L9.99984 10.8837L8.08317 12.8003C7.95817 12.9253 7.79984 12.9837 7.6415 12.9837C7.48317 12.9837 7.32484 12.9253 7.19984 12.8003C6.95817 12.5587 6.95817 12.1587 7.19984 11.917L9.1165 10.0003L7.19984 8.08366C6.95817 7.84199 6.95817 7.44199 7.19984 7.20033C7.4415 6.95866 7.8415 6.95866 8.08317 7.20033L9.99984 9.11699L11.9165 7.20033C12.1582 6.95866 12.5582 6.95866 12.7998 7.20033C13.0415 7.44199 13.0415 7.84199 12.7998 8.08366L10.8832 10.0003L12.7998 11.917Z" fill="#292D32"/>
</svg>
