<svg width="20" height="20" viewBox="0 0 20 20" fill="currentColor" xmlns="http://www.w3.org/2000/svg">
<path d="M18.3083 4.58333V7.91666C18.3083 9.35606 17.267 10.5552 15.8894 10.7912C15.6172 10.8378 15.3916 10.6095 15.3916 10.3333V10.2083C15.3916 7.10833 12.8749 4.58333 9.7666 4.58333H9.6416C9.36546 4.58333 9.13711 4.35768 9.18409 4.08556C9.42096 2.71354 10.6196 1.66666 12.0583 1.66666H15.3916C17.0083 1.66666 18.3083 2.975 18.3083 4.58333Z" fill="currentColor"/>
<path d="M9.7666 5.83334H9.1416H5.80827C3.50827 5.83334 1.6416 7.7 1.6416 10V14.1667C1.6416 16.4667 3.50827 18.3333 5.80827 18.3333H9.97493C12.2749 18.3333 14.1416 16.4667 14.1416 14.1667V10.8333V10.2083C14.1416 7.79167 12.1833 5.83334 9.7666 5.83334Z" fill="currentColor"/>
</svg>
