<svg viewBox="0 0 20 20" fill="none" xmlns="http://www.w3.org/2000/svg">
    <path d="M10 0C8.02219 0 6.08879 0.58649 4.4443 1.6853C2.79981 2.78412 1.51809 4.3459 0.761209 6.17317C0.00433284 8.00043 -0.193701 10.0111 0.192152 11.9509C0.578004 13.8907 1.53041 15.6725 2.92894 17.0711C4.32746 18.4696 6.10929 19.422 8.0491 19.8079C9.98891 20.1937 11.9996 19.9957 13.8268 19.2388C15.6541 18.4819 17.2159 17.2002 18.3147 15.5557C19.4135 13.9112 20 11.9778 20 10C20 8.68678 19.7413 7.38642 19.2388 6.17317C18.7363 4.95991 17.9997 3.85752 17.0711 2.92893C16.1425 2.00035 15.0401 1.26375 13.8268 0.761205C12.6136 0.258658 11.3132 0 10 0ZM10 18C8.41775 18 6.87104 17.5308 5.55544 16.6518C4.23985 15.7727 3.21447 14.5233 2.60897 13.0615C2.00347 11.5997 1.84504 9.99113 2.15372 8.43928C2.4624 6.88743 3.22433 5.46197 4.34315 4.34315C5.46197 3.22433 6.88743 2.4624 8.43928 2.15372C9.99113 1.84504 11.5997 2.00346 13.0615 2.60896C14.5233 3.21447 15.7727 4.23984 16.6518 5.55544C17.5308 6.87103 18 8.41775 18 10C18 12.1217 17.1572 14.1566 15.6569 15.6569C14.1566 17.1571 12.1217 18 10 18Z" fill="currentColor"/>
    <path d="M10 4.00007C9.07174 4.00007 8.1815 4.36882 7.52513 5.02519C6.86875 5.68157 6.5 6.57181 6.5 7.50007C6.5 7.76528 6.60536 8.01964 6.79289 8.20717C6.98043 8.39471 7.23478 8.50007 7.5 8.50007C7.76522 8.50007 8.01957 8.39471 8.20711 8.20717C8.39464 8.01964 8.5 7.76528 8.5 7.50007C8.5 7.20339 8.58797 6.91339 8.7528 6.66671C8.91762 6.42004 9.15189 6.22778 9.42598 6.11425C9.70006 6.00072 10.0017 5.97101 10.2926 6.02889C10.5836 6.08677 10.8509 6.22963 11.0607 6.43941C11.2704 6.64919 11.4133 6.91646 11.4712 7.20743C11.5291 7.4984 11.4994 7.8 11.3858 8.07409C11.2723 8.34818 11.08 8.58245 10.8334 8.74727C10.5867 8.91209 10.2967 9.00007 10 9.00007C9.73478 9.00007 9.48043 9.10542 9.29289 9.29296C9.10536 9.4805 9 9.73485 9 10.0001V12.0001C9 12.2653 9.10536 12.5196 9.29289 12.7072C9.48043 12.8947 9.73478 13.0001 10 13.0001C10.2652 13.0001 10.5196 12.8947 10.7071 12.7072C10.8946 12.5196 11 12.2653 11 12.0001V10.8401C11.8081 10.6041 12.5037 10.0839 12.9585 9.37551C13.4133 8.66708 13.5967 7.81813 13.475 6.98513C13.3532 6.15213 12.9344 5.39122 12.2958 4.84266C11.6572 4.29409 10.8418 3.99484 10 4.00007Z" fill="currentColor"/>
    <path d="M10 16C10.5523 16 11 15.5523 11 15C11 14.4477 10.5523 14 10 14C9.44772 14 9 14.4477 9 15C9 15.5523 9.44772 16 10 16Z" fill="currentColor"/>
</svg>
