<svg width="20" height="20" viewBox="0 0 20 20" fill="none" xmlns="http://www.w3.org/2000/svg">
  <path
    d="M9.99984 1.66675C5.39984 1.66675 1.6665 5.40008 1.6665 10.0001C1.6665 14.6001 5.39984 18.3334 9.99984 18.3334C14.5998 18.3334 18.3332 14.6001 18.3332 10.0001C18.3332 5.40008 14.5998 1.66675 9.99984 1.66675ZM5.49984 9.35841C5.6415 8.36675 6.08317 7.47508 6.77484 6.77508C8.4415 5.11675 11.0665 5.02508 12.8498 6.47508V5.68341C12.8498 5.34175 13.1332 5.05841 13.4748 5.05841C13.8165 5.05841 14.0998 5.34175 14.0998 5.68341V7.90841C14.0998 8.25008 13.8165 8.53341 13.4748 8.53341H11.2498C10.9082 8.53341 10.6248 8.25008 10.6248 7.90841C10.6248 7.56675 10.9082 7.28341 11.2498 7.28341H11.8748C10.5832 6.38341 8.79984 6.50841 7.64984 7.65841C7.14984 8.15841 6.83317 8.80841 6.72484 9.53341C6.68317 9.84175 6.4165 10.0667 6.10817 10.0667C6.07484 10.0667 6.04984 10.0667 6.0165 10.0584C5.6915 10.0167 5.44984 9.70008 5.49984 9.35841ZM13.2248 13.2251C12.3332 14.1167 11.1665 14.5584 9.99984 14.5584C8.98317 14.5584 7.97484 14.2001 7.1415 13.5251V14.3084C7.1415 14.6501 6.85817 14.9334 6.5165 14.9334C6.17484 14.9334 5.8915 14.6501 5.8915 14.3084V12.0834C5.8915 11.7417 6.17484 11.4584 6.5165 11.4584H8.7415C9.08317 11.4584 9.3665 11.7417 9.3665 12.0834C9.3665 12.4251 9.08317 12.7084 8.7415 12.7084H8.1165C9.40817 13.6084 11.1915 13.4834 12.3415 12.3334C12.8415 11.8334 13.1582 11.1834 13.2665 10.4584C13.3165 10.1167 13.6248 9.87508 13.9748 9.92508C14.3165 9.97508 14.5498 10.2917 14.5082 10.6334C14.3582 11.6417 13.9165 12.5334 13.2248 13.2251Z"
    fill="black" />
</svg>
