<svg width="18" height="18" viewBox="0 0 18 18" fill="none" xmlns="http://www.w3.org/2000/svg">
<path d="M11.4373 8.85C11.8045 8.62638 12.1144 8.32006 12.3423 7.95547C12.5702 7.59087 12.7097 7.17808 12.7498 6.75C12.7568 6.36291 12.6874 5.97825 12.5457 5.61797C12.4039 5.2577 12.1926 4.92888 11.9238 4.65029C11.6549 4.3717 11.3338 4.14881 10.9788 3.99433C10.6238 3.83986 10.2419 3.75683 9.85481 3.75H4.9873V14.25H10.2373C10.6057 14.2461 10.9697 14.1696 11.3085 14.025C11.6473 13.8804 11.9543 13.6705 12.212 13.4073C12.4697 13.144 12.673 12.8326 12.8103 12.4907C12.9476 12.1489 13.0163 11.7834 13.0123 11.415V11.325C13.0126 10.8053 12.8645 10.2964 12.5855 9.85797C12.3065 9.41954 11.9082 9.06986 11.4373 8.85ZM6.4873 5.25H9.63731C9.95693 5.24011 10.2719 5.32821 10.5401 5.50249C10.8082 5.67677 11.0166 5.92888 11.1373 6.225C11.2595 6.62084 11.22 7.04894 11.0274 7.41574C10.8349 7.78254 10.505 8.05821 10.1098 8.1825C9.95634 8.22747 9.79722 8.25021 9.63731 8.25H6.4873V5.25ZM9.9373 12.75H6.4873V9.75H9.9373C10.2569 9.74011 10.5719 9.82821 10.8401 10.0025C11.1082 10.1768 11.3166 10.4289 11.4373 10.725C11.5595 11.1208 11.52 11.5489 11.3274 11.9157C11.1349 12.2825 10.805 12.5582 10.4098 12.6825C10.2563 12.7275 10.0972 12.7502 9.9373 12.75Z" fill="black"/>
</svg>
