<svg width="18" height="16" viewBox="0 0 18 16" fill="none" xmlns="http://www.w3.org/2000/svg">
<path d="M0 8.20281H18V9.70281H13.6342C13.8711 10.2 13.9906 10.745 13.9836 11.2957C13.9977 11.8182 13.8855 12.3364 13.6567 12.8063C13.428 13.2763 13.0893 13.6842 12.6694 13.9954C11.6579 14.7071 10.4378 15.0606 9.20251 14.9999C8.29996 15.006 7.4062 14.8223 6.57916 14.4609C5.82387 14.1475 5.16917 13.6328 4.68652 12.9727C4.24212 12.3425 4.00762 11.5883 4.01636 10.8172V10.7039H4.30359V10.7028H4.64508V10.7039H6.02V10.8172C6.00433 11.1686 6.07382 11.5186 6.22253 11.8373C6.37125 12.1561 6.59479 12.4341 6.87413 12.6479C7.55154 13.1302 8.372 13.3696 9.20249 13.3272C9.93562 13.3751 10.6645 13.1834 11.2792 12.781C11.507 12.6125 11.6901 12.3907 11.8124 12.135C11.9346 11.8793 11.9923 11.5976 11.9804 11.3144C11.9964 11.0408 11.9459 10.7675 11.8332 10.5177C11.7205 10.2679 11.5491 10.0491 11.3335 9.88002C11.2451 9.81599 11.1533 9.75681 11.0585 9.70277H0V8.20281ZM13.3447 3.05968C12.9232 2.40469 12.3271 1.88046 11.6236 1.54607C10.8394 1.17248 9.97928 0.985528 9.11072 0.999866C7.8996 0.947888 6.70883 1.32391 5.74719 2.062C5.33435 2.38084 5.00134 2.79135 4.77448 3.26107C4.54762 3.73078 4.43313 4.24683 4.44006 4.76842C4.43656 5.26271 4.54659 5.75121 4.76166 6.19628H7.35834C7.27496 6.14263 7.17297 6.09051 7.10565 6.03564C6.90219 5.88555 6.73702 5.68956 6.62358 5.4636C6.51014 5.23765 6.45164 4.98811 6.45282 4.73528C6.43773 4.44667 6.49242 4.15867 6.61226 3.89568C6.73209 3.63269 6.91354 3.40246 7.14124 3.22448C7.71733 2.82494 8.41088 2.6304 9.11072 2.67205C9.87165 2.62367 10.6231 2.86226 11.2167 3.34075C11.465 3.57454 11.6594 3.85955 11.7865 4.176C11.9136 4.49245 11.9703 4.83276 11.9527 5.17333V5.28674H13.9559V5.17333C13.9592 4.42472 13.7471 3.69097 13.3447 3.05968Z" fill="black"/>
</svg>
