<svg width="24" height="24" viewBox="0 0 24 24" fill="none" xmlns="http://www.w3.org/2000/svg">
<path d="M10.6843 19.5199C11.1166 20.7345 11.7817 20.7345 12.0002 20.7345C12.651 20.7345 13.1213 20.2428 13.3969 19.2593C13.5046 18.8765 13.5385 18.4755 13.4966 18.0791C13.3459 16.7547 12.8297 15.5032 12.0097 14.4746C11.2343 15.4343 10.7239 16.5931 10.5323 17.8283C10.4431 18.3964 10.4955 18.9786 10.6843 19.5199Z" fill="#4E52F5"/>
<path d="M11.9762 12.311C14.6223 9.76378 18.8266 8.08693 23.5962 7.88531C23.6936 7.88273 23.7861 7.84051 23.8537 7.76779C23.9213 7.69508 23.9585 7.59772 23.9572 7.49683V1.23689C23.9533 1.00478 23.8874 0.778304 23.7669 0.582508C23.6464 0.386711 23.476 0.229218 23.2744 0.127438C23.0729 0.0256582 22.848 -0.0164442 22.6248 0.00578512C22.4015 0.0280145 22.1886 0.11371 22.0095 0.253398L11.981 8.12135L1.94774 0.282903C1.767 0.142013 1.55188 0.0561073 1.32655 0.0348461C1.10123 0.0135848 0.874642 0.0578106 0.672271 0.162551C0.4699 0.267291 0.299768 0.428392 0.181006 0.62774C0.0622434 0.827088 -0.000440447 1.05678 2.32956e-06 1.29098V7.53125C0.00228558 7.63186 0.0412756 7.72785 0.109135 7.79992C0.176994 7.87198 0.268693 7.91479 0.365797 7.91973C5.11163 8.1066 9.3159 9.79329 11.9762 12.311Z" fill="#4E52F5"/>
<path d="M12.9735 13.4126C14.0459 14.6836 14.7216 16.2607 14.9118 17.9367C14.9741 18.5246 14.924 19.1194 14.7645 19.6873C14.2894 21.2953 13.3013 22.2149 11.9997 22.2149C10.7883 22.2149 9.84765 21.4428 9.34409 20.0364C9.07547 19.2654 8.99868 18.4367 9.12081 17.6269C9.36029 16.0582 10.0184 14.5901 11.021 13.388C8.55074 11.0424 4.54599 9.49337 0.0234375 9.3606L0.0566916 21.6198C0.0573113 21.9339 0.117837 22.2447 0.234796 22.5344C0.351754 22.8242 0.522842 23.0872 0.738241 23.3083C0.953639 23.5295 1.20911 23.7044 1.48998 23.8231C1.77086 23.9418 2.07161 24.0018 2.37498 23.9999H21.6909C21.9944 23.9999 22.2951 23.9379 22.5755 23.8175C22.8559 23.6971 23.1106 23.5206 23.3251 23.2982C23.5395 23.0757 23.7095 22.8117 23.8253 22.5212C23.941 22.2307 24.0003 21.9194 23.9996 21.6051L23.9664 9.38518C19.4771 9.49828 15.4391 11.062 12.9735 13.4126Z" fill="#4E52F5"/>
</svg>
