<svg width="24" height="24" viewBox="0 0 24 24" fill="none" xmlns="http://www.w3.org/2000/svg">
<path d="M9.30908 15.0495C8.70504 15.7048 7.92 16.166 7.05351 16.3746C6.18702 16.5832 5.2781 16.5299 4.44199 16.2212C3.60588 15.9126 2.88024 15.3627 2.35709 14.6411C1.83393 13.9196 1.53681 13.0589 1.50341 12.1683C1.47 11.2777 1.70182 10.3972 2.16946 9.63848C2.6371 8.87978 3.3195 8.27702 4.13014 7.90663C4.94078 7.53625 5.84315 7.41492 6.72283 7.55804C7.60252 7.70115 8.41989 8.10226 9.07133 8.7105L12.9983 6.15C12.6845 5.38192 12.6646 4.52515 12.9425 3.74334C13.2203 2.96152 13.7764 2.30945 14.5046 1.91167C15.2327 1.51389 16.0819 1.39827 16.8899 1.5869C17.6979 1.77552 18.4081 2.25518 18.8848 2.93424C19.3616 3.61331 19.5715 4.44421 19.4745 5.26823C19.3774 6.09225 18.9803 6.85166 18.3588 7.4014C17.7373 7.95115 16.9351 8.25271 16.1054 8.24848C15.2757 8.24426 14.4767 7.93455 13.8608 7.3785L9.98333 9.906C10.3133 10.5322 10.4993 11.2447 10.4993 12.0007C10.5 12.6166 10.3739 13.226 10.1288 13.791L15.7786 16.9687C16.3093 16.3309 17.0563 15.911 17.877 15.789C18.6977 15.6671 19.5345 15.8517 20.2277 16.3077C20.9209 16.7637 21.4218 17.459 21.6348 18.2609C21.8479 19.0628 21.758 19.9151 21.3825 20.6549C21.007 21.3948 20.3721 21.9704 19.5991 22.2718C18.826 22.5732 17.9691 22.5793 17.1918 22.289C16.4146 21.9986 15.7716 21.4321 15.3855 20.6977C14.9995 19.9632 14.8975 19.1123 15.0991 18.3075L9.30833 15.0502L9.30908 15.0495Z" fill="black"/>
</svg>
