<svg width="20" height="20" viewBox="0 0 20 20" fill="none" xmlns="http://www.w3.org/2000/svg">
<path d="M13.4917 1.66666H6.50841C3.47508 1.66666 1.66675 3.475 1.66675 6.50833V13.4833C1.66675 16.525 3.47508 18.3333 6.50841 18.3333H13.4834C16.5167 18.3333 18.3251 16.525 18.3251 13.4917V6.50833C18.3334 3.475 16.5251 1.66666 13.4917 1.66666ZM14.3751 10.275C14.3751 10.6167 14.0917 10.9 13.7501 10.9C13.4084 10.9 13.1251 10.6167 13.1251 10.275V7.75833L6.69175 14.1917C6.56675 14.3167 6.40841 14.375 6.25008 14.375C6.09175 14.375 5.93341 14.3167 5.80841 14.1917C5.56675 13.95 5.56675 13.55 5.80841 13.3083L12.2417 6.875H9.72508C9.38341 6.875 9.10008 6.59166 9.10008 6.25C9.10008 5.90833 9.38341 5.625 9.72508 5.625H13.7501C14.0917 5.625 14.3751 5.90833 14.3751 6.25V10.275Z" fill="black"/>
</svg>
