<svg width="16" height="16" viewBox="0 0 16 16" fill="none" xmlns="http://www.w3.org/2000/svg">
<path d="M10.5235 2.24216C11.3782 2.20153 12.2079 2.53435 12.7954 3.15622C13.311 3.07341 13.8095 2.9031 14.2673 2.6531L14.6251 2.45466C14.4517 2.9906 14.1282 3.4656 13.6923 3.82185C13.597 3.91091 13.4907 3.98747 13.3767 4.04841V4.0531C13.9392 3.99372 14.4892 3.84372 15.0032 3.60778V3.6156C14.7407 4.04216 14.411 4.42497 14.0282 4.74841C13.8782 4.86716 13.7298 4.98747 13.5798 5.11091C13.6048 5.73747 13.5595 6.36403 13.447 6.98122C12.7282 10.25 10.8282 12.4703 7.81729 13.4218C6.49541 13.8078 5.1001 13.8656 3.75166 13.5906C3.17354 13.4515 2.60947 13.264 2.0626 13.0297C1.78291 12.9062 1.51104 12.7656 1.2501 12.6047C1.16729 12.5515 1.08135 12.5015 0.998535 12.4484C1.30322 12.4906 1.60947 12.5031 1.91729 12.4859C2.2001 12.4359 2.47666 12.4484 2.7376 12.3906C3.34229 12.2734 3.9251 12.0609 4.4626 11.7609C4.74697 11.6297 5.00791 11.4562 5.24072 11.2453C4.94854 11.2453 4.65947 11.1922 4.38604 11.089C3.51885 10.7906 2.84229 10.1 2.5626 9.22653C2.84385 9.25466 3.65479 9.32966 3.84541 9.16872C3.50479 9.12028 3.18291 8.98903 2.90635 8.78591C2.0376 8.26091 1.52041 7.30778 1.55322 6.29372C1.65166 6.33903 1.74854 6.38903 1.84697 6.43435C2.04072 6.51247 2.24385 6.56872 2.4501 6.6031C2.57666 6.64685 2.71104 6.65935 2.84385 6.6406H2.82979C2.68447 6.47185 2.44854 6.35622 2.30479 6.17497C1.67666 5.44685 1.4376 4.4656 1.65635 3.53122C1.72822 3.26716 1.83291 3.01247 1.96416 2.77341C1.96885 2.7781 1.97354 2.7781 1.97822 2.78122C2.05322 2.89216 2.13916 2.99528 2.2376 3.08591C2.49072 3.39372 2.77666 3.67185 3.09229 3.91403C4.11104 4.75622 5.31416 5.34528 6.60479 5.63591C7.02666 5.74372 7.45947 5.79997 7.89385 5.80466C7.78291 5.35466 7.7876 4.88435 7.90791 4.43747C8.11572 3.56872 8.71729 2.84528 9.53447 2.48435C9.74072 2.39685 9.95322 2.32966 10.172 2.28278C10.2907 2.27028 10.4063 2.25778 10.5235 2.24216Z" fill="#3888FF"/>
</svg>
