<svg width="20" height="20" viewBox="0 0 20 20" fill="none" xmlns="http://www.w3.org/2000/svg">
<rect x="1.11108" y="1.11111" width="17.7778" height="17.7778" rx="6" fill="black"/>
<path d="M11.6013 5.55812C12.1437 5.52679 12.6703 5.78353 13.0432 6.26327C13.3705 6.19938 13.6869 6.068 13.9774 5.87514L14.2046 5.72206C14.0945 6.1355 13.8892 6.50193 13.6125 6.77675C13.552 6.84546 13.4846 6.90452 13.4122 6.95153V6.95515C13.7692 6.90934 14.1183 6.79363 14.4446 6.61162V6.61764C14.2779 6.94671 14.0687 7.24203 13.8257 7.49154C13.7305 7.58314 13.6363 7.67596 13.5411 7.77118C13.557 8.25454 13.5282 8.73789 13.4568 9.21401C13.0006 11.7356 11.7946 13.4485 9.88358 14.1825C9.04458 14.4803 8.15896 14.5249 7.3031 14.3127C6.93615 14.2054 6.57814 14.0608 6.23103 13.88C6.05351 13.7848 5.88095 13.6763 5.71533 13.5521C5.66277 13.5112 5.60823 13.4726 5.55566 13.4316C5.74905 13.4641 5.94343 13.4738 6.1388 13.4605C6.31831 13.422 6.49384 13.4316 6.65946 13.387C7.04326 13.2966 7.41318 13.1327 7.75433 12.9012C7.93483 12.8 8.10045 12.6662 8.24822 12.5035C8.06276 12.5035 7.87929 12.4625 7.70574 12.3829C7.15533 12.1527 6.72591 11.6199 6.54839 10.9461C6.7269 10.9678 7.24161 11.0257 7.3626 10.9015C7.1464 10.8642 6.9421 10.7629 6.76657 10.6062C6.21517 10.2012 5.8869 9.46593 5.90773 8.68365C5.97021 8.7186 6.0317 8.75717 6.09417 8.79213C6.21715 8.8524 6.34607 8.89579 6.47698 8.92231C6.55731 8.95606 6.6426 8.9657 6.7269 8.95124H6.71797C6.62574 8.82106 6.47599 8.73186 6.38475 8.59204C5.98608 8.03034 5.83434 7.27337 5.97318 6.55255C6.0188 6.34885 6.08525 6.15237 6.16855 5.96795C6.17153 5.97157 6.1745 5.97157 6.17748 5.97398C6.22508 6.05956 6.27963 6.13911 6.34211 6.20902C6.50277 6.44648 6.68425 6.66104 6.88458 6.84787C7.53119 7.49756 8.29483 7.95199 9.114 8.17619C9.38176 8.25936 9.65647 8.30275 9.93218 8.30637C9.86176 7.95922 9.86474 7.5964 9.9411 7.25167C10.073 6.58148 10.4548 6.0234 10.9735 5.74496C11.1044 5.67746 11.2393 5.62563 11.3781 5.58946C11.4535 5.57982 11.5269 5.57018 11.6013 5.55812Z" fill="white"/>
</svg>
