<svg viewBox="0 0 24 24" fill="none" xmlns="http://www.w3.org/2000/svg">
  <path d="M18.0003 16.75C17.8403 16.75 17.6903 16.7 17.5503 16.6C17.2203 16.35 17.1503 15.88 17.4003 15.55C18.9703 13.46 18.9703 10.54 17.4003 8.45003C17.1503 8.12003 17.2203 7.65003 17.5503 7.40003C17.8803 7.15003 18.3503 7.22003 18.6003 7.55003C20.5603 10.17 20.5603 13.83 18.6003 16.45C18.4503 16.65 18.2303 16.75 18.0003 16.75Z" fill="black"/>
  <path d="M19.8304 19.25C19.6704 19.25 19.5204 19.2 19.3804 19.1C19.0504 18.85 18.9804 18.38 19.2304 18.05C21.9004 14.49 21.9004 9.51003 19.2304 5.95003C18.9804 5.62003 19.0504 5.15003 19.3804 4.90003C19.7104 4.65003 20.1804 4.72003 20.4304 5.05003C23.5004 9.14003 23.5004 14.86 20.4304 18.95C20.2904 19.15 20.0604 19.25 19.8304 19.25Z" fill="black"/>
  <path d="M14.02 3.77997C12.9 3.15997 11.47 3.31997 10.01 4.22997L7.09 6.05997C6.89 6.17997 6.66 6.24997 6.43 6.24997H5.5H5C2.58 6.24997 1.25 7.57997 1.25 9.99997V14C1.25 16.42 2.58 17.75 5 17.75H5.5H6.43C6.66 17.75 6.89 17.82 7.09 17.94L10.01 19.77C10.89 20.32 11.75 20.59 12.55 20.59C13.07 20.59 13.57 20.47 14.02 20.22C15.13 19.6 15.75 18.31 15.75 16.59V7.40997C15.75 5.68997 15.13 4.39997 14.02 3.77997Z" fill="black"/>
</svg>
