<svg viewBox="0 0 20 20" fill="none" xmlns="http://www.w3.org/2000/svg">
  <path d="M3.75 0H12.503L18.75 6.25V17.5C18.75 18.8807 17.6307 20 16.25 20H3.75C2.36925 20 1.25 18.8807 1.25 17.5V2.5C1.25 1.11925 2.36925 0 3.75 0Z" fill="black"/>
  <path opacity="0.9" d="M6.31033 11.7567V13.1657H5.48633V9.16675H7.04633C7.28258 9.16675 7.49383 9.19975 7.67958 9.2655C7.86533 9.3315 8.02283 9.4235 8.15208 9.54175C8.28108 9.65975 8.37958 9.79975 8.44708 9.96175C8.51483 10.124 8.54883 10.3002 8.54883 10.4905C8.54883 10.6847 8.51483 10.8595 8.44708 11.0152C8.38079 11.169 8.27982 11.3053 8.15208 11.4135C8.02283 11.5235 7.86533 11.608 7.67958 11.6675C7.49358 11.727 7.28258 11.7567 7.04633 11.7567H6.31033ZM6.31033 11.0892H7.04633C7.16358 11.0892 7.26483 11.0747 7.34983 11.0455C7.43483 11.016 7.50483 10.9755 7.55858 10.923C7.61258 10.871 7.65258 10.8082 7.67808 10.735C7.70383 10.6617 7.71658 10.5822 7.71658 10.496C7.71658 10.41 7.70383 10.3272 7.67808 10.2475C7.65336 10.1695 7.61266 10.0974 7.55858 10.036C7.50086 9.972 7.42953 9.92177 7.34983 9.889C7.26483 9.8525 7.16358 9.834 7.04633 9.834H6.31033V11.0892ZM9.11458 13.1657V9.16675H10.3451C10.6143 9.16675 10.8608 9.213 11.0851 9.3055C11.3096 9.398 11.5018 9.528 11.6621 9.6955C11.8262 9.86924 11.9538 10.0742 12.0371 10.2982C12.1266 10.5327 12.1716 10.7927 12.1716 11.0782V11.2595C12.1716 11.5452 12.1271 11.8047 12.0383 12.0382C11.9554 12.2624 11.8273 12.4671 11.6621 12.6397C11.4979 12.8088 11.2999 12.9412 11.0811 13.0285C10.8561 13.12 10.6078 13.1657 10.3368 13.1657H9.11458ZM9.93858 9.83425V12.5037H10.3368C10.6628 12.5037 10.9108 12.3962 11.0811 12.1812C11.2513 11.966 11.3366 11.6587 11.3366 11.2595V11.0727C11.3366 10.6662 11.2523 10.3582 11.0841 10.1487C10.9153 9.93875 10.6691 9.83425 10.3451 9.83425H9.93858ZM15.1761 11.5317H13.5946V13.1657H12.7706V9.16675H15.3743V9.83425H13.5943V10.8667H15.1766V11.5317H15.1761Z" fill="white"/>
  <path d="M12.5 0L18.75 6.25H15C13.6193 6.25 12.5 5.13075 12.5 3.75V0Z" fill="#6F6F6F"/>
</svg>
