<svg width="24" height="24" viewBox="0 0 24 24" fill="none" xmlns="http://www.w3.org/2000/svg">
<path d="M15 22.75H9C3.57 22.75 1.25 20.43 1.25 15V9C1.25 3.57 3.57 1.25 9 1.25H15C20.43 1.25 22.75 3.57 22.75 9V15C22.75 20.43 20.43 22.75 15 22.75ZM9 2.75C4.39 2.75 2.75 4.39 2.75 9V15C2.75 19.61 4.39 21.25 9 21.25H15C19.61 21.25 21.25 19.61 21.25 15V9C21.25 4.39 19.61 2.75 15 2.75H9Z" fill="white"/>
<path d="M10.6414 9.5C10.4514 9.5 10.2614 9.43 10.1114 9.28C9.40141 8.57 8.24141 8.57 7.53141 9.28C7.24141 9.57 6.76141 9.57 6.47141 9.28C6.18141 8.99 6.18141 8.51 6.47141 8.22C7.76141 6.93 9.87141 6.93 11.1714 8.22C11.4614 8.51 11.4614 8.99 11.1714 9.28C11.0214 9.43 10.8314 9.5 10.6414 9.5Z" fill="white"/>
<path d="M13.3608 9.5C13.1708 9.5 12.9808 9.43 12.8308 9.28C12.5408 8.99 12.5408 8.51 12.8308 8.22C14.1208 6.93 16.2308 6.93 17.5308 8.22C17.8208 8.51 17.8208 8.99 17.5308 9.28C17.2408 9.57 16.7608 9.57 16.4708 9.28C15.7608 8.57 14.6008 8.57 13.8908 9.28C13.7508 9.43 13.5608 9.5 13.3608 9.5Z" fill="white"/>
<path d="M15.6 18.45H8.4C7.49 18.45 6.75 17.71 6.75 16.8C6.75 13.91 9.1 11.55 12 11.55C14.9 11.55 17.25 13.91 17.25 16.8C17.25 17.71 16.51 18.45 15.6 18.45ZM12 13.05C9.93 13.05 8.25 14.73 8.25 16.8C8.25 16.88 8.32 16.95 8.4 16.95H15.6C15.68 16.95 15.75 16.88 15.75 16.8C15.75 14.73 14.07 13.05 12 13.05Z" fill="white"/>
</svg>
