<svg viewBox="0 0 106 35" fill="none" xmlns="http://www.w3.org/2000/svg">
<path d="M1.07686 19.5307C0.745585 17.2083 1.53239 15.1123 2.53132 13.0114C5.35623 7.07023 20 3.14308 30 2.14259C46.5 2.14269 54.6745 -0.42797 74 2.14211C104.081 6.14262 112.5 23.0799 97 29.1421C95.8052 30.8039 85.096 30.6619 83 31.786C80.9798 32.8695 54.8498 33.286 49.5 33.286C31 33.286 13.5 31.7859 4.52163 25.5929C2.63878 23.4596 1.44414 22.1055 1.07686 19.5307Z" fill="#F0871A" stroke="black" stroke-width="2" stroke-linecap="round"/>
<path d="M26.9888 14.2329C25.3408 14.1529 23.7568 14.2809 22.2368 14.6169C20.7168 14.9529 19.2128 15.4089 17.7248 15.9849C17.3408 16.1289 17.0448 16.1129 16.8368 15.9369C16.6448 15.7609 16.5488 15.5849 16.5488 15.4089C16.6608 15.1049 16.8608 14.8569 17.1488 14.6649C20.4288 13.0649 23.7088 12.4729 26.9888 12.8889C27.1488 12.9369 27.2768 13.0569 27.3728 13.2489C27.4848 13.4249 27.5248 13.5769 27.4928 13.7049C27.4608 13.8649 27.4128 14.0009 27.3488 14.1129C27.2848 14.2089 27.1648 14.2489 26.9888 14.2329ZM23.5808 22.6089C23.5808 22.7849 23.5168 22.9449 23.3888 23.0889C23.2768 23.2169 23.1328 23.2969 22.9568 23.3289C22.6368 23.3769 22.4288 23.3209 22.3328 23.1609C22.2368 23.0009 22.1808 22.8169 22.1648 22.6089C22.1488 21.4889 22.1248 20.3769 22.0928 19.2729C22.0768 18.1529 22.0288 17.0329 21.9488 15.9129C21.9488 15.8489 21.9408 15.7769 21.9248 15.6969C21.9088 15.6009 21.9088 15.5129 21.9248 15.4329C21.9408 15.3369 21.9728 15.2569 22.0208 15.1929C22.0848 15.1289 22.1808 15.0809 22.3088 15.0489C22.6768 14.9849 22.9408 15.0489 23.1008 15.2409C23.2608 15.4169 23.3408 15.5929 23.3408 15.7689C23.4688 16.9209 23.5488 18.0649 23.5808 19.2009C23.6128 20.3369 23.6128 21.4729 23.5808 22.6089Z" fill="black"/>
<path d="M30.6408 13.1529C30.6408 13.5369 30.6328 13.9689 30.6168 14.4489C30.6168 14.9289 30.6168 15.4249 30.6168 15.9369C30.6328 16.4489 30.6408 16.9769 30.6408 17.5209C30.6568 18.0649 30.6728 18.5849 30.6888 19.0809C30.8488 18.7609 31.0408 18.4489 31.2648 18.1449C31.4888 17.8249 31.7368 17.5449 32.0088 17.3049C32.2968 17.0649 32.5928 16.8729 32.8968 16.7289C33.2168 16.5849 33.5608 16.5129 33.9288 16.5129C34.3288 16.5129 34.6808 16.6409 34.9848 16.8969C35.3048 17.1529 35.5768 17.4969 35.8008 17.9289C36.0408 18.3449 36.2408 18.8169 36.4008 19.3449C36.5608 19.8569 36.6888 20.3849 36.7848 20.9289C36.8968 21.4569 36.9768 21.9689 37.0248 22.4649C37.0728 22.9449 37.1128 23.3609 37.1448 23.7129C37.1448 23.9689 37.0808 24.1769 36.9528 24.3369C36.8248 24.4969 36.6728 24.5769 36.4968 24.5769C36.3688 24.5769 36.2088 24.4969 36.0168 24.3369C35.8408 24.1609 35.7128 23.9529 35.6328 23.7129C35.5848 23.5209 35.5368 23.2409 35.4888 22.8729C35.4408 22.5049 35.3848 22.1129 35.3208 21.6969C35.2568 21.2649 35.1768 20.8329 35.0808 20.4009C34.9848 19.9689 34.8648 19.5849 34.7208 19.2489C34.5928 18.8969 34.4328 18.6249 34.2408 18.4329C34.0488 18.2409 33.8248 18.1689 33.5688 18.2169C33.1688 18.2969 32.8168 18.5769 32.5128 19.0569C32.2248 19.5369 31.9688 20.0809 31.7448 20.6889C31.5368 21.2969 31.3608 21.9129 31.2168 22.5369C31.0888 23.1609 30.9928 23.6649 30.9288 24.0489C30.8648 24.3369 30.7768 24.5369 30.6648 24.6489C30.5688 24.7449 30.4568 24.7929 30.3288 24.7929C30.2008 24.7929 30.0808 24.7289 29.9688 24.6009C29.8728 24.4729 29.7768 24.3209 29.6808 24.1449C29.6008 23.9529 29.5288 23.7609 29.4648 23.5689C29.4008 23.3609 29.3608 23.1849 29.3448 23.0409C29.2648 22.1769 29.2008 21.3529 29.1528 20.5689C29.1048 19.7689 29.0648 18.9689 29.0328 18.1689C29.0168 17.3689 29.0088 16.5529 29.0088 15.7209C29.0088 14.8729 29.0248 13.9689 29.0568 13.0089C29.0568 12.2089 29.3448 11.8489 29.9208 11.9289C30.1128 11.9609 30.2808 12.1049 30.4248 12.3609C30.5688 12.6009 30.6408 12.8649 30.6408 13.1529Z" fill="black"/>
<path d="M46.0508 15.5049C45.7628 15.6649 45.4588 15.8329 45.1388 16.0089C44.8348 16.1849 44.5228 16.3929 44.2028 16.6329C43.8988 16.8569 43.6028 17.1289 43.3148 17.4489C43.0428 17.7529 42.7948 18.1209 42.5708 18.5529C42.2508 19.1609 42.0348 19.7849 41.9228 20.4249C41.8108 21.0489 41.7388 21.6649 41.7068 22.2729C41.7068 22.5609 41.6348 22.8569 41.4908 23.1609C41.3628 23.4489 41.1788 23.5929 40.9388 23.5929C40.6348 23.5929 40.3868 23.4409 40.1948 23.1369C40.0188 22.8169 39.8988 22.5129 39.8348 22.2249C39.5628 21.0889 39.3388 19.9689 39.1628 18.8649C38.9868 17.7449 38.8348 16.6329 38.7068 15.5289C38.7068 15.3049 38.7708 15.1609 38.8988 15.0969C39.0428 15.0329 39.2028 15.0089 39.3788 15.0249C39.5708 15.0409 39.7548 15.0889 39.9308 15.1689C40.1068 15.2489 40.2108 15.3769 40.2428 15.5529C40.3068 16.1449 40.3868 16.7689 40.4828 17.4249C40.5788 18.0649 40.6748 18.6169 40.7708 19.0809C40.8348 18.5369 41.0108 18.0089 41.2988 17.4969C41.5868 16.9849 41.9388 16.5209 42.3548 16.1049C42.7868 15.6889 43.2668 15.3369 43.7948 15.0489C44.3388 14.7609 44.8908 14.5689 45.4508 14.4729C45.6908 14.4409 45.8908 14.4409 46.0508 14.4729C46.2108 14.5049 46.3228 14.5609 46.3868 14.6409C46.4508 14.7209 46.4588 14.8489 46.4108 15.0249C46.3788 15.2009 46.2588 15.3609 46.0508 15.5049Z" fill="black"/>
<path d="M53.0198 15.4089C53.4998 15.5849 53.8998 15.8489 54.2198 16.2009C54.5558 16.5529 54.8118 16.9529 54.9878 17.4009C55.1638 17.8329 55.2598 18.2809 55.2758 18.7449C55.3078 19.2089 55.2598 19.6409 55.1318 20.0409C54.9558 20.4889 54.7318 20.9289 54.4598 21.3609C54.1878 21.7929 53.8758 22.1769 53.5238 22.5129C53.1718 22.8489 52.7718 23.1209 52.3238 23.3289C51.8758 23.5369 51.3798 23.6409 50.8358 23.6409C50.1798 23.6409 49.6278 23.4889 49.1798 23.1849C48.7318 22.8809 48.3798 22.4889 48.1238 22.0089C47.8678 21.5289 47.6998 20.9849 47.6198 20.3769C47.5558 19.7689 47.5718 19.1609 47.6678 18.5529C47.7318 18.1049 47.8358 17.6729 47.9798 17.2569C48.1398 16.8249 48.3398 16.4489 48.5798 16.1289C48.8198 15.7929 49.0918 15.5209 49.3958 15.3129C49.7158 15.1049 50.0758 15.0009 50.4758 15.0009C50.6998 15.0009 50.9798 15.0489 51.3158 15.1449C51.6518 15.2249 51.9638 15.3449 52.2518 15.5049C52.4598 15.3129 52.7158 15.2809 53.0198 15.4089ZM52.1078 17.1609C51.9318 17.0489 51.7238 16.9049 51.4838 16.7289C51.2598 16.5369 51.0598 16.4409 50.8838 16.4409C50.6918 16.4409 50.4998 16.5289 50.3078 16.7049C50.1318 16.8809 49.9718 17.0889 49.8278 17.3289C49.6998 17.5529 49.5878 17.7849 49.4918 18.0249C49.3958 18.2649 49.3318 18.4569 49.2998 18.6009C49.2518 18.8409 49.2198 19.1289 49.2038 19.4649C49.1878 19.8009 49.2118 20.1369 49.2758 20.4729C49.3398 20.7929 49.4598 21.0889 49.6358 21.3609C49.8278 21.6169 50.1078 21.8009 50.4758 21.9129C50.6998 21.9769 50.9638 21.9769 51.2678 21.9129C51.5718 21.8329 51.8678 21.6969 52.1558 21.5049C52.4598 21.3129 52.7398 21.0569 52.9958 20.7369C53.2678 20.4169 53.4758 20.0489 53.6198 19.6329C53.7798 19.1689 53.7798 18.6889 53.6198 18.1929C53.4758 17.6809 53.1718 17.3129 52.7078 17.0889C52.5958 17.1689 52.4838 17.2089 52.3718 17.2089C52.2598 17.2089 52.1718 17.1929 52.1078 17.1609Z" fill="black"/>
<path d="M65.747 23.2329C65.619 23.4089 65.475 23.5289 65.315 23.5929C65.155 23.6409 65.011 23.6649 64.883 23.6649C64.659 23.6489 64.451 23.5769 64.259 23.4489C64.067 23.3049 63.947 23.1609 63.899 23.0169C63.803 22.7449 63.699 22.4409 63.587 22.1049C63.475 21.7689 63.363 21.4329 63.251 21.0969C63.155 20.7449 63.051 20.4089 62.939 20.0889C62.827 19.7529 62.723 19.4489 62.627 19.1769C62.307 19.7369 62.003 20.3049 61.715 20.8809C61.427 21.4409 61.107 22.0249 60.755 22.6329C60.595 22.8729 60.411 23.0409 60.203 23.1369C59.995 23.2169 59.819 23.2489 59.675 23.2329C59.467 23.2169 59.275 23.1369 59.099 22.9929C58.939 22.8489 58.811 22.7129 58.715 22.5849C58.539 22.2969 58.363 21.9289 58.187 21.4809C58.011 21.0169 57.843 20.5369 57.683 20.0409C57.539 19.5289 57.403 19.0249 57.275 18.5289C57.147 18.0169 57.043 17.5609 56.963 17.1609C56.915 16.8889 56.915 16.6329 56.963 16.3929C57.027 16.1529 57.171 16.0169 57.395 15.9849C57.667 15.9689 57.915 16.0649 58.139 16.2729C58.363 16.4649 58.491 16.6569 58.523 16.8489C58.587 17.1689 58.659 17.5209 58.739 17.9049C58.835 18.2729 58.931 18.6489 59.027 19.0329C59.139 19.4169 59.243 19.7929 59.339 20.1609C59.451 20.5289 59.563 20.8569 59.675 21.1449C59.915 20.7609 60.179 20.3209 60.467 19.8249C60.771 19.3129 61.059 18.8249 61.331 18.3609C61.603 17.8809 61.851 17.4649 62.075 17.1129C62.299 16.7609 62.475 16.5449 62.603 16.4649C62.699 16.4009 62.835 16.4089 63.011 16.4889C63.187 16.5529 63.315 16.6489 63.395 16.7769C63.747 17.4809 64.035 18.2569 64.259 19.1049C64.499 19.9369 64.731 20.7129 64.955 21.4329C65.179 21.1449 65.419 20.7689 65.675 20.3049C65.931 19.8249 66.179 19.3209 66.419 18.7929C66.659 18.2649 66.883 17.7369 67.091 17.2089C67.299 16.6809 67.467 16.2089 67.595 15.7929C67.723 15.3609 67.899 15.1529 68.123 15.1689C68.411 15.2009 68.659 15.2969 68.867 15.4569C69.075 15.6169 69.155 15.7849 69.107 15.9609C68.755 17.3689 68.299 18.6649 67.739 19.8489C67.179 21.0169 66.515 22.1449 65.747 23.2329Z" fill="black"/>
<path d="M75.0937 15.7891C74.5438 15.7373 74.0562 16.1411 74.0044 16.691C73.9526 17.2408 74.3564 17.7285 74.9063 17.7803L75.0937 15.7891ZM92.37 17.7001C92.7605 17.3095 92.7605 16.6764 92.37 16.2858L86.006 9.92189C85.6155 9.53136 84.9823 9.53136 84.5918 9.92189C84.2013 10.3124 84.2013 10.9456 84.5918 11.3361L90.2487 16.993L84.5918 22.6498C84.2013 23.0403 84.2013 23.6735 84.5918 24.064C84.9823 24.4545 85.6155 24.4545 86.006 24.064L92.37 17.7001ZM74.9063 17.7803C80.4593 18.3029 86.2166 17.993 91.6629 17.993V15.993C86.0669 15.993 80.5226 16.3 75.0937 15.7891L74.9063 17.7803Z" fill="black"/>
</svg>
