<svg width="20" height="20" viewBox="0 0 20 20" fill="none" xmlns="http://www.w3.org/2000/svg">
<path d="M18.3083 4.58366V7.91699C18.3083 9.35639 17.2671 10.5555 15.8895 10.7915C15.6173 10.8382 15.3917 10.6098 15.3917 10.3337V10.2087C15.3917 7.10866 12.875 4.58366 9.76666 4.58366H9.64166C9.36552 4.58366 9.13717 4.35801 9.18415 4.08589C9.42102 2.71386 10.6197 1.66699 12.0583 1.66699H15.3917C17.0083 1.66699 18.3083 2.97533 18.3083 4.58366Z" fill="white"/>
<path d="M9.76666 5.83301H9.14166H5.80833C3.50833 5.83301 1.64166 7.69967 1.64166 9.99967V14.1663C1.64166 16.4663 3.50833 18.333 5.80833 18.333H9.975C12.275 18.333 14.1417 16.4663 14.1417 14.1663V10.833V10.208C14.1417 7.79134 12.1833 5.83301 9.76666 5.83301Z" fill="white"/>
</svg>
