<svg viewBox="0 0 48 48" fill="none" xmlns="http://www.w3.org/2000/svg">
<path d="M16.2201 21.4001L21.5001 18.7601C22.2201 18.4001 22.9401 17.4401 23.0601 16.6401L23.8601 11.8601C24.3801 8.80006 26.5801 8.08005 28.7801 10.2801L32.5201 14.0001C33.1401 14.6201 34.3601 14.9801 35.2401 14.7801L39.8601 13.7201C43.5001 12.8801 44.9201 14.8201 43.0201 18.0401L40.3601 22.5201C39.8801 23.3401 39.8801 24.6601 40.3601 25.4801L43.0001 29.9801C44.9001 33.2001 43.4801 35.1401 39.8401 34.3001L35.2201 33.2401C34.3601 33.0401 33.1401 33.4001 32.5001 34.0201L28.8001 37.7201C26.6001 39.9201 24.3801 39.2001 23.8801 36.1401L23.0801 31.3601C22.9401 30.5601 22.2401 29.6001 21.5201 29.2401L16.2401 26.6001C13.3601 25.1801 13.3601 22.8201 16.2201 21.4001Z" fill="#FCC12D"/>
<path d="M19.5 36C19.5 36.82 18.82 37.5 18 37.5L4 37.5C3.18 37.5 2.5 36.82 2.5 36C2.5 35.18 3.18 34.5 4 34.5L18 34.5C18.82 34.5 19.5 35.18 19.5 36Z" fill="#FCC12D"/>
<path d="M19.5 12C19.5 12.82 18.82 13.5 18 13.5L4 13.5C3.18 13.5 2.5 12.82 2.5 12C2.5 11.18 3.18 10.5 4 10.5L18 10.5C18.82 10.5 19.5 11.18 19.5 12Z" fill="#FCC12D"/>
<path d="M9.5 24C9.5 24.82 8.82 25.5 8 25.5L4 25.5C3.18 25.5 2.5 24.82 2.5 24C2.5 23.18 3.18 22.5 4 22.5L8 22.5C8.82 22.5 9.5 23.18 9.5 24Z" fill="#FCC12D"/>
<path d="M41.93 35.735L41.93 35.735L41.9341 35.7308C42.3168 35.3349 42.3227 34.7052 41.93 34.3125C41.5396 33.9221 40.8979 33.9221 40.5075 34.3125L36.2575 38.5625L34.4925 36.7975C34.1021 36.4071 33.4604 36.4071 33.07 36.7975C32.6796 37.1879 32.6796 37.8296 33.07 38.22L35.5463 40.6962C35.7337 40.8836 35.9886 40.9913 36.2575 40.9913C36.5264 40.9913 36.7813 40.8836 36.9687 40.6962L41.93 35.735ZM29.1 37.5C29.1 32.872 32.872 29.1 37.5 29.1C42.128 29.1 45.9 32.872 45.9 37.5C45.9 42.128 42.128 45.9 37.5 45.9C32.872 45.9 29.1 42.128 29.1 37.5Z" fill="#FFAE00" stroke="#EEF0F3" stroke-width="0.7"/>
</svg>
