<svg viewBox="0 0 18 18" fill="none" xmlns="http://www.w3.org/2000/svg">
<path d="M6.08274 8.02453L8.06274 7.03453C8.33274 6.89953 8.60274 6.53953 8.64774 6.23953L8.94774 4.44703C9.14274 3.29953 9.96774 3.02953 10.7927 3.85453L12.1952 5.24953C12.4277 5.48203 12.8852 5.61703 13.2152 5.54203L14.9477 5.14453C16.3127 4.82953 16.8452 5.55703 16.1327 6.76453L15.1352 8.44453C14.9552 8.75203 14.9552 9.24703 15.1352 9.55453L16.1252 11.242C16.8377 12.4495 16.3052 13.177 14.9402 12.862L13.2077 12.4645C12.8852 12.3895 12.4277 12.5245 12.1877 12.757L10.8002 14.1445C9.97524 14.9695 9.14274 14.6995 8.95524 13.552L8.65524 11.7595C8.60274 11.4595 8.34024 11.0995 8.07024 10.9645L6.09024 9.97453C5.01024 9.44203 5.01024 8.55703 6.08274 8.02453Z" fill="#FCC12D"/>
<path d="M7.3125 13.5C7.3125 13.8075 7.0575 14.0625 6.75 14.0625L1.5 14.0625C1.1925 14.0625 0.9375 13.8075 0.9375 13.5C0.9375 13.1925 1.1925 12.9375 1.5 12.9375L6.75 12.9375C7.0575 12.9375 7.3125 13.1925 7.3125 13.5Z" fill="#FCC12D"/>
<path d="M7.3125 4.5C7.3125 4.8075 7.0575 5.0625 6.75 5.0625L1.5 5.0625C1.1925 5.0625 0.9375 4.8075 0.9375 4.5C0.9375 4.1925 1.1925 3.9375 1.5 3.9375L6.75 3.9375C7.0575 3.9375 7.3125 4.1925 7.3125 4.5Z" fill="#FCC12D"/>
<path d="M3.5625 9C3.5625 9.3075 3.3075 9.5625 3 9.5625L1.5 9.5625C1.1925 9.5625 0.9375 9.3075 0.9375 9C0.9375 8.6925 1.1925 8.4375 1.5 8.4375L3 8.4375C3.3075 8.4375 3.5625 8.6925 3.5625 9Z" fill="#FCC12D"/>
</svg>
