<svg viewBox="0 0 49 48" fill="none" xmlns="http://www.w3.org/2000/svg">
<path d="M12.4949 5.99023V18.009H3.49023L12.4949 5.99023Z" fill="#FCC12D"/>
<path d="M36.4998 5.99023V18.009L24.6357 5.99023H36.4998Z" fill="#FFA800"/>
<path d="M45.5094 18.009H36.5V5.99023L45.5094 18.009Z" fill="#FCC12D"/>
<path d="M45.509 18.0098L24.4621 42.0098L36.4996 18.0098H45.509ZM24.4621 42.0098L3.49023 18.0098H12.4949L24.4621 42.0098Z" fill="#FFA800"/>
<path d="M36.4998 18.0098L24.4623 42.0098L12.4951 18.0098H36.4998Z" fill="#FCC12D"/>
<path d="M24.6357 5.99023L12.4951 18.009V5.99023H24.6357Z" fill="#FFA800"/>
<path d="M36.4998 18.009H12.4951L24.6357 5.99023L36.4998 18.009Z" fill="#FFF142"/>
<path d="M42.43 35.735L42.43 35.735L42.4341 35.7308C42.8168 35.3349 42.8227 34.7052 42.43 34.3125C42.0396 33.9221 41.3979 33.9221 41.0075 34.3125L36.7575 38.5625L34.9925 36.7975C34.6021 36.4071 33.9604 36.4071 33.57 36.7975C33.1796 37.1879 33.1796 37.8296 33.57 38.22L36.0463 40.6962C36.2337 40.8836 36.4886 40.9913 36.7575 40.9913C37.0264 40.9913 37.2813 40.8836 37.4687 40.6962L42.43 35.735ZM29.6 37.5C29.6 32.872 33.372 29.1 38 29.1C42.628 29.1 46.4 32.872 46.4 37.5C46.4 42.128 42.628 45.9 38 45.9C33.372 45.9 29.6 42.128 29.6 37.5Z" fill="#FFAE00" stroke="#EEF0F3" stroke-width="0.7"/>
</svg>
