<svg width="46" height="46" viewBox="0 0 46 46" fill="none" xmlns="http://www.w3.org/2000/svg">
<path d="M46 0V30C46 38.8366 38.8366 46 30 46H0L46 0Z" fill="#FFF0D1"/>
<path d="M29.0827 31.0245L31.0627 30.0345C31.3327 29.8995 31.6027 29.5395 31.6477 29.2395L31.9477 27.447C32.1427 26.2995 32.9677 26.0295 33.7927 26.8545L35.1952 28.2495C35.4277 28.482 35.8852 28.617 36.2152 28.542L37.9477 28.1445C39.3127 27.8295 39.8452 28.557 39.1327 29.7645L38.1352 31.4445C37.9552 31.752 37.9552 32.247 38.1352 32.5545L39.1252 34.242C39.8377 35.4495 39.3052 36.177 37.9402 35.862L36.2077 35.4645C35.8852 35.3895 35.4277 35.5245 35.1877 35.757L33.8002 37.1445C32.9752 37.9695 32.1427 37.6995 31.9552 36.552L31.6552 34.7595C31.6027 34.4595 31.3402 34.0995 31.0702 33.9645L29.0902 32.9745C28.0102 32.442 28.0102 31.557 29.0827 31.0245Z" fill="#FCC12D"/>
<path d="M30.3125 36.5C30.3125 36.8075 30.0575 37.0625 29.75 37.0625L24.5 37.0625C24.1925 37.0625 23.9375 36.8075 23.9375 36.5C23.9375 36.1925 24.1925 35.9375 24.5 35.9375L29.75 35.9375C30.0575 35.9375 30.3125 36.1925 30.3125 36.5Z" fill="#FCC12D"/>
<path d="M30.3125 27.5C30.3125 27.8075 30.0575 28.0625 29.75 28.0625L24.5 28.0625C24.1925 28.0625 23.9375 27.8075 23.9375 27.5C23.9375 27.1925 24.1925 26.9375 24.5 26.9375L29.75 26.9375C30.0575 26.9375 30.3125 27.1925 30.3125 27.5Z" fill="#FCC12D"/>
<path d="M26.5625 32C26.5625 32.3075 26.3075 32.5625 26 32.5625L24.5 32.5625C24.1925 32.5625 23.9375 32.3075 23.9375 32C23.9375 31.6925 24.1925 31.4375 24.5 31.4375L26 31.4375C26.3075 31.4375 26.5625 31.6925 26.5625 32Z" fill="#FCC12D"/>
</svg>
