<svg viewBox="0 0 24 24" fill="none" xmlns="http://www.w3.org/2000/svg">
<rect x="3" y="3" width="18" height="18" rx="6" fill="black"/>
<path d="M16.1971 2H7.8129C4.17108 2 2 4.17 2 7.81V16.18C2 19.83 4.17108 22 7.8129 22H16.1871C19.8289 22 22 19.83 22 16.19V7.81C22.01 4.17 19.8389 2 16.1971 2ZM17.2576 12.33C17.2576 12.74 16.9174 13.08 16.5072 13.08C16.097 13.08 15.7569 12.74 15.7569 12.33V9.31L8.03301 17.03C7.88293 17.18 7.69284 17.25 7.50274 17.25C7.31265 17.25 7.12255 17.18 6.97248 17.03C6.68233 16.74 6.68233 16.26 6.97248 15.97L14.6963 8.25H11.6748C11.2646 8.25 10.9244 7.91 10.9244 7.5C10.9244 7.09 11.2646 6.75 11.6748 6.75H16.5072C16.9174 6.75 17.2576 7.09 17.2576 7.5V12.33Z" fill="white"/>
</svg>
