<svg width="18" height="18" viewBox="0 0 18 18" fill="none" xmlns="http://www.w3.org/2000/svg">
<path d="M12.4976 0.666992H5.51077C2.47592 0.666992 0.666687 2.47533 0.666687 5.50866V12.4837C0.666687 15.5253 2.47592 17.3337 5.51077 17.3337H12.4892C15.5241 17.3337 17.3333 15.5253 17.3333 12.492V5.50866C17.3417 2.47533 15.5324 0.666992 12.4976 0.666992ZM13.3814 9.27532C13.3814 9.61699 13.0979 9.90032 12.756 9.90032C12.4142 9.90032 12.1307 9.61699 12.1307 9.27532V6.75866L5.69419 13.192C5.56913 13.317 5.41072 13.3753 5.25231 13.3753C5.09389 13.3753 4.93548 13.317 4.81042 13.192C4.56863 12.9503 4.56863 12.5503 4.81042 12.3087L11.247 5.87533H8.72904C8.3872 5.87533 8.10373 5.59199 8.10373 5.25033C8.10373 4.90866 8.3872 4.62533 8.72904 4.62533H12.756C13.0979 4.62533 13.3814 4.90866 13.3814 5.25033V9.27532Z" fill="white"/>
</svg>
