<svg width="16" height="16" viewBox="0 0 16 16" fill="none" xmlns="http://www.w3.org/2000/svg">
<path d="M9.15333 2.34001L10.3267 4.68668C10.4867 5.01334 10.9133 5.32668 11.2733 5.38668L13.4 5.74001C14.76 5.96668 15.08 6.95334 14.1 7.92668L12.4467 9.58001C12.1667 9.86001 12.0133 10.4 12.1 10.7867L12.5733 12.8333C12.9467 14.4533 12.0867 15.08 10.6533 14.2333L8.66 13.0533C8.3 12.84 7.70667 12.84 7.34 13.0533L5.34667 14.2333C3.92 15.08 3.05333 14.4467 3.42667 12.8333L3.9 10.7867C3.98667 10.4 3.83333 9.86001 3.55333 9.58001L1.9 7.92668C0.926667 6.95334 1.24 5.96668 2.6 5.74001L4.72667 5.38668C5.08 5.32668 5.50667 5.01334 5.66667 4.68668L6.84 2.34001C7.48 1.06668 8.52 1.06668 9.15333 2.34001Z" fill="white"/>
<path d="M15.0667 11.8666C15.0667 12.4666 14.9 13.0333 14.6 13.5133C14.0467 14.4399 13.0333 15.0666 11.8667 15.0666C10.7 15.0666 9.67999 14.4399 9.13332 13.5133C8.83999 13.0333 8.66666 12.4666 8.66666 11.8666C8.66666 10.1 10.1 8.66663 11.8667 8.66663C13.6333 8.66663 15.0667 10.1 15.0667 11.8666Z" fill="white" stroke="#FFA800" stroke-width="0.5" stroke-miterlimit="10" stroke-linecap="round" stroke-linejoin="round"/>
<path d="M10.62 11.8666L11.4067 12.6533L13.1133 11.08" stroke="#FFA800" stroke-width="0.5" stroke-linecap="round" stroke-linejoin="round"/>
</svg>
