<svg width="20" height="20" viewBox="0 0 20 20" fill="none" xmlns="http://www.w3.org/2000/svg">
<rect x="1.11108" y="1.11133" width="17.7778" height="17.7778" rx="8.88889" fill="white"/>
<path d="M11.6011 5.55823C12.1436 5.52689 12.6702 5.78364 13.0431 6.26337C13.3704 6.19949 13.6867 6.0681 13.9773 5.87524L14.2044 5.72216C14.0943 6.1356 13.8891 6.50204 13.6124 6.77686C13.5519 6.84557 13.4844 6.90463 13.412 6.95164V6.95525C13.7691 6.90945 14.1182 6.79373 14.4444 6.61172V6.61775C14.2778 6.94682 14.0686 7.24213 13.8256 7.49164C13.7304 7.58325 13.6362 7.67607 13.541 7.77129C13.5568 8.25464 13.5281 8.738 13.4567 9.21412C13.0005 11.7357 11.7945 13.4486 9.88346 14.1826C9.04445 14.4804 8.15884 14.525 7.30297 14.3128C6.93603 14.2055 6.57802 14.0609 6.23091 13.8801C6.05339 13.7849 5.88083 13.6764 5.71521 13.5522C5.66265 13.5113 5.6081 13.4727 5.55554 13.4317C5.74893 13.4642 5.94331 13.4739 6.13868 13.4606C6.31818 13.4221 6.49372 13.4317 6.65934 13.3871C7.04314 13.2967 7.41306 13.1328 7.75421 12.9013C7.93471 12.8001 8.10033 12.6663 8.24809 12.5036C8.06264 12.5036 7.87917 12.4626 7.70562 12.383C7.15521 12.1528 6.72579 11.62 6.54827 10.9462C6.72678 10.9679 7.24149 11.0258 7.36248 10.9016C7.14628 10.8643 6.94198 10.763 6.76645 10.6063C6.21504 10.2013 5.88678 9.46604 5.90761 8.68375C5.97009 8.71871 6.03157 8.75728 6.09405 8.79224C6.21703 8.85251 6.34595 8.8959 6.47686 8.92242C6.55719 8.95617 6.64248 8.96581 6.72678 8.95135H6.71785C6.62562 8.82117 6.47587 8.73197 6.38463 8.59215C5.98595 8.03044 5.83422 7.27347 5.97306 6.55266C6.01868 6.34895 6.08513 6.15248 6.16843 5.96806C6.17141 5.97167 6.17438 5.97167 6.17736 5.97408C6.22496 6.05967 6.27951 6.13922 6.34199 6.20913C6.50265 6.44659 6.68413 6.66114 6.88446 6.84798C7.53107 7.49767 8.2947 7.95209 9.11387 8.17629C9.38164 8.25946 9.65635 8.30286 9.93205 8.30647C9.86164 7.95933 9.86462 7.59651 9.94098 7.25178C10.0729 6.58159 10.4547 6.0235 10.9734 5.74506C11.1043 5.67756 11.2392 5.62573 11.378 5.58957C11.4534 5.57993 11.5268 5.57029 11.6011 5.55823Z" fill="black"/>
</svg>
