<svg viewBox="0 0 24 24" fill="none" xmlns="http://www.w3.org/2000/svg">
<rect x="1.33398" y="1.33398" width="21.3333" height="21.3333" rx="10.6667" fill="white"/>
<path d="M13.9207 6.6691C14.5717 6.63149 15.2036 6.93958 15.6511 7.51527C16.0438 7.4386 16.4235 7.28094 16.7722 7.04951L17.0447 6.86581C16.9126 7.36194 16.6662 7.80166 16.3342 8.13145C16.2616 8.2139 16.1807 8.28477 16.0938 8.34118V8.34552C16.5222 8.29056 16.9411 8.1517 17.3327 7.93329V7.94052C17.1328 8.3354 16.8816 8.68978 16.5901 8.98919C16.4758 9.09912 16.3628 9.2105 16.2485 9.32477C16.2676 9.90479 16.2331 10.4848 16.1474 11.0562C15.5999 14.0821 14.1528 16.1375 11.8595 17.0184C10.8527 17.3757 9.78997 17.4292 8.76293 17.1746C8.3226 17.0459 7.89299 16.8723 7.47646 16.6553C7.26343 16.5411 7.05636 16.4109 6.85762 16.2619C6.79454 16.2127 6.72909 16.1664 6.66602 16.1173C6.89808 16.1563 7.13134 16.1679 7.36578 16.152C7.58119 16.1057 7.79183 16.1173 7.99057 16.0637C8.45113 15.9553 8.89503 15.7585 9.30442 15.4808C9.52101 15.3593 9.71976 15.1988 9.89708 15.0035C9.67453 15.0035 9.45437 14.9543 9.2461 14.8589C8.58561 14.5826 8.07031 13.9433 7.85728 13.1347C8.0715 13.1607 8.68915 13.2302 8.83434 13.0812C8.5749 13.0363 8.32974 12.9148 8.1191 12.7268C7.45742 12.2408 7.0635 11.3585 7.08849 10.4197C7.16347 10.4617 7.23725 10.508 7.31223 10.5499C7.4598 10.6222 7.61451 10.6743 7.7716 10.7061C7.86799 10.7466 7.97034 10.7582 8.0715 10.7408H8.06079C7.95011 10.5846 7.77041 10.4776 7.66092 10.3098C7.18251 9.63575 7.00043 8.72739 7.16704 7.86241C7.22178 7.61796 7.30152 7.38219 7.40148 7.16089C7.40505 7.16523 7.40862 7.16523 7.41219 7.16812C7.46932 7.27082 7.53477 7.36628 7.60975 7.45018C7.80254 7.73513 8.02032 7.99259 8.26072 8.21679C9.03665 8.99642 9.95301 9.54173 10.936 9.81077C11.2573 9.91058 11.587 9.96265 11.9178 9.96699C11.8333 9.55041 11.8369 9.11503 11.9285 8.70135C12.0868 7.89713 12.545 7.22742 13.1674 6.8933C13.3245 6.81229 13.4864 6.7501 13.653 6.7067C13.7434 6.69513 13.8315 6.68356 13.9207 6.6691Z" fill="black"/>
</svg>
