<svg viewBox="0 0 62 80" fill="none" xmlns="http://www.w3.org/2000/svg">
  <g clip-path="url(#clip0_256_10846)">
    <path d="M32.5589 10.4822C33.1379 10.4822 33.6072 10.0134 33.6072 9.43503C33.6072 8.8567 33.1379 8.38788 32.5589 8.38788C31.98 8.38788 31.5107 8.8567 31.5107 9.43503C31.5107 10.0134 31.98 10.4822 32.5589 10.4822Z" fill="black"/>
    <path d="M44.2064 11.9888C44.7853 11.9888 45.2546 11.5199 45.2546 10.9416C45.2546 10.3633 44.7853 9.89447 44.2064 9.89447C43.6275 9.89447 43.1582 10.3633 43.1582 10.9416C43.1582 11.5199 43.6275 11.9888 44.2064 11.9888Z" fill="black"/>
    <path d="M61.8757 51.7804C61.6216 46.3067 60.5397 40.9029 58.6669 35.7526C57.7327 32.8385 56.6218 29.9838 55.3405 27.2045C55.0624 26.6275 54.7522 26.0505 54.442 25.4735C53.3724 23.5181 52.3028 21.4879 52.4312 19.2761C52.4456 19.0956 52.4104 18.9146 52.3293 18.7526C52.2483 18.5907 52.1245 18.4539 51.9713 18.3572C51.798 18.2498 51.5976 18.1942 51.3937 18.1969C50.7392 16.2892 50.3786 14.2932 50.3241 12.2773C50.2467 10.122 49.8354 7.99174 49.1047 5.96235C46.9335 0.908254 41.4571 0.0641247 38.3874 1.35563e-05C36.3136 -0.178243 34.2271 0.140454 32.3014 0.929625C31.4183 1.41907 30.6616 2.10759 30.0915 2.94046C29.5215 3.77332 29.1538 4.72754 29.0177 5.72727C28.6006 7.65061 28.3653 9.63805 28.13 11.5614L28.0016 12.6299C27.7021 15.0661 27.4454 17.5558 27.2529 20.0134C27.178 20.8361 27.146 21.6803 27.1032 22.5137C27.0604 23.3471 27.0283 24.1058 26.9748 24.8965C26.7792 24.9273 26.5949 25.0083 26.44 25.1316C22.9943 27.9693 20.4457 31.7438 19.1026 35.9984C16.2237 37.2942 13.9344 39.6193 12.685 42.5164C11.6958 42.4085 10.695 42.503 9.74364 42.7942C8.94286 43.0403 8.21673 43.4833 7.63182 44.0826C7.04691 44.6819 6.62191 45.4182 6.3958 46.2241C6.02448 47.5189 5.94606 48.8799 6.1662 50.2086C6.38634 51.5374 6.89953 52.8006 7.66862 53.9068C7.98269 54.3326 8.37465 54.6952 8.82378 54.9753L8.68474 64.1111V64.4744C8.70086 64.8576 8.67214 65.2413 8.59917 65.6177C8.59917 65.7567 8.5243 65.7887 8.5243 65.7887C8.35159 65.826 8.1729 65.826 8.00019 65.7887C7.47805 65.693 6.94805 65.6464 6.41719 65.6498C5.38585 65.7159 4.37906 65.9928 3.45916 66.4633C2.53925 66.9338 1.72582 67.5879 1.06922 68.3852C0.686193 68.7778 0.392385 69.2483 0.207808 69.7646C0.023231 70.2809 -0.0477773 70.8309 -0.000379404 71.3771C0.130883 71.9251 0.394475 72.4327 0.767371 72.8555C1.14027 73.2783 1.61112 73.6035 2.13881 73.8026C3.16742 74.1904 4.24973 74.4174 5.3476 74.4758L5.95727 74.5399C7.29426 74.6895 8.68474 74.807 10.0966 74.8818C10.4496 77.9378 15.0916 79.1559 16.5784 79.4978C18.2683 79.8372 19.9887 80.0019 21.7124 79.9893H22.5253C23.9564 80.0184 25.3874 79.929 26.8037 79.7222C27.6198 79.6254 28.4054 79.3539 29.1069 78.9261C29.8083 78.4982 30.4091 77.9242 30.8681 77.2432C31.6002 75.9902 32.1545 74.6416 32.5153 73.2363L32.5688 73.0439C36.5522 75.1597 41.162 75.7813 45.5644 74.7963C48.1767 74.1096 50.6922 73.0972 53.0516 71.7831C55.3007 70.7204 57.1921 69.0276 58.4958 66.9107C61.48 61.8459 62.0362 55.8835 61.8757 51.7804ZM27.3706 46.4378C26.686 46.4378 26.0015 46.4378 25.3169 46.4378C25.7495 45.0305 26.3454 43.6785 27.0925 42.4095C27.505 41.6746 27.9963 40.9867 28.5578 40.358C28.7906 40.3071 29.0028 40.188 29.1675 40.016C29.2808 39.8875 29.3615 39.7335 29.4028 39.5673C29.7344 39.2964 30.0928 39.0601 30.4724 38.862C31.8075 38.2001 33.3128 37.96 34.7879 38.1738C36.263 38.3876 37.6379 39.0451 38.7297 40.0588C38.5799 40.4755 38.4409 40.8922 38.2804 41.3089L38.1949 41.5333C37.8088 42.8214 37.1888 44.0275 36.3659 45.0915C35.5637 45.9249 34.0341 46.0745 32.8041 46.16H32.5367C30.7933 46.3951 29.0498 46.4058 27.3706 46.4165V46.4378ZM26.7395 39.1292C26.2828 39.6565 25.8714 40.2212 25.5095 40.8174C24.372 42.5717 23.5369 44.504 23.0387 46.534C21.7322 46.6004 20.4335 46.7755 19.1561 47.0576C18.2581 45.2169 16.6948 43.785 14.7814 43.0506C15.9033 40.6351 17.9321 38.758 20.4289 37.8256C21.5036 37.4775 22.6505 37.4146 23.7569 37.6432C24.8633 37.8717 25.8911 38.3838 26.7395 39.1292ZM20.7498 77.8095C19.2856 77.7754 17.8294 77.5819 16.4072 77.2325C15.0941 76.9701 13.8666 76.3863 12.8348 75.5336C12.6485 75.3784 12.5054 75.178 12.4192 74.9515C12.333 74.7251 12.3067 74.4803 12.3428 74.2407C12.4366 73.8862 12.6123 73.5585 12.8556 73.2839C13.0989 73.0094 13.4031 72.7954 13.7439 72.6593C15.0088 72.1047 16.3736 71.8138 17.7549 71.8045C18.1125 71.8021 18.4698 71.8235 18.8245 71.8686C18.9833 71.896 19.1461 71.8902 19.3026 71.8516C19.4591 71.813 19.6059 71.7423 19.7337 71.6442C19.8523 71.5482 19.949 71.428 20.0172 71.2916C20.0855 71.1553 20.1237 71.0059 20.1294 70.8535L20.6535 63.6303C20.7153 62.0192 20.9229 60.417 21.2739 58.8433L23.0066 59.2601C25.9982 59.8923 29.0342 60.2924 32.0875 60.4568L33.3282 60.5423L34.6866 60.6384C33.4983 63.1641 32.5008 65.775 31.7024 68.4493L31.296 69.7422C30.9644 70.8107 30.6221 71.8793 30.2264 72.9478L30.0339 73.5462C29.7737 74.6738 29.2577 75.7266 28.5257 76.6235C27.5078 77.4216 26.2348 77.8241 24.9426 77.7561C23.4345 77.8309 22.044 77.8523 20.7605 77.8095H20.7498ZM33.1571 70.9496L33.3282 70.3833C34.24 67.162 35.4318 64.0265 36.89 61.0124C36.9332 60.924 36.9655 60.8308 36.9862 60.7346C38.4173 60.7888 39.8503 60.7029 41.2646 60.4782C46.6126 59.5913 49.9176 55.4454 51.9606 52.0796C52.1376 52.1848 52.344 52.2298 52.5488 52.2078C53.2604 52.1429 53.9765 52.1429 54.688 52.2078C55.4882 52.288 56.2944 52.288 57.0946 52.2078C58.0091 52.0801 58.873 51.7112 59.5975 51.1393C59.8289 55.1317 59.2505 59.1296 57.8968 62.893C57.2095 65.1633 55.8435 67.1692 53.9821 68.6416C51.981 69.9662 49.8259 71.0426 47.5645 71.8472C45.2457 72.7697 42.7511 73.1677 40.26 73.0125C37.769 72.8573 35.3432 72.1528 33.1571 70.9496ZM59.4584 48.265V48.4573C59.1286 48.901 58.7139 49.2749 58.2384 49.5574C57.7628 49.8399 57.2359 50.0253 56.6882 50.1029C56.0721 50.1452 55.4538 50.1452 54.8378 50.1029C54.3351 50.1029 53.7682 50.0387 53.2869 50.0494C53.8324 49.0557 54.3565 48.1047 54.6987 47.3461C54.7687 47.2161 54.811 47.073 54.8229 46.9258C54.8348 46.7786 54.816 46.6306 54.7678 46.4911C54.7196 46.3515 54.6429 46.2235 54.5427 46.115C54.4424 46.0065 54.3207 45.92 54.1853 45.8608C54.0653 45.7952 53.9332 45.7547 53.797 45.7419C53.6609 45.729 53.5235 45.744 53.3933 45.786C53.2632 45.8281 53.143 45.8962 53.0401 45.9862C52.9371 46.0762 52.8537 46.1863 52.7949 46.3096C50.5487 50.7653 47.7464 56.3216 42.5053 58.0633C40.0109 58.6914 37.4212 58.8508 34.8684 58.5335H34.0769C31.1497 58.4145 28.2319 58.1255 25.3383 57.668C22.6045 57.3514 19.9611 56.4942 17.5624 55.1463C17.0666 54.8634 16.6451 54.467 16.3327 53.9895C16.0203 53.5121 15.8259 52.9674 15.7655 52.4002C15.7941 51.9006 15.9655 51.4197 16.2594 51.0144C16.5532 50.6092 16.9571 50.2965 17.4233 50.1135C19.6802 48.9489 22.4397 48.7886 25.3062 48.7351C25.9908 48.7351 26.6753 48.7351 27.3599 48.7351C29.5403 48.7711 31.7206 48.6533 33.8844 48.3825C35.4489 48.3137 36.9319 47.6663 38.0451 46.5661C38.9679 45.3688 39.6903 44.03 40.1843 42.6019C40.4624 41.918 40.7191 41.2128 40.9758 40.4648C41.0394 40.3369 41.0827 40.2 41.1042 40.0588C41.7138 37.6012 42.2593 35.2611 42.7086 33.1241C42.7428 32.9805 42.7469 32.8315 42.7206 32.6863C42.6943 32.5411 42.6382 32.4029 42.5558 32.2804C42.4734 32.1579 42.3665 32.0539 42.2419 31.9747C42.1172 31.8955 41.9775 31.843 41.8315 31.8205C41.6986 31.7876 41.5603 31.7822 41.4252 31.8046C41.29 31.827 41.1609 31.8768 41.0458 31.9508C40.9306 32.0248 40.8318 32.1216 40.7554 32.2352C40.679 32.3487 40.6266 32.4767 40.6015 32.6112C40.2592 34.2247 39.8741 36.0305 39.3928 37.8042C38.034 36.8057 36.4364 36.1814 34.7601 35.9939C33.0838 35.8064 31.3876 36.0622 29.8413 36.7357C29.3072 36.9852 28.7986 37.2858 28.3225 37.6332C27.6177 36.9402 26.7862 36.3888 25.8731 36.0091L26.4507 34.5986C27.0604 33.092 27.7021 31.5427 28.2262 29.972C28.8072 27.9741 29.1201 25.9081 29.1568 23.828V23.5609C29.4456 18.8594 29.9162 14.1472 30.5794 9.56325L30.7184 8.54816C30.789 6.97191 31.2014 5.42978 31.927 4.02833C32.879 2.54309 34.7615 2.25459 36.4835 2.16911C41.8315 1.89129 45.3505 3.30174 46.8693 6.3577C47.6795 8.33609 48.1077 10.4497 48.1314 12.5872V12.694C48.2065 15.0704 48.7026 17.4146 49.5968 19.618C49.7172 19.8711 49.9323 20.0668 50.1957 20.163H50.2706C50.5132 22.2743 51.2101 24.3083 52.3135 26.1253C53.5148 28.3865 54.5653 30.7246 55.4581 33.1241C57.3766 37.9984 58.7192 43.0798 59.4584 48.265ZM26.5256 28.07C26.2313 29.1975 25.8523 30.3012 25.3918 31.3717L23.7767 35.4535C23.3411 35.3897 22.9014 35.3576 22.4611 35.3573C22.183 35.3573 21.9156 35.3573 21.6375 35.3573C22.7307 32.5607 24.408 30.0291 26.5577 27.9311C26.5541 27.9788 26.5433 28.0256 26.5256 28.07ZM10.1608 44.8778C11.4308 44.4588 12.8095 44.5119 14.0434 45.0274C15.3583 45.5368 16.4472 46.4995 17.1131 47.7414C16.4855 48.0219 15.8961 48.381 15.359 48.8099C14.6262 49.3816 14.0916 50.1687 13.8306 51.0602C13.5696 51.9517 13.5954 52.9025 13.9044 53.7786C13.2626 53.7786 12.6743 53.7038 12.1074 53.6397H11.7652C11.066 53.6472 10.3793 53.4544 9.78642 53.084C9.23275 52.4947 8.80647 51.7978 8.53412 51.0368C8.26178 50.2757 8.14921 49.4668 8.20342 48.6604C8.21411 47.2392 8.55639 45.4762 10.1608 44.8778ZM2.27786 71.2168C2.22674 71.1044 2.20029 70.9823 2.20029 70.8588C2.20029 70.7353 2.22674 70.6133 2.27786 70.5009C2.6216 69.6983 3.21891 69.0303 3.97852 68.5989C4.7189 68.153 5.55476 67.8894 6.41719 67.8296H6.62042C6.89639 67.8347 7.17163 67.8597 7.44401 67.9044C8.05719 68.0377 8.69192 68.0377 9.3051 67.9044C9.73656 67.7309 10.1091 67.4373 10.3783 67.0584C10.6476 66.6796 10.8022 66.2315 10.8239 65.7673C10.9198 64.9984 10.952 64.2229 10.9202 63.4487C10.9202 63.1708 10.9202 62.893 10.9202 62.6152L10.9844 55.6912C12.367 55.8833 13.7601 55.9904 15.1558 56.0118H15.3376C16.4544 57.028 17.774 57.7964 19.2096 58.2663C18.8112 59.9749 18.5749 61.7172 18.5036 63.47L18.0544 69.7208C16.6012 69.7132 15.1564 69.9405 13.776 70.394C12.4383 70.744 11.2882 71.598 10.5672 72.7768H10.2356C8.02986 72.7469 5.8315 72.5144 3.66833 72.0823C3.39101 72.0364 3.12546 71.9363 2.88687 71.7878C2.64828 71.6393 2.44134 71.4452 2.27786 71.2168Z" fill="black"/>
    <path d="M38.0244 14.8203C37.5748 14.7812 37.1504 14.596 36.8162 14.293C36.482 13.99 36.2564 13.586 36.174 13.1428C36.0286 12.5749 36.0286 11.9796 36.174 11.4118C36.4232 10.3351 36.9591 9.34567 37.7249 8.54814C35.4647 6.44075 32.515 5.2256 29.4248 5.12888L29.4997 4.06036C32.8559 4.16722 36.0579 5.49309 38.5057 7.78949C41.229 5.81768 44.582 4.91279 47.9288 5.24642L47.8646 6.31494C44.7853 6.00763 41.699 6.82779 39.1795 8.62294C39.9137 9.57753 40.339 10.733 40.3989 11.9353C40.4117 12.3533 40.3464 12.77 40.2063 13.1641C40.0942 13.6517 39.8144 14.0845 39.4157 14.3871C39.0169 14.6897 38.5246 14.8431 38.0244 14.8203ZM38.3987 9.31747C37.7833 9.96597 37.3514 10.7662 37.1473 11.6362C37.0503 12.0328 37.0503 12.4469 37.1473 12.8436C37.4147 13.7305 37.9067 13.7625 38.0671 13.7732C38.5485 13.7732 38.9121 13.474 39.1367 12.7902C39.2345 12.5236 39.2781 12.2403 39.2651 11.9567C39.2333 11.0126 38.9328 10.0971 38.3987 9.31747Z" fill="black"/>
  </g>
  <defs>
    <clipPath id="clip0_256_10846">
      <rect width="61.8868" height="80" fill="white"/>
    </clipPath>
  </defs>
</svg>
