<svg viewBox="0 0 367 316" fill="none" xmlns="http://www.w3.org/2000/svg">
  <g clip-path="url(#clip0_216_440)">
    <g clip-path="url(#clip1_216_440)">
      <path d="M-84.6399 286.415C-84.6399 286.415 -97.2119 264.198 -100.177 257.374C-102.945 251.051 -106.064 236.662 -120.539 233.947C-121.896 233.696 -121.426 225.422 -124.719 225.422C-127.487 225.422 -128.089 233.489 -129.599 233.555C-142.959 234.165 -147.696 238.7 -153.408 244.456C-154.316 245.372 -163.255 236.629 -165.849 239.954C-168.442 243.279 -161.603 249.165 -162.249 250.092C-166.735 256.567 -163.824 290.885 -163.824 290.885C-163.824 290.885 -169.087 307.717 -170.17 314.312C-171.254 320.907 -172.599 336.256 -170.17 342.71C-167.741 349.164 -167.873 350.123 -164.087 349.174C-160.301 348.226 -147.871 339.483 -145.574 336.518C-143.276 333.553 -129.347 321.572 -128.756 320.842C-128.166 320.111 -127.017 318.127 -128.089 317.005C-129.161 315.882 -132.739 319.261 -132.739 319.261C-132.739 319.261 -129.315 315.653 -130.617 314.355C-131.919 313.058 -136.459 316.405 -136.459 316.405C-136.459 316.405 -131.842 313.2 -133.472 311.576C-135.103 309.951 -140.322 314.486 -140.322 314.486C-140.322 314.486 -142.051 308.392 -145.103 310.126C-148.156 311.859 -145.103 318.073 -145.103 318.073L-161.855 332.321C-161.855 332.321 -155.738 327.612 -155.738 324.897C-155.738 322.183 -148.703 334.708 -137.75 339.603C-126.798 344.498 -116.524 347.91 -102.464 348.324C-94.3429 348.639 -86.2481 347.223 -78.7205 344.171C-78.7205 344.171 -54.3974 346.351 -48.9594 346.351C-43.5214 346.351 -31.9999 346.057 -31.9999 346.057C-31.9999 346.057 -27.4482 349.981 -24.0563 349.425C-20.6644 348.869 -14.9419 344.803 -13.1147 343.549C-11.2874 342.296 0.0152422 339.298 0.168425 336.692C0.321607 334.087 -14.7559 337.466 -23.1919 335.046C-31.6279 332.626 -51.0055 325.584 -57.8002 324.526C-64.5949 323.469 -85.5153 322.204 -86.0952 321.921C-86.6751 321.638 -63.6102 326.074 -62.2534 322.303C-60.8967 318.531 -53.5767 298.385 -53.8831 293.185C-54.1895 287.985 -53.1172 261.222 -53.1172 261.222C-53.1172 261.222 -50.6663 238.602 -50.6663 231.571C-50.6663 224.539 -44.3748 221.476 -43.4558 217.65C-42.5367 213.823 -46.9789 206.334 -45.7535 203.739C-44.528 201.145 -39.9216 190.287 -43.2916 188.914C-46.6616 187.54 -52.8108 195.029 -54.4958 201.298C-56.1808 207.566 -85.6903 292.727 -85.6903 292.727L-84.6399 286.415Z" stroke="white" stroke-width="3" stroke-miterlimit="10"/>
      <path d="M175.365 291.986C174.14 290.732 171.645 290.787 166.098 291.037C161.371 291.256 155.485 291.528 151.447 290.373C148.46 289.511 144.018 288.051 139.313 286.492C130.789 283.69 121.139 280.496 116.653 279.798C115.821 279.667 114.782 279.537 113.6 279.406C119.355 263.468 122.156 253.559 121.948 249.972C121.653 245.023 122.66 219.601 122.714 218.238C122.769 216.876 125.165 195.345 125.165 188.456C125.165 184.717 127.233 182.286 129.225 179.931C130.621 178.519 131.672 176.808 132.299 174.927C132.879 172.551 131.916 169.476 130.986 166.555C130.417 164.756 129.553 162.031 129.892 161.322C130.746 159.513 134.936 150.279 133.35 146.246C133.196 145.804 132.95 145.401 132.627 145.063C132.305 144.724 131.913 144.458 131.479 144.283C130.833 144.051 130.144 143.962 129.46 144.023C128.776 144.083 128.113 144.291 127.518 144.632C123.82 146.464 119.498 152.47 118.075 157.714C116.74 162.685 97.3737 218.761 89.8677 240.564C86.7712 235.037 77.832 219.078 75.4795 213.54C75.1403 212.679 74.7464 211.588 74.3088 210.498C71.7265 203.587 67.4155 192.075 54.6139 189.317C54.4826 188.87 54.3294 188.129 54.22 187.551C53.6838 184.793 52.8742 180.639 49.5041 180.639C46.714 180.639 45.6089 184.019 44.7227 186.744C44.5107 187.443 44.2624 188.131 43.9786 188.805C30.7502 189.535 25.4983 194.255 20.3119 199.466C19.7758 199.15 18.999 198.638 18.3862 198.223C14.677 195.781 9.65482 192.424 7.03978 195.781C4.57792 198.943 7.55404 203.064 9.33752 205.516C9.61106 205.887 9.95025 206.356 10.1691 206.694C6.16445 214.488 8.30901 242.875 8.65914 247.563C7.91511 249.95 3.3634 264.678 2.34583 270.903C1.49239 276.146 -0.345802 292.782 2.43336 300.14L3.18834 301.95C4.91711 306.648 5.7049 308.785 10.5192 307.586C14.5895 306.572 27.1833 297.775 29.864 294.439C31.7105 295.821 33.6983 297.005 35.7943 297.971C46.9547 302.985 57.3274 306.408 71.7047 306.801C79.9283 307.103 88.1253 305.7 95.7762 302.68C99.1571 302.985 120.154 304.86 125.319 304.86C129.98 304.86 139.247 304.642 141.731 304.588C143.022 305.602 146.392 307.989 149.565 307.989C149.884 307.991 150.202 307.965 150.517 307.913C153.624 307.4 157.914 304.642 161.699 302.07L162.126 301.775C163.312 301.202 164.532 300.703 165.781 300.282C171.897 298.003 175.923 296.303 176.109 293.687C176.119 293.366 176.057 293.047 175.928 292.753C175.799 292.459 175.607 292.197 175.365 291.986ZM164.511 297.229C162.997 297.707 161.531 298.327 160.135 299.083L159.697 299.388C157.771 300.707 152.64 304.239 149.85 304.697C147.935 305.013 144.784 303.029 143.285 301.71L142.803 301.296H142.169C142.059 301.296 130.592 301.579 125.253 301.579C119.913 301.579 95.8856 299.399 95.6449 299.399H95.1963L94.8024 299.595C87.5079 302.512 79.68 303.872 71.825 303.585C57.8964 303.16 47.9067 299.889 37.1073 294.984C35.3365 294.176 33.6536 293.19 32.0851 292.04C34.9299 289.282 39.6129 285.107 42.7422 282.316C45.8715 279.526 46.4514 279.046 46.7031 278.708C48.1036 276.997 48.8914 274.348 47.283 272.712C47.0617 272.464 46.788 272.268 46.4815 272.138C46.175 272.008 45.8433 271.947 45.5105 271.96C45.528 271.603 45.4709 271.246 45.3428 270.912C45.2147 270.578 45.0185 270.274 44.7664 270.02C44.4978 269.764 44.1801 269.564 43.8323 269.433C43.4845 269.302 43.1138 269.242 42.7422 269.257C42.7478 268.882 42.677 268.51 42.5341 268.163C42.3911 267.817 42.179 267.502 41.9107 267.24C40.0506 265.387 36.8885 267.022 34.6236 268.646C34.0296 267.199 32.9349 266.012 31.538 265.299C31.0073 265.083 30.432 264.996 29.8607 265.048C29.2895 265.099 28.7389 265.286 28.2555 265.594C24.8965 267.567 26.2095 272.244 27.0957 274.5C27.0957 274.5 15.4539 284.224 13.6047 285.968L11.2742 287.952L13.3421 290.492C13.8892 290.067 14.863 289.282 15.9134 288.312L31.1222 275.383L30.5423 274.228C29.7436 272.603 28.7042 269.126 29.9077 268.417C30.1375 268.286 30.2141 268.308 30.2688 268.33C30.9581 268.602 31.8772 270.358 32.2821 271.753L32.9823 274.238L34.919 272.549C36.1439 271.462 37.5181 270.556 39.0002 269.856C38.444 270.536 37.8086 271.147 37.1073 271.677L36.79 271.916L38.7048 274.576C38.7814 274.511 38.8908 274.446 39.0111 274.358C39.9309 273.701 40.9218 273.149 41.9654 272.712C41.4951 273.522 40.9335 274.275 40.2913 274.958L42.5781 277.269C43.247 276.632 43.9804 276.066 44.7664 275.579C44.6274 275.945 44.4317 276.287 44.1865 276.593C43.9349 276.866 42.217 278.392 40.5539 279.864C36.1773 283.777 13.0795 303.563 9.69859 304.403C8.3856 304.73 8.00264 304.686 7.90417 304.599C7.17702 303.42 6.61732 302.147 6.24104 300.816L5.55172 298.952C3.43999 293.349 4.34815 279.177 5.62831 271.393C6.67871 265.005 11.876 248.359 11.9416 248.195L12.0401 247.89V247.574C10.8475 234.012 10.2457 212.242 13.2874 207.838C14.1628 206.585 13.2874 205.331 11.9963 203.609C10.7052 201.886 8.71385 199.019 9.63294 197.776C10.1253 197.155 12.434 198.223 16.5152 200.949C19.0974 202.671 20.6621 203.718 21.986 202.431C27.4568 196.981 31.7569 192.62 44.7008 192.042C46.4733 191.966 47.0751 190.102 47.841 187.747C48.224 186.602 49.0008 184.204 49.5041 183.91C49.8105 183.91 50.3138 184.651 51.0031 188.172C51.4299 190.353 51.7691 192.108 53.3775 192.413C64.899 194.593 68.7504 204.862 71.2998 211.665C71.7265 212.82 72.1423 213.91 72.5362 214.837C75.2935 221.214 85.9506 240.15 87.8545 243.573L87.1691 247.733C87.0185 248.647 87.5942 249.524 88.4931 249.75C89.3886 249.974 90.3069 249.478 90.6089 248.606C94.7286 236.705 119.724 164.461 121.303 158.575C122.474 154.215 126.161 148.949 129.028 147.532C129.391 147.299 129.826 147.206 130.253 147.27C131.074 148.099 129.783 153.92 126.971 159.905C126.084 161.769 126.971 164.429 127.901 167.536C128.656 169.945 129.52 172.671 129.159 174.164C128.598 175.528 127.764 176.763 126.708 177.794C124.52 180.334 121.883 183.496 121.883 188.423C121.883 195.291 119.465 217.682 119.443 217.911V218.02C119.443 219.11 118.349 244.914 118.677 250.136C118.764 251.564 118.13 257.167 110.504 278.326V278.479C110.086 278.723 109.618 278.872 109.136 278.915C105.098 278.545 100.47 278.185 96.6406 277.89C94.0146 277.683 91.3339 277.476 89.7911 277.334C87.8326 277.04 86.9901 276.997 86.5852 278.272L86.1694 279.613L87.4277 280.234C87.6903 280.365 87.8216 280.43 89.3972 280.583H89.6926C99.6604 282.12 105.514 282.513 108.961 282.142C111.915 282.415 114.519 282.687 116.204 282.949C120.428 283.614 129.947 286.753 138.35 289.49C143.077 291.048 147.552 292.531 150.616 293.403C155.167 294.7 161.349 294.428 166.317 294.199C168.144 294.123 170.267 294.024 171.7 294.068C169.38 295.286 166.978 296.342 164.511 297.229Z" fill="white"/>
      <path d="M86.3446 214.314C82.4056 215.622 76.8618 215.586 75.403 215.404L82.515 230.121L96.7391 225.76L104.398 202.867C100.204 205.956 90.2835 213.006 86.3446 214.314Z" stroke="white" stroke-width="3"/>
      <path d="M134.647 182.172L135.417 181.534L135.361 181.467L135.294 181.41L134.647 182.172ZM134.647 182.172C135.417 181.534 135.417 181.534 135.417 181.534L135.418 181.535L135.419 181.537L135.423 181.542L135.436 181.557C135.447 181.571 135.462 181.589 135.48 181.612C135.517 181.659 135.57 181.726 135.635 181.813C135.766 181.985 135.948 182.233 136.161 182.548C136.587 183.175 137.14 184.071 137.654 185.148C138.671 187.278 139.595 190.251 138.905 193.295C136.787 202.631 132.805 211.881 123.994 216.298L122.546 217.024V215.404V208.863V208.733L122.579 208.607L125.997 195.678C125.911 195.556 125.809 195.409 125.697 195.242C125.358 194.733 124.919 194.021 124.536 193.226C124.157 192.439 123.807 191.52 123.685 190.604C123.564 189.688 123.659 188.655 124.33 187.801L124.723 187.301L125.342 187.444C125.606 187.505 125.852 187.562 126.082 187.616C125.467 186.64 125.053 185.345 125.513 183.767L125.724 183.047H126.473C127.218 183.047 127.834 183.062 128.311 183.077C128.077 182.425 127.881 181.552 127.881 180.384V179.919L128.237 179.619C128.994 178.981 129.916 178.902 130.707 179.022C131.492 179.141 132.269 179.469 132.92 179.814C133.582 180.163 134.172 180.561 134.592 180.866C134.804 181.02 134.976 181.153 135.097 181.249C135.157 181.297 135.205 181.336 135.238 181.363L135.277 181.396L135.289 181.405L135.292 181.408L135.293 181.409L135.294 181.41C135.294 181.41 135.294 181.41 134.647 182.172Z" stroke="white" stroke-width="2" stroke-miterlimit="10"/>
      <path d="M49.7449 240.052C46.9329 241.142 44.0771 240.237 41.7028 237.545C40.4042 236.044 39.5083 234.24 39.0987 232.301C38.3083 228.578 38.5696 224.711 39.8537 221.127C31.8554 217.998 20.6949 218.206 9.65485 222.413L8.38562 219.143C20.2026 214.63 32.304 214.477 41.2104 217.998C45.3901 209.408 54.5154 201.494 66.4527 196.937L67.7219 200.207C56.8022 204.404 48.2787 211.763 44.4382 219.492C48.0293 221.401 50.9581 224.345 52.8414 227.94C53.465 229.205 53.8366 230.579 53.9355 231.985C54.3185 235.942 52.7648 238.896 49.7449 240.052ZM43.1033 222.741C42.1333 225.579 41.9444 228.624 42.5562 231.56C42.8438 232.904 43.4644 234.156 44.3616 235.201C46.4186 237.534 47.9614 236.945 48.4757 236.749C49.9856 236.171 50.664 234.645 50.4561 232.214C50.3706 231.264 50.1032 230.338 49.6683 229.488C48.1744 226.659 45.8956 224.316 43.1033 222.741Z" fill="white"/>
      <path d="M16.7997 227.995C15.7712 225.586 20.2463 227.886 23.8899 226.338C27.5334 224.79 28.9886 220.004 30.0171 222.424C31.0457 224.844 28.923 228.039 25.2685 229.587C21.614 231.135 17.8282 230.415 16.7997 227.995Z" fill="white"/>
      <path d="M54.2527 213.692C53.2242 211.272 57.6884 213.572 61.3429 212.035C64.9974 210.498 66.4417 205.691 67.4593 208.111C68.4768 210.531 66.3651 213.736 62.7215 215.273C59.078 216.81 55.2813 216.102 54.2527 213.692Z" fill="white"/>
    </g>
    <path d="M101.12 43.264C98.9229 43.1573 96.8109 43.328 94.7843 43.776C92.7576 44.224 90.7523 44.832 88.7682 45.6C88.2563 45.792 87.8616 45.7707 87.5843 45.536C87.3283 45.3013 87.2003 45.0667 87.2003 44.832C87.3496 44.4267 87.6163 44.096 88.0003 43.84C92.3736 41.7067 96.7469 40.9173 101.12 41.472C101.334 41.536 101.504 41.696 101.632 41.952C101.782 42.1867 101.835 42.3893 101.792 42.56C101.75 42.7733 101.686 42.9547 101.6 43.104C101.515 43.232 101.355 43.2853 101.12 43.264ZM96.5763 54.432C96.5763 54.6667 96.4909 54.88 96.3203 55.072C96.1709 55.2427 95.9789 55.3493 95.7443 55.392C95.3176 55.456 95.0403 55.3813 94.9123 55.168C94.7843 54.9547 94.7096 54.7093 94.6883 54.432C94.6669 52.9387 94.6349 51.456 94.5923 49.984C94.5709 48.4907 94.5069 46.9973 94.4003 45.504C94.4003 45.4187 94.3896 45.3227 94.3683 45.216C94.3469 45.088 94.3469 44.9707 94.3683 44.864C94.3896 44.736 94.4323 44.6293 94.4963 44.544C94.5816 44.4587 94.7096 44.3947 94.8802 44.352C95.3709 44.2667 95.7229 44.352 95.9363 44.608C96.1496 44.8427 96.2563 45.0773 96.2563 45.312C96.4269 46.848 96.5336 48.3733 96.5763 49.888C96.6189 51.4027 96.6189 52.9173 96.5763 54.432ZM111.11 44.832C111.75 45.0667 112.283 45.4187 112.71 45.888C113.158 46.3573 113.499 46.8907 113.734 47.488C113.968 48.064 114.096 48.6613 114.118 49.28C114.16 49.8987 114.096 50.4747 113.926 51.008C113.691 51.6053 113.392 52.192 113.03 52.768C112.667 53.344 112.251 53.856 111.782 54.304C111.312 54.752 110.779 55.1147 110.182 55.392C109.584 55.6693 108.923 55.808 108.198 55.808C107.323 55.808 106.587 55.6053 105.99 55.2C105.392 54.7947 104.923 54.272 104.582 53.632C104.24 52.992 104.016 52.2667 103.91 51.456C103.824 50.6453 103.846 49.8347 103.974 49.024C104.059 48.4267 104.198 47.8507 104.39 47.296C104.603 46.72 104.87 46.2187 105.19 45.792C105.51 45.344 105.872 44.9813 106.278 44.704C106.704 44.4267 107.184 44.288 107.718 44.288C108.016 44.288 108.39 44.352 108.838 44.48C109.286 44.5867 109.702 44.7467 110.086 44.96C110.363 44.704 110.704 44.6613 111.11 44.832ZM109.894 47.168C109.659 47.0187 109.382 46.8267 109.062 46.592C108.763 46.336 108.496 46.208 108.262 46.208C108.006 46.208 107.75 46.3253 107.494 46.56C107.259 46.7947 107.046 47.072 106.854 47.392C106.683 47.6907 106.534 48 106.406 48.32C106.278 48.64 106.192 48.896 106.15 49.088C106.086 49.408 106.043 49.792 106.022 50.24C106 50.688 106.032 51.136 106.118 51.584C106.203 52.0107 106.363 52.4053 106.598 52.768C106.854 53.1093 107.227 53.3547 107.718 53.504C108.016 53.5893 108.368 53.5893 108.774 53.504C109.179 53.3973 109.574 53.216 109.958 52.96C110.363 52.704 110.736 52.3627 111.078 51.936C111.44 51.5093 111.718 51.0187 111.91 50.464C112.123 49.8453 112.123 49.2053 111.91 48.544C111.718 47.8613 111.312 47.3707 110.694 47.072C110.544 47.1787 110.395 47.232 110.246 47.232C110.096 47.232 109.979 47.2107 109.894 47.168ZM122.511 47.168C122.682 47.4027 122.842 47.7013 122.991 48.064C123.162 48.4053 123.29 48.7573 123.375 49.12C123.503 49.696 123.642 50.3253 123.791 51.008C123.962 51.6693 124.122 52.3627 124.271 53.088C124.442 53.8133 124.591 54.5493 124.719 55.296C124.868 56.0427 124.996 56.7573 125.103 57.44C125.231 58.3787 125.156 59.2747 124.879 60.128C124.623 61.0027 124.186 61.7813 123.567 62.464C122.948 63.1467 122.18 63.6907 121.263 64.096C120.346 64.5013 119.311 64.7253 118.159 64.768C117.903 64.7467 117.636 64.6187 117.359 64.384C117.082 64.1707 116.943 63.9467 116.943 63.712C116.922 63.4773 117.028 63.2853 117.263 63.136C117.519 63.008 117.775 62.9227 118.031 62.88C118.479 62.8373 118.938 62.7413 119.407 62.592C119.898 62.464 120.356 62.272 120.783 62.016C121.21 61.76 121.594 61.4507 121.935 61.088C122.298 60.7253 122.575 60.2987 122.767 59.808C122.916 59.424 122.991 58.9547 122.991 58.4C122.991 57.824 122.948 57.2587 122.863 56.704C122.799 56.1493 122.703 55.6267 122.575 55.136C122.468 54.624 122.372 54.24 122.287 53.984C122.138 54.1333 121.946 54.2933 121.711 54.464C121.498 54.6347 121.252 54.7947 120.975 54.944C120.698 55.0933 120.388 55.2107 120.047 55.296C119.727 55.3813 119.396 55.4133 119.055 55.392C118.692 55.3707 118.351 55.2427 118.031 55.008C117.732 54.7733 117.466 54.4747 117.231 54.112C116.996 53.728 116.804 53.2907 116.655 52.8C116.527 52.3093 116.463 51.7973 116.463 51.264C116.506 49.984 116.826 48.8533 117.423 47.872C118.042 46.8693 119.023 46.0907 120.367 45.536C120.474 45.5147 120.612 45.4933 120.783 45.472C120.975 45.4507 121.167 45.4507 121.359 45.472C121.551 45.472 121.732 45.4933 121.903 45.536C122.095 45.5787 122.255 45.6427 122.383 45.728C122.618 45.8987 122.735 46.144 122.735 46.464C122.735 46.784 122.66 47.0187 122.511 47.168ZM118.479 51.552C118.479 51.7867 118.5 52.0533 118.543 52.352C118.586 52.6293 118.724 52.832 118.959 52.96C119.215 53.1093 119.524 53.1307 119.887 53.024C120.271 52.9173 120.623 52.736 120.943 52.48C121.242 52.2453 121.434 51.9893 121.519 51.712C121.626 51.4133 121.626 51.0187 121.519 50.528C121.412 50.0373 121.295 49.5253 121.167 48.992C121.039 48.4587 120.954 47.9787 120.911 47.552C120.655 47.68 120.378 47.8613 120.079 48.096C119.802 48.3307 119.546 48.6293 119.311 48.992C119.076 49.3333 118.874 49.7173 118.703 50.144C118.554 50.5707 118.479 51.04 118.479 51.552ZM135.275 48.48C134.443 48.9707 133.547 49.3547 132.587 49.632C131.627 49.888 130.592 50.016 129.483 50.016C129.525 50.7627 129.739 51.36 130.123 51.808C130.507 52.2347 130.987 52.4907 131.563 52.576C131.904 52.6187 132.245 52.608 132.587 52.544C132.949 52.48 133.28 52.384 133.579 52.256C133.899 52.1067 134.187 51.9467 134.443 51.776C134.699 51.6053 134.923 51.4347 135.115 51.264C135.307 51.0933 135.509 50.9867 135.723 50.944C135.936 50.88 136.096 50.8693 136.203 50.912C136.501 51.0187 136.608 51.3387 136.523 51.872C136.181 52.5547 135.691 53.1413 135.051 53.632C134.411 54.1013 133.696 54.4 132.907 54.528C132.224 54.656 131.52 54.624 130.795 54.432C130.069 54.24 129.419 53.8667 128.843 53.312C128.352 52.8213 127.979 52.2453 127.723 51.584C127.467 50.9227 127.307 50.24 127.243 49.536C127.179 48.8747 127.232 48.2453 127.403 47.648C127.595 47.0507 127.883 46.528 128.267 46.08C128.651 45.6107 129.131 45.2267 129.707 44.928C130.283 44.6293 130.955 44.4587 131.723 44.416C132.64 44.352 133.472 44.5227 134.219 44.928C134.965 45.3333 135.488 45.8987 135.787 46.624C135.957 47.0293 136 47.3813 135.915 47.68C135.851 47.9787 135.637 48.2453 135.275 48.48ZM131.595 46.304C131.381 46.3467 131.147 46.4213 130.891 46.528C130.656 46.6347 130.432 46.7733 130.219 46.944C130.027 47.0933 129.845 47.2747 129.675 47.488C129.525 47.68 129.44 47.904 129.419 48.16C129.781 48.16 130.176 48.128 130.603 48.064C131.051 48 131.477 47.9253 131.883 47.84C132.309 47.7333 132.693 47.616 133.035 47.488C133.397 47.36 133.696 47.2213 133.931 47.072C133.76 46.6667 133.44 46.4213 132.971 46.336C132.523 46.2293 132.064 46.2187 131.595 46.304ZM146.014 47.424C146.419 47.4027 146.824 47.4987 147.23 47.712C147.635 47.9253 147.838 48.256 147.838 48.704C147.795 49.0667 147.592 49.3013 147.23 49.408C146.888 49.4933 146.611 49.536 146.398 49.536C145.971 49.536 145.512 49.5467 145.022 49.568C144.531 49.5893 144.03 49.6213 143.518 49.664C143.475 50.368 143.432 51.0293 143.39 51.648C143.368 52.2667 143.347 52.8213 143.326 53.312C143.304 53.7813 143.294 54.1653 143.294 54.464C143.294 54.7627 143.304 54.9227 143.326 54.944C143.795 54.8587 144.296 54.72 144.83 54.528C145.384 54.3147 145.928 54.0907 146.462 53.856C147.016 53.6 147.55 53.344 148.062 53.088C148.595 52.8107 149.096 52.5547 149.566 52.32C149.779 52.2133 149.971 52.1813 150.142 52.224C150.334 52.2667 150.451 52.3627 150.494 52.512C150.536 52.7467 150.504 53.0347 150.398 53.376C150.291 53.7173 150.099 54.0267 149.822 54.304C149.502 54.56 149.075 54.8587 148.542 55.2C148.03 55.52 147.475 55.8293 146.878 56.128C146.28 56.4267 145.672 56.6933 145.054 56.928C144.456 57.1413 143.923 57.2693 143.454 57.312C142.75 57.376 142.216 57.184 141.854 56.736C141.491 56.288 141.288 55.7227 141.246 55.04C141.203 54.3573 141.192 53.568 141.214 52.672C141.256 51.776 141.299 50.8267 141.342 49.824C140.936 49.8667 140.542 49.9093 140.158 49.952C139.795 49.9733 139.443 50.0053 139.102 50.048C138.824 50.048 138.515 49.984 138.174 49.856C137.854 49.728 137.694 49.4827 137.694 49.12C137.694 48.992 137.747 48.8213 137.854 48.608C137.96 48.3947 138.195 48.2347 138.558 48.128C139.432 47.9787 140.403 47.8507 141.47 47.744C141.534 46.7413 141.608 45.7707 141.694 44.832C141.779 43.8933 141.854 43.04 141.918 42.272C141.939 42.016 142.014 41.792 142.141 41.6C142.27 41.408 142.408 41.312 142.558 41.312C142.92 41.2907 143.262 41.3867 143.582 41.6C143.923 41.792 144.094 42.016 144.094 42.272C144.008 42.9973 143.923 43.8187 143.838 44.736C143.774 45.6533 143.71 46.592 143.646 47.552C144.072 47.5093 144.478 47.488 144.862 47.488C145.267 47.4667 145.651 47.4453 146.014 47.424ZM154.052 41.824C154.052 42.336 154.041 42.912 154.02 43.552C154.02 44.192 154.02 44.8533 154.02 45.536C154.041 46.2187 154.052 46.9227 154.052 47.648C154.073 48.3733 154.095 49.0667 154.116 49.728C154.329 49.3013 154.585 48.8853 154.884 48.48C155.183 48.0533 155.513 47.68 155.876 47.36C156.26 47.04 156.655 46.784 157.06 46.592C157.487 46.4 157.945 46.304 158.436 46.304C158.969 46.304 159.439 46.4747 159.844 46.816C160.271 47.1573 160.633 47.616 160.932 48.192C161.252 48.7467 161.519 49.376 161.732 50.08C161.945 50.7627 162.116 51.4667 162.244 52.192C162.393 52.896 162.5 53.5787 162.564 54.24C162.628 54.88 162.681 55.4347 162.724 55.904C162.724 56.2453 162.639 56.5227 162.468 56.736C162.297 56.9493 162.095 57.056 161.86 57.056C161.689 57.056 161.476 56.9493 161.22 56.736C160.985 56.5013 160.815 56.224 160.708 55.904C160.644 55.648 160.58 55.2747 160.516 54.784C160.452 54.2933 160.377 53.7707 160.292 53.216C160.207 52.64 160.1 52.064 159.972 51.488C159.844 50.912 159.684 50.4 159.492 49.952C159.321 49.4827 159.108 49.12 158.852 48.864C158.596 48.608 158.297 48.512 157.956 48.576C157.423 48.6827 156.953 49.056 156.548 49.696C156.164 50.336 155.823 51.0613 155.524 51.872C155.247 52.6827 155.012 53.504 154.82 54.336C154.649 55.168 154.521 55.84 154.436 56.352C154.351 56.736 154.233 57.0027 154.084 57.152C153.956 57.28 153.807 57.344 153.636 57.344C153.465 57.344 153.305 57.2587 153.156 57.088C153.028 56.9173 152.9 56.7147 152.772 56.48C152.665 56.224 152.569 55.968 152.484 55.712C152.399 55.4347 152.345 55.2 152.324 55.008C152.217 53.856 152.132 52.7573 152.068 51.712C152.004 50.6453 151.951 49.5787 151.908 48.512C151.887 47.4453 151.876 46.3573 151.876 45.248C151.876 44.1173 151.897 42.912 151.94 41.632C151.94 40.5653 152.324 40.0853 153.092 40.192C153.348 40.2347 153.572 40.4267 153.764 40.768C153.956 41.088 154.052 41.44 154.052 41.824ZM172.775 48.48C171.943 48.9707 171.047 49.3547 170.087 49.632C169.127 49.888 168.092 50.016 166.983 50.016C167.025 50.7627 167.239 51.36 167.623 51.808C168.007 52.2347 168.487 52.4907 169.063 52.576C169.404 52.6187 169.745 52.608 170.087 52.544C170.449 52.48 170.78 52.384 171.079 52.256C171.399 52.1067 171.687 51.9467 171.943 51.776C172.199 51.6053 172.423 51.4347 172.615 51.264C172.807 51.0933 173.009 50.9867 173.223 50.944C173.436 50.88 173.596 50.8693 173.703 50.912C174.001 51.0187 174.108 51.3387 174.023 51.872C173.681 52.5547 173.191 53.1413 172.551 53.632C171.911 54.1013 171.196 54.4 170.407 54.528C169.724 54.656 169.02 54.624 168.295 54.432C167.569 54.24 166.919 53.8667 166.343 53.312C165.852 52.8213 165.479 52.2453 165.223 51.584C164.967 50.9227 164.807 50.24 164.743 49.536C164.679 48.8747 164.732 48.2453 164.903 47.648C165.095 47.0507 165.383 46.528 165.767 46.08C166.151 45.6107 166.631 45.2267 167.207 44.928C167.783 44.6293 168.455 44.4587 169.223 44.416C170.14 44.352 170.972 44.5227 171.719 44.928C172.465 45.3333 172.988 45.8987 173.287 46.624C173.457 47.0293 173.5 47.3813 173.415 47.68C173.351 47.9787 173.137 48.2453 172.775 48.48ZM169.095 46.304C168.881 46.3467 168.647 46.4213 168.391 46.528C168.156 46.6347 167.932 46.7733 167.719 46.944C167.527 47.0933 167.345 47.2747 167.175 47.488C167.025 47.68 166.94 47.904 166.919 48.16C167.281 48.16 167.676 48.128 168.103 48.064C168.551 48 168.977 47.9253 169.383 47.84C169.809 47.7333 170.193 47.616 170.535 47.488C170.897 47.36 171.196 47.2213 171.431 47.072C171.26 46.6667 170.94 46.4213 170.471 46.336C170.023 46.2293 169.564 46.2187 169.095 46.304ZM185.818 44.96C185.434 45.1733 185.028 45.3973 184.602 45.632C184.196 45.8667 183.78 46.144 183.354 46.464C182.948 46.7627 182.554 47.1253 182.17 47.552C181.807 47.9573 181.476 48.448 181.178 49.024C180.751 49.8347 180.463 50.6667 180.314 51.52C180.164 52.352 180.068 53.1733 180.026 53.984C180.026 54.368 179.93 54.7627 179.738 55.168C179.567 55.552 179.322 55.744 179.002 55.744C178.596 55.744 178.266 55.5413 178.01 55.136C177.775 54.7093 177.615 54.304 177.53 53.92C177.167 52.4053 176.868 50.912 176.634 49.44C176.399 47.9467 176.196 46.464 176.026 44.992C176.026 44.6933 176.111 44.5013 176.282 44.416C176.474 44.3307 176.687 44.2987 176.922 44.32C177.178 44.3413 177.423 44.4053 177.658 44.512C177.892 44.6187 178.031 44.7893 178.074 45.024C178.159 45.8133 178.266 46.6453 178.394 47.52C178.522 48.3733 178.65 49.1093 178.778 49.728C178.863 49.0027 179.098 48.2987 179.482 47.616C179.866 46.9333 180.335 46.3147 180.89 45.76C181.466 45.2053 182.106 44.736 182.81 44.352C183.535 43.968 184.271 43.712 185.018 43.584C185.338 43.5413 185.604 43.5413 185.818 43.584C186.031 43.6267 186.18 43.7013 186.266 43.808C186.351 43.9147 186.362 44.0853 186.298 44.32C186.255 44.5547 186.095 44.768 185.818 44.96ZM208.11 55.264C207.94 55.4987 207.748 55.6587 207.534 55.744C207.321 55.808 207.129 55.84 206.958 55.84C206.66 55.8187 206.382 55.7227 206.126 55.552C205.87 55.36 205.71 55.168 205.646 54.976C205.518 54.6133 205.38 54.208 205.23 53.76C205.081 53.312 204.932 52.864 204.782 52.416C204.654 51.9467 204.516 51.4987 204.366 51.072C204.217 50.624 204.078 50.2187 203.95 49.856C203.524 50.6027 203.118 51.36 202.734 52.128C202.35 52.8747 201.924 53.6533 201.454 54.464C201.241 54.784 200.996 55.008 200.718 55.136C200.441 55.2427 200.206 55.2853 200.014 55.264C199.737 55.2427 199.481 55.136 199.246 54.944C199.033 54.752 198.862 54.5707 198.734 54.4C198.5 54.016 198.265 53.5253 198.03 52.928C197.796 52.3093 197.572 51.6693 197.358 51.008C197.166 50.3253 196.985 49.6533 196.814 48.992C196.644 48.3093 196.505 47.7013 196.398 47.168C196.334 46.8053 196.334 46.464 196.398 46.144C196.484 45.824 196.676 45.6427 196.974 45.6C197.337 45.5787 197.668 45.7067 197.966 45.984C198.265 46.24 198.436 46.496 198.478 46.752C198.564 47.1787 198.66 47.648 198.766 48.16C198.894 48.6507 199.022 49.152 199.15 49.664C199.3 50.176 199.438 50.6773 199.566 51.168C199.716 51.6587 199.865 52.096 200.014 52.48C200.334 51.968 200.686 51.3813 201.07 50.72C201.476 50.0373 201.86 49.3867 202.222 48.768C202.585 48.128 202.916 47.5733 203.214 47.104C203.513 46.6347 203.748 46.3467 203.918 46.24C204.046 46.1547 204.228 46.1653 204.462 46.272C204.697 46.3573 204.868 46.4853 204.974 46.656C205.444 47.5947 205.828 48.6293 206.126 49.76C206.446 50.8693 206.756 51.904 207.054 52.864C207.353 52.48 207.673 51.9787 208.014 51.36C208.356 50.72 208.686 50.048 209.006 49.344C209.326 48.64 209.625 47.936 209.902 47.232C210.18 46.528 210.404 45.8987 210.574 45.344C210.745 44.768 210.98 44.4907 211.278 44.512C211.662 44.5547 211.993 44.6827 212.27 44.896C212.548 45.1093 212.654 45.3333 212.59 45.568C212.121 47.4453 211.513 49.1733 210.766 50.752C210.02 52.3093 209.134 53.8133 208.11 55.264ZM222.65 48.48C221.818 48.9707 220.922 49.3547 219.962 49.632C219.002 49.888 217.967 50.016 216.858 50.016C216.9 50.7627 217.114 51.36 217.498 51.808C217.882 52.2347 218.362 52.4907 218.938 52.576C219.279 52.6187 219.62 52.608 219.962 52.544C220.324 52.48 220.655 52.384 220.954 52.256C221.274 52.1067 221.562 51.9467 221.818 51.776C222.074 51.6053 222.298 51.4347 222.49 51.264C222.682 51.0933 222.884 50.9867 223.098 50.944C223.311 50.88 223.471 50.8693 223.578 50.912C223.876 51.0187 223.983 51.3387 223.898 51.872C223.556 52.5547 223.066 53.1413 222.426 53.632C221.786 54.1013 221.071 54.4 220.282 54.528C219.599 54.656 218.895 54.624 218.17 54.432C217.444 54.24 216.794 53.8667 216.218 53.312C215.727 52.8213 215.354 52.2453 215.098 51.584C214.842 50.9227 214.682 50.24 214.618 49.536C214.554 48.8747 214.607 48.2453 214.778 47.648C214.97 47.0507 215.258 46.528 215.642 46.08C216.026 45.6107 216.506 45.2267 217.082 44.928C217.658 44.6293 218.33 44.4587 219.098 44.416C220.015 44.352 220.847 44.5227 221.594 44.928C222.34 45.3333 222.863 45.8987 223.162 46.624C223.332 47.0293 223.375 47.3813 223.29 47.68C223.226 47.9787 223.012 48.2453 222.65 48.48ZM218.97 46.304C218.756 46.3467 218.522 46.4213 218.266 46.528C218.031 46.6347 217.807 46.7733 217.594 46.944C217.402 47.0933 217.22 47.2747 217.05 47.488C216.9 47.68 216.815 47.904 216.794 48.16C217.156 48.16 217.551 48.128 217.978 48.064C218.426 48 218.852 47.9253 219.258 47.84C219.684 47.7333 220.068 47.616 220.41 47.488C220.772 47.36 221.071 47.2213 221.306 47.072C221.135 46.6667 220.815 46.4213 220.346 46.336C219.898 46.2293 219.439 46.2187 218.97 46.304ZM240.533 59.488C240.512 59.7227 240.405 59.936 240.213 60.128C240.021 60.3413 239.808 60.4373 239.573 60.416C239.211 60.3947 238.933 60.256 238.741 60C238.549 59.744 238.453 59.5307 238.453 59.36C238.453 58.5493 238.432 57.7067 238.389 56.832C238.347 55.936 238.293 55.0187 238.229 54.08C237.952 54.1227 237.696 54.1013 237.461 54.016C237.248 53.9093 237.099 53.7493 237.013 53.536C236.864 53.1733 236.885 52.8533 237.077 52.576C237.269 52.2987 237.579 52.032 238.005 51.776C237.899 50.9867 237.792 50.208 237.685 49.44C237.6 48.672 237.504 47.9253 237.397 47.2C237.376 47.072 237.387 46.9547 237.429 46.848C237.472 46.7413 237.525 46.6453 237.589 46.56C237.653 46.4533 237.771 46.3573 237.941 46.272C238.219 46.1653 238.528 46.2507 238.869 46.528C239.232 46.8053 239.477 47.1573 239.605 47.584C239.669 47.9893 239.733 48.4587 239.797 48.992C239.883 49.504 239.957 50.0693 240.021 50.688C240.469 50.4107 240.885 50.112 241.269 49.792C241.675 49.472 242.016 49.1307 242.293 48.768C242.592 48.4053 242.816 48.032 242.965 47.648C243.115 47.2427 243.157 46.8267 243.093 46.4C243.051 46.0373 242.891 45.7173 242.613 45.44C242.336 45.1413 241.899 44.9813 241.301 44.96C240.768 44.9387 240.235 44.9813 239.701 45.088C239.189 45.1947 238.677 45.3333 238.165 45.504C237.675 45.6747 237.184 45.8773 236.693 46.112C236.224 46.3467 235.765 46.5813 235.317 46.816C235.019 46.9867 234.72 47.0613 234.421 47.04C234.144 46.9973 233.963 46.8907 233.877 46.72C233.685 46.2933 233.696 45.9093 233.909 45.568C234.144 45.2267 234.496 44.9067 234.965 44.608C235.371 44.3733 235.851 44.1387 236.405 43.904C236.981 43.648 237.579 43.4347 238.197 43.264C238.837 43.072 239.477 42.944 240.117 42.88C240.779 42.7947 241.408 42.8053 242.005 42.912C242.603 42.9973 243.136 43.2 243.605 43.52C244.096 43.8187 244.491 44.2667 244.789 44.864C245.152 45.8453 245.248 46.752 245.077 47.584C244.928 48.3947 244.608 49.1413 244.117 49.824C243.648 50.4853 243.061 51.0933 242.357 51.648C241.675 52.1813 240.981 52.6613 240.277 53.088C240.384 54.24 240.459 55.3813 240.501 56.512C240.544 57.6427 240.555 58.6347 240.533 59.488ZM256.88 44.96C256.496 45.1733 256.091 45.3973 255.664 45.632C255.259 45.8667 254.843 46.144 254.416 46.464C254.011 46.7627 253.616 47.1253 253.232 47.552C252.869 47.9573 252.539 48.448 252.24 49.024C251.813 49.8347 251.525 50.6667 251.376 51.52C251.227 52.352 251.131 53.1733 251.088 53.984C251.088 54.368 250.992 54.7627 250.8 55.168C250.629 55.552 250.384 55.744 250.064 55.744C249.659 55.744 249.328 55.5413 249.072 55.136C248.837 54.7093 248.677 54.304 248.592 53.92C248.229 52.4053 247.931 50.912 247.696 49.44C247.461 47.9467 247.259 46.464 247.088 44.992C247.088 44.6933 247.173 44.5013 247.344 44.416C247.536 44.3307 247.749 44.2987 247.984 44.32C248.24 44.3413 248.485 44.4053 248.72 44.512C248.955 44.6187 249.093 44.7893 249.136 45.024C249.221 45.8133 249.328 46.6453 249.456 47.52C249.584 48.3733 249.712 49.1093 249.84 49.728C249.925 49.0027 250.16 48.2987 250.544 47.616C250.928 46.9333 251.397 46.3147 251.952 45.76C252.528 45.2053 253.168 44.736 253.872 44.352C254.597 43.968 255.333 43.712 256.08 43.584C256.4 43.5413 256.667 43.5413 256.88 43.584C257.093 43.6267 257.243 43.7013 257.328 43.808C257.413 43.9147 257.424 44.0853 257.36 44.32C257.317 44.5547 257.157 44.768 256.88 44.96ZM266.172 44.832C266.812 45.0667 267.345 45.4187 267.772 45.888C268.22 46.3573 268.561 46.8907 268.796 47.488C269.031 48.064 269.159 48.6613 269.18 49.28C269.223 49.8987 269.159 50.4747 268.988 51.008C268.753 51.6053 268.455 52.192 268.092 52.768C267.729 53.344 267.313 53.856 266.844 54.304C266.375 54.752 265.841 55.1147 265.244 55.392C264.647 55.6693 263.985 55.808 263.26 55.808C262.385 55.808 261.649 55.6053 261.052 55.2C260.455 54.7947 259.985 54.272 259.644 53.632C259.303 52.992 259.079 52.2667 258.972 51.456C258.887 50.6453 258.908 49.8347 259.036 49.024C259.121 48.4267 259.26 47.8507 259.452 47.296C259.665 46.72 259.932 46.2187 260.252 45.792C260.572 45.344 260.935 44.9813 261.34 44.704C261.767 44.4267 262.247 44.288 262.78 44.288C263.079 44.288 263.452 44.352 263.9 44.48C264.348 44.5867 264.764 44.7467 265.148 44.96C265.425 44.704 265.767 44.6613 266.172 44.832ZM264.956 47.168C264.721 47.0187 264.444 46.8267 264.124 46.592C263.825 46.336 263.559 46.208 263.324 46.208C263.068 46.208 262.812 46.3253 262.556 46.56C262.321 46.7947 262.108 47.072 261.916 47.392C261.745 47.6907 261.596 48 261.468 48.32C261.34 48.64 261.255 48.896 261.212 49.088C261.148 49.408 261.105 49.792 261.084 50.24C261.063 50.688 261.095 51.136 261.18 51.584C261.265 52.0107 261.425 52.4053 261.66 52.768C261.916 53.1093 262.289 53.3547 262.78 53.504C263.079 53.5893 263.431 53.5893 263.836 53.504C264.241 53.3973 264.636 53.216 265.02 52.96C265.425 52.704 265.799 52.3627 266.14 51.936C266.503 51.5093 266.78 51.0187 266.972 50.464C267.185 49.8453 267.185 49.2053 266.972 48.544C266.78 47.8613 266.375 47.3707 265.756 47.072C265.607 47.1787 265.457 47.232 265.308 47.232C265.159 47.232 265.041 47.2107 264.956 47.168ZM279.014 47.424C279.419 47.4027 279.824 47.4987 280.23 47.712C280.635 47.9253 280.838 48.256 280.838 48.704C280.795 49.0667 280.592 49.3013 280.23 49.408C279.888 49.4933 279.611 49.536 279.398 49.536C278.971 49.536 278.512 49.5467 278.022 49.568C277.531 49.5893 277.03 49.6213 276.518 49.664C276.475 50.368 276.432 51.0293 276.39 51.648C276.368 52.2667 276.347 52.8213 276.326 53.312C276.304 53.7813 276.294 54.1653 276.294 54.464C276.294 54.7627 276.304 54.9227 276.326 54.944C276.795 54.8587 277.296 54.72 277.83 54.528C278.384 54.3147 278.928 54.0907 279.462 53.856C280.016 53.6 280.55 53.344 281.062 53.088C281.595 52.8107 282.096 52.5547 282.566 52.32C282.779 52.2133 282.971 52.1813 283.142 52.224C283.334 52.2667 283.451 52.3627 283.494 52.512C283.536 52.7467 283.504 53.0347 283.398 53.376C283.291 53.7173 283.099 54.0267 282.822 54.304C282.502 54.56 282.075 54.8587 281.542 55.2C281.03 55.52 280.475 55.8293 279.878 56.128C279.28 56.4267 278.672 56.6933 278.054 56.928C277.456 57.1413 276.923 57.2693 276.454 57.312C275.75 57.376 275.216 57.184 274.854 56.736C274.491 56.288 274.288 55.7227 274.246 55.04C274.203 54.3573 274.192 53.568 274.214 52.672C274.256 51.776 274.299 50.8267 274.342 49.824C273.936 49.8667 273.542 49.9093 273.158 49.952C272.795 49.9733 272.443 50.0053 272.102 50.048C271.824 50.048 271.515 49.984 271.174 49.856C270.854 49.728 270.694 49.4827 270.694 49.12C270.694 48.992 270.747 48.8213 270.854 48.608C270.96 48.3947 271.195 48.2347 271.558 48.128C272.432 47.9787 273.403 47.8507 274.47 47.744C274.534 46.7413 274.608 45.7707 274.694 44.832C274.779 43.8933 274.854 43.04 274.918 42.272C274.939 42.016 275.014 41.792 275.141 41.6C275.27 41.408 275.408 41.312 275.558 41.312C275.92 41.2907 276.262 41.3867 276.582 41.6C276.923 41.792 277.094 42.016 277.094 42.272C277.008 42.9973 276.923 43.8187 276.838 44.736C276.774 45.6533 276.71 46.592 276.646 47.552C277.072 47.5093 277.478 47.488 277.862 47.488C278.267 47.4667 278.651 47.4453 279.014 47.424ZM292.556 48.48C291.724 48.9707 290.828 49.3547 289.868 49.632C288.908 49.888 287.873 50.016 286.764 50.016C286.807 50.7627 287.02 51.36 287.404 51.808C287.788 52.2347 288.268 52.4907 288.844 52.576C289.185 52.6187 289.527 52.608 289.868 52.544C290.231 52.48 290.561 52.384 290.86 52.256C291.18 52.1067 291.468 51.9467 291.724 51.776C291.98 51.6053 292.204 51.4347 292.396 51.264C292.588 51.0933 292.791 50.9867 293.004 50.944C293.217 50.88 293.377 50.8693 293.484 50.912C293.783 51.0187 293.889 51.3387 293.804 51.872C293.463 52.5547 292.972 53.1413 292.332 53.632C291.692 54.1013 290.977 54.4 290.188 54.528C289.505 54.656 288.801 54.624 288.076 54.432C287.351 54.24 286.7 53.8667 286.124 53.312C285.633 52.8213 285.26 52.2453 285.004 51.584C284.748 50.9227 284.588 50.24 284.524 49.536C284.46 48.8747 284.513 48.2453 284.684 47.648C284.876 47.0507 285.164 46.528 285.548 46.08C285.932 45.6107 286.412 45.2267 286.988 44.928C287.564 44.6293 288.236 44.4587 289.004 44.416C289.921 44.352 290.753 44.5227 291.5 44.928C292.247 45.3333 292.769 45.8987 293.068 46.624C293.239 47.0293 293.281 47.3813 293.196 47.68C293.132 47.9787 292.919 48.2453 292.556 48.48ZM288.876 46.304C288.663 46.3467 288.428 46.4213 288.172 46.528C287.937 46.6347 287.713 46.7733 287.5 46.944C287.308 47.0933 287.127 47.2747 286.956 47.488C286.807 47.68 286.721 47.904 286.7 48.16C287.063 48.16 287.457 48.128 287.884 48.064C288.332 48 288.759 47.9253 289.164 47.84C289.591 47.7333 289.975 47.616 290.316 47.488C290.679 47.36 290.977 47.2213 291.212 47.072C291.041 46.6667 290.721 46.4213 290.252 46.336C289.804 46.2293 289.345 46.2187 288.876 46.304ZM303.391 47.776C303.241 47.8613 303.06 47.8933 302.847 47.872C302.633 47.8293 302.452 47.6907 302.303 47.456C301.961 47.008 301.545 46.784 301.055 46.784C300.607 46.784 300.201 46.8907 299.839 47.104C299.497 47.296 299.188 47.5627 298.911 47.904C298.655 48.224 298.441 48.5867 298.271 48.992C298.1 49.3973 297.983 49.8027 297.919 50.208C297.812 50.9547 297.94 51.584 298.303 52.096C298.665 52.608 299.231 52.864 299.999 52.864C300.617 52.8853 301.311 52.768 302.079 52.512C302.868 52.2347 303.604 51.8827 304.287 51.456C304.585 51.328 304.863 51.2533 305.119 51.232C305.375 51.2107 305.588 51.3387 305.759 51.616C305.972 51.9573 305.919 52.3093 305.599 52.672C305.279 53.0133 304.852 53.3227 304.319 53.6C303.785 53.8987 303.22 54.1653 302.623 54.4C302.047 54.6133 301.46 54.7733 300.863 54.88C300.265 54.9653 299.668 54.9653 299.071 54.88C298.495 54.7947 297.951 54.592 297.439 54.272C296.628 53.7173 296.137 52.928 295.967 51.904C295.796 50.88 295.871 49.824 296.191 48.736C296.319 48.3307 296.5 47.9253 296.735 47.52C296.969 47.0933 297.247 46.7093 297.567 46.368C297.908 46.0267 298.281 45.7387 298.687 45.504C299.092 45.248 299.54 45.0773 300.031 44.992C300.82 44.864 301.577 44.9493 302.303 45.248C303.028 45.5253 303.508 46.048 303.743 46.816C303.785 46.9867 303.785 47.168 303.743 47.36C303.7 47.5307 303.583 47.6693 303.391 47.776ZM314.889 47.424C315.294 47.4027 315.699 47.4987 316.105 47.712C316.51 47.9253 316.713 48.256 316.713 48.704C316.67 49.0667 316.467 49.3013 316.105 49.408C315.763 49.4933 315.486 49.536 315.273 49.536C314.846 49.536 314.387 49.5467 313.897 49.568C313.406 49.5893 312.905 49.6213 312.393 49.664C312.35 50.368 312.307 51.0293 312.265 51.648C312.243 52.2667 312.222 52.8213 312.201 53.312C312.179 53.7813 312.169 54.1653 312.169 54.464C312.169 54.7627 312.179 54.9227 312.201 54.944C312.67 54.8587 313.171 54.72 313.705 54.528C314.259 54.3147 314.803 54.0907 315.337 53.856C315.891 53.6 316.425 53.344 316.937 53.088C317.47 52.8107 317.971 52.5547 318.441 52.32C318.654 52.2133 318.846 52.1813 319.017 52.224C319.209 52.2667 319.326 52.3627 319.369 52.512C319.411 52.7467 319.379 53.0347 319.273 53.376C319.166 53.7173 318.974 54.0267 318.697 54.304C318.377 54.56 317.95 54.8587 317.417 55.2C316.905 55.52 316.35 55.8293 315.753 56.128C315.155 56.4267 314.547 56.6933 313.929 56.928C313.331 57.1413 312.798 57.2693 312.329 57.312C311.625 57.376 311.091 57.184 310.729 56.736C310.366 56.288 310.163 55.7227 310.121 55.04C310.078 54.3573 310.067 53.568 310.089 52.672C310.131 51.776 310.174 50.8267 310.217 49.824C309.811 49.8667 309.417 49.9093 309.033 49.952C308.67 49.9733 308.318 50.0053 307.977 50.048C307.699 50.048 307.39 49.984 307.049 49.856C306.729 49.728 306.569 49.4827 306.569 49.12C306.569 48.992 306.622 48.8213 306.729 48.608C306.835 48.3947 307.07 48.2347 307.433 48.128C308.307 47.9787 309.278 47.8507 310.345 47.744C310.409 46.7413 310.483 45.7707 310.569 44.832C310.654 43.8933 310.729 43.04 310.793 42.272C310.814 42.016 310.889 41.792 311.016 41.6C311.145 41.408 311.283 41.312 311.433 41.312C311.795 41.2907 312.137 41.3867 312.457 41.6C312.798 41.792 312.969 42.016 312.969 42.272C312.883 42.9973 312.798 43.8187 312.713 44.736C312.649 45.6533 312.585 46.592 312.521 47.552C312.947 47.5093 313.353 47.488 313.737 47.488C314.142 47.4667 314.526 47.4453 314.889 47.424ZM127.438 70.832C128.078 71.0667 128.611 71.4187 129.038 71.888C129.486 72.3573 129.827 72.8907 130.062 73.488C130.296 74.064 130.424 74.6613 130.446 75.28C130.488 75.8987 130.424 76.4747 130.254 77.008C130.019 77.6053 129.72 78.192 129.358 78.768C128.995 79.344 128.579 79.856 128.11 80.304C127.64 80.752 127.107 81.1147 126.51 81.392C125.912 81.6693 125.251 81.808 124.526 81.808C123.651 81.808 122.915 81.6053 122.318 81.2C121.72 80.7947 121.251 80.272 120.91 79.632C120.568 78.992 120.344 78.2667 120.238 77.456C120.152 76.6453 120.174 75.8347 120.302 75.024C120.387 74.4267 120.526 73.8507 120.718 73.296C120.931 72.72 121.198 72.2187 121.518 71.792C121.838 71.344 122.2 70.9813 122.606 70.704C123.032 70.4267 123.512 70.288 124.046 70.288C124.344 70.288 124.718 70.352 125.166 70.48C125.614 70.5867 126.03 70.7467 126.414 70.96C126.691 70.704 127.032 70.6613 127.438 70.832ZM126.222 73.168C125.987 73.0187 125.71 72.8267 125.39 72.592C125.091 72.336 124.824 72.208 124.59 72.208C124.334 72.208 124.078 72.3253 123.822 72.56C123.587 72.7947 123.374 73.072 123.182 73.392C123.011 73.6907 122.862 74 122.734 74.32C122.606 74.64 122.52 74.896 122.478 75.088C122.414 75.408 122.371 75.792 122.35 76.24C122.328 76.688 122.36 77.136 122.446 77.584C122.531 78.0107 122.691 78.4053 122.926 78.768C123.182 79.1093 123.555 79.3547 124.046 79.504C124.344 79.5893 124.696 79.5893 125.102 79.504C125.507 79.3973 125.902 79.216 126.286 78.96C126.691 78.704 127.064 78.3627 127.406 77.936C127.768 77.5093 128.046 77.0187 128.238 76.464C128.451 75.8453 128.451 75.2053 128.238 74.544C128.046 73.8613 127.64 73.3707 127.022 73.072C126.872 73.1787 126.723 73.232 126.574 73.232C126.424 73.232 126.307 73.2107 126.222 73.168ZM135.767 72.528C135.639 73.104 135.511 73.744 135.383 74.448C135.255 75.1307 135.159 75.792 135.095 76.432C135.052 77.072 135.052 77.648 135.095 78.16C135.159 78.672 135.298 79.0347 135.511 79.248C135.874 79.312 136.29 79.1627 136.759 78.8C137.228 78.416 137.687 77.936 138.135 77.36C138.583 76.784 138.988 76.1653 139.351 75.504C139.714 74.8213 139.97 74.224 140.119 73.712C140.204 73.456 140.279 73.1893 140.343 72.912C140.407 72.6347 140.439 72.3467 140.439 72.048C140.439 71.8773 140.546 71.7173 140.759 71.568C140.994 71.3973 141.186 71.3013 141.335 71.28C141.442 71.2587 141.559 71.28 141.687 71.344C141.836 71.408 141.964 71.504 142.071 71.632C142.199 71.7387 142.306 71.8773 142.391 72.048C142.498 72.1973 142.551 72.3573 142.551 72.528C142.594 73.168 142.658 73.872 142.743 74.64C142.828 75.408 142.924 76.176 143.031 76.944C143.159 77.712 143.287 78.4587 143.415 79.184C143.543 79.9093 143.671 80.56 143.799 81.136C143.863 81.3707 143.799 81.6373 143.607 81.936C143.415 82.2347 143.202 82.416 142.967 82.48C142.775 82.5227 142.572 82.5013 142.359 82.416C142.167 82.3307 142.018 82.16 141.911 81.904C141.804 81.6053 141.698 81.2427 141.591 80.816C141.506 80.368 141.42 79.9093 141.335 79.44C141.271 78.9493 141.207 78.4907 141.143 78.064C141.079 77.616 141.036 77.2427 141.015 76.944C140.695 77.52 140.311 78.1067 139.863 78.704C139.436 79.28 138.967 79.8133 138.455 80.304C137.964 80.7733 137.442 81.1467 136.887 81.424C136.354 81.68 135.799 81.776 135.223 81.712C134.37 81.6053 133.719 80.8053 133.271 79.312C133.1 78.7147 133.015 78.0533 133.015 77.328C133.036 76.6027 133.09 75.888 133.175 75.184C133.282 74.4587 133.399 73.776 133.527 73.136C133.676 72.496 133.804 71.9733 133.911 71.568C133.954 71.3973 134.039 71.248 134.167 71.12C134.295 70.9707 134.444 70.9173 134.615 70.96C134.935 71.024 135.223 71.216 135.479 71.536C135.756 71.856 135.852 72.1867 135.767 72.528ZM155.708 70.96C155.324 71.1733 154.919 71.3973 154.492 71.632C154.087 71.8667 153.671 72.144 153.244 72.464C152.839 72.7627 152.444 73.1253 152.06 73.552C151.697 73.9573 151.367 74.448 151.068 75.024C150.641 75.8347 150.353 76.6667 150.204 77.52C150.055 78.352 149.959 79.1733 149.916 79.984C149.916 80.368 149.82 80.7627 149.628 81.168C149.457 81.552 149.212 81.744 148.892 81.744C148.487 81.744 148.156 81.5413 147.9 81.136C147.665 80.7093 147.505 80.304 147.42 79.92C147.057 78.4053 146.759 76.912 146.524 75.44C146.289 73.9467 146.087 72.464 145.916 70.992C145.916 70.6933 146.001 70.5013 146.172 70.416C146.364 70.3307 146.577 70.2987 146.812 70.32C147.068 70.3413 147.313 70.4053 147.548 70.512C147.783 70.6187 147.921 70.7893 147.964 71.024C148.049 71.8133 148.156 72.6453 148.284 73.52C148.412 74.3733 148.54 75.1093 148.668 75.728C148.753 75.0027 148.988 74.2987 149.372 73.616C149.756 72.9333 150.225 72.3147 150.78 71.76C151.356 71.2053 151.996 70.736 152.7 70.352C153.425 69.968 154.161 69.712 154.908 69.584C155.228 69.5413 155.495 69.5413 155.708 69.584C155.921 69.6267 156.071 69.7013 156.156 69.808C156.241 69.9147 156.252 70.0853 156.188 70.32C156.145 70.5547 155.985 70.768 155.708 70.96ZM173.969 70.832C174.609 71.0667 175.142 71.4187 175.569 71.888C176.017 72.3573 176.358 72.8907 176.593 73.488C176.828 74.064 176.956 74.6613 176.977 75.28C177.02 75.8987 176.956 76.4747 176.785 77.008C176.55 77.6053 176.252 78.192 175.889 78.768C175.526 79.344 175.11 79.856 174.641 80.304C174.172 80.752 173.638 81.1147 173.041 81.392C172.444 81.6693 171.782 81.808 171.057 81.808C170.182 81.808 169.446 81.6053 168.849 81.2C168.252 80.7947 167.782 80.272 167.441 79.632C167.1 78.992 166.876 78.2667 166.769 77.456C166.684 76.6453 166.705 75.8347 166.833 75.024C166.918 74.4267 167.057 73.8507 167.249 73.296C167.462 72.72 167.729 72.2187 168.049 71.792C168.369 71.344 168.732 70.9813 169.137 70.704C169.564 70.4267 170.044 70.288 170.577 70.288C170.876 70.288 171.249 70.352 171.697 70.48C172.145 70.5867 172.561 70.7467 172.945 70.96C173.222 70.704 173.564 70.6613 173.969 70.832ZM172.753 73.168C172.518 73.0187 172.241 72.8267 171.921 72.592C171.622 72.336 171.356 72.208 171.121 72.208C170.865 72.208 170.609 72.3253 170.353 72.56C170.118 72.7947 169.905 73.072 169.713 73.392C169.542 73.6907 169.393 74 169.265 74.32C169.137 74.64 169.052 74.896 169.009 75.088C168.945 75.408 168.902 75.792 168.881 76.24C168.86 76.688 168.892 77.136 168.977 77.584C169.062 78.0107 169.222 78.4053 169.457 78.768C169.713 79.1093 170.086 79.3547 170.577 79.504C170.876 79.5893 171.228 79.5893 171.633 79.504C172.038 79.3973 172.433 79.216 172.817 78.96C173.222 78.704 173.596 78.3627 173.937 77.936C174.3 77.5093 174.577 77.0187 174.769 76.464C174.982 75.8453 174.982 75.2053 174.769 74.544C174.577 73.8613 174.172 73.3707 173.553 73.072C173.404 73.1787 173.254 73.232 173.105 73.232C172.956 73.232 172.838 73.2107 172.753 73.168ZM190.938 81.264C190.768 81.4987 190.576 81.6587 190.362 81.744C190.149 81.808 189.957 81.84 189.786 81.84C189.488 81.8187 189.21 81.7227 188.954 81.552C188.698 81.36 188.538 81.168 188.474 80.976C188.346 80.6133 188.208 80.208 188.058 79.76C187.909 79.312 187.76 78.864 187.61 78.416C187.482 77.9467 187.344 77.4987 187.194 77.072C187.045 76.624 186.906 76.2187 186.778 75.856C186.352 76.6027 185.946 77.36 185.562 78.128C185.178 78.8747 184.752 79.6533 184.282 80.464C184.069 80.784 183.824 81.008 183.546 81.136C183.269 81.2427 183.034 81.2853 182.842 81.264C182.565 81.2427 182.309 81.136 182.074 80.944C181.861 80.752 181.69 80.5707 181.562 80.4C181.328 80.016 181.093 79.5253 180.858 78.928C180.624 78.3093 180.4 77.6693 180.186 77.008C179.994 76.3253 179.813 75.6533 179.642 74.992C179.472 74.3093 179.333 73.7013 179.226 73.168C179.162 72.8053 179.162 72.464 179.226 72.144C179.312 71.824 179.504 71.6427 179.802 71.6C180.165 71.5787 180.496 71.7067 180.794 71.984C181.093 72.24 181.264 72.496 181.306 72.752C181.392 73.1787 181.488 73.648 181.594 74.16C181.722 74.6507 181.85 75.152 181.978 75.664C182.128 76.176 182.266 76.6773 182.394 77.168C182.544 77.6587 182.693 78.096 182.842 78.48C183.162 77.968 183.514 77.3813 183.898 76.72C184.304 76.0373 184.688 75.3867 185.05 74.768C185.413 74.128 185.744 73.5733 186.042 73.104C186.341 72.6347 186.576 72.3467 186.746 72.24C186.874 72.1547 187.056 72.1653 187.29 72.272C187.525 72.3573 187.696 72.4853 187.802 72.656C188.272 73.5947 188.656 74.6293 188.954 75.76C189.274 76.8693 189.584 77.904 189.882 78.864C190.181 78.48 190.501 77.9787 190.842 77.36C191.184 76.72 191.514 76.048 191.834 75.344C192.154 74.64 192.453 73.936 192.73 73.232C193.008 72.528 193.232 71.8987 193.402 71.344C193.573 70.768 193.808 70.4907 194.106 70.512C194.49 70.5547 194.821 70.6827 195.098 70.896C195.376 71.1093 195.482 71.3333 195.418 71.568C194.949 73.4453 194.341 75.1733 193.594 76.752C192.848 78.3093 191.962 79.8133 190.938 81.264ZM199.782 71.44C199.846 71.76 199.91 72.1227 199.974 72.528C200.059 72.912 200.145 73.3173 200.23 73.744C200.315 74.1493 200.39 74.5653 200.454 74.992C200.518 75.4187 200.571 75.824 200.614 76.208C200.87 75.6533 201.147 75.0667 201.446 74.448C201.745 73.8293 202.065 73.264 202.406 72.752C202.769 72.2187 203.142 71.7813 203.526 71.44C203.931 71.0987 204.369 70.928 204.838 70.928C205.542 70.928 206.129 71.184 206.598 71.696C207.089 72.208 207.494 72.848 207.814 73.616C208.155 74.3627 208.422 75.152 208.614 75.984C208.806 76.816 208.966 77.552 209.094 78.192C209.222 78.768 208.966 79.1947 208.326 79.472C208.027 79.6213 207.803 79.6427 207.654 79.536C207.505 79.4293 207.419 79.3227 207.398 79.216C207.291 78.96 207.153 78.512 206.982 77.872C206.833 77.232 206.651 76.5813 206.438 75.92C206.246 75.2587 206.022 74.6827 205.766 74.192C205.51 73.7013 205.222 73.4773 204.902 73.52C204.518 73.5413 204.177 73.8293 203.878 74.384C203.622 74.832 203.355 75.3333 203.078 75.888C202.822 76.4213 202.566 76.976 202.31 77.552C202.054 78.1067 201.798 78.672 201.542 79.248C201.307 79.8027 201.083 80.3147 200.87 80.784C200.721 80.9333 200.529 81.04 200.294 81.104C200.081 81.1467 199.857 81.1253 199.622 81.04C199.409 80.976 199.238 80.8693 199.11 80.72C198.982 80.5707 198.918 80.4213 198.918 80.272C198.726 78.608 198.523 77.0933 198.31 75.728C198.118 74.3627 197.862 72.9653 197.542 71.536C197.393 71.0453 197.361 70.6613 197.446 70.384C197.553 70.0853 197.873 69.968 198.406 70.032C199.153 70.16 199.611 70.6293 199.782 71.44ZM229.833 70.96C229.449 71.1733 229.044 71.3973 228.617 71.632C228.212 71.8667 227.796 72.144 227.369 72.464C226.964 72.7627 226.569 73.1253 226.185 73.552C225.822 73.9573 225.492 74.448 225.193 75.024C224.766 75.8347 224.478 76.6667 224.329 77.52C224.18 78.352 224.084 79.1733 224.041 79.984C224.041 80.368 223.945 80.7627 223.753 81.168C223.582 81.552 223.337 81.744 223.017 81.744C222.612 81.744 222.281 81.5413 222.025 81.136C221.79 80.7093 221.63 80.304 221.545 79.92C221.182 78.4053 220.884 76.912 220.649 75.44C220.414 73.9467 220.212 72.464 220.041 70.992C220.041 70.6933 220.126 70.5013 220.297 70.416C220.489 70.3307 220.702 70.2987 220.937 70.32C221.193 70.3413 221.438 70.4053 221.673 70.512C221.908 70.6187 222.046 70.7893 222.089 71.024C222.174 71.8133 222.281 72.6453 222.409 73.52C222.537 74.3733 222.665 75.1093 222.793 75.728C222.878 75.0027 223.113 74.2987 223.497 73.616C223.881 72.9333 224.35 72.3147 224.905 71.76C225.481 71.2053 226.121 70.736 226.825 70.352C227.55 69.968 228.286 69.712 229.033 69.584C229.353 69.5413 229.62 69.5413 229.833 69.584C230.046 69.6267 230.196 69.7013 230.281 69.808C230.366 69.9147 230.377 70.0853 230.313 70.32C230.27 70.5547 230.11 70.768 229.833 70.96ZM239.509 74.48C238.677 74.9707 237.781 75.3547 236.821 75.632C235.861 75.888 234.826 76.016 233.717 76.016C233.76 76.7627 233.973 77.36 234.357 77.808C234.741 78.2347 235.221 78.4907 235.797 78.576C236.138 78.6187 236.48 78.608 236.821 78.544C237.184 78.48 237.514 78.384 237.813 78.256C238.133 78.1067 238.421 77.9467 238.677 77.776C238.933 77.6053 239.157 77.4347 239.349 77.264C239.541 77.0933 239.744 76.9867 239.957 76.944C240.17 76.88 240.33 76.8693 240.437 76.912C240.736 77.0187 240.842 77.3387 240.757 77.872C240.416 78.5547 239.925 79.1413 239.285 79.632C238.645 80.1013 237.93 80.4 237.141 80.528C236.458 80.656 235.754 80.624 235.029 80.432C234.304 80.24 233.653 79.8667 233.077 79.312C232.586 78.8213 232.213 78.2453 231.957 77.584C231.701 76.9227 231.541 76.24 231.477 75.536C231.413 74.8747 231.466 74.2453 231.637 73.648C231.829 73.0507 232.117 72.528 232.501 72.08C232.885 71.6107 233.365 71.2267 233.941 70.928C234.517 70.6293 235.189 70.4587 235.957 70.416C236.874 70.352 237.706 70.5227 238.453 70.928C239.2 71.3333 239.722 71.8987 240.021 72.624C240.192 73.0293 240.234 73.3813 240.149 73.68C240.085 73.9787 239.872 74.2453 239.509 74.48ZM235.829 72.304C235.616 72.3467 235.381 72.4213 235.125 72.528C234.89 72.6347 234.666 72.7733 234.453 72.944C234.261 73.0933 234.08 73.2747 233.909 73.488C233.76 73.68 233.674 73.904 233.653 74.16C234.016 74.16 234.41 74.128 234.837 74.064C235.285 74 235.712 73.9253 236.117 73.84C236.544 73.7333 236.928 73.616 237.269 73.488C237.632 73.36 237.93 73.2213 238.165 73.072C237.994 72.6667 237.674 72.4213 237.205 72.336C236.757 72.2293 236.298 72.2187 235.829 72.304ZM250.984 70.16C251.069 70.7573 251.133 71.3973 251.176 72.08C251.24 72.7413 251.283 73.4133 251.304 74.096C251.347 74.7787 251.368 75.44 251.368 76.08C251.368 76.72 251.357 77.296 251.336 77.808C252.019 78.2773 252.424 78.6933 252.552 79.056C252.701 79.4187 252.723 79.7387 252.616 80.016C252.488 80.4 252.253 80.6027 251.912 80.624C251.592 80.624 251.219 80.5067 250.792 80.272C250.493 80.4853 250.152 80.72 249.768 80.976C249.384 81.2107 248.979 81.4453 248.552 81.68C248.125 81.8933 247.699 82.0853 247.272 82.256C246.845 82.4267 246.451 82.544 246.088 82.608C245.405 82.7147 244.787 82.5867 244.232 82.224C243.699 81.8613 243.336 81.3173 243.144 80.592C243.016 80.1013 242.984 79.6 243.048 79.088C243.112 78.5547 243.272 78.0533 243.528 77.584C243.784 77.0933 244.125 76.656 244.552 76.272C245 75.888 245.523 75.5893 246.12 75.376C246.269 75.312 246.472 75.2587 246.728 75.216C247.005 75.1733 247.283 75.1627 247.56 75.184C247.859 75.184 248.157 75.2373 248.456 75.344C248.755 75.4507 249.032 75.632 249.288 75.888C249.288 75.5253 249.277 75.1307 249.256 74.704C249.256 74.256 249.245 73.808 249.224 73.36C249.203 72.912 249.171 72.496 249.128 72.112C249.107 71.7067 249.075 71.3653 249.032 71.088C248.989 70.768 248.861 70.576 248.648 70.512C248.456 70.4267 248.211 70.4373 247.912 70.544C247.4 70.7147 246.803 71.0453 246.12 71.536C245.437 72.0267 244.787 72.5493 244.168 73.104C243.976 73.296 243.752 73.3813 243.496 73.36C243.261 73.3387 243.059 73.2427 242.888 73.072C242.717 72.9013 242.621 72.7093 242.6 72.496C242.579 72.2613 242.664 72.016 242.856 71.76C243.219 71.376 243.624 70.9813 244.072 70.576C244.52 70.1707 244.989 69.808 245.48 69.488C245.971 69.1467 246.472 68.8693 246.984 68.656C247.496 68.4427 248.008 68.3253 248.52 68.304C249.267 68.2827 249.843 68.4533 250.248 68.816C250.653 69.1573 250.899 69.6053 250.984 70.16ZM247.272 77.04C246.995 77.104 246.696 77.2427 246.376 77.456C246.077 77.648 245.8 77.8933 245.544 78.192C245.309 78.4693 245.128 78.7893 245 79.152C244.893 79.4933 244.893 79.8347 245 80.176C245.043 80.304 245.128 80.4 245.256 80.464C245.405 80.528 245.565 80.5387 245.736 80.496C246.248 80.3893 246.824 80.1867 247.464 79.888C248.125 79.568 248.648 79.2267 249.032 78.864C249.032 78.736 248.968 78.576 248.84 78.384C248.712 78.1707 248.563 77.968 248.392 77.776C248.221 77.5627 248.029 77.3813 247.816 77.232C247.624 77.0827 247.443 77.0187 247.272 77.04ZM257.172 67.024C257.279 69.3493 257.46 71.76 257.716 74.256C257.972 76.7307 258.249 79.0987 258.548 81.36C258.612 82.2987 258.356 82.7787 257.78 82.8C257.652 82.8 257.524 82.7573 257.396 82.672C257.268 82.5653 257.151 82.4373 257.044 82.288C256.937 82.1387 256.831 81.9787 256.724 81.808C256.639 81.6373 256.585 81.488 256.564 81.36C256.393 80.272 256.233 79.12 256.084 77.904C255.935 76.688 255.796 75.472 255.668 74.256C255.561 73.0187 255.465 71.8133 255.38 70.64C255.295 69.4667 255.241 68.3893 255.22 67.408C255.263 66.896 255.337 66.4693 255.444 66.128C255.551 65.7653 255.775 65.5947 256.116 65.616C256.479 65.6373 256.735 65.7867 256.884 66.064C257.055 66.32 257.151 66.64 257.172 67.024ZM263.091 71.664C263.113 72.0053 263.145 72.432 263.187 72.944C263.251 73.4347 263.315 73.9573 263.379 74.512C263.443 75.0453 263.507 75.5787 263.571 76.112C263.657 76.6453 263.731 77.136 263.795 77.584C264.03 77.1147 264.318 76.5387 264.659 75.856C265.001 75.1733 265.353 74.5227 265.715 73.904C266.099 73.264 266.483 72.7307 266.867 72.304C267.273 71.856 267.635 71.632 267.955 71.632C268.297 71.632 268.606 71.8027 268.883 72.144C269.182 72.464 269.438 72.8587 269.651 73.328C269.865 73.7973 270.046 74.2987 270.195 74.832C270.366 75.3653 270.505 75.8347 270.611 76.24C270.697 75.9627 270.803 75.6533 270.931 75.312C271.081 74.9493 271.23 74.5867 271.379 74.224C271.55 73.84 271.731 73.4667 271.923 73.104C272.137 72.7413 272.361 72.4213 272.595 72.144C272.873 71.8453 273.171 71.632 273.491 71.504C273.811 71.3547 274.046 71.28 274.195 71.28C274.387 71.28 274.611 71.344 274.867 71.472C275.145 71.5787 275.422 71.728 275.699 71.92C275.977 72.112 276.233 72.3467 276.467 72.624C276.723 72.88 276.926 73.1467 277.075 73.424C277.374 74 277.609 74.6293 277.779 75.312C277.971 75.9947 278.11 76.6453 278.195 77.264C278.281 77.8827 278.334 78.4373 278.355 78.928C278.398 79.3973 278.43 79.728 278.451 79.92C278.451 80.1973 278.419 80.4107 278.355 80.56C278.291 80.688 278.174 80.7947 278.003 80.88C277.769 80.9867 277.566 81.0293 277.395 81.008C277.225 80.9653 277.086 80.8907 276.979 80.784C276.873 80.6773 276.787 80.56 276.723 80.432C276.659 80.2827 276.617 80.1547 276.595 80.048C276.531 79.5573 276.457 79.056 276.371 78.544C276.307 78.032 276.233 77.5413 276.147 77.072C276.062 76.5813 275.955 76.1333 275.827 75.728C275.721 75.3013 275.603 74.928 275.475 74.608C275.433 74.5227 275.358 74.416 275.251 74.288C275.166 74.1387 275.059 74 274.931 73.872C274.825 73.744 274.718 73.6373 274.611 73.552C274.505 73.4667 274.43 73.4133 274.387 73.392C274.174 73.392 273.95 73.5947 273.715 74C273.481 74.384 273.257 74.8533 273.043 75.408C272.83 75.9627 272.627 76.5493 272.435 77.168C272.265 77.7653 272.137 78.2773 272.051 78.704C272.051 79.2587 271.945 79.6747 271.731 79.952C271.518 80.208 271.294 80.336 271.059 80.336C270.825 80.336 270.569 80.2507 270.291 80.08C270.035 79.888 269.865 79.6747 269.779 79.44C269.651 79.0987 269.513 78.7147 269.363 78.288C269.214 77.8613 269.054 77.424 268.883 76.976C268.734 76.528 268.574 76.0907 268.403 75.664C268.254 75.2373 268.105 74.8533 267.955 74.512C267.657 74.9173 267.358 75.3653 267.059 75.856C266.782 76.3467 266.505 76.848 266.227 77.36C265.971 77.872 265.715 78.384 265.459 78.896C265.225 79.3867 265.001 79.824 264.787 80.208C264.638 80.4427 264.478 80.656 264.307 80.848C264.137 81.0187 263.934 81.104 263.699 81.104C263.529 81.104 263.347 81.0293 263.155 80.88C262.963 80.7093 262.782 80.5067 262.611 80.272C262.441 80.0373 262.281 79.7707 262.131 79.472C262.003 79.1733 261.907 78.8747 261.843 78.576C261.673 77.6587 261.523 76.656 261.395 75.568C261.289 74.4587 261.182 73.3813 261.075 72.336C261.054 71.9733 261.097 71.6427 261.203 71.344C261.331 71.024 261.566 70.8107 261.907 70.704C262.27 70.64 262.547 70.6933 262.739 70.864C262.931 71.0347 263.049 71.3013 263.091 71.664ZM281.782 88.496C281.612 88.3467 281.569 88.1547 281.654 87.92C281.74 87.6853 281.825 87.4827 281.91 87.312C282.124 86.8213 282.316 86.3093 282.486 85.776C282.657 85.2213 282.796 84.6347 282.902 84.016C282.945 83.7387 283.094 83.504 283.35 83.312C283.606 83.0987 283.948 83.056 284.374 83.184C284.545 83.2693 284.641 83.3973 284.662 83.568C284.705 83.7173 284.726 83.888 284.726 84.08C284.726 84.3787 284.684 84.7307 284.598 85.136C284.534 85.52 284.438 85.8933 284.31 86.256C284.182 86.64 284.033 86.992 283.862 87.312C283.692 87.632 283.532 87.8773 283.382 88.048C283.126 88.3253 282.849 88.5067 282.55 88.592C282.273 88.6987 282.017 88.6667 281.782 88.496ZM98.482 97.664C98.5033 98.0053 98.5353 98.432 98.578 98.944C98.642 99.4347 98.706 99.9573 98.77 100.512C98.834 101.045 98.898 101.579 98.962 102.112C99.0473 102.645 99.122 103.136 99.186 103.584C99.4207 103.115 99.7087 102.539 100.05 101.856C100.391 101.173 100.743 100.523 101.106 99.904C101.49 99.264 101.874 98.7307 102.258 98.304C102.663 97.856 103.026 97.632 103.346 97.632C103.687 97.632 103.997 97.8027 104.274 98.144C104.573 98.464 104.829 98.8587 105.042 99.328C105.255 99.7973 105.437 100.299 105.586 100.832C105.757 101.365 105.895 101.835 106.002 102.24C106.087 101.963 106.194 101.653 106.322 101.312C106.471 100.949 106.621 100.587 106.77 100.224C106.941 99.84 107.122 99.4667 107.314 99.104C107.527 98.7413 107.751 98.4213 107.986 98.144C108.263 97.8453 108.562 97.632 108.882 97.504C109.202 97.3547 109.437 97.28 109.586 97.28C109.778 97.28 110.002 97.344 110.258 97.472C110.535 97.5787 110.813 97.728 111.09 97.92C111.367 98.112 111.623 98.3467 111.858 98.624C112.114 98.88 112.317 99.1467 112.466 99.424C112.765 100 112.999 100.629 113.17 101.312C113.362 101.995 113.501 102.645 113.586 103.264C113.671 103.883 113.725 104.437 113.746 104.928C113.789 105.397 113.821 105.728 113.842 105.92C113.842 106.197 113.81 106.411 113.746 106.56C113.682 106.688 113.565 106.795 113.394 106.88C113.159 106.987 112.957 107.029 112.786 107.008C112.615 106.965 112.477 106.891 112.37 106.784C112.263 106.677 112.178 106.56 112.114 106.432C112.05 106.283 112.007 106.155 111.986 106.048C111.922 105.557 111.847 105.056 111.762 104.544C111.698 104.032 111.623 103.541 111.538 103.072C111.453 102.581 111.346 102.133 111.218 101.728C111.111 101.301 110.994 100.928 110.866 100.608C110.823 100.523 110.749 100.416 110.642 100.288C110.557 100.139 110.45 100 110.322 99.872C110.215 99.744 110.109 99.6373 110.002 99.552C109.895 99.4667 109.821 99.4133 109.778 99.392C109.565 99.392 109.341 99.5947 109.106 100C108.871 100.384 108.647 100.853 108.434 101.408C108.221 101.963 108.018 102.549 107.826 103.168C107.655 103.765 107.527 104.277 107.442 104.704C107.442 105.259 107.335 105.675 107.122 105.952C106.909 106.208 106.685 106.336 106.45 106.336C106.215 106.336 105.959 106.251 105.682 106.08C105.426 105.888 105.255 105.675 105.17 105.44C105.042 105.099 104.903 104.715 104.754 104.288C104.605 103.861 104.445 103.424 104.274 102.976C104.125 102.528 103.965 102.091 103.794 101.664C103.645 101.237 103.495 100.853 103.346 100.512C103.047 100.917 102.749 101.365 102.45 101.856C102.173 102.347 101.895 102.848 101.618 103.36C101.362 103.872 101.106 104.384 100.85 104.896C100.615 105.387 100.391 105.824 100.178 106.208C100.029 106.443 99.8687 106.656 99.698 106.848C99.5273 107.019 99.3247 107.104 99.09 107.104C98.9193 107.104 98.738 107.029 98.546 106.88C98.354 106.709 98.1727 106.507 98.002 106.272C97.8313 106.037 97.6713 105.771 97.522 105.472C97.394 105.173 97.298 104.875 97.234 104.576C97.0633 103.659 96.914 102.656 96.786 101.568C96.6793 100.459 96.5727 99.3813 96.466 98.336C96.4447 97.9733 96.4873 97.6427 96.594 97.344C96.722 97.024 96.9567 96.8107 97.298 96.704C97.6607 96.64 97.938 96.6933 98.13 96.864C98.322 97.0347 98.4393 97.3013 98.482 97.664ZM124.437 96.16C124.522 96.7573 124.586 97.3973 124.629 98.08C124.693 98.7413 124.736 99.4133 124.757 100.096C124.8 100.779 124.821 101.44 124.821 102.08C124.821 102.72 124.81 103.296 124.789 103.808C125.472 104.277 125.877 104.693 126.005 105.056C126.154 105.419 126.176 105.739 126.069 106.016C125.941 106.4 125.706 106.603 125.365 106.624C125.045 106.624 124.672 106.507 124.245 106.272C123.946 106.485 123.605 106.72 123.221 106.976C122.837 107.211 122.432 107.445 122.005 107.68C121.578 107.893 121.152 108.085 120.725 108.256C120.298 108.427 119.904 108.544 119.541 108.608C118.858 108.715 118.24 108.587 117.685 108.224C117.152 107.861 116.789 107.317 116.597 106.592C116.469 106.101 116.437 105.6 116.501 105.088C116.565 104.555 116.725 104.053 116.981 103.584C117.237 103.093 117.578 102.656 118.005 102.272C118.453 101.888 118.976 101.589 119.573 101.376C119.722 101.312 119.925 101.259 120.181 101.216C120.458 101.173 120.736 101.163 121.013 101.184C121.312 101.184 121.61 101.237 121.909 101.344C122.208 101.451 122.485 101.632 122.741 101.888C122.741 101.525 122.73 101.131 122.709 100.704C122.709 100.256 122.698 99.808 122.677 99.36C122.656 98.912 122.624 98.496 122.581 98.112C122.56 97.7067 122.528 97.3653 122.485 97.088C122.442 96.768 122.314 96.576 122.101 96.512C121.909 96.4267 121.664 96.4373 121.365 96.544C120.853 96.7147 120.256 97.0453 119.573 97.536C118.89 98.0267 118.24 98.5493 117.621 99.104C117.429 99.296 117.205 99.3813 116.949 99.36C116.714 99.3387 116.512 99.2427 116.341 99.072C116.17 98.9013 116.074 98.7093 116.053 98.496C116.032 98.2613 116.117 98.016 116.309 97.76C116.672 97.376 117.077 96.9813 117.525 96.576C117.973 96.1707 118.442 95.808 118.933 95.488C119.424 95.1467 119.925 94.8693 120.437 94.656C120.949 94.4427 121.461 94.3253 121.973 94.304C122.72 94.2827 123.296 94.4533 123.701 94.816C124.106 95.1573 124.352 95.6053 124.437 96.16ZM120.725 103.04C120.448 103.104 120.149 103.243 119.829 103.456C119.53 103.648 119.253 103.893 118.997 104.192C118.762 104.469 118.581 104.789 118.453 105.152C118.346 105.493 118.346 105.835 118.453 106.176C118.496 106.304 118.581 106.4 118.709 106.464C118.858 106.528 119.018 106.539 119.189 106.496C119.701 106.389 120.277 106.187 120.917 105.888C121.578 105.568 122.101 105.227 122.485 104.864C122.485 104.736 122.421 104.576 122.293 104.384C122.165 104.171 122.016 103.968 121.845 103.776C121.674 103.563 121.482 103.381 121.269 103.232C121.077 103.083 120.896 103.019 120.725 103.04ZM136.737 97.536C136.822 97.5147 136.95 97.504 137.121 97.504C137.292 97.4827 137.452 97.4933 137.601 97.536C137.772 97.5573 137.91 97.6107 138.017 97.696C138.145 97.76 138.22 97.8453 138.241 97.952C138.284 98.208 138.241 98.4427 138.113 98.656C138.006 98.848 137.804 99.0187 137.505 99.168C136.694 99.552 135.852 99.9893 134.977 100.48C134.102 100.949 133.356 101.376 132.737 101.76C133.121 102.016 133.558 102.304 134.049 102.624C134.561 102.944 135.084 103.285 135.617 103.648C136.15 103.989 136.684 104.363 137.217 104.768C137.75 105.152 138.252 105.536 138.721 105.92C139.148 106.283 139.222 106.613 138.945 106.912C138.817 107.061 138.604 107.168 138.305 107.232C138.028 107.296 137.761 107.264 137.505 107.136C137.036 106.901 136.524 106.624 135.969 106.304C135.414 105.963 134.849 105.621 134.273 105.28C133.697 104.917 133.132 104.565 132.577 104.224C132.044 103.861 131.553 103.531 131.105 103.232C131.19 103.979 131.265 104.725 131.329 105.472C131.414 106.219 131.489 106.965 131.553 107.712C131.681 108.117 131.67 108.448 131.521 108.704C131.372 108.96 131.126 109.077 130.785 109.056C130.422 108.992 130.156 108.853 129.985 108.64C129.814 108.405 129.686 108.107 129.601 107.744C129.473 106.869 129.324 105.835 129.153 104.64C129.004 103.445 128.844 102.208 128.673 100.928C128.502 99.648 128.332 98.4 128.161 97.184C128.012 95.968 127.873 94.8907 127.745 93.952C127.702 93.6533 127.67 93.3333 127.649 92.992C127.649 92.6293 127.766 92.3947 128.001 92.288C128.321 92.16 128.652 92.2347 128.993 92.512C129.334 92.768 129.59 93.1627 129.761 93.696C129.932 94.6773 130.102 95.744 130.273 96.896C130.444 98.048 130.614 99.264 130.785 100.544C131.212 100.288 131.702 100.011 132.257 99.712C132.833 99.392 133.398 99.0933 133.953 98.816C134.529 98.5173 135.062 98.2507 135.553 98.016C136.044 97.7813 136.438 97.6213 136.737 97.536ZM148.681 100.48C147.849 100.971 146.953 101.355 145.993 101.632C145.033 101.888 143.998 102.016 142.889 102.016C142.932 102.763 143.145 103.36 143.529 103.808C143.913 104.235 144.393 104.491 144.969 104.576C145.31 104.619 145.652 104.608 145.993 104.544C146.356 104.48 146.686 104.384 146.985 104.256C147.305 104.107 147.593 103.947 147.849 103.776C148.105 103.605 148.329 103.435 148.521 103.264C148.713 103.093 148.916 102.987 149.129 102.944C149.342 102.88 149.502 102.869 149.609 102.912C149.908 103.019 150.014 103.339 149.929 103.872C149.588 104.555 149.097 105.141 148.457 105.632C147.817 106.101 147.102 106.4 146.313 106.528C145.63 106.656 144.926 106.624 144.201 106.432C143.476 106.24 142.825 105.867 142.249 105.312C141.758 104.821 141.385 104.245 141.129 103.584C140.873 102.923 140.713 102.24 140.649 101.536C140.585 100.875 140.638 100.245 140.809 99.648C141.001 99.0507 141.289 98.528 141.673 98.08C142.057 97.6107 142.537 97.2267 143.113 96.928C143.689 96.6293 144.361 96.4587 145.129 96.416C146.046 96.352 146.878 96.5227 147.625 96.928C148.372 97.3333 148.894 97.8987 149.193 98.624C149.364 99.0293 149.406 99.3813 149.321 99.68C149.257 99.9787 149.044 100.245 148.681 100.48ZM145.001 98.304C144.788 98.3467 144.553 98.4213 144.297 98.528C144.062 98.6347 143.838 98.7733 143.625 98.944C143.433 99.0933 143.252 99.2747 143.081 99.488C142.932 99.68 142.846 99.904 142.825 100.16C143.188 100.16 143.582 100.128 144.009 100.064C144.457 100 144.884 99.9253 145.289 99.84C145.716 99.7333 146.1 99.616 146.441 99.488C146.804 99.36 147.102 99.2213 147.337 99.072C147.166 98.6667 146.846 98.4213 146.377 98.336C145.929 98.2293 145.47 98.2187 145.001 98.304ZM168.485 96.832C169.125 97.0667 169.658 97.4187 170.085 97.888C170.533 98.3573 170.874 98.8907 171.109 99.488C171.343 100.064 171.471 100.661 171.493 101.28C171.535 101.899 171.471 102.475 171.301 103.008C171.066 103.605 170.767 104.192 170.405 104.768C170.042 105.344 169.626 105.856 169.157 106.304C168.687 106.752 168.154 107.115 167.557 107.392C166.959 107.669 166.298 107.808 165.573 107.808C164.698 107.808 163.962 107.605 163.365 107.2C162.767 106.795 162.298 106.272 161.957 105.632C161.615 104.992 161.391 104.267 161.285 103.456C161.199 102.645 161.221 101.835 161.349 101.024C161.434 100.427 161.573 99.8507 161.765 99.296C161.978 98.72 162.245 98.2187 162.565 97.792C162.885 97.344 163.247 96.9813 163.653 96.704C164.079 96.4267 164.559 96.288 165.093 96.288C165.391 96.288 165.765 96.352 166.213 96.48C166.661 96.5867 167.077 96.7467 167.461 96.96C167.738 96.704 168.079 96.6613 168.485 96.832ZM167.269 99.168C167.034 99.0187 166.757 98.8267 166.437 98.592C166.138 98.336 165.871 98.208 165.637 98.208C165.381 98.208 165.125 98.3253 164.869 98.56C164.634 98.7947 164.421 99.072 164.229 99.392C164.058 99.6907 163.909 100 163.781 100.32C163.653 100.64 163.567 100.896 163.525 101.088C163.461 101.408 163.418 101.792 163.397 102.24C163.375 102.688 163.407 103.136 163.493 103.584C163.578 104.011 163.738 104.405 163.973 104.768C164.229 105.109 164.602 105.355 165.093 105.504C165.391 105.589 165.743 105.589 166.149 105.504C166.554 105.397 166.949 105.216 167.333 104.96C167.738 104.704 168.111 104.363 168.453 103.936C168.815 103.509 169.093 103.019 169.285 102.464C169.498 101.845 169.498 101.205 169.285 100.544C169.093 99.8613 168.687 99.3707 168.069 99.072C167.919 99.1787 167.77 99.232 167.621 99.232C167.471 99.232 167.354 99.2107 167.269 99.168ZM176.814 98.528C176.686 99.104 176.558 99.744 176.43 100.448C176.302 101.131 176.206 101.792 176.142 102.432C176.099 103.072 176.099 103.648 176.142 104.16C176.206 104.672 176.345 105.035 176.558 105.248C176.921 105.312 177.337 105.163 177.806 104.8C178.275 104.416 178.734 103.936 179.182 103.36C179.63 102.784 180.035 102.165 180.398 101.504C180.761 100.821 181.017 100.224 181.166 99.712C181.251 99.456 181.326 99.1893 181.39 98.912C181.454 98.6347 181.486 98.3467 181.486 98.048C181.486 97.8773 181.593 97.7173 181.806 97.568C182.041 97.3973 182.233 97.3013 182.382 97.28C182.489 97.2587 182.606 97.28 182.734 97.344C182.883 97.408 183.011 97.504 183.118 97.632C183.246 97.7387 183.353 97.8773 183.438 98.048C183.545 98.1973 183.598 98.3573 183.598 98.528C183.641 99.168 183.705 99.872 183.79 100.64C183.875 101.408 183.971 102.176 184.078 102.944C184.206 103.712 184.334 104.459 184.462 105.184C184.59 105.909 184.718 106.56 184.846 107.136C184.91 107.371 184.846 107.637 184.654 107.936C184.462 108.235 184.249 108.416 184.014 108.48C183.822 108.523 183.619 108.501 183.406 108.416C183.214 108.331 183.065 108.16 182.958 107.904C182.851 107.605 182.745 107.243 182.638 106.816C182.553 106.368 182.467 105.909 182.382 105.44C182.318 104.949 182.254 104.491 182.19 104.064C182.126 103.616 182.083 103.243 182.062 102.944C181.742 103.52 181.358 104.107 180.91 104.704C180.483 105.28 180.014 105.813 179.502 106.304C179.011 106.773 178.489 107.147 177.934 107.424C177.401 107.68 176.846 107.776 176.27 107.712C175.417 107.605 174.766 106.805 174.318 105.312C174.147 104.715 174.062 104.053 174.062 103.328C174.083 102.603 174.137 101.888 174.222 101.184C174.329 100.459 174.446 99.776 174.574 99.136C174.723 98.496 174.851 97.9733 174.958 97.568C175.001 97.3973 175.086 97.248 175.214 97.12C175.342 96.9707 175.491 96.9173 175.662 96.96C175.982 97.024 176.27 97.216 176.526 97.536C176.803 97.856 176.899 98.1867 176.814 98.528ZM196.755 96.96C196.371 97.1733 195.966 97.3973 195.539 97.632C195.134 97.8667 194.718 98.144 194.291 98.464C193.886 98.7627 193.491 99.1253 193.107 99.552C192.744 99.9573 192.414 100.448 192.115 101.024C191.688 101.835 191.4 102.667 191.251 103.52C191.102 104.352 191.006 105.173 190.963 105.984C190.963 106.368 190.867 106.763 190.675 107.168C190.504 107.552 190.259 107.744 189.939 107.744C189.534 107.744 189.203 107.541 188.947 107.136C188.712 106.709 188.552 106.304 188.467 105.92C188.104 104.405 187.806 102.912 187.571 101.44C187.336 99.9467 187.134 98.464 186.963 96.992C186.963 96.6933 187.048 96.5013 187.219 96.416C187.411 96.3307 187.624 96.2987 187.859 96.32C188.115 96.3413 188.36 96.4053 188.595 96.512C188.83 96.6187 188.968 96.7893 189.011 97.024C189.096 97.8133 189.203 98.6453 189.331 99.52C189.459 100.373 189.587 101.109 189.715 101.728C189.8 101.003 190.035 100.299 190.419 99.616C190.803 98.9333 191.272 98.3147 191.827 97.76C192.403 97.2053 193.043 96.736 193.747 96.352C194.472 95.968 195.208 95.712 195.955 95.584C196.275 95.5413 196.542 95.5413 196.755 95.584C196.968 95.6267 197.118 95.7013 197.203 95.808C197.288 95.9147 197.299 96.0853 197.235 96.32C197.192 96.5547 197.032 96.768 196.755 96.96ZM215.016 96.832C215.656 97.0667 216.189 97.4187 216.616 97.888C217.064 98.3573 217.405 98.8907 217.64 99.488C217.874 100.064 218.002 100.661 218.024 101.28C218.066 101.899 218.002 102.475 217.832 103.008C217.597 103.605 217.298 104.192 216.936 104.768C216.573 105.344 216.157 105.856 215.688 106.304C215.218 106.752 214.685 107.115 214.088 107.392C213.49 107.669 212.829 107.808 212.104 107.808C211.229 107.808 210.493 107.605 209.896 107.2C209.298 106.795 208.829 106.272 208.488 105.632C208.146 104.992 207.922 104.267 207.816 103.456C207.73 102.645 207.752 101.835 207.88 101.024C207.965 100.427 208.104 99.8507 208.296 99.296C208.509 98.72 208.776 98.2187 209.096 97.792C209.416 97.344 209.778 96.9813 210.184 96.704C210.61 96.4267 211.09 96.288 211.624 96.288C211.922 96.288 212.296 96.352 212.744 96.48C213.192 96.5867 213.608 96.7467 213.992 96.96C214.269 96.704 214.61 96.6613 215.016 96.832ZM213.8 99.168C213.565 99.0187 213.288 98.8267 212.968 98.592C212.669 98.336 212.402 98.208 212.168 98.208C211.912 98.208 211.656 98.3253 211.4 98.56C211.165 98.7947 210.952 99.072 210.76 99.392C210.589 99.6907 210.44 100 210.312 100.32C210.184 100.64 210.098 100.896 210.056 101.088C209.992 101.408 209.949 101.792 209.928 102.24C209.906 102.688 209.938 103.136 210.024 103.584C210.109 104.011 210.269 104.405 210.504 104.768C210.76 105.109 211.133 105.355 211.624 105.504C211.922 105.589 212.274 105.589 212.68 105.504C213.085 105.397 213.48 105.216 213.864 104.96C214.269 104.704 214.642 104.363 214.984 103.936C215.346 103.509 215.624 103.019 215.816 102.464C216.029 101.845 216.029 101.205 215.816 100.544C215.624 99.8613 215.218 99.3707 214.6 99.072C214.45 99.1787 214.301 99.232 214.152 99.232C214.002 99.232 213.885 99.2107 213.8 99.168ZM231.985 107.264C231.815 107.499 231.623 107.659 231.409 107.744C231.196 107.808 231.004 107.84 230.833 107.84C230.535 107.819 230.257 107.723 230.001 107.552C229.745 107.36 229.585 107.168 229.521 106.976C229.393 106.613 229.255 106.208 229.105 105.76C228.956 105.312 228.807 104.864 228.657 104.416C228.529 103.947 228.391 103.499 228.241 103.072C228.092 102.624 227.953 102.219 227.825 101.856C227.399 102.603 226.993 103.36 226.609 104.128C226.225 104.875 225.799 105.653 225.329 106.464C225.116 106.784 224.871 107.008 224.593 107.136C224.316 107.243 224.081 107.285 223.889 107.264C223.612 107.243 223.356 107.136 223.121 106.944C222.908 106.752 222.737 106.571 222.609 106.4C222.375 106.016 222.14 105.525 221.905 104.928C221.671 104.309 221.447 103.669 221.233 103.008C221.041 102.325 220.86 101.653 220.689 100.992C220.519 100.309 220.38 99.7013 220.273 99.168C220.209 98.8053 220.209 98.464 220.273 98.144C220.359 97.824 220.551 97.6427 220.849 97.6C221.212 97.5787 221.543 97.7067 221.841 97.984C222.14 98.24 222.311 98.496 222.353 98.752C222.439 99.1787 222.535 99.648 222.641 100.16C222.769 100.651 222.897 101.152 223.025 101.664C223.175 102.176 223.313 102.677 223.441 103.168C223.591 103.659 223.74 104.096 223.889 104.48C224.209 103.968 224.561 103.381 224.945 102.72C225.351 102.037 225.735 101.387 226.097 100.768C226.46 100.128 226.791 99.5733 227.089 99.104C227.388 98.6347 227.623 98.3467 227.793 98.24C227.921 98.1547 228.103 98.1653 228.337 98.272C228.572 98.3573 228.743 98.4853 228.849 98.656C229.319 99.5947 229.703 100.629 230.001 101.76C230.321 102.869 230.631 103.904 230.929 104.864C231.228 104.48 231.548 103.979 231.889 103.36C232.231 102.72 232.561 102.048 232.881 101.344C233.201 100.64 233.5 99.936 233.777 99.232C234.055 98.528 234.279 97.8987 234.449 97.344C234.62 96.768 234.855 96.4907 235.153 96.512C235.537 96.5547 235.868 96.6827 236.145 96.896C236.423 97.1093 236.529 97.3333 236.465 97.568C235.996 99.4453 235.388 101.173 234.641 102.752C233.895 104.309 233.009 105.813 231.985 107.264ZM240.829 97.44C240.893 97.76 240.957 98.1227 241.021 98.528C241.106 98.912 241.191 99.3173 241.277 99.744C241.362 100.149 241.437 100.565 241.501 100.992C241.565 101.419 241.618 101.824 241.661 102.208C241.917 101.653 242.194 101.067 242.493 100.448C242.791 99.8293 243.111 99.264 243.453 98.752C243.815 98.2187 244.189 97.7813 244.573 97.44C244.978 97.0987 245.415 96.928 245.885 96.928C246.589 96.928 247.175 97.184 247.645 97.696C248.135 98.208 248.541 98.848 248.861 99.616C249.202 100.363 249.469 101.152 249.661 101.984C249.853 102.816 250.013 103.552 250.141 104.192C250.269 104.768 250.013 105.195 249.373 105.472C249.074 105.621 248.85 105.643 248.701 105.536C248.551 105.429 248.466 105.323 248.445 105.216C248.338 104.96 248.199 104.512 248.029 103.872C247.879 103.232 247.698 102.581 247.485 101.92C247.293 101.259 247.069 100.683 246.813 100.192C246.557 99.7013 246.269 99.4773 245.949 99.52C245.565 99.5413 245.223 99.8293 244.925 100.384C244.669 100.832 244.402 101.333 244.125 101.888C243.869 102.421 243.613 102.976 243.357 103.552C243.101 104.107 242.845 104.672 242.589 105.248C242.354 105.803 242.13 106.315 241.917 106.784C241.767 106.933 241.575 107.04 241.341 107.104C241.127 107.147 240.903 107.125 240.669 107.04C240.455 106.976 240.285 106.869 240.157 106.72C240.029 106.571 239.965 106.421 239.965 106.272C239.773 104.608 239.57 103.093 239.357 101.728C239.165 100.363 238.909 98.9653 238.589 97.536C238.439 97.0453 238.407 96.6613 238.493 96.384C238.599 96.0853 238.919 95.968 239.453 96.032C240.199 96.16 240.658 96.6293 240.829 97.44ZM270.88 96.96C270.496 97.1733 270.091 97.3973 269.664 97.632C269.259 97.8667 268.843 98.144 268.416 98.464C268.011 98.7627 267.616 99.1253 267.232 99.552C266.869 99.9573 266.539 100.448 266.24 101.024C265.813 101.835 265.525 102.667 265.376 103.52C265.227 104.352 265.131 105.173 265.088 105.984C265.088 106.368 264.992 106.763 264.8 107.168C264.629 107.552 264.384 107.744 264.064 107.744C263.659 107.744 263.328 107.541 263.072 107.136C262.837 106.709 262.677 106.304 262.592 105.92C262.229 104.405 261.931 102.912 261.696 101.44C261.461 99.9467 261.259 98.464 261.088 96.992C261.088 96.6933 261.173 96.5013 261.344 96.416C261.536 96.3307 261.749 96.2987 261.984 96.32C262.24 96.3413 262.485 96.4053 262.72 96.512C262.955 96.6187 263.093 96.7893 263.136 97.024C263.221 97.8133 263.328 98.6453 263.456 99.52C263.584 100.373 263.712 101.109 263.84 101.728C263.925 101.003 264.16 100.299 264.544 99.616C264.928 98.9333 265.397 98.3147 265.952 97.76C266.528 97.2053 267.168 96.736 267.872 96.352C268.597 95.968 269.333 95.712 270.08 95.584C270.4 95.5413 270.667 95.5413 270.88 95.584C271.093 95.6267 271.243 95.7013 271.328 95.808C271.413 95.9147 271.424 96.0853 271.36 96.32C271.317 96.5547 271.157 96.768 270.88 96.96ZM275.564 98.528C275.436 99.104 275.308 99.744 275.18 100.448C275.052 101.131 274.956 101.792 274.892 102.432C274.849 103.072 274.849 103.648 274.892 104.16C274.956 104.672 275.095 105.035 275.308 105.248C275.671 105.312 276.087 105.163 276.556 104.8C277.025 104.416 277.484 103.936 277.932 103.36C278.38 102.784 278.785 102.165 279.148 101.504C279.511 100.821 279.767 100.224 279.916 99.712C280.001 99.456 280.076 99.1893 280.14 98.912C280.204 98.6347 280.236 98.3467 280.236 98.048C280.236 97.8773 280.343 97.7173 280.556 97.568C280.791 97.3973 280.983 97.3013 281.132 97.28C281.239 97.2587 281.356 97.28 281.484 97.344C281.633 97.408 281.761 97.504 281.868 97.632C281.996 97.7387 282.103 97.8773 282.188 98.048C282.295 98.1973 282.348 98.3573 282.348 98.528C282.391 99.168 282.455 99.872 282.54 100.64C282.625 101.408 282.721 102.176 282.828 102.944C282.956 103.712 283.084 104.459 283.212 105.184C283.34 105.909 283.468 106.56 283.596 107.136C283.66 107.371 283.596 107.637 283.404 107.936C283.212 108.235 282.999 108.416 282.764 108.48C282.572 108.523 282.369 108.501 282.156 108.416C281.964 108.331 281.815 108.16 281.708 107.904C281.601 107.605 281.495 107.243 281.388 106.816C281.303 106.368 281.217 105.909 281.132 105.44C281.068 104.949 281.004 104.491 280.94 104.064C280.876 103.616 280.833 103.243 280.812 102.944C280.492 103.52 280.108 104.107 279.66 104.704C279.233 105.28 278.764 105.813 278.252 106.304C277.761 106.773 277.239 107.147 276.684 107.424C276.151 107.68 275.596 107.776 275.02 107.712C274.167 107.605 273.516 106.805 273.068 105.312C272.897 104.715 272.812 104.053 272.812 103.328C272.833 102.603 272.887 101.888 272.972 101.184C273.079 100.459 273.196 99.776 273.324 99.136C273.473 98.496 273.601 97.9733 273.708 97.568C273.751 97.3973 273.836 97.248 273.964 97.12C274.092 96.9707 274.241 96.9173 274.412 96.96C274.732 97.024 275.02 97.216 275.276 97.536C275.553 97.856 275.649 98.1867 275.564 98.528ZM288.625 93.024C288.732 95.3493 288.913 97.76 289.169 100.256C289.425 102.731 289.702 105.099 290.001 107.36C290.065 108.299 289.809 108.779 289.233 108.8C289.105 108.8 288.977 108.757 288.849 108.672C288.721 108.565 288.604 108.437 288.497 108.288C288.39 108.139 288.284 107.979 288.177 107.808C288.092 107.637 288.038 107.488 288.017 107.36C287.846 106.272 287.686 105.12 287.537 103.904C287.388 102.688 287.249 101.472 287.121 100.256C287.014 99.0187 286.918 97.8133 286.833 96.64C286.748 95.4667 286.694 94.3893 286.673 93.408C286.716 92.896 286.79 92.4693 286.897 92.128C287.004 91.7653 287.228 91.5947 287.569 91.616C287.932 91.6373 288.188 91.7867 288.337 92.064C288.508 92.32 288.604 92.64 288.625 93.024ZM300.369 100.48C299.537 100.971 298.641 101.355 297.681 101.632C296.721 101.888 295.686 102.016 294.577 102.016C294.619 102.763 294.833 103.36 295.217 103.808C295.601 104.235 296.081 104.491 296.657 104.576C296.998 104.619 297.339 104.608 297.681 104.544C298.043 104.48 298.374 104.384 298.673 104.256C298.993 104.107 299.281 103.947 299.536 103.776C299.793 103.605 300.017 103.435 300.209 103.264C300.401 103.093 300.603 102.987 300.817 102.944C301.03 102.88 301.19 102.869 301.297 102.912C301.595 103.019 301.702 103.339 301.617 103.872C301.275 104.555 300.785 105.141 300.145 105.632C299.505 106.101 298.79 106.4 298.001 106.528C297.318 106.656 296.614 106.624 295.889 106.432C295.163 106.24 294.513 105.867 293.937 105.312C293.446 104.821 293.073 104.245 292.817 103.584C292.561 102.923 292.401 102.24 292.337 101.536C292.273 100.875 292.326 100.245 292.497 99.648C292.689 99.0507 292.977 98.528 293.361 98.08C293.745 97.6107 294.225 97.2267 294.801 96.928C295.377 96.6293 296.049 96.4587 296.817 96.416C297.734 96.352 298.566 96.5227 299.312 96.928C300.059 97.3333 300.582 97.8987 300.881 98.624C301.051 99.0293 301.094 99.3813 301.009 99.68C300.945 99.9787 300.731 100.245 300.369 100.48ZM296.689 98.304C296.475 98.3467 296.241 98.4213 295.985 98.528C295.75 98.6347 295.526 98.7733 295.312 98.944C295.121 99.0933 294.939 99.2747 294.769 99.488C294.619 99.68 294.534 99.904 294.513 100.16C294.875 100.16 295.27 100.128 295.697 100.064C296.145 100 296.571 99.9253 296.977 99.84C297.403 99.7333 297.787 99.616 298.129 99.488C298.491 99.36 298.79 99.2213 299.025 99.072C298.854 98.6667 298.534 98.4213 298.065 98.336C297.617 98.2293 297.158 98.2187 296.689 98.304ZM309.827 98.432C309.785 98.1973 309.742 97.9733 309.699 97.76C309.657 97.5467 309.55 97.408 309.379 97.344C309.017 97.2373 308.633 97.2267 308.227 97.312C307.822 97.3973 307.449 97.536 307.107 97.728C306.766 97.8987 306.478 98.1013 306.243 98.336C306.009 98.5493 305.881 98.7413 305.859 98.912C305.795 99.232 305.881 99.5413 306.115 99.84C306.35 100.139 306.691 100.437 307.139 100.736C307.886 101.184 308.665 101.643 309.475 102.112C310.286 102.581 310.969 103.061 311.523 103.552C312.078 104.043 312.451 104.587 312.643 105.184C312.857 105.76 312.814 106.421 312.515 107.168C312.281 107.744 311.843 108.213 311.203 108.576C310.563 108.939 309.859 109.227 309.091 109.44C308.323 109.632 307.555 109.771 306.787 109.856C306.019 109.92 305.369 109.952 304.835 109.952C304.707 109.952 304.547 109.909 304.355 109.824C304.185 109.717 304.014 109.6 303.843 109.472C303.694 109.344 303.555 109.216 303.427 109.088C303.321 108.939 303.267 108.811 303.267 108.704C303.267 108.32 303.438 108.053 303.779 107.904C304.121 107.755 304.473 107.68 304.835 107.68C305.347 107.68 305.891 107.659 306.467 107.616C307.065 107.552 307.63 107.467 308.163 107.36C308.697 107.232 309.177 107.072 309.603 106.88C310.03 106.688 310.329 106.443 310.499 106.144C310.649 105.888 310.553 105.589 310.211 105.248C309.891 104.885 309.454 104.512 308.899 104.128C308.366 103.744 307.779 103.371 307.139 103.008C306.521 102.645 305.987 102.315 305.539 102.016C305.091 101.717 304.707 101.365 304.387 100.96C304.067 100.533 303.865 100.011 303.779 99.392C303.758 98.8373 303.875 98.304 304.131 97.792C304.387 97.28 304.718 96.832 305.123 96.448C305.55 96.0427 306.03 95.7227 306.563 95.488C307.097 95.2533 307.63 95.136 308.163 95.136C309.081 95.1787 309.838 95.4347 310.435 95.904C311.033 96.352 311.385 97.024 311.491 97.92C311.491 98.2187 311.438 98.464 311.331 98.656C311.246 98.848 311.086 98.9653 310.851 99.008C310.553 99.0507 310.307 99.0187 310.115 98.912C309.945 98.784 309.849 98.624 309.827 98.432ZM317.183 107.488C317.29 108.256 316.97 108.693 316.223 108.8C315.839 108.843 315.519 108.736 315.263 108.48C315.028 108.224 314.879 107.915 314.815 107.552C314.751 107.168 314.772 106.795 314.879 106.432C315.007 106.069 315.242 105.867 315.583 105.824C316.01 105.76 316.372 105.92 316.671 106.304C316.97 106.667 317.14 107.061 317.183 107.488Z" fill="url(#paint0_linear_216_440)"/>
    <path d="M365.976 65.4086C365.976 55.1178 366.812 43.7666 360.805 34.0929C343.418 6.09159 251.016 10.5858 212.676 10.5858C186.626 10.5858 152.363 4.76775 127.624 10.5858C101.298 16.7773 71.8619 14.3235 57.2257 30.99C44.0237 46.0233 44.491 81.261 53.0118 99.8965C55.8652 106.137 59.4842 110.923 63.4666 116.734C73.5132 131.392 61.1938 148.83 61.1938 164.683C61.1938 167.943 59.4402 174.601 63.2394 177.169C67.5467 180.081 83.0091 158.238 83.4673 157.485C88.3334 149.487 97.5072 141.759 110.798 140.932C147.002 138.679 179.811 152.829 215.403 151.71C255.124 150.46 289.822 144.485 326.088 133.571C349.46 126.537 356.041 111.653 362.908 95.5041C367.076 85.7012 365.976 75.5423 365.976 65.4086Z" stroke="white" stroke-width="3" stroke-linecap="round"/>
  </g>
  <defs>
    <linearGradient id="paint0_linear_216_440" x1="65.7304" y1="27.5447" x2="317.436" y2="5.6408" gradientUnits="userSpaceOnUse">
      <stop stop-color="#FFA51E"/>
      <stop offset="0.228751" stop-color="#DDCAE2"/>
      <stop offset="0.468349" stop-color="#A9F0FF"/>
      <stop offset="0.635025" stop-color="#FFF84F"/>
      <stop offset="0.832954" stop-color="#E6FFB2"/>
      <stop offset="1" stop-color="#3B2AFF"/>
    </linearGradient>
    <clipPath id="clip0_216_440">
      <rect width="367" height="316" fill="white"/>
    </clipPath>
    <clipPath id="clip1_216_440">
      <rect width="175" height="164" fill="white" transform="translate(1 144)"/>
    </clipPath>
  </defs>
</svg>
