<svg viewBox="0 0 366 302" fill="none" xmlns="http://www.w3.org/2000/svg">
  <g clip-path="url(#clip0_360_1407)">
    <path d="M-85.6399 280.415C-85.6399 280.415 -98.2119 258.198 -101.177 251.374C-103.945 245.051 -107.064 230.662 -121.539 227.947C-122.896 227.696 -122.426 219.422 -125.719 219.422C-128.487 219.422 -129.089 227.489 -130.599 227.555C-143.959 228.165 -148.696 232.7 -154.408 238.456C-155.316 239.372 -164.255 230.629 -166.849 233.954C-169.442 237.279 -162.603 243.166 -163.249 244.092C-167.735 250.568 -164.824 284.885 -164.824 284.885C-164.824 284.885 -170.087 301.717 -171.17 308.312C-172.254 314.907 -173.599 330.256 -171.17 336.71C-168.741 343.164 -168.873 344.123 -165.087 343.175C-161.301 342.226 -148.871 333.483 -146.574 330.518C-144.276 327.553 -130.347 315.572 -129.756 314.842C-129.166 314.112 -128.017 312.127 -129.089 311.005C-130.161 309.882 -133.739 313.261 -133.739 313.261C-133.739 313.261 -130.315 309.653 -131.617 308.356C-132.919 307.058 -137.459 310.405 -137.459 310.405C-137.459 310.405 -132.842 307.2 -134.472 305.576C-136.103 303.951 -141.322 308.486 -141.322 308.486C-141.322 308.486 -143.051 302.393 -146.103 304.126C-149.156 305.859 -146.103 312.073 -146.103 312.073L-162.855 326.321C-162.855 326.321 -156.738 321.612 -156.738 318.897C-156.738 316.183 -149.703 328.708 -138.75 333.603C-127.798 338.498 -117.524 341.91 -103.464 342.324C-95.3429 342.639 -87.2481 341.223 -79.7205 338.171C-79.7205 338.171 -55.3974 340.351 -49.9594 340.351C-44.5214 340.351 -32.9999 340.057 -32.9999 340.057C-32.9999 340.057 -28.4482 343.981 -25.0563 343.425C-21.6644 342.869 -15.9419 338.803 -14.1147 337.549C-12.2874 336.296 -0.984758 333.298 -0.831575 330.692C-0.678393 328.087 -15.7559 331.466 -24.1919 329.046C-32.6279 326.626 -52.0055 319.584 -58.8002 318.527C-65.5949 317.469 -86.5153 316.205 -87.0952 315.921C-87.6751 315.638 -64.6102 320.075 -63.2534 316.303C-61.8967 312.531 -54.5767 292.385 -54.8831 287.185C-55.1895 281.985 -54.1172 255.222 -54.1172 255.222C-54.1172 255.222 -51.6663 232.602 -51.6663 225.571C-51.6663 218.539 -45.3748 215.476 -44.4558 211.65C-43.5367 207.823 -47.9789 200.334 -46.7535 197.74C-45.528 195.145 -40.9216 184.287 -44.2916 182.914C-47.6616 181.54 -53.8108 189.029 -55.4958 195.298C-57.1808 201.566 -86.6903 286.727 -86.6903 286.727L-85.6399 280.415Z" stroke="white" stroke-width="3" stroke-miterlimit="10"/>
    <path d="M174.365 285.986C173.14 284.732 170.645 284.787 165.098 285.037C160.371 285.256 154.485 285.528 150.447 284.373C147.46 283.511 143.018 282.051 138.313 280.492C129.789 277.69 120.139 274.496 115.653 273.798C114.821 273.667 113.782 273.537 112.6 273.406C118.355 257.468 121.156 247.559 120.948 243.972C120.653 239.023 121.66 213.601 121.714 212.238C121.769 210.876 124.165 189.345 124.165 182.456C124.165 178.717 126.233 176.286 128.225 173.931C129.621 172.519 130.672 170.808 131.299 168.927C131.879 166.551 130.916 163.476 129.986 160.555C129.417 158.756 128.553 156.031 128.892 155.322C129.746 153.513 133.936 144.279 132.35 140.246C132.196 139.804 131.95 139.401 131.627 139.063C131.305 138.724 130.913 138.458 130.479 138.283C129.833 138.051 129.144 137.962 128.46 138.023C127.776 138.083 127.113 138.291 126.518 138.632C122.82 140.464 118.498 146.47 117.075 151.714C115.74 156.685 96.3737 212.761 88.8677 234.564C85.7712 229.037 76.832 213.078 74.4795 207.54C74.1403 206.679 73.7464 205.588 73.3088 204.498C70.7265 197.587 66.4155 186.075 53.6139 183.317C53.4826 182.87 53.3294 182.129 53.22 181.551C52.6838 178.793 51.8742 174.639 48.5041 174.639C45.714 174.639 44.6089 178.019 43.7227 180.744C43.5107 181.443 43.2624 182.131 42.9786 182.805C29.7502 183.535 24.4983 188.255 19.3119 193.466C18.7758 193.15 17.999 192.638 17.3862 192.223C13.677 189.781 8.65482 186.424 6.03978 189.781C3.57792 192.943 6.55404 197.064 8.33752 199.516C8.61106 199.887 8.95025 200.356 9.16908 200.694C5.16445 208.488 7.30901 236.875 7.65914 241.563C6.91511 243.95 2.3634 258.678 1.34583 264.903C0.492387 270.146 -1.3458 286.782 1.43336 294.14L2.18834 295.95C3.91711 300.648 4.7049 302.785 9.51921 301.586C13.5895 300.572 26.1833 291.775 28.864 288.439C30.7105 289.821 32.6983 291.005 34.7943 291.971C45.9547 296.985 56.3274 300.408 70.7047 300.801C78.9283 301.103 87.1253 299.7 94.7762 296.68C98.1571 296.985 119.154 298.86 124.319 298.86C128.98 298.86 138.247 298.642 140.731 298.588C142.022 299.602 145.392 301.989 148.565 301.989C148.884 301.991 149.202 301.965 149.517 301.913C152.624 301.4 156.914 298.642 160.699 296.07L161.126 295.775C162.312 295.202 163.532 294.703 164.781 294.282C170.897 292.003 174.923 290.303 175.109 287.687C175.119 287.366 175.057 287.047 174.928 286.753C174.799 286.459 174.607 286.197 174.365 285.986ZM163.511 291.229C161.997 291.707 160.531 292.327 159.135 293.083L158.697 293.388C156.771 294.707 151.64 298.239 148.85 298.697C146.935 299.013 143.784 297.029 142.285 295.71L141.803 295.296H141.169C141.059 295.296 129.592 295.579 124.253 295.579C118.913 295.579 94.8856 293.399 94.6449 293.399H94.1963L93.8024 293.595C86.5079 296.512 78.68 297.872 70.825 297.585C56.8964 297.16 46.9067 293.889 36.1073 288.984C34.3365 288.177 32.6536 287.19 31.0851 286.04C33.9299 283.282 38.6129 279.107 41.7422 276.316C44.8715 273.526 45.4514 273.046 45.7031 272.708C47.1036 270.997 47.8914 268.348 46.283 266.712C46.0617 266.464 45.788 266.268 45.4815 266.138C45.175 266.008 44.8433 265.947 44.5105 265.96C44.528 265.603 44.4709 265.246 44.3428 264.912C44.2147 264.578 44.0185 264.274 43.7664 264.02C43.4978 263.764 43.1801 263.564 42.8323 263.433C42.4845 263.302 42.1138 263.242 41.7422 263.257C41.7478 262.882 41.677 262.51 41.5341 262.163C41.3911 261.817 41.179 261.502 40.9107 261.24C39.0506 259.387 35.8885 261.022 33.6236 262.646C33.0296 261.199 31.9349 260.012 30.538 259.299C30.0073 259.083 29.432 258.996 28.8607 259.048C28.2895 259.099 27.7389 259.286 27.2555 259.594C23.8965 261.567 25.2095 266.244 26.0957 268.5C26.0957 268.5 14.4539 278.224 12.6047 279.968L10.2742 281.952L12.3421 284.492C12.8892 284.067 13.863 283.282 14.9134 282.312L30.1222 269.383L29.5423 268.228C28.7436 266.603 27.7042 263.126 28.9077 262.417C29.1375 262.286 29.2141 262.308 29.2688 262.33C29.9581 262.602 30.8772 264.358 31.2821 265.753L31.9823 268.238L33.919 266.549C35.1439 265.462 36.5181 264.556 38.0002 263.856C37.444 264.536 36.8086 265.147 36.1073 265.677L35.79 265.916L37.7048 268.576C37.7814 268.511 37.8908 268.446 38.0111 268.358C38.9309 267.701 39.9218 267.149 40.9654 266.712C40.4951 267.522 39.9335 268.275 39.2913 268.958L41.5781 271.269C42.247 270.632 42.9804 270.066 43.7664 269.579C43.6274 269.945 43.4317 270.287 43.1865 270.593C42.9349 270.866 41.217 272.392 39.5539 273.864C35.1773 277.777 12.0795 297.563 8.69859 298.403C7.3856 298.73 7.00264 298.686 6.90417 298.599C6.17702 297.42 5.61732 296.147 5.24104 294.816L4.55172 292.952C2.43999 287.349 3.34815 273.177 4.62831 265.393C5.67871 259.005 10.876 242.359 10.9416 242.195L11.0401 241.89V241.574C9.84746 228.012 9.24567 206.242 12.2874 201.838C13.1628 200.585 12.2874 199.331 10.9963 197.609C9.70522 195.886 7.71385 193.019 8.63294 191.776C9.12531 191.155 11.434 192.223 15.5152 194.949C18.0974 196.671 19.6621 197.718 20.986 196.431C26.4568 190.981 30.7569 186.62 43.7008 186.042C45.4733 185.966 46.0751 184.102 46.841 181.747C47.224 180.602 48.0008 178.204 48.5041 177.91C48.8105 177.91 49.3138 178.651 50.0031 182.172C50.4299 184.353 50.7691 186.108 52.3775 186.413C63.899 188.593 67.7504 198.862 70.2998 205.665C70.7265 206.82 71.1423 207.91 71.5362 208.837C74.2935 215.214 84.9506 234.15 86.8545 237.573L86.1691 241.733C86.0185 242.647 86.5942 243.524 87.4931 243.75V243.75C88.3886 243.974 89.3069 243.478 89.6089 242.606C93.7286 230.705 118.724 158.461 120.303 152.575C121.474 148.215 125.161 142.949 128.028 141.532C128.391 141.299 128.826 141.206 129.253 141.27C130.074 142.099 128.783 147.92 125.971 153.905C125.084 155.769 125.971 158.429 126.901 161.536C127.656 163.945 128.52 166.671 128.159 168.164C127.598 169.528 126.764 170.763 125.708 171.794C123.52 174.334 120.883 177.496 120.883 182.423C120.883 189.291 118.465 211.682 118.443 211.911V212.02C118.443 213.11 117.349 238.914 117.677 244.136C117.764 245.564 117.13 251.167 109.504 272.326V272.479C109.086 272.723 108.618 272.872 108.136 272.915C104.098 272.545 99.4701 272.185 95.6406 271.89C93.0146 271.683 90.3339 271.476 88.7911 271.334C86.8326 271.04 85.9901 270.997 85.5852 272.272L85.1694 273.613L86.4277 274.234C86.6903 274.365 86.8216 274.43 88.3972 274.583H88.6926C98.6604 276.12 104.514 276.513 107.961 276.142C110.915 276.415 113.519 276.687 115.204 276.949C119.428 277.614 128.947 280.753 137.35 283.49C142.077 285.048 146.552 286.531 149.616 287.403C154.167 288.7 160.349 288.428 165.317 288.199C167.144 288.123 169.267 288.024 170.7 288.068C168.38 289.286 165.978 290.342 163.511 291.229Z" fill="white"/>
    <path d="M85.3446 208.314C81.4056 209.622 75.8618 209.585 74.403 209.404L81.515 224.121L95.7391 219.76L103.398 196.867C99.2039 199.956 89.2835 207.005 85.3446 208.314Z" stroke="white" stroke-width="3"/>
    <path d="M133.647 176.172L134.417 175.534L134.361 175.467L134.294 175.41L133.647 176.172ZM133.647 176.172C134.417 175.534 134.417 175.534 134.417 175.535L134.418 175.535L134.419 175.537L134.423 175.542L134.436 175.558C134.447 175.571 134.462 175.589 134.48 175.613C134.517 175.659 134.57 175.727 134.635 175.813C134.766 175.985 134.948 176.234 135.161 176.548C135.587 177.175 136.14 178.071 136.654 179.148C137.671 181.279 138.595 184.251 137.905 187.295C135.787 196.631 131.805 205.881 122.994 210.298L121.546 211.024V209.404V202.863V202.733L121.579 202.608L124.997 189.679C124.911 189.556 124.809 189.409 124.697 189.242C124.358 188.733 123.919 188.021 123.536 187.226C123.157 186.439 122.807 185.52 122.685 184.604C122.564 183.688 122.659 182.655 123.33 181.801L123.723 181.301L124.342 181.444C124.606 181.505 124.852 181.563 125.082 181.616C124.467 180.64 124.053 179.345 124.513 177.767L124.724 177.047H125.473C126.218 177.047 126.834 177.062 127.311 177.078C127.077 176.425 126.881 175.552 126.881 174.384V173.919L127.237 173.62C127.994 172.981 128.916 172.902 129.707 173.022C130.492 173.141 131.269 173.469 131.92 173.814C132.582 174.163 133.172 174.561 133.592 174.866C133.804 175.02 133.976 175.153 134.097 175.249C134.157 175.297 134.205 175.336 134.238 175.363L134.277 175.396L134.289 175.405L134.292 175.408L134.293 175.409L134.294 175.41C134.294 175.41 134.294 175.41 133.647 176.172Z" stroke="white" stroke-width="2" stroke-miterlimit="10"/>
    <path d="M48.7449 234.052C45.9329 235.142 43.0771 234.237 40.7028 231.545C39.4042 230.044 38.5083 228.24 38.0987 226.301C37.3083 222.578 37.5696 218.711 38.8537 215.127C30.8554 211.998 19.6949 212.206 8.65485 216.413L7.38562 213.143C19.2026 208.63 31.304 208.477 40.2104 211.998C44.3901 203.408 53.5154 195.494 65.4527 190.937L66.7219 194.207C55.8022 198.404 47.2787 205.763 43.4382 213.492C47.0293 215.401 49.9581 218.345 51.8414 221.94C52.4651 223.205 52.8366 224.579 52.9355 225.985C53.3185 229.942 51.7648 232.896 48.7449 234.052ZM42.1033 216.741C41.1333 219.579 40.9444 222.624 41.5562 225.56C41.8438 226.904 42.4644 228.156 43.3616 229.201C45.4186 231.534 46.9614 230.945 47.4757 230.749C48.9856 230.171 49.664 228.645 49.4561 226.214C49.3706 225.264 49.1032 224.338 48.6683 223.488C47.1744 220.659 44.8956 218.316 42.1033 216.741V216.741Z" fill="white"/>
    <path d="M15.7997 221.995C14.7712 219.586 19.2463 221.886 22.8899 220.338C26.5334 218.79 27.9886 214.004 29.0171 216.424C30.0457 218.844 27.923 222.038 24.2685 223.586C20.614 225.134 16.8282 224.415 15.7997 221.995Z" fill="white"/>
    <path d="M53.2527 207.693C52.2242 205.272 56.6884 207.573 60.3429 206.035C63.9974 204.498 65.4417 199.691 66.4593 202.111C67.4768 204.531 65.3651 207.736 61.7215 209.273C58.078 210.81 54.2813 210.102 53.2527 207.693Z" fill="white"/>
  </g>
  <path d="M364.976 59.4086C364.976 49.1178 365.812 37.7666 359.805 28.0929C342.418 0.0915889 250.016 4.58577 211.676 4.58577C185.626 4.58577 151.363 -1.23225 126.624 4.5858C100.298 10.7773 70.8619 8.32345 56.2257 24.99C43.0237 40.0233 43.491 75.261 52.0118 93.8965C54.8652 100.137 58.4842 104.923 62.4666 110.734C72.5132 125.392 60.1938 142.83 60.1938 158.683C60.1938 161.943 58.4402 168.601 62.2394 171.169C66.5467 174.081 82.0091 152.238 82.4673 151.485C87.3334 143.487 96.5072 135.759 109.798 134.932C146.002 132.679 178.811 146.829 214.403 145.71C254.124 144.46 288.822 138.485 325.088 127.571C348.46 120.537 355.041 105.653 361.908 89.5041C366.076 79.7012 364.976 69.5423 364.976 59.4086Z" stroke="white" stroke-width="3" stroke-linecap="round"/>
  <defs>
    <linearGradient id="paint0_linear_360_1407" x1="64.7304" y1="21.5447" x2="316.436" y2="-0.359202" gradientUnits="userSpaceOnUse">
      <stop stop-color="#FFA51E"/>
      <stop offset="0.228751" stop-color="#DDCAE2"/>
      <stop offset="0.468349" stop-color="#A9F0FF"/>
      <stop offset="0.635025" stop-color="#FFF84F"/>
      <stop offset="0.832954" stop-color="#E6FFB2"/>
      <stop offset="1" stop-color="#3B2AFF"/>
    </linearGradient>
    <clipPath id="clip0_360_1407">
      <rect width="175" height="164" fill="white" transform="translate(0 138)"/>
    </clipPath>
  </defs>
</svg>
