<svg viewBox="0 0 224 248" fill="none" xmlns="http://www.w3.org/2000/svg">
  <path d="M87.4883 123.799C86.6217 125.289 86.2624 127.02 86.4645 128.732C86.6666 130.444 87.4192 132.044 88.609 133.291C89.7987 134.537 91.3612 135.363 93.0612 135.644C94.7611 135.925 96.5065 135.646 98.0344 134.848L95.4492 133.33C95.1656 136.92 95.9188 140.113 99.0657 142.23C102.039 144.225 105.791 143.945 108.943 142.571C111.001 141.674 109.278 138.645 107.23 139.562C105.182 140.479 102.704 140.569 100.824 139.253C98.7605 137.82 98.7068 135.638 98.9187 133.37C99.0241 131.969 97.4183 131.33 96.3284 131.841C92.3964 133.703 88.4454 129.369 90.4763 125.594C91.5328 123.629 88.5401 121.849 87.4836 123.813L87.4883 123.799Z" fill="black"/>
  <path d="M136.727 90.3958L136.72 90.3937C132.915 89.2972 128.941 91.4946 127.844 95.3016L126.34 100.522C125.243 104.329 127.438 108.304 131.242 109.401L131.25 109.403C135.055 110.499 139.028 108.302 140.125 104.495L141.63 99.2743C142.727 95.4673 140.532 91.4923 136.727 90.3958Z" fill="black"/>
  <path d="M85.1907 72.8956L85.1832 72.8935C81.3785 71.797 77.4048 73.9944 76.3077 77.8014L74.8032 83.0219C73.7061 86.8289 75.9011 90.8039 79.7058 91.9004L79.7133 91.9025C83.518 92.999 87.4916 90.8016 88.5888 86.9946L90.0932 81.7741C91.1903 77.9671 88.9954 73.9921 85.1907 72.8956Z" fill="black"/>
  <path d="M169.887 97.7273C162.796 95.9311 155.698 94.1874 148.604 92.4311C145.406 91.6381 142.263 90.6567 139.107 89.7193C134.667 88.4197 130.253 86.9776 125.772 85.8161C123.567 85.2445 121.29 85.0727 119.092 85.3122C111.698 86.0509 106.729 91.4452 103.899 96.8111C101.58 101.159 99.9481 105.8 99.0436 110.621C98.5818 113.17 98.1013 116.478 100.035 118.897C100.812 119.922 101.971 120.702 103.294 121.092C105.001 121.591 106.378 120.584 107.376 119.615C109.953 116.981 112.127 114.059 113.85 110.913C115.908 107.236 117.359 103.29 118.162 99.1802C118.839 95.8961 119.077 92.3609 117.733 89.01C116.912 86.6254 115.238 84.4618 112.962 82.8433C110.763 81.5137 108.429 80.3738 106 79.4423C98.7623 76.3971 91.3763 73.8603 83.8933 71.3769C77.6346 69.2928 71.3448 67.3154 65.0456 65.3421L62.8142 64.6344C59.9462 63.7131 58.8513 67.4814 61.7118 68.4005C66.5847 69.9699 71.4797 71.4641 76.3527 73.0336C83.6238 75.38 90.8747 77.7955 98.0148 80.4783C99.6551 81.0948 101.284 81.7216 102.904 82.3798L103.94 82.7851C104.262 82.8794 103.535 82.6122 103.843 82.7566L104.081 82.8603L104.629 83.0959C105.294 83.3792 105.948 83.6728 106.607 83.9748C107.685 84.4663 108.738 85.002 109.763 85.5799C110.168 85.8075 110.556 86.0642 110.946 86.3147C111.336 86.5651 110.516 85.9503 110.991 86.3278L111.38 86.6664C111.853 87.0775 111.186 86.3848 111.38 86.6664C111.573 86.9481 111.842 87.2516 112.049 87.544C112.433 88.0842 112.78 88.641 113.089 89.2113C112.895 88.8478 113.046 89.1373 113.135 89.3337L113.315 89.7474C113.445 90.0787 113.561 90.4056 113.658 90.7406C113.755 91.0757 113.82 91.3809 113.906 91.6991C113.991 92.0172 113.876 91.411 113.927 91.7938C113.954 92.0062 113.991 92.2145 114.01 92.4248C114.091 93.1551 114.119 93.8848 114.094 94.6096C114.076 95.0041 114.05 95.3985 114.016 95.7929C113.99 95.8807 113.937 96.4512 113.977 96.122C113.912 96.3417 113.914 96.5874 113.872 96.8137C113.512 98.8534 112.988 100.856 112.304 102.808C111.903 104.013 111.473 105.202 110.991 106.376L110.838 106.734C110.777 106.941 110.624 107.189 110.805 106.847C110.633 107.185 110.463 107.516 110.283 107.852C109.463 109.35 108.534 110.802 107.552 112.211C106.57 113.621 105.577 114.904 104.464 116.18C104.219 116.463 104.687 115.973 104.345 116.309L104.036 116.614C103.83 116.817 103.611 117.01 103.379 117.191C103.288 117.27 103.189 117.341 103.081 117.404C103.081 117.404 103.624 117.161 103.234 117.299C102.844 117.437 103.402 117.253 103.505 117.235C103.238 117.286 103.964 117.22 103.916 117.219L104.337 117.281C104.254 117.257 104.157 117.228 104.067 117.202C103.73 117.103 104.611 117.511 104.269 117.261C104.193 117.213 104.113 117.172 104.029 117.136C103.651 116.957 104.067 117.147 104.148 117.232C104.035 117.098 103.9 116.978 103.748 116.877C103.748 116.877 104.057 117.321 103.86 116.992L103.68 116.721C103.491 116.447 103.627 116.569 103.714 116.826C103.685 116.729 103.631 116.638 103.593 116.545C103.517 116.305 103.467 116.059 103.38 115.801C103.292 115.544 103.415 116.207 103.365 115.852C103.359 115.707 103.33 115.555 103.314 115.414C103.286 115.093 103.275 114.769 103.272 114.448C103.268 114.126 103.291 113.772 103.321 113.447C103.33 113.279 103.353 113.115 103.362 112.948C103.362 112.948 103.405 112.633 103.385 112.866C103.366 113.099 103.428 112.722 103.439 112.684C103.586 111.766 103.77 110.859 103.993 109.957C104.574 107.571 105.302 105.225 106.172 102.928C106.922 100.921 107.873 98.9882 109.018 97.151C109.522 96.3429 110.077 95.5613 110.679 94.8091C110.922 94.5056 111.18 94.2064 111.439 93.9072C111.453 93.8569 111.702 93.6164 111.45 93.8695C111.518 93.8011 111.58 93.7304 111.647 93.6682L112.099 93.2076C112.653 92.6661 113.25 92.158 113.885 91.6862C114.166 91.4755 114.451 91.2795 114.744 91.0857C114.915 90.9723 115.131 90.8448 114.816 91.032L115.344 90.7298C115.895 90.4327 116.47 90.1663 117.065 89.932C117.348 89.8242 117.628 89.7289 117.917 89.6296C118.378 89.4715 117.594 89.7054 117.917 89.6296C118.074 89.5937 118.218 89.5472 118.365 89.5154C118.924 89.3804 119.497 89.2794 120.08 89.213C120.332 89.1846 120.608 89.1838 120.857 89.1407C121.105 89.0975 120.302 89.1486 120.733 89.1455L121.143 89.1358C121.634 89.1289 122.129 89.1462 122.623 89.1875C122.845 89.2071 123.066 89.2308 123.285 89.2586L123.583 89.298C124.114 89.3717 123.559 89.3796 123.448 89.2585C123.596 89.3905 124.336 89.4437 124.57 89.5054C125.634 89.8166 126.704 90.13 127.767 90.4412L134.843 92.5122C138.586 93.608 142.297 94.8168 146.111 95.8105C150.853 97.0488 155.628 98.1467 160.376 99.3388C163.172 100.034 165.964 100.743 168.756 101.451C169.352 101.625 169.981 101.594 170.506 101.364C171.031 101.135 171.407 100.725 171.554 100.225C171.7 99.726 171.603 99.1778 171.285 98.7014C170.968 98.2249 170.454 97.8593 169.859 97.685L169.887 97.7273Z" fill="black"/>
  <path d="M78.3607 206.729C77.6227 205.339 76.9907 203.895 76.47 202.409C76.714 203.053 76.4469 202.328 76.3959 202.18L76.1639 201.499C75.9828 200.965 75.8092 200.434 75.6454 199.898C75.2926 198.776 74.9644 197.654 74.646 196.527C73.1394 191.01 71.8858 185.394 70.7998 179.766C68.1918 166.597 66.4387 153.274 65.5514 139.878C65.1589 134.306 65.0981 128.716 65.3693 123.136C65.6497 118.357 66.189 113.562 66.6916 108.804C67.4194 102.605 68.2253 96.4005 69.1092 90.1912C69.5252 87.1931 69.9725 84.1994 70.4511 81.2104C70.671 79.8272 70.8984 78.4464 71.1333 77.0679L71.285 76.0591C71.3375 75.8955 71.4381 75.1736 71.3499 75.6782C71.4637 75.0425 71.5776 74.4068 71.699 73.7735C72.9598 67.2917 74.8141 60.9265 76.5103 54.5435C78.9271 45.4813 81.0129 36.1736 84.68 27.5044C85.5728 25.4107 86.5884 23.3714 87.7214 21.3973L84.0237 21.6863C88.5568 27.3467 93.1276 33.0685 96.7821 39.3733C98.5561 42.3732 100.053 45.529 101.253 48.8014C101.858 50.5133 102.356 52.2612 102.744 54.0349C103.036 55.8847 103.479 57.7074 104.068 59.4851C105.641 63.4414 110.238 65.2774 113.824 66.9448C117.769 68.7803 121.898 70.188 126.143 71.1441C128.343 71.6442 130.567 72.0324 132.807 72.3074C134.897 72.5601 137.131 72.8753 139.11 71.969C140.73 71.21 141.952 69.7249 143.137 68.4327C144.322 67.1406 145.564 65.7194 146.753 64.3383C152 58.2011 157.171 51.4576 163.995 46.9662L160.642 45.39C164.021 62.9444 164.046 80.9147 163.397 98.7421C162.912 112.302 162.217 125.827 160.407 139.282C159.183 148.202 157.706 157.09 156.225 165.969C156.019 167.223 157.317 168.361 158.465 168.41C159.082 168.42 159.679 168.194 160.133 167.776C160.587 167.359 160.864 166.783 160.905 166.168C163.275 151.917 165.698 137.651 166.827 123.232C167.407 116.04 167.703 108.913 167.987 101.748C168.322 92.7641 168.613 83.7904 168.312 74.7986C168.084 64.5904 167.047 54.4166 165.213 44.3728C164.954 43.0107 163.116 41.9701 161.857 42.804C155.64 46.8589 150.809 52.4409 146.042 58.0271C143.833 60.5972 141.624 63.2415 139.295 65.6994C138.244 66.805 137.457 67.9297 135.845 67.8715C133.834 67.7752 131.832 67.5382 129.854 67.1622C125.802 66.4109 121.838 65.2459 118.024 63.6855C116.145 62.9278 114.311 62.0653 112.528 61.1018C111.133 60.3426 109.333 59.5436 108.592 58.0512C107.85 56.5588 107.767 54.9009 107.437 53.352C107.068 51.6268 106.599 49.9244 106.034 48.2533C104.846 44.8088 103.351 41.4782 101.567 38.3018C97.6226 31.24 92.5608 24.8524 87.51 18.5585C87.2708 18.2909 86.9732 18.0819 86.6403 17.9478C86.3074 17.8136 85.9481 17.7579 85.5902 17.7849C85.2323 17.8118 84.8853 17.9208 84.5761 18.1034C84.267 18.2859 84.0039 18.5372 83.8072 18.8376C78.9709 27.2954 76.437 36.6971 73.9713 46.0141L70.1949 60.2065C69.406 63.1752 68.5529 66.1397 67.9076 69.1463C65.4438 80.6528 63.9679 92.4764 62.5641 104.126C61.9221 109.446 61.3171 114.777 60.8876 120.124C60.5071 125.175 60.4287 130.245 60.6528 135.305C61.2873 149.029 62.8616 162.693 65.3646 176.201C66.4427 182.237 67.6736 188.256 69.1849 194.193C70.1942 198.561 71.5617 202.839 73.2735 206.982C73.5466 207.643 73.8534 208.288 74.1929 208.917C75.6701 211.539 79.8361 209.408 78.3538 206.776L78.3607 206.729Z" fill="black"/>
</svg>
