<svg width="17" height="16" viewBox="0 0 17 16" fill="none" xmlns="http://www.w3.org/2000/svg">
<path d="M14.5533 5.7197V10.2797C14.5533 11.0263 14.1533 11.7197 13.5066 12.0997L9.54661 14.3864C8.89994 14.7597 8.09994 14.7597 7.44661 14.3864L3.48661 12.0997C2.83994 11.7264 2.43994 11.033 2.43994 10.2797V5.7197C2.43994 4.97303 2.83994 4.27967 3.48661 3.89967L7.44661 1.61301C8.09328 1.23967 8.89327 1.23967 9.54661 1.61301L13.5066 3.89967C14.1533 4.27967 14.5533 4.96636 14.5533 5.7197Z" stroke="#4E51F4" stroke-linecap="round" stroke-linejoin="round"/>
<path d="M8.49987 7.33321C9.35775 7.33321 10.0532 6.63775 10.0532 5.77987C10.0532 4.92198 9.35775 4.22656 8.49987 4.22656C7.64198 4.22656 6.94653 4.92198 6.94653 5.77987C6.94653 6.63775 7.64198 7.33321 8.49987 7.33321Z" stroke="#4E51F4" stroke-linecap="round" stroke-linejoin="round"/>
<path d="M11.1666 11.1069C11.1666 9.90689 9.97325 8.93359 8.49992 8.93359C7.02659 8.93359 5.83325 9.90689 5.83325 11.1069" stroke="#4E51F4" stroke-linecap="round" stroke-linejoin="round"/>
</svg>
