<svg viewBox="0 0 20 20" fill="none" xmlns="http://www.w3.org/2000/svg">
    <path d="M10.0013 13.0833V13.175C10.0013 13.4083 9.81797 13.5917 9.58464 13.5917H2.08464C1.8513 13.5917 1.66797 13.4083 1.66797 13.175V13.0833C1.66797 11.6167 2.03464 11.25 3.51797 11.25H8.1513C9.63463 11.25 10.0013 11.6167 10.0013 13.0833Z" fill="currentColor"/>
    <path d="M2.08464 14.4248C1.8513 14.4248 1.66797 14.6081 1.66797 14.8415V15.6748V16.4998C1.66797 17.9665 2.03464 18.3331 3.51797 18.3331H8.1513C9.63463 18.3331 10.0013 17.9665 10.0013 16.4998V15.6748V14.8415C10.0013 14.6081 9.81797 14.4248 9.58464 14.4248H2.08464Z" fill="currentColor"/>
    <path d="M18.3333 12.5C18.3333 15.725 15.725 18.3333 12.5 18.3333L13.375 16.875" stroke="currentColor" stroke-width="1.5" stroke-linecap="round" stroke-linejoin="round"/>
    <path d="M1.66797 7.49984C1.66797 4.27484 4.2763 1.6665 7.5013 1.6665L6.6263 3.12484" stroke="currentColor" stroke-width="1.5" stroke-linecap="round" stroke-linejoin="round"/>
    <path d="M15.418 9.1665C17.489 9.1665 19.168 7.48757 19.168 5.4165C19.168 3.34544 17.489 1.6665 15.418 1.6665C13.3469 1.6665 11.668 3.34544 11.668 5.4165C11.668 7.48757 13.3469 9.1665 15.418 9.1665Z" fill="currentColor"/>
</svg>
