<svg viewBox="0 0 21 20" fill="none" xmlns="http://www.w3.org/2000/svg">
    <path d="M18.8073 4.58366V7.91699C18.8073 9.35639 17.766 10.5555 16.3884 10.7915C16.1163 10.8382 15.8906 10.6098 15.8906 10.3337V10.2087C15.8906 7.10866 13.374 4.58366 10.2656 4.58366H10.1406C9.86448 4.58366 9.63614 4.35801 9.68312 4.08589C9.91998 2.71386 11.1186 1.66699 12.5573 1.66699H15.8906C17.5073 1.66699 18.8073 2.97533 18.8073 4.58366Z" fill="currentColor"/>
    <path d="M10.2656 5.83301H9.64062H6.30729C4.00729 5.83301 2.14062 7.69967 2.14062 9.99967V14.1663C2.14062 16.4663 4.00729 18.333 6.30729 18.333H10.474C12.774 18.333 14.6406 16.4663 14.6406 14.1663V10.833V10.208C14.6406 7.79134 12.6823 5.83301 10.2656 5.83301Z" fill="currentColor"/>
</svg>
