<svg viewBox="0 0 20 20" fill="none" xmlns="http://www.w3.org/2000/svg">
    <path d="M12.9938 2.52217C12.2336 1.70146 11.1719 1.24951 10 1.24951C8.82191 1.24951 7.75668 1.69873 7.00004 2.51435C6.23519 3.33896 5.86254 4.45967 5.95004 5.66982C6.12348 8.05732 7.94027 9.99951 10 9.99951C12.0598 9.99951 13.8735 8.05771 14.0496 5.6706C14.1383 4.47139 13.7633 3.35303 12.9938 2.52217Z" fill="currentColor"/>
    <path d="M16.8752 18.749H3.12522C2.94525 18.7514 2.76701 18.7136 2.60349 18.6383C2.43997 18.5631 2.29526 18.4524 2.17991 18.3143C1.926 18.0107 1.82366 17.5963 1.89944 17.1771C2.22913 15.3482 3.25804 13.8119 4.87522 12.7334C6.31194 11.776 8.13186 11.249 10.0002 11.249C11.8686 11.249 13.6885 11.7764 15.1252 12.7334C16.7424 13.8115 17.7713 15.3478 18.101 17.1768C18.1768 17.5959 18.0744 18.0103 17.8205 18.3139C17.7052 18.4521 17.5605 18.5629 17.397 18.6382C17.2335 18.7134 17.0552 18.7513 16.8752 18.749Z" fill="currentColor"/>
</svg>
