<svg viewBox="0 0 124 28" fill="none" xmlns="http://www.w3.org/2000/svg">
  <path d="M56.3391 16.8602C56.3391 14.8004 55.1459 13.6704 53.2784 13.6704C51.411 13.6704 50.1998 14.8004 50.1998 16.8602V25.4053H45.3552V16.8602C45.3552 14.8004 44.1619 13.6704 42.3005 13.6704C40.439 13.6704 39.2398 14.8004 39.2398 16.8602V25.4053H34.3474V9.66265H39.2398V11.6401C39.7877 10.9431 40.4963 10.3852 41.3067 10.0126C42.1171 9.64006 43.006 9.46359 43.8994 9.49787C44.9918 9.44998 46.0765 9.6991 47.035 10.218C47.9935 10.737 48.7891 11.5058 49.3347 12.4404C49.9087 11.546 50.7011 10.8079 51.6392 10.2938C52.5773 9.77974 53.6312 9.50606 54.7044 9.49787C58.6481 9.49787 61.1957 11.9755 61.1957 16.2069V25.4053H56.3332L56.3391 16.8602Z" fill="#231815"/>
  <path d="M70.1119 9.43899C71.0779 9.39045 72.04 9.59129 72.9032 10.0217C73.7664 10.4521 74.5009 11.0971 75.0341 11.8931V9.66262H79.9204V25.4053H75.0341V23.1631C74.4919 23.9573 73.7514 24.6003 72.884 25.0301C72.0167 25.46 71.0517 25.6622 70.0821 25.6172C66.192 25.6172 63.0776 22.4627 63.0776 17.4957C63.0776 12.5287 66.192 9.43899 70.1119 9.43899ZM71.5438 13.641C69.7121 13.641 68.0535 14.9945 68.0535 17.5075C68.0535 20.0204 69.7121 21.427 71.5438 21.427C73.3754 21.427 75.0341 20.044 75.0341 17.5369C75.0341 15.0298 73.3993 13.641 71.5438 13.641Z" fill="#231815"/>
  <path d="M82.4468 5.43108C82.4468 3.96568 83.64 2.80631 85.3643 2.80631C85.731 2.78147 86.0989 2.83067 86.4457 2.95088C86.7924 3.0711 87.1107 3.25982 87.381 3.5055C87.6513 3.75118 87.8679 4.04866 88.0177 4.37974C88.1674 4.71083 88.2471 5.06856 88.252 5.43108C88.2448 5.79161 88.1633 6.14694 88.0124 6.47536C87.8614 6.80379 87.6442 7.09843 87.374 7.3413C87.1037 7.58417 86.7862 7.77018 86.4406 7.88797C86.0951 8.00576 85.7289 8.05287 85.3643 8.02641C83.5983 8.02641 82.4468 6.87293 82.4468 5.43108ZM82.9002 9.66248H87.7926V25.4052H82.9002V9.66248Z" fill="#231815"/>
  <path d="M91.3186 4.53064H96.211V25.4051H91.3186V4.53064Z" fill="#231815"/>
  <path d="M104.908 6.72009C108.79 6.72009 110.879 8.94866 110.879 11.7315C110.917 12.6292 110.666 13.5152 110.164 14.259C109.661 15.0028 108.935 15.565 108.09 15.863V15.9601C109.935 16.5715 111.193 17.9887 111.193 20.4172C111.193 23.5315 108.973 25.7601 105.113 25.7601C101.254 25.7601 98.5102 23.9372 98.385 19.7601H102.569C102.597 21.2001 103.377 22.1658 104.965 22.1658C105.243 22.1883 105.522 22.15 105.783 22.0533C106.044 21.9567 106.282 21.8041 106.478 21.6062C106.675 21.4083 106.826 21.1697 106.922 20.9072C107.017 20.6446 107.055 20.3644 107.032 20.0858C107.032 18.4401 106.047 17.8001 103.804 17.8001H102.996V14.2744H103.804C105.267 14.2744 106.679 13.9144 106.679 12.2458C106.705 11.9892 106.674 11.7299 106.589 11.4865C106.503 11.2431 106.366 11.0218 106.185 10.8383C106.004 10.6547 105.785 10.5136 105.544 10.425C105.303 10.3364 105.045 10.3025 104.789 10.3258C103.4 10.3258 102.899 11.3372 102.819 12.3487H98.6127C98.7607 8.70295 101.134 6.72009 104.908 6.72009Z" fill="#231815"/>
  <path d="M13.2858 21.7043C13.7512 22.9503 14.4672 22.9503 14.7024 22.9503C15.4031 22.9503 15.9094 22.4459 16.206 21.437C16.3219 21.0443 16.3584 20.6329 16.3134 20.2263C16.1511 18.8676 15.5954 17.5839 14.7127 16.5287C13.878 17.5132 13.3284 18.7019 13.1222 19.969C13.0262 20.5518 13.0825 21.149 13.2858 21.7043Z" fill="#4E51F4"/>
  <path d="M14.6767 14.3091C17.5253 11.696 22.0512 9.97588 27.1857 9.76905C27.2906 9.76641 27.3903 9.72309 27.463 9.6485C27.5358 9.5739 27.5758 9.47404 27.5744 9.37054V2.9489C27.5702 2.71079 27.4993 2.47846 27.3696 2.27761C27.2399 2.07675 27.0564 1.91519 26.8394 1.81078C26.6224 1.70637 26.3804 1.66318 26.14 1.68599C25.8997 1.70879 25.6705 1.7967 25.4776 1.94L14.6819 10.0112L3.88095 1.97026C3.68638 1.82573 3.45479 1.73761 3.21223 1.7158C2.96967 1.69399 2.72574 1.73936 2.50789 1.8468C2.29003 1.95425 2.10688 2.11951 1.97903 2.32401C1.85119 2.52851 1.78371 2.76413 1.78418 3.00439V9.40585C1.78664 9.50906 1.82861 9.60752 1.90166 9.68145C1.97472 9.75538 2.07343 9.79929 2.17797 9.80436C7.28692 9.99605 11.8129 11.7263 14.6767 14.3091Z" fill="#4E51F4"/>
  <path d="M15.7508 15.439C16.9052 16.7428 17.6326 18.3607 17.8373 20.0799C17.9044 20.683 17.8505 21.2932 17.6788 21.8758C17.1674 23.5253 16.1036 24.4687 14.7024 24.4687C13.3983 24.4687 12.3857 23.6767 11.8436 22.2339C11.5544 21.443 11.4718 20.5929 11.6032 19.7621C11.8611 18.153 12.5696 16.6469 13.6489 15.4138C10.9896 13.0076 6.6784 11.4185 1.80981 11.2823L1.84561 23.8583C1.84628 24.1804 1.91144 24.4993 2.03734 24.7965C2.16325 25.0937 2.34743 25.3635 2.57931 25.5904C2.81119 25.8172 3.0862 25.9967 3.38857 26.1184C3.69093 26.2402 4.0147 26.3018 4.34128 26.2998H25.1351C25.4619 26.2998 25.7855 26.2362 26.0874 26.1127C26.3893 25.9892 26.6635 25.8082 26.8943 25.58C27.1252 25.3518 27.3082 25.0809 27.4328 24.7829C27.5574 24.4849 27.6212 24.1655 27.6205 23.8431L27.5847 11.3076C22.7519 11.4236 18.405 13.0277 15.7508 15.439Z" fill="#4E51F4"/>
</svg>
