<svg width="97" height="24" viewBox="0 0 97 24" fill="none" xmlns="http://www.w3.org/2000/svg">
  <path d="M48.1607 14.4515C48.1607 12.6859 47.1407 11.7174 45.5443 11.7174C43.9479 11.7174 42.9126 12.6859 42.9126 14.4515V21.7759H38.7712V14.4515C38.7712 12.6859 37.7512 11.7174 36.1599 11.7174C34.5686 11.7174 33.5435 12.6859 33.5435 14.4515V21.7759H29.3613V8.28217H33.5435V9.97709C34.0119 9.37972 34.6176 8.9015 35.3104 8.58215C36.0032 8.26281 36.763 8.11155 37.5268 8.14093C38.4605 8.09988 39.3878 8.31342 40.2072 8.75822C41.0266 9.20302 41.7066 9.86198 42.1731 10.6631C42.6637 9.89646 43.3411 9.26383 44.143 8.82318C44.9449 8.38253 45.8459 8.14795 46.7632 8.14093C50.1345 8.14093 52.3123 10.2646 52.3123 13.8915V21.7759H48.1556L48.1607 14.4515Z" fill="#231815"/>
  <path d="M59.934 8.0905C60.7598 8.0489 61.5822 8.22105 62.3201 8.58994C63.0581 8.95884 63.6859 9.51173 64.1417 10.194V8.28219H68.3188V21.7759H64.1417V19.854C63.6782 20.5347 63.0453 21.0859 62.3038 21.4543C61.5623 21.8228 60.7374 21.9961 59.9085 21.9575C56.5832 21.9575 53.9209 19.2537 53.9209 14.9963C53.9209 10.7388 56.5832 8.0905 59.934 8.0905ZM61.1581 11.6922C59.5923 11.6922 58.1745 12.8524 58.1745 15.0064C58.1745 17.1603 59.5923 18.3659 61.1581 18.3659C62.7239 18.3659 64.1417 17.1805 64.1417 15.0316C64.1417 12.8827 62.7443 11.6922 61.1581 11.6922Z" fill="#231815"/>
  <path d="M70.4785 4.65516C70.4785 3.39911 71.4986 2.40536 72.9725 2.40536C73.286 2.38407 73.6005 2.42624 73.8969 2.52928C74.1934 2.63233 74.4654 2.79408 74.6965 3.00467C74.9275 3.21525 75.1127 3.47023 75.2407 3.75402C75.3688 4.0378 75.4369 4.34443 75.441 4.65516C75.4349 4.96419 75.3652 5.26876 75.2362 5.55026C75.1072 5.83177 74.9215 6.08432 74.6905 6.29249C74.4595 6.50067 74.188 6.6601 73.8926 6.76107C73.5973 6.86203 73.2842 6.90241 72.9725 6.87974C71.4629 6.87974 70.4785 5.89104 70.4785 4.65516ZM70.8661 8.28207H75.0483V21.7758H70.8661V8.28207Z" fill="#231815"/>
  <path d="M78.0625 3.88336H82.2447V21.7758H78.0625V3.88336Z" fill="#231815"/>
  <path d="M89.6799 5.75998C92.9985 5.75998 94.7843 7.67018 94.7843 10.0555C94.8161 10.825 94.6016 11.5844 94.1723 12.2219C93.7431 12.8594 93.1218 13.3414 92.3999 13.5967V13.68C93.9765 14.2041 95.0519 15.4188 95.0519 17.5004C95.0519 20.1698 93.1542 22.08 89.8551 22.08C86.556 22.08 84.2106 20.5175 84.1035 16.9371H87.68C87.7043 18.1714 88.3709 18.9992 89.7285 18.9992C89.9658 19.0185 90.2044 18.9856 90.4277 18.9027C90.6511 18.8199 90.8538 18.6891 91.0219 18.5195C91.19 18.3498 91.3193 18.1454 91.401 17.9203C91.4827 17.6953 91.5147 17.4551 91.4949 17.2163C91.4949 15.8057 90.6531 15.2571 88.7359 15.2571H88.0449V12.2351H88.7359C89.9864 12.2351 91.1932 11.9265 91.1932 10.4963C91.2156 10.2763 91.1894 10.0541 91.1164 9.84547C91.0435 9.63688 90.9256 9.44713 90.7711 9.28983C90.6167 9.13252 90.4296 9.01156 90.2233 8.93562C90.017 8.85968 89.7965 8.83065 89.5777 8.85059C88.3904 8.85059 87.9622 9.71753 87.8941 10.5845H84.2982C84.4247 7.45957 86.4538 5.75998 89.6799 5.75998Z" fill="#231815"/>
  <path d="M11.3575 18.6037C11.7553 19.6717 12.3674 19.6717 12.5685 19.6717C13.1674 19.6717 13.6002 19.2393 13.8538 18.3745C13.9529 18.0379 13.9841 17.6853 13.9456 17.3368C13.8069 16.1722 13.3318 15.0719 12.5772 14.1674C11.8637 15.0113 11.3939 16.0301 11.2176 17.1163C11.1356 17.6158 11.1837 18.1277 11.3575 18.6037Z" fill="#4E51F4"/>
  <path d="M12.5464 12.2649C14.9815 10.0251 18.8504 8.55071 23.2396 8.37343C23.3293 8.37116 23.4145 8.33404 23.4767 8.2701C23.5388 8.20616 23.5731 8.12056 23.5719 8.03185V2.52758C23.5683 2.32349 23.5077 2.12435 23.3968 1.95219C23.2859 1.78003 23.129 1.64155 22.9436 1.55206C22.7581 1.46256 22.5512 1.42554 22.3457 1.44509C22.1403 1.46464 21.9443 1.53999 21.7795 1.66281L12.5508 8.58097L3.31779 1.68875C3.15146 1.56487 2.9535 1.48934 2.74614 1.47064C2.53879 1.45195 2.33028 1.49083 2.14404 1.58293C1.95781 1.67503 1.80125 1.81668 1.69196 1.99196C1.58267 2.16725 1.52499 2.36921 1.52539 2.57514V8.06211C1.52749 8.15058 1.56337 8.23498 1.62582 8.29834C1.68827 8.36171 1.77265 8.39935 1.86201 8.4037C6.22934 8.568 10.0983 10.0511 12.5464 12.2649Z" fill="#4E51F4"/>
  <path d="M13.4641 13.2334C14.451 14.351 15.0728 15.7377 15.2478 17.2114C15.3051 17.7283 15.2591 18.2513 15.1123 18.7507C14.6751 20.1646 13.7658 20.9731 12.5679 20.9731C11.4531 20.9731 10.5876 20.2943 10.1242 19.0577C9.87696 18.3797 9.8063 17.6511 9.91868 16.939C10.1391 15.5597 10.7447 14.2688 11.6674 13.2118C9.39408 11.1494 5.70873 9.78734 1.54688 9.67059L1.57748 20.45C1.57805 20.7261 1.63375 20.9994 1.74138 21.2541C1.84901 21.5089 2.00645 21.7402 2.20467 21.9346C2.40289 22.1291 2.63798 22.2829 2.89646 22.3872C3.15493 22.4916 3.43169 22.5444 3.71087 22.5427H21.4862C21.7656 22.5427 22.0422 22.4882 22.3003 22.3823C22.5583 22.2765 22.7928 22.1213 22.9901 21.9257C23.1875 21.7301 23.3439 21.4979 23.4504 21.2425C23.5569 20.987 23.6114 20.7133 23.6108 20.437L23.5802 9.69221C19.449 9.79166 15.733 11.1666 13.4641 13.2334Z" fill="#4E51F4"/>
  </svg>
