<svg viewBox="0 0 145 35" fill="none" xmlns="http://www.w3.org/2000/svg">
  <path d="M72.7074 21.0751C72.7074 18.5004 71.1675 17.0879 68.7575 17.0879C66.3475 17.0879 64.7845 18.5004 64.7845 21.0751V31.7566H58.5323V21.0751C58.5323 18.5004 56.9924 17.0879 54.5901 17.0879C52.1878 17.0879 50.6401 18.5004 50.6401 21.0751V31.7566H44.3264V12.0782H50.6401V14.55C51.3473 13.6788 52.2618 12.9814 53.3076 12.5157C54.3535 12.05 55.5006 11.8294 56.6536 11.8722C58.0633 11.8124 59.4631 12.1238 60.7001 12.7725C61.9372 13.4211 62.9638 14.3821 63.668 15.5504C64.4088 14.4324 65.4313 13.5098 66.642 12.8672C67.8527 12.2246 69.2128 11.8825 70.5977 11.8722C75.6872 11.8722 78.975 14.9693 78.975 20.2585V31.7566H72.6997L72.7074 21.0751Z" fill="white"/>
  <path d="M90.4815 11.7987C91.7281 11.738 92.9697 11.9891 94.0837 12.527C95.1977 13.065 96.1456 13.8713 96.8337 14.8663V12.0782H103.14V31.7566H96.8337V28.9538C96.134 29.9465 95.1784 30.7503 94.059 31.2876C92.9397 31.8249 91.6943 32.0776 90.443 32.0214C85.4228 32.0214 81.4036 28.0784 81.4036 21.8696C81.4036 15.6608 85.4228 11.7987 90.4815 11.7987ZM92.3294 17.0511C89.9656 17.0511 87.8251 18.7431 87.8251 21.8843C87.8251 25.0255 89.9656 26.7837 92.3294 26.7837C94.6932 26.7837 96.8337 25.0549 96.8337 21.9211C96.8337 18.7872 94.724 17.0511 92.3294 17.0511Z" fill="white"/>
  <path d="M106.4 6.78878C106.4 4.95704 107.94 3.50783 110.165 3.50783C110.638 3.47678 111.113 3.53827 111.561 3.68854C112.008 3.83882 112.419 4.07472 112.768 4.38181C113.117 4.68891 113.396 5.06076 113.59 5.47461C113.783 5.88847 113.886 6.33564 113.892 6.78878C113.883 7.23946 113.778 7.68361 113.583 8.09414C113.388 8.50468 113.108 8.87297 112.759 9.17656C112.41 9.48015 112 9.71266 111.554 9.8599C111.108 10.0071 110.636 10.066 110.165 10.033C107.886 10.033 106.4 8.5911 106.4 6.78878ZM106.985 12.078H113.299V31.7564H106.985V12.078Z" fill="white"/>
  <path d="M117.849 5.66321H124.163V31.7563H117.849V5.66321Z" fill="white"/>
  <path d="M135.388 8.40002C140.397 8.40002 143.093 11.1857 143.093 14.6643C143.141 15.7865 142.818 16.894 142.17 17.8237C141.522 18.7534 140.584 19.4562 139.494 19.8286V19.95C141.874 20.7143 143.497 22.4857 143.497 25.5215C143.497 29.4143 140.633 32.2 135.652 32.2C130.671 32.2 127.131 29.9215 126.969 24.7H132.368C132.405 26.5 133.411 27.7072 135.461 27.7072C135.819 27.7353 136.179 27.6874 136.517 27.5666C136.854 27.4458 137.16 27.255 137.414 27.0076C137.667 26.7602 137.863 26.4621 137.986 26.1339C138.109 25.8057 138.158 25.4554 138.128 25.1072C138.128 23.05 136.857 22.25 133.962 22.25H132.919V17.8429H133.962C135.85 17.8429 137.672 17.3929 137.672 15.3072C137.706 14.9864 137.666 14.6622 137.556 14.358C137.446 14.0538 137.268 13.7771 137.035 13.5477C136.802 13.3183 136.519 13.1419 136.208 13.0312C135.896 12.9204 135.564 12.8781 135.233 12.9072C133.441 12.9072 132.794 14.1715 132.692 15.4357H127.263C127.454 10.8786 130.517 8.40002 135.388 8.40002Z" fill="white"/>
  <path d="M17.1459 27.1303C17.7465 28.6878 18.6705 28.6878 18.9741 28.6878C19.8783 28.6878 20.5317 28.0573 20.9144 26.7961C21.0641 26.3053 21.1112 25.791 21.053 25.2828C20.8437 23.5845 20.1265 21.9798 18.9873 20.6608C17.9101 21.8914 17.2009 23.3772 16.9347 24.9612C16.8109 25.6896 16.8836 26.4362 17.1459 27.1303Z" fill="#4E51F4"/>
  <path d="M18.941 17.8863C22.6171 14.62 28.458 12.4698 35.0842 12.2112C35.2196 12.2079 35.3482 12.1538 35.4421 12.0605C35.536 11.9673 35.5876 11.8425 35.5858 11.7131V3.68603C35.5804 3.38839 35.4889 3.09799 35.3215 2.84692C35.1541 2.59585 34.9173 2.3939 34.6373 2.26339C34.3572 2.13288 34.0449 2.07889 33.7347 2.10739C33.4246 2.1359 33.1288 2.24578 32.8799 2.4249L18.9476 12.5139L5.00868 2.46274C4.75758 2.28208 4.45871 2.17192 4.14568 2.14466C3.83264 2.1174 3.51785 2.17411 3.2367 2.30841C2.95555 2.44272 2.71919 2.6493 2.5542 2.90492C2.38921 3.16054 2.30212 3.45507 2.30274 3.75539V11.7572C2.30591 11.8862 2.36008 12.0093 2.45435 12.1017C2.54863 12.1941 2.67602 12.249 2.81093 12.2554C9.40419 12.495 15.2451 14.6578 18.941 17.8863Z" fill="#4E51F4"/>
  <path d="M20.3269 19.2987C21.8168 20.9285 22.7555 22.9508 23.0197 25.0999C23.1062 25.8537 23.0367 26.6165 22.8151 27.3447C22.1551 29.4066 20.7823 30.5858 18.9739 30.5858C17.291 30.5858 15.9842 29.5958 15.2846 27.7924C14.9114 26.8037 14.8048 25.7411 14.9744 24.7027C15.3071 22.6912 16.2215 20.8086 17.6144 19.2672C14.1824 16.2594 8.61876 14.2732 2.33569 14.1029L2.38189 29.8228C2.38275 30.2255 2.46684 30.624 2.62933 30.9956C2.79182 31.3671 3.0295 31.7044 3.32875 31.9879C3.628 32.2715 3.98291 32.4958 4.37313 32.648C4.76334 32.8002 5.18116 32.8772 5.60262 32.8747H32.4377C32.8594 32.8747 33.2771 32.7953 33.6667 32.6409C34.0562 32.4865 34.4101 32.2602 34.7081 31.9749C35.006 31.6897 35.2421 31.3511 35.4029 30.9786C35.5637 30.606 35.6461 30.2069 35.6452 29.8039L35.599 14.1344C29.3621 14.2795 23.7522 16.2846 20.3269 19.2987Z" fill="#4E51F4"/>
</svg>
