<svg width="113" height="28" viewBox="0 0 113 28" fill="none" xmlns="http://www.w3.org/2000/svg">
  <path d="M56.3394 16.8602C56.3394 14.8004 55.1461 13.6704 53.2787 13.6704C51.4112 13.6704 50.2001 14.8004 50.2001 16.8602V25.4053H45.3554V16.8602C45.3554 14.8004 44.1622 13.6704 42.3007 13.6704C40.4392 13.6704 39.24 14.8004 39.24 16.8602V25.4053H34.3477V9.66265H39.24V11.6401C39.7879 10.9431 40.4966 10.3852 41.307 10.0126C42.1174 9.64006 43.0062 9.46359 43.8997 9.49787C44.992 9.44998 46.0767 9.6991 47.0352 10.218C47.9938 10.737 48.7893 11.5058 49.335 12.4404C49.9089 11.546 50.7013 10.8079 51.6394 10.2938C52.5776 9.77974 53.6315 9.50606 54.7046 9.49787C58.6483 9.49787 61.1959 11.9755 61.1959 16.2069V25.4053H56.3334L56.3394 16.8602Z" fill="#231815"/>
  <path d="M70.1124 9.43899C71.0783 9.39045 72.0404 9.59129 72.9037 10.0217C73.7669 10.4521 74.5014 11.0971 75.0346 11.8931V9.66262H79.9209V25.4053H75.0346V23.1631C74.4924 23.9573 73.7519 24.6003 72.8845 25.0301C72.0172 25.46 71.0522 25.6622 70.0825 25.6172C66.1925 25.6172 63.0781 22.4627 63.0781 17.4957C63.0781 12.5287 66.1925 9.43899 70.1124 9.43899ZM71.5443 13.641C69.7126 13.641 68.054 14.9945 68.054 17.5075C68.054 20.0204 69.7126 21.427 71.5443 21.427C73.3759 21.427 75.0346 20.044 75.0346 17.5369C75.0346 15.0298 73.3998 13.641 71.5443 13.641Z" fill="#231815"/>
  <path d="M82.4473 5.43108C82.4473 3.96568 83.6405 2.80631 85.3648 2.80631C85.7315 2.78147 86.0994 2.83067 86.4462 2.95088C86.7929 3.0711 87.1112 3.25982 87.3815 3.5055C87.6517 3.75118 87.8684 4.04866 88.0182 4.37974C88.1679 4.71083 88.2476 5.06856 88.2524 5.43108C88.2453 5.79161 88.1638 6.14694 88.0128 6.47536C87.8619 6.80379 87.6447 7.09843 87.3744 7.3413C87.1042 7.58417 86.7867 7.77018 86.4411 7.88797C86.0956 8.00576 85.7294 8.05287 85.3648 8.02641C83.5988 8.02641 82.4473 6.87293 82.4473 5.43108ZM82.9007 9.66248H87.7931V25.4052H82.9007V9.66248Z" fill="#231815"/>
  <path d="M91.3184 4.53064H96.2107V25.4051H91.3184V4.53064Z" fill="#231815"/>
  <path d="M104.908 6.72009C108.79 6.72009 110.879 8.94866 110.879 11.7315C110.916 12.6292 110.665 13.5152 110.163 14.259C109.661 15.0028 108.934 15.565 108.09 15.863V15.9601C109.934 16.5715 111.192 17.9887 111.192 20.4172C111.192 23.5315 108.972 25.7601 105.113 25.7601C101.254 25.7601 98.51 23.9372 98.3848 19.7601H102.569C102.597 21.2001 103.377 22.1658 104.965 22.1658C105.243 22.1883 105.522 22.15 105.783 22.0533C106.044 21.9567 106.281 21.8041 106.478 21.6062C106.675 21.4083 106.826 21.1697 106.921 20.9072C107.017 20.6446 107.054 20.3644 107.031 20.0858C107.031 18.4401 106.047 17.8001 103.804 17.8001H102.995V14.2744H103.804C105.267 14.2744 106.678 13.9144 106.678 12.2458C106.705 11.9892 106.674 11.7299 106.589 11.4865C106.503 11.2431 106.365 11.0218 106.185 10.8383C106.004 10.6547 105.785 10.5136 105.544 10.425C105.302 10.3364 105.044 10.3025 104.789 10.3258C103.4 10.3258 102.899 11.3372 102.819 12.3487H98.6125C98.7605 8.70295 101.134 6.72009 104.908 6.72009Z" fill="#231815"/>
  <path d="M13.2853 21.7043C13.7507 22.9503 14.4667 22.9503 14.7019 22.9503C15.4026 22.9503 15.9089 22.4459 16.2055 21.437C16.3214 21.0443 16.3579 20.6329 16.3129 20.2263C16.1506 18.8676 15.5949 17.5839 14.7122 16.5287C13.8775 17.5132 13.328 18.7019 13.1217 19.969C13.0257 20.5518 13.0821 21.149 13.2853 21.7043Z" fill="#4E51F4"/>
  <path d="M14.6767 14.3091C17.5253 11.696 22.0512 9.97588 27.1857 9.76905C27.2906 9.76641 27.3903 9.72309 27.463 9.6485C27.5358 9.5739 27.5758 9.47404 27.5744 9.37054V2.9489C27.5702 2.71079 27.4993 2.47846 27.3696 2.27761C27.2399 2.07675 27.0564 1.91519 26.8394 1.81078C26.6224 1.70637 26.3804 1.66318 26.14 1.68599C25.8997 1.70879 25.6705 1.7967 25.4776 1.94L14.6819 10.0112L3.88095 1.97026C3.68638 1.82573 3.45479 1.73761 3.21223 1.7158C2.96967 1.69399 2.72574 1.73936 2.50789 1.8468C2.29003 1.95425 2.10688 2.11951 1.97903 2.32401C1.85119 2.52851 1.78371 2.76413 1.78418 3.00439V9.40585C1.78664 9.50906 1.82861 9.60752 1.90166 9.68145C1.97472 9.75538 2.07343 9.79929 2.17797 9.80436C7.28692 9.99605 11.8129 11.7263 14.6767 14.3091Z" fill="#4E51F4"/>
  <path d="M15.7505 15.439C16.9049 16.7428 17.6323 18.3607 17.837 20.0799C17.9041 20.683 17.8502 21.2932 17.6785 21.8758C17.1671 23.5253 16.1034 24.4687 14.7021 24.4687C13.398 24.4687 12.3855 23.6767 11.8434 22.2339C11.5542 21.443 11.4715 20.5929 11.603 19.7621C11.8608 18.153 12.5693 16.6469 13.6486 15.4138C10.9893 13.0076 6.67816 11.4185 1.80957 11.2823L1.84537 23.8583C1.84604 24.1804 1.91119 24.4993 2.0371 24.7965C2.16301 25.0937 2.34719 25.3635 2.57907 25.5904C2.81094 25.8172 3.08596 25.9967 3.38832 26.1184C3.69069 26.2402 4.01445 26.3018 4.34103 26.2998H25.1348C25.4616 26.2998 25.7853 26.2362 26.0871 26.1127C26.389 25.9892 26.6632 25.8082 26.8941 25.58C27.125 25.3518 27.3079 25.0809 27.4325 24.7829C27.5571 24.4849 27.6209 24.1655 27.6203 23.8431L27.5845 11.3076C22.7517 11.4236 18.4047 13.0277 15.7505 15.439Z" fill="#4E51F4"/>
  </svg>
