<svg viewBox="0 0 113 28" fill="none" xmlns="http://www.w3.org/2000/svg">
  <path d="M12.4202 22.7735C12.9228 24.1905 13.6959 24.1905 13.95 24.1905C14.7066 24.1905 15.2533 23.6168 15.5736 22.4694C15.6988 22.0228 15.7382 21.5549 15.6896 21.0925C15.5144 19.5473 14.9142 18.0873 13.961 16.8872C13.0596 18.0069 12.4662 19.3587 12.2435 20.7999C12.1399 21.4627 12.2007 22.1419 12.4202 22.7735Z" fill="#4E51F4"/>
  <path d="M13.9224 14.363C16.9984 11.3911 21.8859 9.4348 27.4305 9.19958C27.5438 9.19657 27.6514 9.14731 27.73 9.06248C27.8085 8.97764 27.8517 8.86406 27.8503 8.74635V1.44305C27.8457 1.17225 27.7692 0.908027 27.6291 0.679596C27.489 0.451166 27.2909 0.267423 27.0565 0.148679C26.8222 0.0299347 26.5608 -0.0191851 26.3013 0.00674934C26.0418 0.0326837 25.7942 0.132662 25.586 0.295632L13.9279 9.47496L2.26425 0.330055C2.05414 0.165682 1.80406 0.0654589 1.54212 0.040654C1.28018 0.0158491 1.01677 0.0674461 0.781515 0.189644C0.546259 0.311841 0.348481 0.499794 0.210419 0.732368C0.072358 0.964942 -0.00051202 1.23291 2.70812e-06 1.50616V8.78651C0.00265699 8.90389 0.0479829 9.01587 0.12687 9.09995C0.205756 9.18403 0.312355 9.23397 0.42524 9.23974C5.94227 9.45775 10.8297 11.4256 13.9224 14.363Z" fill="#4E51F4"/>
  <path d="M15.0818 15.648C16.3285 17.1308 17.114 18.9708 17.335 20.9261C17.4075 21.612 17.3493 22.306 17.1638 22.9685C16.6116 24.8446 15.4629 25.9174 13.9497 25.9174C12.5415 25.9174 11.448 25.0167 10.8626 23.3759C10.5503 22.4763 10.4611 21.5095 10.603 20.5647C10.8814 18.7346 11.6465 17.0218 12.8121 15.6193C9.94034 12.8827 5.28482 11.0756 0.0273438 10.9207L0.0660016 25.2232C0.0667221 25.5896 0.137084 25.9522 0.273048 26.2902C0.409012 26.6283 0.607902 26.9351 0.858303 27.1931C1.1087 27.4511 1.40569 27.6552 1.7322 27.7936C2.05872 27.9321 2.40834 28.0022 2.76101 27.9999H25.2157C25.5687 27.9999 25.9181 27.9276 26.2441 27.7872C26.5701 27.6467 26.8662 27.4408 27.1155 27.1813C27.3648 26.9217 27.5624 26.6137 27.697 26.2748C27.8315 25.9358 27.9004 25.5726 27.8997 25.206L27.861 10.9493C22.6422 11.0813 17.948 12.9057 15.0818 15.648Z" fill="#4E51F4"/>
  <path d="M54.8269 4.55626V25.3043H49.8352V13.6003L45.0771 25.3043H41.3699L36.6118 13.6003V25.3043H31.6201V4.55626H37.3415L43.2381 18.8612L49.1055 4.55626H54.8269Z" fill="black"/>
  <path d="M69.1396 20.073C69.8596 19.3636 70.2196 18.3587 70.2196 17.0583C70.2196 15.7578 69.8596 14.7628 69.1396 14.0732C68.4195 13.3638 67.5924 13.0092 66.6583 13.0092C65.7242 13.0092 64.8971 13.3638 64.1771 14.0732C63.4571 14.7825 63.097 15.7874 63.097 17.0878C63.097 18.3883 63.4571 19.3932 64.1771 20.1025C64.8971 20.7921 65.7242 21.137 66.6583 21.137C67.5924 21.137 68.4195 20.7823 69.1396 20.073ZM60.1779 23.1467C58.7379 21.5704 58.0178 19.5508 58.0178 17.0878C58.0178 14.6249 58.7379 12.6052 60.1779 11.0289C61.618 9.43293 63.3695 8.63493 65.4323 8.63493C67.5146 8.63493 69.1104 9.41323 70.2196 10.9698V8.81227H75.2113V25.3043H70.2196V22.9103C69.0131 24.6442 67.3978 25.5112 65.3739 25.5112C63.35 25.5112 61.618 24.723 60.1779 23.1467Z" fill="black"/>
  <path d="M84.1508 6.95026C83.5864 7.52167 82.8955 7.80738 82.0782 7.80738C81.2609 7.80738 80.57 7.52167 80.0057 6.95026C79.4413 6.37885 79.1591 5.67937 79.1591 4.85182C79.1591 4.00455 79.4413 3.29522 80.0057 2.72381C80.57 2.1524 81.2609 1.8667 82.0782 1.8667C82.8955 1.8667 83.5864 2.1524 84.1508 2.72381C84.7151 3.29522 84.9973 4.00455 84.9973 4.85182C84.9973 5.67937 84.7151 6.37885 84.1508 6.95026ZM79.597 25.3043V8.81227H84.5886V25.3043H79.597Z" fill="black"/>
  <path d="M88.9757 25.3043V3.43315H93.9673V25.3043H88.9757Z" fill="black"/>
  <path d="M104.806 7.63004C103.463 7.63004 102.723 8.35908 102.587 9.81716H97.7414C97.7414 7.74827 98.3933 6.15226 99.6972 5.02915C101.021 3.88633 102.772 3.31492 104.952 3.31492C107.131 3.31492 108.824 3.85678 110.031 4.94048C111.237 6.02419 111.841 7.40345 111.841 9.07827C111.841 10.3984 111.52 11.4723 110.877 12.2998C110.255 13.1274 109.612 13.6791 108.951 13.9549V14.0732C111.13 14.9204 112.22 16.6248 112.22 19.1863C112.22 21.1173 111.578 22.6443 110.294 23.7674C109.029 24.8708 107.267 25.4225 105.01 25.4225C102.772 25.4225 100.943 24.8413 99.5221 23.6787C98.1014 22.5162 97.3911 20.7823 97.3911 18.4769H102.237C102.256 19.3439 102.5 20.0335 102.967 20.5458C103.434 21.0384 104.076 21.2847 104.893 21.2847C105.73 21.2847 106.353 21.0581 106.761 20.605C107.19 20.1518 107.404 19.5114 107.404 18.6838C107.404 17.8366 107.112 17.2061 106.528 16.7923C105.944 16.3785 104.99 16.1716 103.667 16.1716H102.733V12.0634H103.667C105.886 12.0634 106.995 11.2752 106.995 9.69894C106.995 9.06842 106.791 8.56597 106.382 8.1916C105.993 7.81723 105.467 7.63004 104.806 7.63004Z" fill="black"/>
  </svg>
