<svg width="88" height="22" viewBox="0 0 88 22" fill="none" xmlns="http://www.w3.org/2000/svg">
  <path d="M0 0H8.44756L11.3097 13.5505L14.1719 0H22.6194V22H17.0618V8.1174H16.9507L13.7273 22H8.91995L5.64097 8.1174H5.5576V22H0V0Z" fill="black" />
  <path d="M37.7381 22L36.71 17.7107H30.5132L29.4851 22H23.4551L29.3739 0H37.8493L43.7959 22H37.7381ZM31.5692 13.283H35.654L33.6533 4.78742H33.5977L31.5692 13.283Z" fill="black" />
  <path d="M51.0185 22H45.4609V0H51.0185V22Z" fill="black" />
  <path d="M67.5793 22H53.5186V0H59.0762V16.6499H67.5793V22Z" fill="black" />
  <path d="M69.8447 5.53459V0H87.9996V5.53459H69.8447Z" fill="#4E52F5" />
  <path d="M69.8447 21.9955V16.4609H87.9996V21.9955H69.8447Z" fill="#4E52F5" />
  <path d="M69.8447 13.7651V8.23047H87.9996V13.7651H69.8447Z" fill="#4E52F5" />
</svg>
