<svg viewBox="0 0 275 69" fill="none" xmlns="http://www.w3.org/2000/svg">
  <path d="M30.4304 56.1203C31.6617 59.6123 33.556 59.6124 34.1784 59.6124C36.0321 59.6124 37.3716 58.1986 38.1564 55.371C38.4632 54.2704 38.5598 53.1175 38.4406 51.9779C38.0113 48.1701 36.5409 44.5722 34.2054 41.6149C31.997 44.3741 30.5431 47.7055 29.9974 51.2569C29.7435 52.8901 29.8925 54.564 30.4304 56.1203Z" fill="#4E51F4"/>
  <path d="M34.1109 35.3944C41.6475 28.071 53.6221 23.25 67.2069 22.6704C67.4845 22.663 67.7481 22.5416 67.9406 22.3325C68.133 22.1235 68.2389 21.8436 68.2353 21.5535V3.55608C68.2241 2.88875 68.0366 2.23764 67.6934 1.67472C67.3502 1.1118 66.8647 0.659006 66.2906 0.366387C65.7165 0.0737677 65.0761 -0.0472774 64.4403 0.0166323C63.8044 0.0805421 63.1979 0.326917 62.6877 0.728523L34.1244 23.349L5.54759 0.81335C5.0328 0.408288 4.42008 0.161309 3.77831 0.100183C3.13654 0.0390566 2.49117 0.166207 1.91477 0.467336C1.33838 0.768466 0.853805 1.23163 0.515544 1.80476C0.177283 2.37789 -0.00125449 3.03825 6.63509e-06 3.7116V21.6525C0.00650982 21.9417 0.117562 22.2177 0.31084 22.4249C0.504118 22.6321 0.765295 22.7551 1.04187 22.7694C14.559 23.3066 26.5337 28.1559 34.1109 35.3944Z" fill="#4E51F4"/>
  <path d="M36.9525 38.5612C40.0069 42.2152 41.9314 46.7495 42.4731 51.568C42.6505 53.2581 42.5079 54.9683 42.0536 56.601C40.7005 61.2241 37.8862 63.8678 34.1787 63.8678C30.7284 63.8678 28.0493 61.6482 26.6151 57.6048C25.85 55.388 25.6313 53.0056 25.9791 50.6773C26.6612 46.1674 28.5358 41.9465 31.3914 38.4905C24.3555 31.7468 12.9491 27.2933 0.0678711 26.9116L0.162586 62.1572C0.164351 63.06 0.336742 63.9536 0.669865 64.7867C1.00299 65.6197 1.49028 66.3758 2.10379 67.0116C2.71729 67.6474 3.44491 68.1503 4.24491 68.4915C5.0449 68.8327 5.90151 69.0055 6.76556 68.9999H61.7814C62.6461 68.9999 63.5023 68.8217 64.301 68.4755C65.0997 68.1293 65.8252 67.6219 66.436 66.9824C67.0468 66.3429 67.5309 65.5838 67.8606 64.7485C68.1903 63.9133 68.359 63.0183 68.3573 62.1148L68.2626 26.9823C55.4761 27.3075 43.975 31.8033 36.9525 38.5612Z" fill="#4E51F4"/>
  <path d="M134.33 11.2279V62.357H122.1V33.5149L110.442 62.357H101.359L89.7011 33.5149V62.357H77.4712V11.2279H91.4891L105.936 46.4793L120.312 11.2279H134.33Z" fill="white"/>
  <path d="M169.397 49.4655C171.161 47.7174 172.043 45.2411 172.043 42.0364C172.043 38.8318 171.161 36.3797 169.397 34.6803C167.633 32.9323 165.606 32.0583 163.318 32.0583C161.029 32.0583 159.002 32.9323 157.238 34.6803C155.474 36.4283 154.592 38.9046 154.592 42.1093C154.592 45.3139 155.474 47.7903 157.238 49.5383C159.002 51.2377 161.029 52.0875 163.318 52.0875C165.606 52.0875 167.633 51.2135 169.397 49.4655ZM147.44 57.0401C143.912 53.1557 142.148 48.1787 142.148 42.1093C142.148 36.0398 143.912 31.0629 147.44 27.1784C150.968 23.2454 155.26 21.2789 160.314 21.2789C165.415 21.2789 169.325 23.1968 172.043 27.0327V21.7159H184.273V62.357H172.043V56.4575C169.087 60.7304 165.129 62.8668 160.171 62.8668C155.212 62.8668 150.968 60.9246 147.44 57.0401Z" fill="white"/>
  <path d="M206.175 17.1274C204.793 18.5355 203.1 19.2396 201.097 19.2396C199.095 19.2396 197.402 18.5355 196.019 17.1274C194.637 15.7193 193.945 13.9956 193.945 11.9562C193.945 9.86832 194.637 8.12032 196.019 6.71221C197.402 5.30409 199.095 4.60004 201.097 4.60004C203.1 4.60004 204.793 5.30409 206.175 6.71221C207.558 8.12032 208.249 9.86832 208.249 11.9562C208.249 13.9956 207.558 15.7193 206.175 17.1274ZM195.018 62.357V21.7159H207.248V62.357H195.018Z" fill="white"/>
  <path d="M217.997 62.357V8.46021H230.227V62.357H217.997Z" fill="white"/>
  <path d="M256.781 18.8026C253.491 18.8026 251.68 20.5991 251.346 24.1922H239.473C239.473 19.0939 241.071 15.1609 244.265 12.3932C247.507 9.57699 251.799 8.16888 257.139 8.16888C262.479 8.16888 266.627 9.50416 269.583 12.1747C272.539 14.8453 274.018 18.2442 274.018 22.3714C274.018 25.6246 273.231 28.2709 271.657 30.3102C270.132 32.3496 268.558 33.7091 266.937 34.3889V34.6803C272.277 36.7681 274.947 40.9682 274.947 47.2804C274.947 52.0389 273.374 55.802 270.227 58.5696C267.128 61.2887 262.813 62.6483 257.282 62.6483C251.799 62.6483 247.317 61.2159 243.836 58.3511C240.355 55.4863 238.615 51.2135 238.615 45.5324H250.487C250.535 47.6689 251.131 49.3683 252.275 50.6308C253.42 51.8447 254.993 52.4516 256.996 52.4516C259.046 52.4516 260.572 51.8932 261.573 50.7765C262.622 49.6597 263.147 48.0816 263.147 46.0423C263.147 43.9544 262.431 42.4006 261.001 41.3809C259.571 40.3613 257.234 39.8514 253.992 39.8514H251.703V29.7276H253.992C259.427 29.7276 262.145 27.7854 262.145 23.9009C262.145 22.3471 261.645 21.109 260.643 20.1864C259.69 19.2638 258.402 18.8026 256.781 18.8026Z" fill="white"/>
</svg>
