<svg viewBox="0 0 36 36" fill="none" xmlns="http://www.w3.org/2000/svg">
  <path d="M16.3001 27.7243C16.8592 29.295 17.7193 29.295 18.0019 29.295C18.8436 29.295 19.4518 28.6591 19.8082 27.3873C19.9475 26.8923 19.9913 26.3738 19.9372 25.8612C19.7423 24.1486 19.0747 22.5303 18.0142 21.2002C17.0115 22.4412 16.3513 23.9396 16.1035 25.5369C15.9882 26.2715 16.0559 27.0244 16.3001 27.7243Z" fill="#4E51F4"/>
  <path d="M17.9707 18.4023C21.3927 15.1084 26.8299 12.9401 32.9982 12.6793C33.1242 12.676 33.2439 12.6214 33.3313 12.5274C33.4187 12.4334 33.4668 12.3075 33.4651 12.177V4.08222C33.4601 3.78207 33.3749 3.48922 33.2191 3.23603C33.0632 2.98285 32.8428 2.77919 32.5821 2.64758C32.3214 2.51597 32.0307 2.46152 31.742 2.49027C31.4533 2.51901 31.1779 2.62983 30.9462 2.81046L17.9768 12.9846L5.00134 2.84861C4.7676 2.66643 4.48939 2.55534 4.19799 2.52785C3.90659 2.50035 3.61355 2.55754 3.35184 2.69298C3.09012 2.82842 2.8701 3.03675 2.71651 3.29452C2.56292 3.5523 2.48185 3.84932 2.48242 4.15217V12.2215C2.48538 12.3516 2.5358 12.4757 2.62356 12.5689C2.71132 12.6621 2.82991 12.7175 2.95549 12.7239C9.09305 12.9655 14.5302 15.1466 17.9707 18.4023Z" fill="#4E51F4"/>
  <path d="M19.2614 19.8266C20.6483 21.4701 21.5221 23.5095 21.768 25.6767C21.8486 26.4369 21.7839 27.2061 21.5776 27.9404C20.9632 30.0198 19.6853 31.2089 18.002 31.2089C16.4353 31.2089 15.2189 30.2105 14.5676 28.3919C14.2202 27.3949 14.1209 26.3233 14.2789 25.2761C14.5886 23.2477 15.4397 21.3492 16.7363 19.7948C13.5416 16.7616 8.36248 14.7586 2.51367 14.5869L2.55668 30.4395C2.55748 30.8455 2.63575 31.2474 2.78701 31.6221C2.93827 31.9968 3.15953 32.3369 3.43809 32.6229C3.71666 32.9088 4.04704 33.135 4.41028 33.2885C4.77353 33.4419 5.16247 33.5196 5.55481 33.5171H30.5351C30.9277 33.5171 31.3165 33.437 31.6792 33.2813C32.0418 33.1256 32.3713 32.8974 32.6486 32.6097C32.9259 32.3221 33.1457 31.9807 33.2954 31.605C33.4451 31.2293 33.5218 30.8268 33.521 30.4204L33.4779 14.6187C27.6721 14.765 22.45 16.7871 19.2614 19.8266Z" fill="#4E51F4"/>
</svg>
