<svg viewBox="0 0 36 36" fill="none" xmlns="http://www.w3.org/2000/svg">
  <path d="M16.3001 27.7243C16.8592 29.295 17.7193 29.295 18.0019 29.295C18.8436 29.295 19.4518 28.6591 19.8082 27.3873C19.9475 26.8923 19.9913 26.3738 19.9372 25.8612C19.7423 24.1486 19.0747 22.5303 18.0142 21.2002C17.0115 22.4412 16.3513 23.9396 16.1035 25.5369C15.9882 26.2715 16.0559 27.0244 16.3001 27.7243Z" fill="#4E51F4"/>
  <path d="M17.9712 18.4024C21.3932 15.1085 26.8304 12.9402 32.9987 12.6795C33.1247 12.6761 33.2444 12.6215 33.3318 12.5275C33.4192 12.4335 33.4673 12.3076 33.4656 12.1771V4.08235C33.4606 3.7822 33.3754 3.48934 33.2196 3.23616C33.0637 2.98297 32.8433 2.77931 32.5826 2.6477C32.3219 2.51609 32.0312 2.46165 31.7425 2.49039C31.4538 2.51914 31.1784 2.62995 30.9467 2.81058L17.9773 12.9847L5.00183 2.84873C4.76809 2.66655 4.48988 2.55546 4.19848 2.52797C3.90708 2.50048 3.61404 2.55767 3.35233 2.69311C3.09061 2.82855 2.87059 3.03687 2.717 3.29465C2.56341 3.55243 2.48234 3.84944 2.48291 4.15229V12.2216C2.48587 12.3517 2.53629 12.4759 2.62405 12.569C2.71181 12.6622 2.8304 12.7176 2.95598 12.724C9.09354 12.9656 14.5307 15.1467 17.9712 18.4024Z" fill="#4E51F4"/>
  <path d="M19.2614 19.8266C20.6483 21.4701 21.5221 23.5095 21.768 25.6767C21.8486 26.4369 21.7839 27.2061 21.5776 27.9404C20.9632 30.0198 19.6853 31.2089 18.002 31.2089C16.4353 31.2089 15.2189 30.2105 14.5676 28.3919C14.2202 27.3949 14.1209 26.3233 14.2789 25.2761C14.5886 23.2477 15.4397 21.3492 16.7363 19.7948C13.5416 16.7616 8.36248 14.7586 2.51367 14.5869L2.55668 30.4395C2.55748 30.8455 2.63575 31.2474 2.78701 31.6221C2.93827 31.9968 3.15953 32.3369 3.43809 32.6229C3.71666 32.9088 4.04704 33.135 4.41028 33.2885C4.77353 33.4419 5.16247 33.5196 5.55481 33.5171H30.5351C30.9277 33.5171 31.3165 33.437 31.6792 33.2813C32.0418 33.1256 32.3713 32.8974 32.6486 32.6097C32.9259 32.3221 33.1457 31.9807 33.2954 31.605C33.4451 31.2293 33.5218 30.8268 33.521 30.4204L33.4779 14.6187C27.6721 14.765 22.45 16.7871 19.2614 19.8266Z" fill="#4E51F4"/>
</svg>
