<svg viewBox="0 0 26 25" fill="none" xmlns="http://www.w3.org/2000/svg">
  <path d="M11.5015 20.0243C11.9669 21.2703 12.6829 21.2703 12.9181 21.2703C13.6188 21.2703 14.125 20.7658 14.4217 19.7569C14.5376 19.3642 14.5741 18.9528 14.5291 18.5462C14.3668 17.1876 13.8111 15.9038 12.9284 14.8486C12.0937 15.8331 11.5441 17.0218 11.3379 18.289C11.2419 18.8717 11.2982 19.469 11.5015 20.0243Z" fill="black"/>
  <path d="M12.8926 12.629C15.7411 10.016 20.267 8.29582 25.4016 8.089C25.5065 8.08635 25.6061 8.04304 25.6788 7.96845C25.7516 7.89385 25.7916 7.79398 25.7902 7.69048V1.26884C25.786 1.03073 25.7151 0.798409 25.5854 0.597555C25.4557 0.396701 25.2722 0.235139 25.0552 0.13073C24.8382 0.026321 24.5962 -0.016869 24.3559 0.00593455C24.1155 0.0287381 23.8863 0.116647 23.6935 0.259943L12.8977 8.33113L2.09677 0.29021C1.9022 0.145681 1.67061 0.0575567 1.42805 0.0357462C1.18549 0.0139357 0.941563 0.059304 0.723708 0.16675C0.505853 0.274195 0.322704 0.439458 0.194855 0.643956C0.0670059 0.848453 -0.000474147 1.08408 2.5078e-06 1.32433V7.72579C0.00246045 7.829 0.0444337 7.92747 0.117485 8.0014C0.190537 8.07533 0.289251 8.11924 0.393785 8.12431C5.50274 8.316 10.0287 10.0463 12.8926 12.629Z" fill="black"/>
  <path d="M13.9665 13.759C15.121 15.0628 15.8483 16.6806 16.0531 18.3999C16.1201 19.003 16.0662 19.6132 15.8945 20.1957C15.3831 21.8453 14.3194 22.7886 12.9181 22.7886C11.614 22.7886 10.6015 21.9966 10.0594 20.5539C9.7702 19.7629 9.68754 18.9129 9.81901 18.0821C10.0768 16.4729 10.7853 14.9669 11.8646 13.7337C9.20532 11.3275 4.89416 9.7385 0.0255737 9.60229L0.0613722 22.1782C0.0620393 22.5004 0.127196 22.8192 0.253104 23.1164C0.379011 23.4137 0.563189 23.6835 0.795069 23.9103C1.02695 24.1372 1.30196 24.3166 1.60433 24.4384C1.90669 24.5601 2.23046 24.6217 2.55704 24.6198H23.3508C23.6776 24.6198 24.0013 24.5562 24.3031 24.4327C24.605 24.3091 24.8792 24.1281 25.1101 23.8999C25.341 23.6717 25.5239 23.4009 25.6485 23.1028C25.7731 22.8048 25.8369 22.4855 25.8363 22.1631L25.8005 9.62752C20.9677 9.74354 16.6207 11.3477 13.9665 13.759Z" fill="black"/>
</svg>
