<svg width="20" height="20" viewBox="0 0 20 20" fill="none" xmlns="http://www.w3.org/2000/svg">
    <path d="M10 12.5001C13.1066 12.5001 15.625 10.075 15.625 7.08341C15.625 4.09187 13.1066 1.66675 10 1.66675C6.8934 1.66675 4.375 4.09187 4.375 7.08341C4.375 10.075 6.8934 12.5001 10 12.5001Z" fill="currentColor"/>
    <path d="M13.1583 13.0082C13.4333 12.8666 13.75 13.0749 13.75 13.3832V17.4249C13.75 18.1749 13.225 18.5416 12.575 18.2332L10.3417 17.1749C10.15 17.0916 9.85 17.0916 9.65833 17.1749L7.425 18.2332C6.775 18.5332 6.25 18.1666 6.25 17.4166L6.26667 13.3832C6.26667 13.0749 6.59167 12.8749 6.85833 13.0082C7.8 13.4832 8.86667 13.7499 10 13.7499C11.1333 13.7499 12.2083 13.4832 13.1583 13.0082Z" fill="currentColor"/>
</svg>
