<svg width="128" height="168" viewBox="0 0 128 168" fill="none" xmlns="http://www.w3.org/2000/svg">
<g filter="url(#filter0_d_1246_15583)">
<path d="M117.42 0.787893L115.157 0.769527C114.518 0.767364 113.963 1.29384 113.755 1.92451C113.17 3.63038 111.587 4.8375 109.69 4.83026C107.817 4.82228 106.247 3.57977 105.689 1.86508C105.487 1.24786 104.944 0.711083 104.304 0.70892L102.019 0.691301C101.379 0.689138 100.848 1.21486 100.617 1.84628C100.032 3.55215 98.4485 4.75928 96.5522 4.75204C94.6786 4.74405 93.1083 3.50154 92.5508 1.78686C92.3483 1.16963 91.805 0.609776 91.1652 0.607613L88.8802 0.589994C88.2405 0.587831 87.6862 1.1143 87.4779 1.74498C86.8929 3.45085 85.3095 4.65797 83.436 4.64998C81.5625 4.642 79.9693 3.40023 79.4118 1.68555C79.2093 1.06833 78.6667 0.531551 78.027 0.529387L75.742 0.511768C75.1022 0.509605 74.548 1.03608 74.3397 1.66675C73.7546 3.37262 72.1713 4.57974 70.275 4.5725C68.4014 4.56452 66.8311 3.32201 66.2736 1.60733C66.0711 0.9901 65.5285 0.453325 64.8888 0.451162L62.6037 0.433543C61.964 0.431379 61.4097 0.957851 61.2015 1.58852C60.6164 3.2944 59.0331 4.50152 57.1367 4.49428C55.3523 4.41406 53.7598 3.19538 53.2024 1.4807C52.9999 0.86347 52.4565 0.303613 51.8175 0.324531L49.5553 0.306166C48.9156 0.304002 48.3613 0.830474 48.1523 1.43806C47.5672 3.14394 45.9839 4.35106 44.0876 4.34382C42.214 4.33584 40.6208 3.09407 40.0634 1.37939C39.8609 0.762162 39.3183 0.225388 38.6786 0.223224L36.3935 0.205606C35.7538 0.203442 35.1995 0.729913 34.9905 1.3375C34.4055 3.04338 32.8221 4.2505 30.9258 4.24326C29.1207 4.23304 27.5275 2.99127 26.9701 1.27659C26.7676 0.659361 26.2249 0.122586 25.5852 0.120423L23.323 0.102057C22.6833 0.0998937 22.129 0.626365 21.9207 1.25704C21.3349 2.93983 19.7523 4.17003 17.8788 4.16205C15.9817 4.13173 14.4114 2.88921 13.8539 1.17453C13.6514 0.557307 13.1088 0.020532 12.4691 0.0183686L10.2069 2.8552e-06C9.54431 -0.0014135 9.01286 0.524311 8.8046 1.15498C8.38659 2.37017 7.41276 3.34938 6.21581 3.78136C5.60629 4.00927 5.07558 4.55807 5.07344 5.20511L5.04428 7.86322C5.04214 8.51025 5.56488 9.1401 6.14501 9.42148C7.53863 10.1384 8.49948 11.6088 8.48567 13.319C8.47113 15.0062 7.48999 16.4709 6.09578 17.1635C5.51056 17.4368 4.98207 18.0549 4.97993 18.7019L4.9662 21.1285C4.94124 21.7763 5.46398 22.4061 6.04411 22.6875C7.43773 23.4044 8.39858 24.8748 8.38403 26.562C8.36949 28.2492 7.38835 29.7138 5.99414 30.4064C5.40966 30.7028 4.88043 31.2978 4.87903 31.9679L4.86456 34.3714C4.86242 35.0184 5.38516 35.6483 5.96603 35.9527C7.35965 36.6696 8.3205 38.14 8.30595 39.8272C8.29141 41.5144 7.31027 42.9791 5.91606 43.6717C5.33158 43.9681 4.80235 44.5631 4.80095 45.2332L4.78648 47.6366C4.78434 48.2837 5.30708 48.9135 5.88721 49.1949C7.28083 49.9118 8.24168 51.3822 8.22787 53.0925C8.21333 54.7797 7.23219 56.2443 5.83798 56.9369C5.2535 57.2333 4.72427 57.8283 4.72287 58.4984L4.6635 60.9265C4.66136 61.5735 5.1841 62.2034 5.76422 62.4847C7.15785 63.2016 8.11869 64.672 8.10415 66.3592C8.08961 68.0464 7.10847 69.5111 5.71426 70.2037C5.12978 70.5001 4.60054 71.0951 4.59914 71.7652L4.58468 74.1686C4.58254 74.8157 5.10528 75.4455 5.6854 75.7269C7.07903 76.4438 8.03987 77.9142 8.02533 79.6014C8.01079 81.2886 7.02965 82.7533 5.63544 83.4459C5.05096 83.7423 4.52173 84.3372 4.51959 84.9843L4.50586 87.4108C4.50372 88.0579 5.02646 88.6877 5.60658 88.9691C7.00021 89.6859 7.96105 91.1564 7.94725 92.8666C7.93271 94.5538 6.95157 96.0185 5.55736 96.7111C4.97288 97.0075 4.44364 97.6025 4.44224 98.2726L4.42778 100.676C4.42564 101.323 4.94838 101.953 5.5285 102.234C6.92213 102.951 7.88297 104.422 7.86843 106.109C7.85389 107.796 6.87275 109.261 5.47854 109.953C4.89406 110.25 4.36482 110.845 4.36342 111.515L4.3497 113.941C4.34756 114.588 4.8703 115.218 5.4276 115.5C6.82123 116.217 7.78207 117.688 7.76827 119.398C7.75373 121.085 6.77258 122.55 5.37837 123.242C4.7939 123.539 4.26466 124.134 4.26252 124.781L4.20537 127.278C4.20323 127.925 4.72597 128.555 5.3061 128.836C6.69972 129.553 7.66057 131.024 7.64602 132.711C7.63148 134.398 6.65034 135.863 5.25613 136.555C4.67165 136.852 4.14242 137.447 4.14102 138.117L4.13165 139.966C4.12951 140.613 4.65225 141.242 5.23311 141.547C6.62673 142.264 7.58758 143.734 7.57304 145.421C7.55849 147.109 6.57735 148.573 5.18314 149.266C4.59866 149.562 4.06943 150.157 4.06729 150.804L3.99921 154.388C3.99707 155.035 4.5176 155.595 5.11907 155.83C6.18286 156.234 7.05456 157.061 7.49857 158.086C7.76881 158.678 8.35705 159.213 8.99752 159.238L11.351 159.254C11.9907 159.256 12.5907 158.728 12.8689 158.141C13.5526 156.663 15.027 155.621 16.7636 155.634C18.5002 155.646 19.9726 156.684 20.6147 158.188C20.885 158.78 21.4732 159.315 22.1137 159.34L24.4672 159.356C25.1069 159.358 25.7068 158.83 25.985 158.243C26.6687 156.765 28.1432 155.723 29.8798 155.736C31.5935 155.749 33.0667 156.81 33.7309 158.29C34.0011 158.882 34.5894 159.417 35.2298 159.442L37.5833 159.458C38.223 159.46 38.823 158.932 39.1012 158.345C39.7849 156.867 41.2593 155.825 42.9959 155.838C44.7325 155.85 46.2049 156.888 46.847 158.392C47.1173 158.984 47.6827 159.52 48.3452 159.521L50.6987 159.537C51.3385 159.539 51.9384 159.011 52.2166 158.424C52.9003 156.946 54.3747 155.904 56.1113 155.917C57.8479 155.929 59.3203 156.967 59.9853 158.47C60.2555 159.062 60.8437 159.597 61.4842 159.623L63.8377 159.638C64.4774 159.64 65.0773 159.112 65.3555 158.525C66.0393 157.047 67.5137 156.006 69.2503 156.018C70.9869 156.03 72.4601 157.091 73.1014 158.572C73.3716 159.164 73.9599 159.699 74.5996 159.702L76.9531 159.717C77.5928 159.719 78.1927 159.191 78.4709 158.604C79.1547 157.126 80.6291 156.085 82.3657 156.097C84.1023 156.109 85.5755 157.17 86.2168 158.651C86.4871 159.243 87.0753 159.778 87.715 159.78L90.0685 159.796C90.7082 159.798 91.3082 159.27 91.5864 158.683C92.2701 157.205 93.7445 156.163 95.4811 156.176C97.2177 156.188 98.6909 157.249 99.3322 158.73C99.6025 159.322 100.168 159.858 100.831 159.883L103.185 159.898C103.824 159.9 104.424 159.372 104.703 158.785C105.386 157.307 106.861 156.266 108.597 156.278C110.311 156.291 111.784 157.352 112.448 158.832C112.696 159.425 113.284 159.96 113.947 159.985L116.301 160C116.941 160.002 117.54 159.474 117.819 158.887C118.502 157.409 120 156.367 121.713 156.38C121.92 156.396 122.103 156.414 122.286 156.431C122.608 156.489 122.868 156.042 122.87 155.395L122.89 151.743C122.892 151.096 122.371 150.513 121.769 150.278C120.173 149.637 119.049 148.08 119.058 146.231C119.068 144.382 120.229 142.842 121.832 142.235C122.441 142.008 122.971 141.436 122.974 140.789L122.985 139.009C122.987 138.362 122.466 137.778 121.865 137.544C120.268 136.926 119.144 135.346 119.154 133.52C119.164 131.694 120.325 130.131 121.928 129.524C122.537 129.296 123.068 128.747 123.069 128.077L123.086 125.743C123.088 125.096 122.567 124.512 121.965 124.278C120.369 123.637 119.245 122.08 119.254 120.231C119.265 118.405 120.425 116.842 122.028 116.235C122.637 116.007 123.167 115.435 123.169 114.788L123.186 112.454C123.188 111.807 122.667 111.223 122.066 110.989C120.469 110.348 119.345 108.79 119.355 106.942C119.365 105.116 120.525 103.553 122.128 102.946C122.738 102.718 123.268 102.169 123.27 101.499L123.286 99.1649C123.288 98.5179 122.768 97.9573 122.166 97.6997C120.569 97.0589 119.445 95.5013 119.455 93.6526C119.464 91.8038 120.626 90.2639 122.228 89.6569C122.838 89.429 123.368 88.8571 123.37 88.2101L123.386 85.8759C123.389 85.2288 122.867 84.6451 122.266 84.4107C120.67 83.7928 119.546 82.2123 119.555 80.3635C119.565 78.5378 120.726 76.9748 122.328 76.3678C122.938 76.1399 123.468 75.568 123.47 74.921L123.487 72.5868C123.489 71.9397 122.968 71.3561 122.366 71.1216C120.769 70.4807 119.646 68.9232 119.655 67.0744C119.665 65.2487 120.826 63.6857 122.429 63.0787C123.038 62.8508 123.569 62.302 123.57 61.6319L123.587 59.2977C123.589 58.6507 123.068 58.067 122.466 57.8325C120.869 57.1916 119.746 55.6341 119.755 53.7853C119.765 51.9596 120.926 50.3967 122.529 49.7897C123.138 49.5618 123.668 48.9899 123.67 48.3428L123.687 46.0086C123.689 45.3616 123.168 44.7779 122.566 44.5434C120.97 43.9025 119.846 42.345 119.856 40.5193C119.866 38.6706 121.027 37.1307 122.63 36.5237C123.239 36.2958 123.77 35.747 123.771 35.0768L123.788 32.7426C123.79 32.0956 123.269 31.535 122.667 31.2774C121.07 30.6365 119.947 29.079 119.957 27.2533C119.966 25.4046 121.128 23.8647 122.73 23.2577C123.34 23.0298 123.871 22.481 123.872 21.8108L123.889 19.4766C123.891 18.8296 123.37 18.2459 122.768 18.0114C121.171 17.3705 120.048 15.813 120.058 13.9873C120.067 12.1386 121.206 10.5994 122.831 9.99166C123.441 9.76376 123.971 9.19187 123.973 8.54484L123.999 5.7944C123.96 5.28735 123.717 4.83319 123.398 4.86673C123.194 4.89654 123.012 4.92559 122.806 4.90924C120.932 4.90125 119.362 3.65874 118.804 1.94406C118.602 1.32683 118.059 0.790056 117.42 0.787893Z" fill="#EAE0B5"/>
</g>
<defs>
<filter id="filter0_d_1246_15583" x="-0.000793457" y="0" width="128" height="168" filterUnits="userSpaceOnUse" color-interpolation-filters="sRGB">
<feFlood flood-opacity="0" result="BackgroundImageFix"/>
<feColorMatrix in="SourceAlpha" type="matrix" values="0 0 0 0 0 0 0 0 0 0 0 0 0 0 0 0 0 0 127 0" result="hardAlpha"/>
<feOffset dy="4"/>
<feGaussianBlur stdDeviation="2"/>
<feComposite in2="hardAlpha" operator="out"/>
<feColorMatrix type="matrix" values="0 0 0 0 0 0 0 0 0 0 0 0 0 0 0 0 0 0 0.25 0"/>
<feBlend mode="normal" in2="BackgroundImageFix" result="effect1_dropShadow_1246_15583"/>
<feBlend mode="normal" in="SourceGraphic" in2="effect1_dropShadow_1246_15583" result="shape"/>
</filter>
</defs>
</svg>
