<svg width="10" height="10" viewBox="0 0 10 10" fill="none" xmlns="http://www.w3.org/2000/svg">
  <g clip-path="url(#clip0_1429_2043)">
  <path d="M2.80585 2.69092H3.68321V3.57142H2.80585V2.69092ZM3.85868 2.69092H4.73604V3.57142H3.85868V2.69092ZM4.91151 2.69092H5.78887V3.57142H4.91151V2.69092ZM5.96434 2.69092H6.8417V3.57142H5.96434V2.69092ZM7.01717 2.69092H7.89453V3.57142H7.01717V2.69092ZM2.80585 3.74752H3.68321V4.62803H2.80585V3.74752ZM0.700195 2.69092H1.57755V3.57142H0.700195V2.69092ZM1.75303 2.69092H2.63038V3.57142H1.75303V2.69092ZM9.12283 2.69092H10.0002V3.57142H9.12283V2.69092ZM8.07 2.69092H8.94736V3.57142H8.07V2.69092ZM1.75303 3.74752H2.63038V4.62803H1.75303V3.74752ZM3.85868 3.74752H4.73604V4.62803H3.85868V3.74752ZM4.91151 3.74752H5.78887V4.62803H4.91151V3.74752ZM5.96434 3.74752H6.8417V4.62803H5.96434V3.74752ZM7.01717 3.74752H7.89453V4.62803H7.01717V3.74752ZM2.80585 4.80413H3.68321V5.68463H2.80585V4.80413ZM3.85868 4.80413H4.73604V5.68463H3.85868V4.80413ZM4.91151 4.80413H5.78887V5.68463H4.91151V4.80413ZM5.96434 4.80413H6.8417V5.68463H5.96434V4.80413ZM7.01717 4.80413H7.89453V5.68463H7.01717V4.80413ZM3.85868 5.86073H4.73604V6.74124H3.85868V5.86073ZM4.91151 5.86073H5.78887V6.74124H4.91151V5.86073ZM5.96434 5.86073H6.8417V6.74124H5.96434V5.86073ZM4.91151 6.91734H5.78887V7.79784H4.91151V6.91734ZM8.07 3.74752H8.94736V4.62803H8.07V3.74752Z" fill="#4E52F5"/>
  </g>
  <defs>
  <clipPath id="clip0_1429_2043">
  <rect width="9.3" height="9.33335" fill="white" transform="translate(0.700195 0.577759)"/>
  </clipPath>
  </defs>
  </svg>
