<svg width="20" height="20" viewBox="0 0 20 20" fill="none" xmlns="http://www.w3.org/2000/svg">
  <g clip-path="url(#clip0_1787_16158)">
  <path d="M0 10C0 12.6522 1.05357 15.1957 2.92893 17.0711C4.8043 18.9464 7.34784 20 10 20C12.6522 20 15.1957 18.9464 17.0711 17.0711C18.9464 15.1957 20 12.6522 20 10C20 7.34784 18.9464 4.8043 17.0711 2.92893C15.1957 1.05357 12.6522 0 10 0C7.34784 0 4.8043 1.05357 2.92893 2.92893C1.05357 4.8043 0 7.34784 0 10H0Z" fill="#E7E7E7"/>
  <path d="M2.22754 9.99998C2.22754 11.0207 2.42858 12.0314 2.81919 12.9744C3.2098 13.9174 3.78232 14.7743 4.50407 15.496C5.22582 16.2178 6.08266 16.7903 7.02567 17.1809C7.96868 17.5715 8.9794 17.7725 10.0001 17.7725C11.0208 17.7725 12.0315 17.5715 12.9745 17.1809C13.9175 16.7903 14.7744 16.2178 15.4961 15.496C16.2179 14.7743 16.7904 13.9174 17.181 12.9744C17.5716 12.0314 17.7727 11.0207 17.7727 9.99998C17.7727 7.93857 16.9538 5.96159 15.4961 4.50395C14.0385 3.04631 12.0615 2.22742 10.0001 2.22742C7.93869 2.22742 5.96171 3.04631 4.50407 4.50395C3.04643 5.96159 2.22754 7.93857 2.22754 9.99998Z" fill="black"/>
  <path d="M9.79467 13.6695V6.84648C9.55462 7.06118 9.28398 7.23897 8.99162 7.37403C8.66176 7.55406 8.31145 7.69379 7.94824 7.79021V6.79959C8.42091 6.65259 8.87673 6.45611 9.30815 6.21342C9.70342 6.01327 10.075 5.76947 10.416 5.48657H10.797V13.6695H9.79467Z" fill="white"/>
  </g>
  <defs>
  <clipPath id="clip0_1787_16158">
  <rect width="20" height="20" fill="white"/>
  </clipPath>
  </defs>
  </svg>
