<svg width="20" height="20" viewBox="0 0 20 20" fill="none" xmlns="http://www.w3.org/2000/svg">
  <g clip-path="url(#clip0_1787_16162)">
  <path d="M0 10C0 12.6522 1.05357 15.1957 2.92893 17.0711C4.8043 18.9464 7.34784 20 10 20C12.6522 20 15.1957 18.9464 17.0711 17.0711C18.9464 15.1957 20 12.6522 20 10C20 7.34784 18.9464 4.8043 17.0711 2.92893C15.1957 1.05357 12.6522 0 10 0C7.34784 0 4.8043 1.05357 2.92893 2.92893C1.05357 4.8043 0 7.34784 0 10H0Z" fill="#E7E7E7"/>
  <path d="M2.22754 9.99998C2.22754 11.0207 2.42858 12.0314 2.81919 12.9744C3.2098 13.9174 3.78232 14.7743 4.50407 15.496C5.22582 16.2178 6.08266 16.7903 7.02567 17.1809C7.96868 17.5715 8.9794 17.7725 10.0001 17.7725C11.0208 17.7725 12.0315 17.5715 12.9745 17.1809C13.9175 16.7903 14.7744 16.2178 15.4961 15.496C16.2179 14.7743 16.7904 13.9174 17.181 12.9744C17.5716 12.0314 17.7727 11.0207 17.7727 9.99998C17.7727 7.93857 16.9538 5.96159 15.4961 4.50395C14.0385 3.04631 12.0615 2.22742 10.0001 2.22742C7.93869 2.22742 5.96171 3.04631 4.50407 4.50395C3.04643 5.96159 2.22754 7.93857 2.22754 9.99998Z" fill="black"/>
  <path d="M11.2539 7.78428C11.2641 7.59551 11.2325 7.40682 11.1616 7.23158C11.0907 7.05634 10.9822 6.89883 10.8436 6.77021C10.5349 6.51039 10.1386 6.3783 9.73577 6.40093C9.38867 6.40738 9.04771 6.49363 8.73929 6.65298C8.38458 6.83566 8.06506 7.07976 7.79556 7.37396V6.39506C8.04937 6.13204 8.352 5.921 8.68653 5.77373C9.05832 5.62188 9.45735 5.54806 9.85886 5.55685C10.498 5.52355 11.1261 5.73291 11.6174 6.14301C11.8367 6.3396 12.0094 6.58261 12.123 6.85436C12.2365 7.12611 12.2881 7.41976 12.2739 7.71394C12.2877 8.25019 12.1473 8.77915 11.8694 9.23797C11.4946 9.7715 11.0162 10.224 10.4626 10.5686C9.80025 11.0258 9.35476 11.3599 9.12616 11.5592C8.93329 11.7223 8.77401 11.9214 8.65722 12.1454C8.56241 12.3551 8.51631 12.5835 8.5224 12.8136H12.4908V13.7046H7.47317V13.3118C7.4609 12.9127 7.52456 12.5149 7.66074 12.1395C7.79676 11.7714 8.00843 11.436 8.28208 11.1547C8.70552 10.7501 9.1668 10.3869 9.65957 10.0703C10.1473 9.75271 10.579 9.35658 10.9374 8.898C11.1528 8.56716 11.2631 8.17894 11.2539 7.78428Z" fill="white"/>
  </g>
  <defs>
  <clipPath id="clip0_1787_16162">
  <rect width="20" height="20" fill="white"/>
  </clipPath>
  </defs>
  </svg>
