<svg viewBox="0 0 40 40" fill="none" xmlns="http://www.w3.org/2000/svg">
  <circle cx="20" cy="20" r="20" fill="white"/>
  <path d="M29.3753 11.4917C29.3679 11.4774 29.3557 11.4663 29.3409 11.4602C27.6236 10.6723 25.8114 10.1104 23.9496 9.78873C23.9327 9.78559 23.9152 9.78786 23.8997 9.79521C23.8841 9.80257 23.8713 9.81465 23.863 9.82972C23.6162 10.2776 23.3922 10.7376 23.1918 11.2081C21.1849 10.9035 19.1435 10.9035 17.1366 11.2081C16.9349 10.7365 16.7073 10.2763 16.4548 9.82972C16.4462 9.81498 16.4333 9.80318 16.4178 9.79587C16.4024 9.78856 16.3851 9.78607 16.3682 9.78873C14.5062 10.1098 12.6939 10.6716 10.9768 11.4602C10.9621 11.4664 10.9497 11.4771 10.9413 11.4907C7.50759 16.6185 6.56696 21.6203 7.0284 26.5601C7.0297 26.5722 7.03342 26.5839 7.03934 26.5946C7.04526 26.6052 7.05326 26.6145 7.06286 26.622C9.06229 28.1024 11.2987 29.2325 13.6766 29.9639C13.6933 29.9689 13.7112 29.9687 13.7278 29.9632C13.7445 29.9578 13.759 29.9474 13.7695 29.9334C14.2803 29.2385 14.7328 28.5026 15.1225 27.7333C15.1279 27.7228 15.131 27.7112 15.1315 27.6994C15.1321 27.6875 15.1301 27.6757 15.1258 27.6647C15.1214 27.6537 15.1148 27.6437 15.1064 27.6355C15.0979 27.6272 15.0878 27.6208 15.0766 27.6167C14.363 27.3437 13.6722 27.0145 13.0105 26.6324C12.9985 26.6253 12.9884 26.6154 12.9811 26.6035C12.9738 26.5916 12.9696 26.5781 12.9688 26.5642C12.968 26.5503 12.9706 26.5364 12.9764 26.5237C12.9822 26.511 12.9911 26.5 13.0022 26.4916C13.1414 26.3876 13.2782 26.2804 13.4125 26.1701C13.4243 26.1604 13.4385 26.1542 13.4537 26.1521C13.4688 26.1501 13.4842 26.1523 13.4981 26.1586C17.8327 28.1368 22.5256 28.1368 26.8089 26.1586C26.8229 26.1519 26.8384 26.1494 26.8538 26.1512C26.8691 26.1531 26.8836 26.1593 26.8956 26.169C27.03 26.2799 27.1672 26.3875 27.3069 26.4916C27.3181 26.4999 27.327 26.5109 27.3329 26.5235C27.3388 26.5361 27.3416 26.55 27.3408 26.5639C27.3401 26.5778 27.336 26.5914 27.3288 26.6033C27.3216 26.6152 27.3116 26.6252 27.2996 26.6324C26.6395 27.0178 25.948 27.3467 25.2325 27.6157C25.2214 27.6199 25.2113 27.6265 25.2029 27.6349C25.1945 27.6433 25.1879 27.6533 25.1837 27.6644C25.1794 27.6755 25.1776 27.6874 25.1782 27.6993C25.1789 27.7112 25.182 27.7228 25.1875 27.7333C25.5837 28.4984 26.0356 29.2333 26.5394 29.9322C26.5497 29.9465 26.5641 29.9573 26.5808 29.963C26.5975 29.9686 26.6155 29.9689 26.6324 29.9637C29.0145 29.2348 31.2548 28.1047 33.2568 26.622C33.2665 26.6149 33.2747 26.6058 33.2806 26.5953C33.2865 26.5848 33.2902 26.5731 33.2912 26.5611C33.8437 20.8502 32.3664 15.8894 29.3753 11.4917ZM15.7699 23.5522C14.4648 23.5522 13.3895 22.3546 13.3895 20.8838C13.3895 19.413 14.444 18.2153 15.7699 18.2153C17.1061 18.2153 18.1711 19.4234 18.1502 20.8837C18.1502 22.3546 17.0957 23.5522 15.7699 23.5522ZM24.5708 23.5522C23.2658 23.5522 22.1905 22.3546 22.1905 20.8838C22.1905 19.413 23.2449 18.2153 24.5708 18.2153C25.9071 18.2153 26.972 19.4234 26.9512 20.8837C26.9512 22.3546 25.9071 23.5522 24.5708 23.5522Z" fill="black"/>
</svg>
