<svg width="20" height="20" viewBox="0 0 20 20" fill="none" xmlns="http://www.w3.org/2000/svg">
<path d="M16.8416 6.51589L10.4249 10.2326C10.1666 10.3826 9.8416 10.3826 9.57494 10.2326L3.15827 6.51589C2.69993 6.24922 2.58327 5.62422 2.93327 5.23255C3.17493 4.95755 3.44993 4.73255 3.7416 4.57422L8.25827 2.07422C9.22494 1.53255 10.7916 1.53255 11.7583 2.07422L16.2749 4.57422C16.5666 4.73255 16.8416 4.96589 17.0833 5.23255C17.4166 5.62422 17.2999 6.24922 16.8416 6.51589Z" fill="white"/>
<path d="M9.52507 11.7831V17.4664C9.52507 18.0997 8.8834 18.5164 8.31673 18.2414C6.60006 17.3997 3.7084 15.8247 3.7084 15.8247C2.69173 15.2497 1.8584 13.7997 1.8584 12.6081V8.30807C1.8584 7.64974 2.55007 7.23307 3.11673 7.55807L9.1084 11.0331C9.3584 11.1914 9.52507 11.4747 9.52507 11.7831Z" fill="white"/>
<path d="M10.4751 11.7831V17.4664C10.4751 18.0997 11.1168 18.5164 11.6834 18.2414C13.4001 17.3997 16.2918 15.8247 16.2918 15.8247C17.3084 15.2497 18.1418 13.7997 18.1418 12.6081V8.30807C18.1418 7.64974 17.4501 7.23307 16.8834 7.55807L10.8918 11.0331C10.6418 11.1914 10.4751 11.4747 10.4751 11.7831Z" fill="white"/>
</svg>
