<svg viewBox="0 0 40 40" fill="none" xmlns="http://www.w3.org/2000/svg">
  <circle cx="20" cy="20" r="20" fill="white"/>
  <path d="M21.6357 20C21.6357 23.8233 18.5584 26.9231 14.7611 26.9231C10.9638 26.9231 7.88477 23.8233 7.88477 20C7.88477 16.1767 10.9629 13.0769 14.7611 13.0769C18.5584 13.0769 21.6366 16.1767 21.6366 20H21.6357ZM29.1793 20C29.1793 23.5991 27.6406 26.5181 25.7411 26.5181C23.8425 26.5181 22.3038 23.5991 22.3038 20C22.3038 16.4008 23.8425 13.4836 25.7411 13.4836C27.6398 13.4836 29.1793 16.4 29.1793 20ZM32.2644 20C32.2644 23.2235 31.7235 25.8387 31.0554 25.8387C30.3874 25.8387 29.8465 23.2253 29.8465 20C29.8465 16.7756 30.3882 14.1612 31.0554 14.1612C31.7235 14.1612 32.2644 16.7747 32.2644 20Z" fill="black"/>
</svg>
