<svg viewBox="0 0 40 40" fill="none" xmlns="http://www.w3.org/2000/svg">
  <path d="M40 20C40 8.954 31.046 0 20 0C8.954 0 0 8.954 0 20C0 31.046 8.954 40 20 40C31.046 40 40 31.046 40 20ZM12.144 17.328C12.144 12.888 15.662 9.286 20 9.286C24.34 9.286 27.858 12.886 27.858 17.326V29.006C27.8607 29.2666 27.7598 29.5177 27.5776 29.704C27.3954 29.8904 27.1466 29.9968 26.886 30H13.116C12.9868 29.9984 12.8591 29.9714 12.7403 29.9205C12.6216 29.8696 12.514 29.7958 12.4237 29.7033C12.3334 29.6108 12.2623 29.5015 12.2143 29.3815C12.1663 29.2615 12.1424 29.1332 12.144 29.004V17.328Z" fill="white"/>
</svg>
