<svg viewBox="0 0 40 40" fill="none" xmlns="http://www.w3.org/2000/svg">
  <circle cx="20" cy="20" r="20" fill="white"/>
  <path d="M24.1367 10.561C25.5379 10.4944 26.898 11.04 27.8611 12.0595C28.7064 11.9237 29.5235 11.6445 30.274 11.2347L30.8606 10.9094C30.5763 11.7879 30.0461 12.5666 29.3314 13.1506C29.1751 13.2967 29.001 13.4222 28.814 13.5221V13.5297C29.7361 13.4324 30.6378 13.1865 31.4805 12.7997V12.8125C31.0501 13.5118 30.5097 14.1394 29.8821 14.6696C29.6362 14.8643 29.3929 15.0615 29.147 15.2639C29.188 16.291 29.1137 17.3182 28.9292 18.33C27.751 23.6886 24.6362 27.3284 19.7003 28.8884C17.5332 29.521 15.2458 29.6158 13.0353 29.165C12.0875 28.937 11.1629 28.6296 10.2663 28.2454C9.80783 28.0431 9.36214 27.8125 8.93437 27.5487C8.79861 27.4616 8.65773 27.3796 8.52197 27.2926C9.02146 27.3617 9.52351 27.3822 10.0281 27.354C10.4917 27.2721 10.9451 27.2926 11.3729 27.1978C12.3642 27.0057 13.3196 26.6573 14.2008 26.1655C14.667 25.9503 15.0947 25.666 15.4764 25.3202C14.9974 25.3202 14.5235 25.2331 14.0753 25.0641C12.6536 24.5748 11.5445 23.4427 11.086 22.0108C11.5471 22.0569 12.8765 22.1798 13.189 21.916C12.6306 21.8366 12.1029 21.6214 11.6495 21.2885C10.2254 20.4278 9.37751 18.8653 9.4313 17.2029C9.59267 17.2772 9.75148 17.3592 9.91285 17.4334C10.2305 17.5615 10.5635 17.6537 10.9016 17.7101C11.1091 17.7818 11.3293 17.8023 11.5471 17.7716H11.524C11.2858 17.4949 10.899 17.3054 10.6634 17.0082C9.63365 15.8146 9.24175 14.206 9.60035 12.6742C9.71818 12.2413 9.8898 11.8238 10.105 11.4319C10.1126 11.4396 10.1203 11.4396 10.128 11.4447C10.251 11.6266 10.3918 11.7956 10.5532 11.9442C10.9682 12.4488 11.4369 12.9047 11.9543 13.3018C13.6244 14.6824 15.5968 15.6481 17.7125 16.1245C18.4041 16.3013 19.1137 16.3935 19.8258 16.4012C19.6439 15.6635 19.6516 14.8925 19.8488 14.1599C20.1895 12.7357 21.1757 11.5497 22.5153 10.958C22.8534 10.8146 23.2018 10.7044 23.5604 10.6276C23.7551 10.6071 23.9446 10.5866 24.1367 10.561Z" fill="black"/>
</svg>
