<svg viewBox="0 0 14 14" fill="none" xmlns="http://www.w3.org/2000/svg">
  <path d="M6.74561 4.36792V6.144" stroke="currentColor" stroke-miterlimit="10" stroke-linecap="round"/>
  <path d="M6.75615 2C4.79339 2 3.20398 3.58941 3.20398 5.55217V6.67222C3.20398 7.0349 3.05464 7.57893 2.86797 7.88828L2.1906 9.019C1.77458 9.7177 2.06259 10.4964 2.83063 10.7524C5.38008 11.6004 8.13754 11.6004 10.687 10.7524C11.407 10.5124 11.7164 9.66969 11.327 9.019L10.6497 7.88828C10.463 7.57893 10.3136 7.02957 10.3136 6.67222V5.55217C10.3083 3.60007 8.70824 2 6.75615 2Z" stroke="currentColor" stroke-miterlimit="10" stroke-linecap="round"/>
  <path d="M8.52165 10.9712C8.52165 11.9472 7.72161 12.7473 6.74557 12.7473C6.26021 12.7473 5.81219 12.5446 5.49217 12.2246C5.17216 11.9046 4.96948 11.4565 4.96948 10.9712" stroke="currentColor" stroke-miterlimit="10"/>
</svg>
