<svg width="20" height="20" viewBox="0 0 20 20" fill="none" xmlns="http://www.w3.org/2000/svg">
  <path d="M10.0003 13.0833V13.175C10.0003 13.4083 9.81699 13.5917 9.58366 13.5917H2.08366C1.85033 13.5917 1.66699 13.4083 1.66699 13.175V13.0833C1.66699 11.6167 2.03366 11.25 3.51699 11.25H8.15033C9.63366 11.25 10.0003 11.6167 10.0003 13.0833Z" fill="#292D32"/>
  <path d="M2.08366 14.4248C1.85033 14.4248 1.66699 14.6081 1.66699 14.8415V15.6748V16.4998C1.66699 17.9665 2.03366 18.3331 3.51699 18.3331H8.15033C9.63366 18.3331 10.0003 17.9665 10.0003 16.4998V15.6748V14.8415C10.0003 14.6081 9.81699 14.4248 9.58366 14.4248H2.08366Z" fill="#292D32"/>
  <path d="M18.3333 12.5C18.3333 15.725 15.725 18.3333 12.5 18.3333L13.375 16.875" stroke="#292D32" stroke-width="1.5" stroke-linecap="round" stroke-linejoin="round"/>
  <path d="M1.66699 7.49984C1.66699 4.27484 4.27533 1.6665 7.50033 1.6665L6.62533 3.12484" stroke="#292D32" stroke-width="1.5" stroke-linecap="round" stroke-linejoin="round"/>
  <path d="M15.417 9.1665C17.4881 9.1665 19.167 7.48757 19.167 5.4165C19.167 3.34544 17.4881 1.6665 15.417 1.6665C13.3459 1.6665 11.667 3.34544 11.667 5.4165C11.667 7.48757 13.3459 9.1665 15.417 9.1665Z" fill="#292D32"/>
  </svg>
