<svg width="20" height="20" viewBox="0 0 20 20" fill="none" xmlns="http://www.w3.org/2000/svg">
  <path d="M18.3083 4.58317V7.9165C18.3083 9.3559 17.267 10.555 15.8894 10.791C15.6172 10.8377 15.3916 10.6093 15.3916 10.3332V10.2082C15.3916 7.10817 12.8749 4.58317 9.7666 4.58317H9.6416C9.36546 4.58317 9.13711 4.35752 9.18409 4.0854C9.42096 2.71338 10.6196 1.6665 12.0583 1.6665H15.3916C17.0083 1.6665 18.3083 2.97484 18.3083 4.58317Z" fill="#292D32"/>
  <path d="M9.7666 5.8335H9.1416H5.80827C3.50827 5.8335 1.6416 7.70016 1.6416 10.0002V14.1668C1.6416 16.4668 3.50827 18.3335 5.80827 18.3335H9.97493C12.2749 18.3335 14.1416 16.4668 14.1416 14.1668V10.8335V10.2085C14.1416 7.79183 12.1833 5.8335 9.7666 5.8335Z" fill="#292D32"/>
  </svg>
