<svg width="20" height="20" viewBox="0 0 20 20" fill="none" xmlns="http://www.w3.org/2000/svg">
  <path d="M10.0003 1.66666C5.40033 1.66666 1.66699 5.39999 1.66699 9.99999C1.66699 14.6 5.40033 18.3333 10.0003 18.3333C14.6003 18.3333 18.3337 14.6 18.3337 9.99999C18.3337 5.39999 14.6003 1.66666 10.0003 1.66666ZM7.10866 11.225C7.35033 11.4667 7.35033 11.8667 7.10866 12.1083C6.98366 12.2333 6.82533 12.2917 6.66699 12.2917C6.50866 12.2917 6.35033 12.2333 6.22533 12.1083L4.55866 10.4417C4.31699 10.2 4.31699 9.79999 4.55866 9.55832L6.22533 7.89166C6.46699 7.64999 6.86699 7.64999 7.10866 7.89166C7.35033 8.13332 7.35033 8.53332 7.10866 8.77499L5.88366 9.99999L7.10866 11.225ZM11.4087 8.29999L9.74199 12.1917C9.64199 12.425 9.40866 12.5667 9.16699 12.5667C9.08366 12.5667 9.00033 12.55 8.92533 12.5167C8.60866 12.3833 8.45866 12.0167 8.60033 11.6917L10.267 7.79999C10.4003 7.48332 10.767 7.33332 11.0837 7.47499C11.4003 7.61666 11.542 7.98332 11.4087 8.29999ZM15.442 10.4417L13.7753 12.1083C13.6503 12.2333 13.492 12.2917 13.3337 12.2917C13.1753 12.2917 13.017 12.2333 12.892 12.1083C12.6503 11.8667 12.6503 11.4667 12.892 11.225L14.117 9.99999L12.892 8.77499C12.6503 8.53332 12.6503 8.13332 12.892 7.89166C13.1337 7.64999 13.5337 7.64999 13.7753 7.89166L15.442 9.55832C15.6837 9.79999 15.6837 10.2 15.442 10.4417Z" fill="currentColor"/>
</svg>
