<svg width="16" height="16" viewBox="0 0 16 16" fill="none" xmlns="http://www.w3.org/2000/svg">
  <path d="M13.1029 3.37804C13.0988 3.37013 13.0921 3.36392 13.0838 3.36054C12.1307 2.92326 11.125 2.61144 10.0917 2.43289C10.0823 2.43115 10.0726 2.43241 10.064 2.43649C10.0553 2.44058 10.0482 2.44728 10.0436 2.45564C9.90664 2.70422 9.78232 2.95954 9.6711 3.22064C8.55726 3.05156 7.42428 3.05156 6.31045 3.22064C6.19849 2.95888 6.07217 2.70349 5.93207 2.45564C5.92727 2.44746 5.92011 2.44091 5.91153 2.43685C5.90295 2.4328 5.89335 2.43142 5.88397 2.43289C4.85057 2.61107 3.84473 2.92291 2.89177 3.36057C2.88361 3.36403 2.87673 3.36993 2.87207 3.37747C0.966345 6.22342 0.444295 8.99939 0.700395 11.741C0.701115 11.7477 0.70318 11.7542 0.706465 11.7601C0.709751 11.766 0.71419 11.7712 0.71952 11.7754C1.82921 12.597 3.0704 13.2242 4.39015 13.6301C4.39944 13.6329 4.40936 13.6328 4.41858 13.6297C4.42781 13.6267 4.43588 13.6209 4.44172 13.6132C4.72517 13.2275 4.97633 12.8191 5.19265 12.3921C5.19562 12.3863 5.19732 12.3799 5.19763 12.3733C5.19794 12.3667 5.19685 12.3602 5.19444 12.3541C5.19204 12.348 5.18836 12.3424 5.18366 12.3378C5.17896 12.3332 5.17334 12.3297 5.16717 12.3274C4.77111 12.1759 4.38768 11.9932 4.02047 11.7811C4.0138 11.7772 4.0082 11.7717 4.00416 11.7651C4.00012 11.7585 3.99777 11.751 3.99731 11.7433C3.99685 11.7356 3.99831 11.7278 4.00154 11.7208C4.00477 11.7138 4.00968 11.7076 4.01585 11.703C4.09312 11.6453 4.16904 11.5858 4.24357 11.5245C4.25011 11.5192 4.25802 11.5157 4.26641 11.5146C4.2748 11.5134 4.28334 11.5147 4.29107 11.5181C6.6968 12.6161 9.30132 12.6161 11.6786 11.5181C11.6863 11.5145 11.695 11.5131 11.7035 11.5141C11.712 11.5151 11.72 11.5185 11.7267 11.524C11.8013 11.5855 11.8774 11.6452 11.955 11.703C11.9612 11.7076 11.9661 11.7137 11.9694 11.7207C11.9727 11.7277 11.9742 11.7354 11.9738 11.7431C11.9734 11.7508 11.9711 11.7584 11.9671 11.765C11.9631 11.7716 11.9576 11.7772 11.9509 11.7811C11.5846 11.995 11.2008 12.1776 10.8037 12.3269C10.7975 12.3292 10.7919 12.3328 10.7872 12.3375C10.7826 12.3422 10.7789 12.3478 10.7766 12.3539C10.7742 12.3601 10.7732 12.3667 10.7735 12.3733C10.7739 12.3798 10.7757 12.3863 10.7787 12.3921C10.9986 12.8167 11.2494 13.2246 11.529 13.6125C11.5347 13.6205 11.5427 13.6264 11.552 13.6296C11.5612 13.6327 11.5713 13.6329 11.5806 13.63C12.9027 13.2255 14.1461 12.5982 15.2571 11.7754C15.2626 11.7714 15.2671 11.7664 15.2704 11.7605C15.2737 11.7547 15.2757 11.7482 15.2763 11.7416C15.5829 8.57199 14.763 5.81877 13.1029 3.37804V3.37804ZM5.55192 10.0716C4.82762 10.0716 4.23082 9.40697 4.23082 8.59067C4.23082 7.77437 4.81605 7.10964 5.55192 7.10964C6.29355 7.10964 6.88457 7.78014 6.873 8.59062C6.873 9.40697 6.28775 10.0716 5.55192 10.0716V10.0716ZM10.4364 10.0716C9.71215 10.0716 9.11535 9.40697 9.11535 8.59067C9.11535 7.77437 9.70057 7.10964 10.4364 7.10964C11.1781 7.10964 11.7691 7.78014 11.7575 8.59062C11.7575 9.40697 11.1781 10.0716 10.4364 10.0716Z" fill="#4E52F5"/>
  </svg>
