<svg width="16" height="16" viewBox="0 0 16 16" fill="none" xmlns="http://www.w3.org/2000/svg">
  <path d="M13.1029 3.37792C13.0988 3.37 13.0921 3.3638 13.0838 3.36042C12.1307 2.92314 11.125 2.61132 10.0917 2.43277C10.0823 2.43103 10.0726 2.43229 10.064 2.43637C10.0553 2.44045 10.0482 2.44716 10.0436 2.45552C9.90664 2.70409 9.78232 2.95942 9.6711 3.22052C8.55726 3.05144 7.42428 3.05144 6.31045 3.22052C6.19849 2.95876 6.07217 2.70337 5.93207 2.45552C5.92727 2.44734 5.92011 2.44079 5.91153 2.43673C5.90295 2.43267 5.89335 2.43129 5.88397 2.43277C4.85057 2.61094 3.84473 2.92279 2.89177 3.36045C2.88361 3.36391 2.87673 3.36981 2.87207 3.37735C0.966345 6.2233 0.444295 8.99927 0.700395 11.7409C0.701115 11.7476 0.70318 11.7541 0.706465 11.76C0.709751 11.7659 0.71419 11.7711 0.71952 11.7752C1.82921 12.5969 3.0704 13.224 4.39015 13.63C4.39944 13.6328 4.40936 13.6326 4.41859 13.6296C4.42781 13.6266 4.43588 13.6208 4.44172 13.6131C4.72517 13.2274 4.97633 12.819 5.19265 12.392C5.19562 12.3862 5.19732 12.3797 5.19763 12.3732C5.19794 12.3666 5.19685 12.3601 5.19444 12.3539C5.19204 12.3478 5.18836 12.3423 5.18366 12.3377C5.17896 12.3331 5.17334 12.3296 5.16717 12.3273C4.77111 12.1758 4.38768 11.9931 4.02047 11.781C4.0138 11.7771 4.0082 11.7716 4.00416 11.765C4.00012 11.7584 3.99777 11.7509 3.99731 11.7432C3.99685 11.7354 3.99831 11.7277 4.00154 11.7207C4.00477 11.7137 4.00968 11.7075 4.01585 11.7028C4.09312 11.6451 4.16904 11.5856 4.24357 11.5244C4.25011 11.519 4.25802 11.5156 4.26641 11.5145C4.2748 11.5133 4.28334 11.5146 4.29107 11.518C6.6968 12.6159 9.30132 12.6159 11.6786 11.518C11.6863 11.5143 11.695 11.5129 11.7035 11.514C11.712 11.515 11.72 11.5184 11.7267 11.5238C11.8013 11.5854 11.8774 11.6451 11.955 11.7028C11.9612 11.7075 11.9661 11.7136 11.9694 11.7206C11.9727 11.7276 11.9742 11.7353 11.9738 11.743C11.9734 11.7507 11.9711 11.7582 11.9671 11.7649C11.9631 11.7715 11.9576 11.777 11.9509 11.781C11.5845 11.9949 11.2008 12.1775 10.8037 12.3267C10.7975 12.3291 10.7919 12.3327 10.7872 12.3374C10.7826 12.342 10.7789 12.3476 10.7766 12.3538C10.7742 12.36 10.7732 12.3665 10.7735 12.3731C10.7739 12.3797 10.7757 12.3862 10.7787 12.392C10.9986 12.8166 11.2494 13.2245 11.529 13.6124C11.5347 13.6204 11.5427 13.6263 11.552 13.6295C11.5612 13.6326 11.5713 13.6328 11.5806 13.6299C12.9027 13.2253 14.1461 12.5981 15.2571 11.7752C15.2626 11.7713 15.2671 11.7662 15.2704 11.7604C15.2737 11.7546 15.2757 11.7481 15.2763 11.7414C15.5829 8.57187 14.763 5.81865 13.1029 3.37792ZM5.55192 10.0715C4.82762 10.0715 4.23082 9.40685 4.23082 8.59055C4.23082 7.77425 4.81605 7.10952 5.55192 7.10952C6.29355 7.10952 6.88457 7.78002 6.873 8.5905C6.873 9.40685 6.28775 10.0715 5.55192 10.0715ZM10.4364 10.0715C9.71215 10.0715 9.11535 9.40685 9.11535 8.59055C9.11535 7.77425 9.70057 7.10952 10.4364 7.10952C11.1781 7.10952 11.7691 7.78002 11.7575 8.5905C11.7575 9.40685 11.1781 10.0715 10.4364 10.0715Z" fill="white"/>
  </svg>
