<svg width="20" height="21" viewBox="0 0 20 21" fill="none" xmlns="http://www.w3.org/2000/svg">
  <g clip-path="url(#clip0_10_6415)">
  <path d="M16.4062 1.87793H14.5312C14.0998 1.87793 13.75 1.52815 13.75 1.09668C13.75 0.972359 13.7006 0.853131 13.6127 0.765223C13.5248 0.677316 13.4056 0.62793 13.2812 0.62793H6.71875C6.59443 0.62793 6.4752 0.677316 6.38729 0.765223C6.29939 0.853131 6.25 0.972359 6.25 1.09668C6.25 1.52815 5.90022 1.87793 5.46875 1.87793H3.59375C3.46943 1.87793 3.3502 1.92732 3.26229 2.01522C3.17439 2.10313 3.125 2.22236 3.125 2.34668V18.9092C3.125 19.0335 3.17439 19.1527 3.26229 19.2406C3.3502 19.3285 3.46943 19.3779 3.59375 19.3779H16.4062C16.5306 19.3779 16.6498 19.3285 16.7377 19.2406C16.8256 19.1527 16.875 19.0335 16.875 18.9092V2.34668C16.875 2.22236 16.8256 2.10313 16.7377 2.01522C16.6498 1.92732 16.5306 1.87793 16.4062 1.87793ZM13.1199 3.75293C13.1199 4.09811 12.8401 4.37793 12.4949 4.37793H7.50508C7.1599 4.37793 6.88008 4.09811 6.88008 3.75293C6.88008 3.40775 7.1599 3.12793 7.50508 3.12793H12.4949C12.8401 3.12793 13.1199 3.40775 13.1199 3.75293Z" fill="black"/>
  </g>
  <defs>
  <clipPath id="clip0_10_6415">
  <rect width="20" height="20" fill="white" transform="translate(0 0.00292969)"/>
  </clipPath>
  </defs>
  </svg>
