<svg width="20" height="20" viewBox="0 0 20 20" fill="none" xmlns="http://www.w3.org/2000/svg">
<path d="M16.4062 1.87501H14.5312C14.0998 1.87501 13.75 1.52524 13.75 1.09377C13.75 0.969445 13.7006 0.850217 13.6127 0.762309C13.5248 0.674401 13.4056 0.625015 13.2812 0.625015H6.71875C6.59443 0.625015 6.4752 0.674401 6.38729 0.762309C6.29939 0.850217 6.25 0.969445 6.25 1.09377C6.25 1.52524 5.90022 1.87501 5.46875 1.87501H3.59375C3.46943 1.87501 3.3502 1.9244 3.26229 2.01231C3.17439 2.10022 3.125 2.21944 3.125 2.34376V18.9063C3.125 19.0306 3.17439 19.1498 3.26229 19.2377C3.3502 19.3256 3.46943 19.375 3.59375 19.375H16.4062C16.5306 19.375 16.6498 19.3256 16.7377 19.2377C16.8256 19.1498 16.875 19.0306 16.875 18.9063V2.34376C16.875 2.21944 16.8256 2.10022 16.7377 2.01231C16.6498 1.9244 16.5306 1.87501 16.4062 1.87501ZM13.1199 3.75001C13.1199 4.09519 12.8401 4.37501 12.4949 4.37501H7.50508C7.1599 4.37501 6.88008 4.09519 6.88008 3.75001C6.88008 3.40484 7.1599 3.12501 7.50508 3.12501H12.4949C12.8401 3.12501 13.1199 3.40484 13.1199 3.75001Z" fill="black"/>
</svg>
