<svg width="16" height="16" viewBox="0 0 16 16" fill="none" xmlns="http://www.w3.org/2000/svg">
  <path d="M10.0391 2.47342C10.6297 1.79998 11.6531 1.73279 12.3266 2.32342C13 2.91404 13.0672 3.93748 12.4766 4.61092C12.4187 4.6781 12.3547 4.73904 12.2859 4.79529L11.1766 5.90466L8.88437 3.61092L10.0312 2.46404L10.0391 2.47342ZM5.44531 11.6343V11.6359H3.15313V9.34216H3.15469L8.3125 4.18435L10.6047 6.4781L5.44531 11.6343ZM2.34219 12.4578H13.6891C14.1359 12.4578 14.5 12.8203 14.5 13.2687C14.5 13.7156 14.1375 14.0797 13.6891 14.0797H2.34219C1.89531 14.0797 1.53125 13.7172 1.53125 13.2687C1.53125 12.8203 1.89375 12.4578 2.34219 12.4578Z" fill="#4E52F5"/>
  </svg>
