<svg width="20" height="20" viewBox="0 0 20 20" fill="none" xmlns="http://www.w3.org/2000/svg">
<path d="M12.5488 3.09201C13.2871 2.25022 14.5664 2.16623 15.4082 2.90451C16.25 3.64279 16.334 4.92209 15.5957 5.76389C15.5234 5.84787 15.4434 5.92404 15.3574 5.99436L13.9707 7.38107L11.1055 4.51389L12.5391 3.0803L12.5488 3.09201ZM6.80664 14.5432V14.5451H3.94141V11.6779H3.94336L10.3906 5.23068L13.2559 8.09787L6.80664 14.5432ZM2.92773 15.5725H17.1113C17.6699 15.5725 18.125 16.0256 18.125 16.5861C18.125 17.1447 17.6719 17.5998 17.1113 17.5998H2.92773C2.36914 17.5998 1.91406 17.1467 1.91406 16.5861C1.91406 16.0256 2.36719 15.5725 2.92773 15.5725Z" fill="white"/>
</svg>
