<svg width="20" height="20" viewBox="0 0 20 20" fill="none" xmlns="http://www.w3.org/2000/svg">
  <path d="M17.7498 10.1917H14.8498C14.0332 10.1917 13.3082 10.6417 12.9415 11.375L12.2415 12.7583C12.0748 13.0917 11.7415 13.3 11.3748 13.3H8.6415C8.38317 13.3 8.0165 13.2417 7.77484 12.7583L7.07484 11.3833C6.70817 10.6583 5.97484 10.2 5.1665 10.2H2.24984C1.92484 10.2 1.6665 10.4583 1.6665 10.7833V13.5C1.6665 16.525 3.48317 18.3333 6.5165 18.3333H13.4998C16.3582 18.3333 18.1165 16.7667 18.3332 13.9833V10.775C18.3332 10.4583 18.0748 10.1917 17.7498 10.1917Z" fill="currentColor" />
  <path d="M10.625 1.66666C10.625 1.32499 10.3417 1.04166 10 1.04166C9.65833 1.04166 9.375 1.32499 9.375 1.66666V3.33332H10.625V1.66666Z" fill="currentColor" />
  <path d="M18.3332 8.17501V9.04168C18.1498 8.97501 17.9498 8.94168 17.7498 8.94168H14.8498C13.5582 8.94168 12.3998 9.65834 11.8248 10.8083L11.1998 12.0417H8.8165L8.1915 10.8167C7.6165 9.65834 6.45817 8.94168 5.1665 8.94168H2.24984C2.04984 8.94168 1.84984 8.97501 1.6665 9.04168V8.17501C1.6665 5.14168 3.47484 3.33334 6.50817 3.33334H9.37484V5.99168L8.77484 5.39168C8.53317 5.15001 8.13317 5.15001 7.8915 5.39168C7.64984 5.63334 7.64984 6.03334 7.8915 6.27501L9.55817 7.94168C9.5665 7.95001 9.57484 7.95001 9.57484 7.95834C9.63317 8.00834 9.6915 8.05001 9.75817 8.07501C9.8415 8.10834 9.9165 8.12501 9.99984 8.12501C10.0832 8.12501 10.1582 8.10834 10.2332 8.07501C10.3082 8.05001 10.3832 8.00001 10.4415 7.94168L12.1082 6.27501C12.3498 6.03334 12.3498 5.63334 12.1082 5.39168C11.8665 5.15001 11.4665 5.15001 11.2248 5.39168L10.6248 5.99168V3.33334H13.4915C16.5248 3.33334 18.3332 5.14168 18.3332 8.17501Z" fill="currentColor" />
</svg>
