<svg width="20" height="21" viewBox="0 0 20 21" fill="none" xmlns="http://www.w3.org/2000/svg">
  <path d="M17.7503 10.1946H14.8503C14.0337 10.1946 13.3087 10.6446 12.942 11.3779L12.242 12.7612C12.0753 13.0946 11.742 13.3029 11.3753 13.3029H8.64199C8.38366 13.3029 8.01699 13.2446 7.77533 12.7612L7.07533 11.3862C6.70866 10.6612 5.97533 10.2029 5.16699 10.2029H2.25033C1.92533 10.2029 1.66699 10.4612 1.66699 10.7862V13.5029C1.66699 16.5279 3.48366 18.3362 6.51699 18.3362H13.5003C16.3587 18.3362 18.117 16.7696 18.3337 13.9862V10.7779C18.3337 10.4612 18.0753 10.1946 17.7503 10.1946Z" fill="white"/>
  <path d="M10.625 1.66968C10.625 1.32801 10.3417 1.04468 10 1.04468C9.65833 1.04468 9.375 1.32801 9.375 1.66968V3.33634H10.625V1.66968Z" fill="white"/>
  <path d="M18.3337 8.17785V9.04451C18.1503 8.97785 17.9503 8.94451 17.7503 8.94451H14.8503C13.5587 8.94451 12.4003 9.66118 11.8253 10.8112L11.2003 12.0445H8.81699L8.19199 10.8195C7.61699 9.66118 6.45866 8.94451 5.16699 8.94451H2.25033C2.05033 8.94451 1.85033 8.97785 1.66699 9.04451V8.17785C1.66699 5.14452 3.47533 3.33618 6.50866 3.33618H9.37533V5.99451L8.77533 5.39451C8.53366 5.15285 8.13366 5.15285 7.89199 5.39451C7.65033 5.63618 7.65033 6.03618 7.89199 6.27785L9.55866 7.94451C9.56699 7.95285 9.57533 7.95285 9.57533 7.96118C9.63366 8.01118 9.69199 8.05285 9.75866 8.07785C9.84199 8.11118 9.91699 8.12785 10.0003 8.12785C10.0837 8.12785 10.1587 8.11118 10.2337 8.07785C10.3087 8.05285 10.3837 8.00285 10.442 7.94451L12.1087 6.27785C12.3503 6.03618 12.3503 5.63618 12.1087 5.39451C11.867 5.15285 11.467 5.15285 11.2253 5.39451L10.6253 5.99451V3.33618H13.492C16.5253 3.33618 18.3337 5.14452 18.3337 8.17785Z" fill="white"/>
  </svg>
