<svg viewBox="0 0 20 20" fill="none" xmlns="http://www.w3.org/2000/svg">
  <path d="M9.35305 2.61476C9.35305 2.45172 9.41794 2.29535 9.53346 2.18006C9.64898 2.06477 9.80565 2 9.96902 2C10.1324 2 10.2891 2.06477 10.4046 2.18006C10.5201 2.29535 10.585 2.45172 10.585 2.61476V6.29935C10.585 6.4624 10.5201 6.61876 10.4046 6.73406C10.2891 6.84935 10.1324 6.91411 9.96902 6.91411C9.80565 6.91411 9.64898 6.84935 9.53346 6.73406C9.41794 6.61876 9.35305 6.4624 9.35305 6.29935V2.61397V2.61476ZM13.1289 3.2942C13.2142 3.16062 13.3479 3.06507 13.5021 3.02749C13.6563 2.9899 13.8191 3.01318 13.9565 3.09247C14.0939 3.17175 14.1954 3.30093 14.2397 3.45305C14.284 3.60517 14.2678 3.76849 14.1944 3.90896L12.3481 7.10014C12.2628 7.23372 12.1291 7.32927 11.9748 7.36685C11.8206 7.40443 11.6579 7.38116 11.5204 7.30187C11.383 7.22258 11.2816 7.09341 11.2372 6.94129C11.1929 6.78917 11.2092 6.62585 11.2826 6.48538L13.1281 3.2942H13.1289ZM16.0567 5.76682C16.1269 5.72285 16.2052 5.69344 16.287 5.68037C16.3688 5.6673 16.4524 5.67084 16.5328 5.69076C16.6132 5.71068 16.6887 5.74658 16.7549 5.79631C16.8211 5.84605 16.8765 5.90859 16.9179 5.98021C16.9593 6.05182 16.9858 6.13103 16.9958 6.2131C17.0058 6.29518 16.9991 6.37842 16.9762 6.45785C16.9532 6.53729 16.9144 6.61129 16.8621 6.67542C16.8098 6.73954 16.7451 6.79249 16.6719 6.83108L13.4744 8.67298C13.3337 8.74623 13.1701 8.76243 13.0176 8.71819C12.8652 8.67396 12.7358 8.57271 12.6563 8.43555C12.5769 8.2984 12.5536 8.13593 12.5912 7.98203C12.6289 7.82813 12.7246 7.69468 12.8585 7.60952L16.0559 5.76682H16.0567ZM17.3526 9.36997C17.4361 9.36573 17.5195 9.37846 17.5978 9.4074C17.6762 9.43633 17.7478 9.48087 17.8083 9.5383C17.8689 9.59573 17.9171 9.66485 17.9501 9.74146C17.983 9.81807 18 9.90057 18 9.98394C18 10.0673 17.983 10.1498 17.9501 10.2264C17.9171 10.303 17.8689 10.3721 17.8083 10.4296C17.7478 10.487 17.6762 10.5315 17.5978 10.5605C17.5195 10.5894 17.4361 10.6022 17.3526 10.5979H13.6608C13.5031 10.5899 13.3545 10.5217 13.2457 10.4074C13.1369 10.2932 13.0762 10.1416 13.0762 9.98394C13.0762 9.82632 13.1369 9.67472 13.2457 9.56045C13.3545 9.44619 13.5031 9.37801 13.6608 9.36997H17.3534H17.3526ZM16.6719 13.1368C16.8085 13.2207 16.907 13.3545 16.9463 13.5097C16.9857 13.6649 16.9628 13.8293 16.8825 13.9679C16.8023 14.1066 16.671 14.2085 16.5167 14.252C16.3623 14.2956 16.197 14.2773 16.0559 14.2011L12.8585 12.3584C12.7246 12.2732 12.6289 12.1397 12.5912 11.9858C12.5536 11.8319 12.5769 11.6695 12.6563 11.5323C12.7358 11.3952 12.8652 11.2939 13.0176 11.2497C13.1701 11.2055 13.3337 11.2217 13.4744 11.2949L16.6719 13.1368ZM14.1944 16.0589C14.2375 16.1289 14.2662 16.2068 14.2786 16.288C14.2911 16.3692 14.2871 16.4521 14.2669 16.5318C14.2467 16.6114 14.2107 16.6862 14.1611 16.7518C14.1114 16.8173 14.0491 16.8722 13.9778 16.9133C13.9066 16.9544 13.8277 16.9809 13.7461 16.991C13.6644 17.0012 13.5815 16.995 13.5022 16.9726C13.423 16.9503 13.3491 16.9123 13.2848 16.861C13.2206 16.8096 13.1673 16.7459 13.1281 16.6737L11.2826 13.4825C11.2092 13.342 11.1929 13.1787 11.2372 13.0266C11.2816 12.8745 11.383 12.7453 11.5204 12.666C11.6579 12.5867 11.8206 12.5634 11.9748 12.601C12.1291 12.6386 12.2628 12.7342 12.3481 12.8677L14.1944 16.0589ZM10.5842 17.3539C10.5884 17.4372 10.5757 17.5204 10.5467 17.5986C10.5177 17.6768 10.4731 17.7483 10.4155 17.8087C10.358 17.8692 10.2887 17.9173 10.212 17.9502C10.1352 17.983 10.0525 18 9.96902 18C9.88548 18 9.80282 17.983 9.72606 17.9502C9.6493 17.9173 9.58005 17.8692 9.5225 17.8087C9.46496 17.7483 9.42034 17.6768 9.39134 17.5986C9.36235 17.5204 9.34959 17.4372 9.35385 17.3539V13.6685C9.36189 13.5111 9.43022 13.3628 9.5447 13.2542C9.65919 13.1456 9.81108 13.0851 9.96902 13.0851C10.1269 13.0851 10.2788 13.1456 10.3933 13.2542C10.5078 13.3628 10.5761 13.5111 10.5842 13.6685V17.3539ZM6.80997 16.6737C6.72593 16.8101 6.59189 16.9083 6.43637 16.9476C6.28085 16.9868 6.11612 16.964 5.97721 16.8839C5.83831 16.8038 5.73618 16.6728 5.69256 16.5188C5.64894 16.3647 5.66726 16.1997 5.74363 16.0589L7.58994 12.8677C7.67527 12.7342 7.80898 12.6386 7.96318 12.601C8.11738 12.5634 8.28017 12.5867 8.41759 12.666C8.55502 12.7453 8.65647 12.8745 8.70079 13.0266C8.74511 13.1787 8.72888 13.342 8.65548 13.4825L6.80997 16.6737ZM3.88212 14.2011C3.74105 14.2773 3.57575 14.2956 3.42138 14.252C3.267 14.2085 3.13574 14.1066 3.0555 13.9679C2.97526 13.8293 2.95238 13.6649 2.99172 13.5097C3.03106 13.3545 3.12951 13.2207 3.26615 13.1368L6.46359 11.2949C6.60434 11.2217 6.76798 11.2055 6.9204 11.2497C7.07282 11.2939 7.20224 11.3952 7.28169 11.5323C7.36113 11.6695 7.38445 11.8319 7.34679 11.9858C7.30914 12.1397 7.2134 12.2732 7.07956 12.3584L3.88132 14.2011H3.88212ZM2.58459 10.5979C2.42686 10.5899 2.27825 10.5217 2.16946 10.4074C2.06066 10.2932 2 10.1416 2 9.98394C2 9.82632 2.06066 9.67472 2.16946 9.56045C2.27825 9.44619 2.42686 9.37801 2.58459 9.36997H6.2772C6.43493 9.37801 6.58354 9.44619 6.69233 9.56045C6.80113 9.67472 6.86179 9.82632 6.86179 9.98394C6.86179 10.1416 6.80113 10.2932 6.69233 10.4074C6.58354 10.5217 6.43493 10.5899 6.2772 10.5979H2.58459ZM3.26615 6.83108C3.12951 6.7472 3.03106 6.61342 2.99172 6.45821C2.95238 6.303 2.97526 6.13859 3.0555 5.99995C3.13574 5.86131 3.267 5.75939 3.42138 5.71585C3.57575 5.67232 3.74105 5.6906 3.88212 5.76682L7.07956 7.60952C7.2134 7.69468 7.30914 7.82813 7.34679 7.98203C7.38445 8.13593 7.36113 8.2984 7.28169 8.43555C7.20224 8.57271 7.07282 8.67396 6.9204 8.71819C6.76798 8.76243 6.60434 8.74623 6.46359 8.67298L3.26615 6.83108ZM5.74363 3.90896C5.66726 3.76816 5.64894 3.60319 5.69256 3.44912C5.73618 3.29505 5.83831 3.16404 5.97721 3.08396C6.11612 3.00387 6.28085 2.98103 6.43637 3.0203C6.59189 3.05956 6.72593 3.15783 6.80997 3.2942L8.65548 6.48538C8.72888 6.62585 8.74511 6.78917 8.70079 6.94129C8.65647 7.09341 8.55502 7.22258 8.41759 7.30187C8.28017 7.38116 8.11738 7.40443 7.96318 7.36685C7.80898 7.32927 7.67527 7.23372 7.58994 7.10014L5.74363 3.90816V3.90896Z" fill="#6F6F6F"/>
</svg>
