<svg width="113" height="22" viewBox="0 0 113 22" fill="none" xmlns="http://www.w3.org/2000/svg">
  <path d="M0 0H8.44756L11.3097 13.5505L14.1719 0H22.6194V22H17.0618V8.1174H16.9507L13.7273 22H8.91995L5.64097 8.1174H5.5576V22H0V0Z" fill="black" />
  <path d="M37.7381 22L36.71 17.7107H30.5132L29.4851 22H23.4551L29.3739 0H37.8493L43.7959 22H37.7381ZM31.5692 13.283H35.654L33.6533 4.78742H33.5977L31.5692 13.283Z" fill="black" />
  <path d="M51.0185 22H45.4609V0H51.0185V22Z" fill="black" />
  <path d="M67.5793 22H53.5186V0H59.0762V16.6499H67.5793V22Z" fill="black" />
  <path d="M69.8447 5.53459V0H87.9996V5.53459H69.8447Z" fill="#4E52F5" />
  <path d="M69.8447 21.9955V16.4609H87.9996V21.9955H69.8447Z" fill="#4E52F5" />
  <path d="M69.8447 13.7651V8.23047H87.9996V13.7651H69.8447Z" fill="#4E52F5" />
  <path d="M101.396 6.39624H102.811V7.81133H101.396V6.39624ZM103.094 6.39624H104.509V7.81133H103.094V6.39624ZM104.792 6.39624H106.208V7.81133H104.792V6.39624ZM106.491 6.39624H107.906V7.81133H106.491V6.39624ZM108.189 6.39624H109.604V7.81133H108.189V6.39624ZM101.396 8.09435H102.811V9.50945H101.396V8.09435ZM98 6.39624H99.4151V7.81133H98V6.39624ZM99.6981 6.39624H101.113V7.81133H99.6981V6.39624ZM111.585 6.39624H113V7.81133H111.585V6.39624ZM109.887 6.39624H111.302V7.81133H109.887V6.39624ZM99.6981 8.09435H101.113V9.50945H99.6981V8.09435ZM103.094 8.09435H104.509V9.50945H103.094V8.09435ZM104.792 8.09435H106.208V9.50945H104.792V8.09435ZM106.491 8.09435H107.906V9.50945H106.491V8.09435ZM108.189 8.09435H109.604V9.50945H108.189V8.09435ZM101.396 9.79247H102.811V11.2076H101.396V9.79247ZM103.094 9.79247H104.509V11.2076H103.094V9.79247ZM104.792 9.79247H106.208V11.2076H104.792V9.79247ZM106.491 9.79247H107.906V11.2076H106.491V9.79247ZM108.189 9.79247H109.604V11.2076H108.189V9.79247ZM103.094 11.4906H104.509V12.9057H103.094V11.4906ZM104.792 11.4906H106.208V12.9057H104.792V11.4906ZM106.491 11.4906H107.906V12.9057H106.491V11.4906ZM104.792 13.1887H106.208V14.6038H104.792V13.1887ZM109.887 8.09435H111.302V9.50945H109.887V8.09435Z" fill="#4E52F5" />
</svg>
