<svg width="20" height="20" viewBox="0 0 20 20" fill="none" xmlns="http://www.w3.org/2000/svg">
  <path d="M14 1.66667H11.8333C9.16667 1.66667 7.5 3.33334 7.5 6.00001V9.37501H12.7083C13.05 9.37501 13.3333 9.65834 13.3333 10C13.3333 10.3417 13.05 10.625 12.7083 10.625H7.5V14C7.5 16.6667 9.16667 18.3333 11.8333 18.3333H13.9917C16.6583 18.3333 18.325 16.6667 18.325 14V6.00001C18.3333 3.33334 16.6667 1.66667 14 1.66667Z" fill="#292D32" />
  <path d="M3.79922 9.375L5.52422 7.65C5.64922 7.525 5.70755 7.36667 5.70755 7.20834C5.70755 7.05 5.64922 6.88334 5.52422 6.76667C5.28255 6.525 4.88255 6.525 4.64089 6.76667L1.84922 9.55834C1.60755 9.8 1.60755 10.2 1.84922 10.4417L4.64089 13.2333C4.88255 13.475 5.28255 13.475 5.52422 13.2333C5.76589 12.9917 5.76589 12.5917 5.52422 12.35L3.79922 10.625H7.49922V9.375H3.79922V9.375Z" fill="#292D32" />
</svg>
