<svg viewBox="0 0 239 90" fill="none" xmlns="http://www.w3.org/2000/svg">
  <path d="M104.012 29.9805C104.012 31.9774 102.332 33.9743 100.732 33.5749C100.133 33.3847 99.5834 33.0664 99.1206 32.6422C98.6577 32.218 98.2932 31.6981 98.0522 31.1187C97.6123 29.3814 100.052 26.9652 101.612 27.0051C103.172 27.0451 103.992 28.1034 104.012 29.9805Z" fill="black"/>
  <path d="M235.242 51.6044C233.427 50.7382 231.548 50.0106 229.623 49.4278C226.863 48.5092 224.083 47.6705 221.303 46.8318C218.148 45.6806 214.904 44.7857 211.604 44.156C207.499 43.6703 203.654 41.8941 200.625 39.0839C199.442 37.8911 197.92 37.0895 196.266 36.7874C188.886 36.3481 181.487 36.2483 174.087 36.0685C166.988 35.9487 159.989 35.8289 152.809 35.5693C150.809 35.5693 149.79 34.1515 149.53 32.0348C148.471 22.9703 146.009 14.125 142.23 5.8156C141.755 4.55912 140.965 3.44573 139.935 2.5825C138.904 1.71927 137.669 1.13523 136.347 0.886525C135.026 0.637825 133.662 0.732834 132.388 1.16242C131.114 1.592 129.971 2.34171 129.071 3.33945C125.572 7.33324 118.472 7.15352 114.452 3.63899C109.773 -0.474612 108.593 -0.973836 102.493 1.50231C98.4938 3.13977 96.914 6.59439 95.5341 10.049C93.5543 14.9078 91.9171 19.8989 90.6345 24.9858C89.5146 29.5587 85.6949 31.7553 83.0551 34.9702C82.4306 35.491 81.6486 35.7864 80.8353 35.8089C75.4758 36.5079 70.0962 37.067 64.8367 37.8058C53.6376 39.3501 42.4585 40.9476 31.2995 42.5984C24.0001 43.6767 16.7007 44.7351 9.50131 46.073C7.14199 46.5292 4.89805 47.4526 2.90187 48.7888C2.00658 49.3138 1.2665 50.0663 0.756896 50.9696C0.24729 51.8728 -0.0136701 52.8948 0.000551714 53.9315C0.0147735 54.9681 0.30367 55.9826 0.837864 56.8716C1.37206 57.7606 2.1325 58.4925 3.04186 58.9929C8.88136 62.3876 15.0408 64.7839 22.1602 63.5059C28.4997 62.4076 34.9792 62.0681 41.3986 61.509C55.3975 60.3508 69.2363 63.5059 83.1351 64.6241C84.0569 64.8311 84.9548 65.1322 85.8149 65.5227C84.9208 66.3263 83.9719 67.0669 82.9751 67.7393C81.3553 68.6379 79.6554 69.3967 77.9556 70.1755C74.5558 71.7331 73.9559 74.3889 76.9356 76.6254C79.4551 78.6149 82.3745 80.0384 85.4949 80.799C94.2203 82.5091 103.157 82.8728 111.993 81.8773C115.992 81.418 119.992 81.0386 123.992 80.8189C133.831 80.2798 143.69 80.0202 153.529 79.3213C156.829 79.1016 160.349 77.8635 161.329 74.1693C162.508 69.7761 164.188 69.197 168.668 69.4366C175.607 69.836 182.667 70.1156 189.446 71.0142C196.013 71.8544 202.682 70.7722 208.645 67.899C213.829 65.4408 219.467 64.0811 225.203 63.9052C229.287 63.7156 233.161 62.0474 236.102 59.2125C238.942 56.6166 238.582 53.3017 235.242 51.6044ZM105.833 6.25492C106.573 5.91769 107.398 5.81348 108.198 5.95619C108.998 6.09889 109.736 6.48172 110.313 7.05368C115.232 12.2656 121.452 12.0459 127.691 11.0475C129.572 10.3448 131.234 9.16023 132.511 7.61281C134.711 5.61591 136.751 5.61591 137.651 8.59128C138.45 11.1273 139.17 13.6834 139.91 16.2394C132.836 16.9266 126.142 19.7632 120.732 24.3667C114.671 19.2706 107.09 16.3216 99.1738 15.9798C99.5537 14.7817 99.9337 13.5835 100.354 12.3854C100.698 10.995 101.376 9.7096 102.332 8.64112C103.287 7.57265 104.489 6.75347 105.833 6.25492ZM120.792 28.4005C122.432 30.3741 123.46 32.7819 123.752 35.3297C123.845 36.0929 123.784 36.867 123.572 37.6062C123.012 39.4633 122.072 40.4218 120.772 40.4218C120.352 40.4218 119.032 40.4218 118.152 38.0854C117.787 37.0481 117.684 35.937 117.852 34.8504C118.24 32.4777 119.255 30.2512 120.792 28.4005ZM229.143 57.2156C227.455 57.9559 225.645 58.3757 223.803 58.4537C218.528 58.4464 213.319 59.6273 208.565 61.9083C206.673 62.7969 204.73 63.5704 202.745 64.2247C192.746 67.2001 182.427 65.6226 172.248 64.8038C169.581 64.6316 166.904 64.6917 164.248 64.9836C162.698 65.0504 161.203 65.5812 159.958 66.5071C158.714 67.4329 157.777 68.7111 157.269 70.1755C156.925 71.2908 156.22 72.2605 155.264 72.9327C154.309 73.6049 153.157 73.9415 151.989 73.8897C142.79 74.1959 133.591 74.6419 124.392 75.2276C117.472 75.6869 110.573 76.8052 103.653 76.9849C97.752 76.9279 91.8577 76.5613 85.9949 75.8866C84.6145 75.6247 83.2714 75.1956 81.9952 74.6086L91.2144 67.5596C93.9542 65.4628 94.1142 63.5658 91.0145 62.0481C87.5017 60.4773 83.7967 59.3762 79.9954 58.7732C73.256 57.5951 66.4365 56.5966 59.5971 56.0574C51.0706 55.1714 42.4645 55.4064 33.9993 56.7564C28.3663 57.7995 22.6497 58.3275 16.9207 58.3339C13.5995 57.9565 10.3557 57.0743 7.3015 55.718C6.91203 55.518 6.57079 55.2358 6.30143 54.891C6.03208 54.5462 5.84106 54.147 5.74163 53.7211C5.74163 53.2818 6.86153 52.3632 7.60147 52.2034C13.601 50.9654 19.4605 49.7672 25.4 48.6889C31.3395 47.6106 36.699 46.8118 42.3386 45.8733C43.6422 45.5081 44.985 45.3002 46.3382 45.2543C53.7376 45.8533 60.677 43.1575 67.8964 42.4985C72.156 42.0992 76.3757 41.3204 80.6153 40.7413C82.1148 40.6657 83.5786 40.2573 84.9001 39.5457C86.2216 38.8341 87.3676 37.8373 88.2547 36.6277C88.4583 36.3333 88.7189 36.0826 89.0212 35.8905C89.3235 35.6985 89.6612 35.5689 90.0145 35.5094C92.4343 35.3896 93.2543 33.832 93.8942 31.8351C94.8741 28.8198 95.994 25.9643 96.994 23.0887C97.4739 21.631 97.8939 20.1733 98.3338 18.6956C105.827 18.8689 113.045 21.5479 118.832 26.3037C116.831 28.6113 115.521 31.4348 115.052 34.4511C114.811 36.0078 114.962 37.6002 115.492 39.0839C115.8 40.2572 116.481 41.2988 117.434 42.0516C118.386 42.8044 119.558 43.2276 120.772 43.2574C122.107 43.1956 123.382 42.6813 124.385 41.7992C125.389 40.917 126.061 39.7198 126.291 38.4049C126.612 37.3174 126.714 36.1772 126.591 35.0501C126.206 31.8337 124.861 28.8073 122.732 26.3636C127.824 22.0956 134.108 19.4952 140.73 18.9152C141.81 22.7892 142.87 26.6632 143.91 30.5371C144.59 33.0133 144.71 35.6692 145.53 38.1054C145.775 38.6923 146.157 39.2124 146.644 39.6222C147.131 40.0321 147.709 40.3199 148.33 40.4617C157.269 40.6814 166.328 40.6614 175.167 40.6814C181.647 40.6814 188.106 40.6814 194.566 40.6814C194.954 40.6897 195.336 40.7856 195.682 40.962C196.029 41.1383 196.331 41.3905 196.566 41.6998C199.085 45.8733 203.425 47.1912 207.605 48.3095C211.784 49.4278 216.644 49.1881 220.844 51.6243C223.183 53.0022 226.263 53.0421 228.963 53.8409C229.763 54.2234 230.499 54.7288 231.143 55.3386C230.443 55.9177 229.983 56.9361 229.143 57.2156Z" fill="black"/>
  <path d="M35.1356 74.4889C32.9686 74.6628 30.7879 74.5351 28.6561 74.1095C24.1365 73.151 19.7369 70.555 15.0373 73.4904C14.7173 73.6702 14.2373 73.5903 13.8374 73.6901C11.7788 74.0468 9.87787 75.0214 8.38801 76.4841C6.89815 77.9468 5.89006 79.8281 5.49807 81.8774C5.1581 83.7545 5.49807 85.4119 7.4979 86.0509C9.60574 86.7438 11.7756 87.2319 13.9774 87.5086C16.9971 87.888 20.0768 87.7882 23.0766 88.2075C25.5915 88.6655 28.0813 89.252 30.536 89.9648C32.6328 89.9594 34.7032 89.4974 36.6028 88.6111C38.5025 87.7247 40.1856 86.4353 41.535 84.8328C43.3149 82.8359 43.9348 79.2615 42.6149 77.9834C40.4751 76.0664 38.3353 74.2692 35.1356 74.4889ZM36.7754 82.6562C34.8751 83.6509 32.7779 84.2133 30.6342 84.3031C28.4905 84.3929 26.3535 84.0077 24.3765 83.1754C22.3853 82.6166 20.3252 82.3409 18.257 82.3566C16.3972 82.2568 14.5373 82.3566 12.6775 82.3566C12.0175 82.3566 11.3776 81.6777 10.6776 81.3183C11.0776 80.7392 11.3376 79.9404 11.8575 79.6608C14.4373 78.3429 16.8971 76.5656 20.2968 77.5242C25.4164 78.0434 30.7959 78.5226 36.1555 79.1616C37.0244 79.4436 37.8367 79.8762 38.5553 80.4396C37.9953 81.1785 37.5754 82.2368 36.7754 82.6562Z" fill="black"/>
  <path d="M131.308 24.3667C129.709 24.3667 128.489 25.0856 128.349 26.8628C128.338 27.3031 128.415 27.7411 128.576 28.1513C128.737 28.5614 128.978 28.9354 129.285 29.2515C129.592 29.5675 129.96 29.8193 130.365 29.992C130.771 30.1647 131.207 30.255 131.648 30.2575C133.208 30.2575 134.488 29.6784 134.568 27.8014C134.584 27.3611 134.512 26.922 134.356 26.5098C134.2 26.0977 133.964 25.7207 133.66 25.4009C133.357 25.0811 132.992 24.8249 132.589 24.6474C132.185 24.4698 131.75 24.3744 131.308 24.3667Z" fill="black"/>
</svg>
