<svg viewBox="0 0 14 14" fill="none" xmlns="http://www.w3.org/2000/svg">
  <path d="M9.444 1.16669H4.55567C2.43234 1.16669 1.1665 2.43252 1.1665 4.55585V9.43835C1.1665 11.5675 2.43234 12.8334 4.55567 12.8334H9.43817C11.5615 12.8334 12.8273 11.5675 12.8273 9.44419V4.55585C12.8332 2.43252 11.5673 1.16669 9.444 1.16669ZM6.99984 10.8384C5.15067 10.8384 3.64567 9.33335 3.64567 7.48419C3.64567 5.67002 5.09234 4.19419 6.889 4.13002L6.67317 3.87919C6.51567 3.69835 6.53317 3.41835 6.714 3.26085C6.89484 3.10335 7.17484 3.12085 7.33234 3.30169L8.30067 4.41002C8.31234 4.42169 8.31817 4.43335 8.32984 4.44502C8.35317 4.48002 8.3765 4.52085 8.38817 4.56169C8.394 4.58502 8.39984 4.60835 8.40567 4.63169C8.41734 4.68419 8.4115 4.74252 8.39984 4.79502C8.38817 4.84169 8.37067 4.88835 8.34734 4.93502C8.3415 4.94669 8.32984 4.95835 8.324 4.97002C8.30067 5.00502 8.26567 5.03419 8.23067 5.05752C8.23067 5.05752 8.22484 5.05752 8.22484 5.06335L7.09317 5.89169C6.89484 6.03169 6.6265 5.99085 6.48067 5.79835C6.34067 5.60585 6.3815 5.33169 6.574 5.18585L6.81317 5.01085C5.52984 5.10419 4.51484 6.17752 4.51484 7.48419C4.51484 8.84919 5.629 9.96335 6.994 9.96335C8.359 9.96335 9.47317 8.84919 9.47317 7.48419C9.47317 6.99419 9.32734 6.51585 9.059 6.10752C8.92484 5.90919 8.97734 5.63502 9.1815 5.50085C9.38567 5.36669 9.654 5.41919 9.78817 5.62335C10.1557 6.17752 10.354 6.81919 10.354 7.48419C10.354 9.33335 8.849 10.8384 6.99984 10.8384Z" fill="#4E52F5"/>
</svg>
