<svg width="20" height="21" viewBox="0 0 20 21" fill="none" xmlns="http://www.w3.org/2000/svg">
  <path d="M18.4763 1.5294C18.3485 1.40162 18.1865 1.3135 18.0098 1.27566C17.8331 1.23782 17.6492 1.25187 17.4802 1.31611L1.85408 7.23057H1.85096C1.67079 7.29986 1.5164 7.42309 1.40888 7.58341C1.30136 7.74373 1.24596 7.93334 1.25023 8.12633C1.2545 8.31932 1.31825 8.50629 1.43276 8.6617C1.54727 8.8171 1.70696 8.93337 1.89002 8.99463L1.90604 8.9997L7.26932 11.2899C7.37392 11.3217 7.48503 11.3255 7.59155 11.3009C7.69807 11.2762 7.79627 11.2241 7.87635 11.1497L16.4842 3.129C16.5098 3.10336 16.5403 3.08301 16.5738 3.06913C16.6073 3.05525 16.6432 3.0481 16.6795 3.0481C16.7157 3.0481 16.7517 3.05525 16.7852 3.06913C16.8187 3.08301 16.8491 3.10336 16.8748 3.129C16.9004 3.15465 16.9208 3.1851 16.9347 3.21861C16.9485 3.25213 16.9557 3.28804 16.9557 3.32432C16.9557 3.36059 16.9485 3.39651 16.9347 3.43002C16.9208 3.46353 16.9004 3.49398 16.8748 3.51963L8.85369 12.1235C8.77927 12.2036 8.72715 12.3018 8.70254 12.4083C8.67794 12.5148 8.6817 12.626 8.71346 12.7306L11.0045 18.097C11.0068 18.1048 11.0092 18.1118 11.0119 18.1192C11.1369 18.4813 11.4533 18.7368 11.8357 18.754C11.8525 18.754 11.8584 18.754 11.8748 18.754C12.0678 18.7551 12.2568 18.6981 12.417 18.5904C12.5772 18.4827 12.7013 18.3293 12.7732 18.1501L18.6869 2.52822C18.7521 2.35919 18.7668 2.1749 18.7295 1.99764C18.6921 1.82038 18.6042 1.65774 18.4763 1.5294Z" fill="black"/>
  </svg>
