<svg width="20" height="20" viewBox="0 0 20 20" fill="none" xmlns="http://www.w3.org/2000/svg">
  <path d="M10.0002 6.875C9.38215 6.875 8.77796 7.05828 8.26406 7.40166C7.75016 7.74504 7.34962 8.23309 7.11309 8.80411C6.87657 9.37513 6.81468 10.0035 6.93526 10.6097C7.05584 11.2158 7.35347 11.7727 7.79051 12.2097C8.22755 12.6467 8.78437 12.9444 9.39056 13.065C9.99675 13.1855 10.6251 13.1236 11.1961 12.8871C11.7671 12.6506 12.2552 12.2501 12.5986 11.7362C12.9419 11.2223 13.1252 10.6181 13.1252 10C13.1227 9.17196 12.7927 8.37854 12.2072 7.79302C11.6217 7.20751 10.8283 6.87747 10.0002 6.875ZM16.7471 10C16.7455 10.292 16.7241 10.5836 16.683 10.8727L18.585 12.3617C18.6678 12.4301 18.7236 12.5257 18.7425 12.6315C18.7613 12.7373 18.7419 12.8463 18.6877 12.9391L16.8885 16.0453C16.8338 16.1373 16.7484 16.207 16.6474 16.2422C16.5464 16.2774 16.4362 16.2759 16.3362 16.2379L14.0998 15.3395C13.6342 15.698 13.1246 15.9956 12.5834 16.225L12.249 18.5992C12.2303 18.7056 12.1753 18.8021 12.0933 18.8724C12.0113 18.9426 11.9074 18.9822 11.7994 18.9844H8.201C8.095 18.9823 7.99284 18.9444 7.91118 18.8768C7.82952 18.8092 7.77319 18.7159 7.75139 18.6121L7.41701 16.2379C6.87438 16.0112 6.36442 15.7131 5.90061 15.3516L3.66428 16.25C3.56431 16.288 3.45413 16.2896 3.35311 16.2545C3.25209 16.2193 3.16669 16.1497 3.11194 16.0578L1.31272 12.952C1.25856 12.8592 1.23916 12.7502 1.25798 12.6444C1.2768 12.5386 1.33262 12.443 1.41545 12.3746L3.31741 10.8855C3.27684 10.5921 3.25544 10.2963 3.25334 10C3.25497 9.708 3.27637 9.41645 3.31741 9.12734L1.41545 7.63828C1.33262 7.56988 1.2768 7.47425 1.25798 7.36849C1.23916 7.26272 1.25856 7.15371 1.31272 7.06094L3.11194 3.95469C3.16663 3.86273 3.252 3.79301 3.35303 3.75779C3.45406 3.72256 3.56427 3.72409 3.66428 3.76211L5.90061 4.66055C6.36628 4.30196 6.87588 4.00436 7.41701 3.775L7.75139 1.40078C7.7701 1.29443 7.82517 1.19788 7.90717 1.12763C7.98918 1.05738 8.09304 1.01779 8.201 1.01562H11.7994C11.9054 1.01769 12.0076 1.05562 12.0893 1.12323C12.1709 1.19084 12.2272 1.28414 12.249 1.38789L12.5834 3.76211C13.1267 3.98866 13.6374 4.28674 14.1018 4.64844L16.3362 3.75C16.4361 3.71195 16.5463 3.71036 16.6473 3.74551C16.7483 3.78066 16.8337 3.8503 16.8885 3.94219L18.6877 7.04844C18.7419 7.14121 18.7613 7.25022 18.7425 7.35599C18.7236 7.46175 18.6678 7.55738 18.585 7.62578L16.683 9.11484C16.7236 9.40819 16.745 9.70387 16.7471 10Z" fill="black"/>
  </svg>
