<svg width="18" height="18" viewBox="0 0 18 18" fill="none" xmlns="http://www.w3.org/2000/svg">
<path d="M12.493 0.666656H5.50964C2.4763 0.666656 0.667969 2.47499 0.667969 5.50832V12.4833C0.667969 15.525 2.4763 17.3333 5.50964 17.3333H12.4846C15.518 17.3333 17.3263 15.525 17.3263 12.4917V5.50832C17.3346 2.47499 15.5263 0.666656 12.493 0.666656ZM4.39297 6.73332C4.1513 6.49166 4.1513 6.09166 4.39297 5.84999C5.46797 4.77499 7.2263 4.77499 8.30964 5.84999C8.5513 6.09166 8.5513 6.49166 8.30964 6.73332C8.18464 6.85832 8.0263 6.91666 7.86797 6.91666C7.70964 6.91666 7.5513 6.85832 7.4263 6.73332C6.83463 6.14166 5.86797 6.14166 5.2763 6.73332C5.03464 6.98332 4.63464 6.98332 4.39297 6.73332ZM12.0013 14.0667H6.0013C5.41797 14.0667 4.94297 13.5917 4.94297 13C4.94297 10.7583 6.76797 8.93332 9.00963 8.93332C11.2513 8.93332 13.0763 10.7583 13.0763 13C13.068 13.5833 12.5846 14.0667 12.0013 14.0667ZM13.6096 6.73332C13.368 6.97499 12.968 6.97499 12.7263 6.73332C12.1346 6.14166 11.168 6.14166 10.5763 6.73332C10.4513 6.85832 10.293 6.91666 10.1346 6.91666C9.9763 6.91666 9.81797 6.85832 9.69297 6.73332C9.4513 6.49166 9.4513 6.09166 9.69297 5.84999C10.768 4.77499 12.5263 4.77499 13.6096 5.84999C13.8513 6.09999 13.8513 6.49166 13.6096 6.73332Z" fill="#292D32"/>
</svg>
