<svg width="20" height="21" viewBox="0 0 20 21" fill="none" xmlns="http://www.w3.org/2000/svg">
  <path d="M14.0166 1.66943H5.98327C4.20827 1.66943 2.7666 3.11943 2.7666 4.8861V16.6278C2.7666 18.1278 3.8416 18.7611 5.15827 18.0361L9.22493 15.7778C9.65827 15.5361 10.3583 15.5361 10.7833 15.7778L14.8499 18.0361C16.1666 18.7694 17.2416 18.1361 17.2416 16.6278V4.8861C17.2333 3.11943 15.7916 1.66943 14.0166 1.66943ZM12.0833 9.50277H10.6249V11.0111C10.6249 11.3528 10.3416 11.6361 9.99994 11.6361C9.65827 11.6361 9.37494 11.3528 9.37494 11.0111V9.50277H7.9166C7.57493 9.50277 7.2916 9.21943 7.2916 8.87777C7.2916 8.5361 7.57493 8.25277 7.9166 8.25277H9.37494V6.84443C9.37494 6.50277 9.65827 6.21943 9.99994 6.21943C10.3416 6.21943 10.6249 6.50277 10.6249 6.84443V8.25277H12.0833C12.4249 8.25277 12.7083 8.5361 12.7083 8.87777C12.7083 9.21943 12.4249 9.50277 12.0833 9.50277Z" fill="currentColor"/>
</svg>
