<svg width="20" height="19" viewBox="0 0 20 19" fill="none" xmlns="http://www.w3.org/2000/svg">
<path d="M14.0166 1.6665H5.98327C4.20827 1.6665 2.7666 3.1165 2.7666 4.88317V16.6248C2.7666 18.1248 3.8416 18.7582 5.15827 18.0332L9.22493 15.7748C9.65827 15.5332 10.3583 15.5332 10.7833 15.7748L14.8499 18.0332C16.1666 18.7665 17.2416 18.1332 17.2416 16.6248V4.88317C17.2333 3.1165 15.7916 1.6665 14.0166 1.6665ZM12.0833 9.49984H10.6249V11.0082C10.6249 11.3498 10.3416 11.6332 9.99994 11.6332C9.65827 11.6332 9.37494 11.3498 9.37494 11.0082V9.49984H7.9166C7.57493 9.49984 7.2916 9.2165 7.2916 8.87484C7.2916 8.53317 7.57493 8.24984 7.9166 8.24984H9.37494V6.8415C9.37494 6.49984 9.65827 6.2165 9.99994 6.2165C10.3416 6.2165 10.6249 6.49984 10.6249 6.8415V8.24984H12.0833C12.4249 8.24984 12.7083 8.53317 12.7083 8.87484C12.7083 9.2165 12.4249 9.49984 12.0833 9.49984Z" fill="currentColor"/>
</svg>
