<svg viewBox="0 0 20 20" fill="none" xmlns="http://www.w3.org/2000/svg">
  <path d="M9.99984 1.66675C14.6022 1.66675 18.3332 5.39771 18.3332 10.0001C18.3332 14.6025 14.6022 18.3334 9.99984 18.3334C5.39746 18.3334 1.6665 14.6025 1.6665 10.0001C1.6665 5.39771 5.39746 1.66675 9.99984 1.66675ZM12.6829 7.47481L8.95817 11.1995L7.31678 9.55814C7.0727 9.31406 6.67697 9.31406 6.4329 9.55814C6.18882 9.80222 6.18882 10.1979 6.4329 10.442L8.51623 12.5254C8.76031 12.7694 9.15603 12.7694 9.40011 12.5254L13.5668 8.35869C13.8109 8.11461 13.8109 7.71888 13.5668 7.47481C13.3227 7.23073 12.927 7.23073 12.6829 7.47481Z" fill="#212121"/>
</svg>
