<svg width="24" height="24" viewBox="0 0 24 24" fill="none" xmlns="http://www.w3.org/2000/svg">
<path d="M5.25 5.25049L6.1875 20.2505C6.23203 21.1172 6.8625 21.7505 7.6875 21.7505H16.3125C17.1408 21.7505 17.7595 21.1172 17.8125 20.2505L18.75 5.25049" stroke="white" stroke-width="1.5" stroke-linecap="round" stroke-linejoin="round"/>
<path d="M3.75 5.25049H20.25" stroke="white" stroke-width="1.5" stroke-miterlimit="10" stroke-linecap="round"/>
<path d="M9 5.25025V3.37525C8.99957 3.22739 9.02838 3.0809 9.08476 2.94422C9.14114 2.80753 9.22399 2.68334 9.32854 2.57879C9.4331 2.47424 9.55729 2.39139 9.69397 2.335C9.83066 2.27862 9.97715 2.24982 10.125 2.25025H13.875C14.0229 2.24982 14.1693 2.27862 14.306 2.335C14.4427 2.39139 14.5669 2.47424 14.6715 2.57879C14.776 2.68334 14.8589 2.80753 14.9152 2.94422C14.9716 3.0809 15.0004 3.22739 15 3.37525V5.25025" stroke="white" stroke-width="1.5" stroke-linecap="round" stroke-linejoin="round"/>
<path d="M12 8.25067V18.7507" stroke="white" stroke-width="1.5" stroke-linecap="round" stroke-linejoin="round"/>
<path d="M8.625 8.25067L9 18.7507" stroke="white" stroke-width="1.5" stroke-linecap="round" stroke-linejoin="round"/>
<path d="M15.375 8.25067L15 18.7507" stroke="white" stroke-width="1.5" stroke-linecap="round" stroke-linejoin="round"/>
</svg>
