<svg width="16" height="16" viewBox="0 0 16 16" fill="none" xmlns="http://www.w3.org/2000/svg">
  <path d="M10.523 2.24216C11.3777 2.20153 12.2074 2.53435 12.7949 3.15622C13.3105 3.07341 13.809 2.9031 14.2668 2.6531L14.6246 2.45466C14.4512 2.9906 14.1277 3.4656 13.6918 3.82185C13.5965 3.91091 13.4902 3.98747 13.3762 4.04841V4.0531C13.9387 3.99372 14.4887 3.84372 15.0027 3.60778V3.6156C14.7402 4.04216 14.4105 4.42497 14.0277 4.74841C13.8777 4.86716 13.7293 4.98747 13.5793 5.11091C13.6043 5.73747 13.559 6.36403 13.4465 6.98122C12.7277 10.25 10.8277 12.4703 7.8168 13.4218C6.49492 13.8078 5.09961 13.8656 3.75117 13.5906C3.17305 13.4515 2.60898 13.264 2.06211 13.0297C1.78242 12.9062 1.51055 12.7656 1.24961 12.6047C1.1668 12.5515 1.08086 12.5015 0.998047 12.4484C1.30273 12.4906 1.60898 12.5031 1.9168 12.4859C2.19961 12.4359 2.47617 12.4484 2.73711 12.3906C3.3418 12.2734 3.92461 12.0609 4.46211 11.7609C4.74648 11.6297 5.00742 11.4562 5.24023 11.2453C4.94805 11.2453 4.65899 11.1922 4.38555 11.089C3.51836 10.7906 2.8418 10.1 2.56211 9.22653C2.84336 9.25466 3.6543 9.32966 3.84492 9.16872C3.5043 9.12028 3.18242 8.98903 2.90586 8.78591C2.03711 8.26091 1.51992 7.30778 1.55273 6.29372C1.65117 6.33903 1.74805 6.38903 1.84648 6.43435C2.04023 6.51247 2.24336 6.56872 2.44961 6.6031C2.57617 6.64685 2.71055 6.65935 2.84336 6.6406H2.8293C2.68398 6.47185 2.44805 6.35622 2.3043 6.17497C1.67617 5.44685 1.43711 4.4656 1.65586 3.53122C1.72773 3.26716 1.83242 3.01247 1.96367 2.77341C1.96836 2.7781 1.97305 2.7781 1.97773 2.78122C2.05273 2.89216 2.13867 2.99528 2.23711 3.08591C2.49023 3.39372 2.77617 3.67185 3.0918 3.91403C4.11055 4.75622 5.31367 5.34528 6.6043 5.63591C7.02617 5.74372 7.45899 5.79997 7.89336 5.80466C7.78242 5.35466 7.78711 4.88435 7.90742 4.43747C8.11524 3.56872 8.7168 2.84528 9.53399 2.48435C9.74024 2.39685 9.95273 2.32966 10.1715 2.28278C10.2902 2.27028 10.4059 2.25778 10.523 2.24216Z" fill="black"/>
  </svg>
