<svg width="16" height="16" viewBox="0 0 16 16" fill="none" xmlns="http://www.w3.org/2000/svg">
  <path d="M10.523 2.2421C11.3777 2.20147 12.2074 2.53429 12.7949 3.15616C13.3105 3.07335 13.809 2.90304 14.2668 2.65304L14.6246 2.4546C14.4512 2.99054 14.1277 3.46554 13.6918 3.82179C13.5965 3.91085 13.4902 3.98741 13.3762 4.04835V4.05303C13.9387 3.99366 14.4887 3.84366 15.0027 3.60772V3.61553C14.7402 4.0421 14.4105 4.42491 14.0277 4.74835C13.8777 4.8671 13.7293 4.98741 13.5793 5.11085C13.6043 5.73741 13.559 6.36397 13.4465 6.98116C12.7277 10.2499 10.8277 12.4702 7.8168 13.4218C6.49492 13.8077 5.09961 13.8655 3.75117 13.5905C3.17305 13.4515 2.60898 13.264 2.06211 13.0296C1.78242 12.9062 1.51055 12.7655 1.24961 12.6046C1.1668 12.5515 1.08086 12.5015 0.998047 12.4483C1.30273 12.4905 1.60898 12.503 1.9168 12.4858C2.19961 12.4358 2.47617 12.4483 2.73711 12.3905C3.3418 12.2733 3.92461 12.0608 4.46211 11.7608C4.74648 11.6296 5.00742 11.4562 5.24023 11.2452C4.94805 11.2452 4.65899 11.1921 4.38555 11.089C3.51836 10.7905 2.8418 10.0999 2.56211 9.22647C2.84336 9.2546 3.6543 9.3296 3.84492 9.16866C3.5043 9.12022 3.18242 8.98897 2.90586 8.78585C2.03711 8.26085 1.51992 7.30772 1.55273 6.29366C1.65117 6.33897 1.74805 6.38897 1.84648 6.43428C2.04023 6.51241 2.24336 6.56866 2.44961 6.60303C2.57617 6.64678 2.71055 6.65928 2.84336 6.64053H2.8293C2.68398 6.47178 2.44805 6.35616 2.3043 6.17491C1.67617 5.44678 1.43711 4.46553 1.65586 3.53116C1.72773 3.2671 1.83242 3.01241 1.96367 2.77335C1.96836 2.77804 1.97305 2.77804 1.97773 2.78116C2.05273 2.8921 2.13867 2.99522 2.23711 3.08585C2.49023 3.39366 2.77617 3.67178 3.0918 3.91397C4.11055 4.75616 5.31367 5.34522 6.6043 5.63585C7.02617 5.74366 7.45899 5.79991 7.89336 5.8046C7.78242 5.3546 7.78711 4.88428 7.90742 4.43741C8.11524 3.56866 8.7168 2.84522 9.53399 2.48429C9.74024 2.39679 9.95273 2.3296 10.1715 2.28272C10.2902 2.27022 10.4059 2.25772 10.523 2.2421Z" fill="#3888FF"/>
  </svg>
