<svg viewBox="0 0 30 15" fill="none" xmlns="http://www.w3.org/2000/svg">
  <path d="M5.82524 9H21.2621C22.1359 9 22.7184 8.39999 22.7184 7.5C22.7184 6.6 22.1359 6 21.2621 6H5.82524V4.5H2.91262H21.2621C22.8641 4.5 24.1748 5.85 24.1748 7.5C24.1748 9.14999 22.8641 10.5 21.2621 10.5H5.09709C2.3301 10.5 0 8.1 0 5.25C0 2.4 2.3301 0 5.09709 0H22.7184C26.7961 0 30 3.3 30 7.5C30 11.7 26.7961 15 22.7184 15H8.00971H8.73786V13.5H22.7184C25.9223 13.5 28.5437 10.8 28.5437 7.5C28.5437 4.2 25.9223 1.5 22.7184 1.5H5.09709C3.05825 1.5 1.45631 3.15 1.45631 5.25C1.45631 7.35 3.05825 9 5.09709 9H5.82524Z" fill="#444444"/>
</svg>
