<svg width="14" height="14" viewBox="0 0 14 14" fill="none" xmlns="http://www.w3.org/2000/svg">
<path d="M5.47023 1.89995L12.1002 8.52995L8.70857 13.3508C8.63866 13.4502 8.54785 13.5331 8.44251 13.5937C8.33717 13.6544 8.21985 13.6912 8.09877 13.7017C7.97768 13.7121 7.85577 13.696 7.74158 13.6544C7.62739 13.6128 7.52369 13.5467 7.43774 13.4608L6.23982 12.2629V9.70662H3.68398L0.539398 6.56245C0.453473 6.4765 0.387388 6.3728 0.345776 6.25861C0.304165 6.14442 0.288034 6.02251 0.298515 5.90143C0.308995 5.78034 0.345834 5.66302 0.406447 5.55768C0.46706 5.45234 0.549982 5.36153 0.649398 5.29162L5.47023 1.90037V1.89995ZM6.21982 1.37287L7.51149 0.464119C7.67196 0.351177 7.86714 0.298488 8.06265 0.315333C8.25816 0.332178 8.44145 0.417477 8.58024 0.556203L10.3211 2.29745L12.1527 0.465786C12.2309 0.387673 12.3368 0.343792 12.4473 0.343792C12.5578 0.343792 12.6638 0.387673 12.7419 0.465786L13.4294 1.15329C13.4681 1.19198 13.4989 1.23794 13.5199 1.28852C13.5408 1.3391 13.5516 1.39332 13.5516 1.44808C13.5516 1.50283 13.5408 1.55705 13.5199 1.60764C13.4989 1.65822 13.4681 1.70417 13.4294 1.74287L11.5982 3.57412L13.444 5.41995C13.5827 5.55874 13.668 5.74203 13.6849 5.93754C13.7017 6.13305 13.649 6.32823 13.5361 6.4887L12.6277 7.78037L6.2194 1.37287H6.21982Z" fill="white"/>
</svg>
