<svg width="118" height="94" viewBox="0 0 118 94" fill="none" xmlns="http://www.w3.org/2000/svg">
<g clip-path="url(#clip0_656_16000)">
<path d="M2.59999 60.1209C2.03673 60.0857 1.47658 60.2263 0.999989 60.5223C0.723386 60.7783 0.539572 61.1157 0.476412 61.4832C0.413252 61.8507 0.47419 62.2284 0.649989 62.559C1.01857 63.2125 1.57024 63.7493 2.23999 64.1061C4.56671 65.3447 7.09346 66.1826 9.70999 66.5834C17.0195 68.2932 24.4211 69.6008 31.88 70.5C39.5804 71.1611 47.315 71.3573 55.04 71.0875C56.7945 71.1929 58.5486 70.8769 60.15 70.1671C61.68 69.325 62.77 67.4352 62.07 65.8588C61.37 64.2823 59.07 63.7242 57.15 63.5479C46.84 62.6667 11.07 59.7292 2.59999 60.1209Z" fill="white"/>
<path d="M2.5999 59.6312C1.4899 59.7292 0.369901 59.9935 0.069901 61.1783C-0.0272385 61.7033 0.030262 62.2446 0.23568 62.7387C0.441098 63.2329 0.785944 63.6596 1.2299 63.969C3.3199 65.6727 6.2299 66.3385 8.8199 66.9065C15.0499 68.2773 21.2899 69.6187 27.6099 70.5C33.9068 71.3349 40.2556 71.7374 46.6099 71.7044C49.7499 71.7044 52.9099 71.7044 56.0599 71.5869C58.4799 71.489 61.1899 70.921 62.3399 68.5808C62.5758 68.1288 62.7074 67.6316 62.7255 67.1243C62.7435 66.617 62.6476 66.1121 62.4444 65.6451C62.2412 65.1781 61.9358 64.7605 61.5497 64.4218C61.1636 64.0831 60.7062 63.8316 60.2099 63.685C58.6803 63.2023 57.0867 62.9417 55.4799 62.9115C52.4799 62.6373 49.5699 62.3925 46.6199 62.1477C38.7499 61.5112 30.8799 60.914 22.9999 60.4048C16.6299 59.9935 10.2199 59.504 3.8299 59.5627C3.4099 59.5627 2.9799 59.5627 2.5599 59.5627C1.9099 59.5627 1.9099 60.5419 2.5599 60.5419C4.7199 60.4537 6.8999 60.5419 9.0699 60.6104C12.2699 60.7279 15.4599 60.8944 18.6599 61.0902C26.2199 61.5308 33.7799 62.0694 41.3299 62.6765C44.6032 62.931 47.8666 63.1987 51.1199 63.4794L54.9799 63.8123C56.2994 63.8802 57.6125 64.0372 58.9099 64.2823C59.4179 64.3526 59.9059 64.5234 60.3443 64.7843C60.7827 65.0452 61.1623 65.3908 61.4599 65.8C61.7241 66.3029 61.8218 66.8739 61.7394 67.4337C61.6569 67.9935 61.3985 68.5142 60.9999 68.9235C59.2599 70.8819 55.9999 70.6273 53.5999 70.6665C47.5199 70.7644 41.4199 70.784 35.3499 70.3531C29.3653 69.8624 23.4195 68.9923 17.5499 67.7485C14.6299 67.1512 11.7099 66.5442 8.8099 65.8881C7.48261 65.6143 6.17617 65.2511 4.8999 64.8012C3.61922 64.4259 2.44962 63.7542 1.4899 62.8429C1.29381 62.6423 1.15609 62.3939 1.09103 62.1236C1.02598 61.8533 1.03594 61.5709 1.1199 61.3056C1.3599 60.6985 2.0599 60.6594 2.6399 60.63C3.2199 60.6006 3.2399 59.6019 2.5999 59.6312Z" fill="#231815"/>
<path d="M10.6099 67.7191C10.1654 68.1514 9.81563 68.6678 9.58181 69.2368C9.34798 69.8058 9.23504 70.4155 9.24988 71.0287C9.22985 71.6732 9.4344 72.3051 9.82988 72.8206C10.3145 73.2679 10.9299 73.5556 11.5899 73.6431C12.2179 73.848 12.8985 73.8364 13.5189 73.6102C14.1392 73.384 14.6618 72.9568 14.9999 72.3996C15.5499 71.2246 14.7499 69.795 13.9999 68.9039C13.5848 68.3994 13.0465 68.0057 12.4346 67.7592C11.8228 67.5128 11.1573 67.4215 10.4999 67.4939C10.4359 67.5109 10.3761 67.5401 10.3238 67.5799C10.2715 67.6197 10.2278 67.6693 10.1952 67.7258C10.1627 67.7823 10.1419 67.8445 10.1341 67.909C10.1263 67.9734 10.1317 68.0387 10.1499 68.101C10.1872 68.2239 10.2713 68.328 10.3849 68.3918C10.4985 68.4556 10.6327 68.4742 10.7599 68.4437C11.1652 68.4108 11.5729 68.4667 11.9534 68.6073C12.334 68.7478 12.6778 68.9696 12.9599 69.2564C13.2974 69.565 13.5811 69.9256 13.7999 70.3237C14.0537 70.7151 14.2017 71.1632 14.2299 71.626C14.2299 72.6052 12.9699 72.8598 12.2299 72.7521C11.71 72.7137 11.2081 72.5488 10.7699 72.2723C10.6286 72.1278 10.5179 71.9574 10.4441 71.7709C10.3703 71.5843 10.3349 71.3854 10.3399 71.1854C10.2989 70.6757 10.3725 70.1634 10.5557 69.6846C10.7388 69.2058 11.027 68.7722 11.3999 68.4144C11.8599 67.9737 11.1499 67.2785 10.6899 67.7191H10.6099Z" fill="#231815"/>
<path d="M50 72.1646C49.5516 72.5924 49.1984 73.1064 48.9627 73.6742C48.7269 74.2421 48.6136 74.8516 48.63 75.4643C48.6087 76.1105 48.8173 76.7439 49.22 77.2562C49.7007 77.7034 50.3129 77.9911 50.97 78.0787C52.22 78.3529 53.79 78.0787 54.38 76.8352C54.97 75.5916 54.13 74.2306 53.38 73.3396C52.9662 72.8337 52.428 72.4389 51.8158 72.1923C51.2036 71.9457 50.5376 71.8553 49.88 71.9296C49.816 71.9465 49.7562 71.9758 49.7039 72.0156C49.6516 72.0554 49.6079 72.105 49.5753 72.1614C49.5427 72.2179 49.522 72.2802 49.5142 72.3446C49.5064 72.409 49.5118 72.4743 49.53 72.5366C49.5673 72.6595 49.6514 72.7636 49.765 72.8274C49.8785 72.8912 50.0128 72.9098 50.14 72.8794C50.5476 72.8469 50.9575 72.9039 51.3398 73.0462C51.7222 73.1885 52.0672 73.4125 52.35 73.7018C52.6813 74.0098 52.9613 74.3666 53.18 74.7593C53.4354 75.1535 53.5835 75.6053 53.61 76.0714C53.61 77.0506 52.35 77.2954 51.61 77.1975C51.0859 77.1569 50.5806 76.9886 50.14 76.7079C49.9987 76.5634 49.888 76.393 49.8142 76.2065C49.7404 76.02 49.705 75.821 49.71 75.621C49.6619 75.1166 49.7255 74.608 49.8963 74.1298C50.0672 73.6516 50.3413 73.2151 50.7 72.85C51.16 72.4094 50.46 71.7239 50 72.1646Z" fill="#231815"/>
<path d="M52.2498 25.6052C52.6898 21.385 53.9098 17.0669 56.6298 13.8552C56.9998 13.3558 55.3698 8.81251 55.8198 8.34251C56.4498 7.7648 59.2098 11.3779 59.9698 10.8981C61.1645 10.1244 62.5098 9.60147 63.9211 9.36216C65.3324 9.12286 66.7791 9.17242 68.1698 9.50772C69.4298 9.84064 71.4698 6.75626 72.3698 7.44168C72.9598 7.89209 72.5198 12.0242 72.9898 12.5921C74.9898 14.9617 75.9898 18.2223 76.7998 21.2577C77.9998 25.4583 81.0498 37.8154 79.9198 43.8667C76.5098 62.1183 82.9198 65.8881 86.1198 68.8942C98.0998 80.2917 94.6298 76.6688 108.2 83.9048C105.533 87.2992 102.76 90.6023 99.8798 93.814C97.3898 92.3256 98.5198 88.595 99.8798 86.0883C91.6198 84.5217 86.2398 79.5475 79.6698 74.3383C70.9698 67.4842 69.8298 53.1296 60.0298 49.1738C58.5398 48.5765 43.1998 42.9463 39.0298 42.5252C42.7198 50.7502 42.1298 56.4783 42.8898 65.4377C39.6944 65.8814 36.4628 66.0224 33.2398 65.8588C31.0698 65.751 28.3598 65.0167 28.0698 62.9213L36.6598 60.9629C33.0998 50.8775 32.5498 47.7833 29.4298 37.5608C29.0164 36.3212 28.7447 35.0404 28.6198 33.7421C28.5965 33.3137 28.6758 32.8859 28.8514 32.4928C29.027 32.0998 29.2941 31.7524 29.6312 31.4784C29.9684 31.2044 30.3663 31.0114 30.7932 30.9148C31.22 30.8182 31.6641 30.8207 32.0898 30.9221C40.1498 32.9392 44.0898 34.2023 49.1398 36.7971C50.4898 31.9306 51.7598 30.2758 52.2498 25.6052Z" fill="white"/>
<path d="M52.75 25.6052C53.0134 22.3497 53.9525 19.1811 55.51 16.2933C55.906 15.6087 56.3539 14.9541 56.85 14.335C56.967 14.2204 57.0572 14.0822 57.1142 13.93C57.1712 13.7778 57.1936 13.6153 57.18 13.4538C57.1033 12.5433 56.9256 11.6437 56.65 10.7708C56.5433 10.327 56.4433 9.88633 56.35 9.44897C56.35 9.31189 56.28 8.61668 56.24 8.56772C56.2308 8.62782 56.2027 8.68364 56.1597 8.72748C56.1167 8.77133 56.0609 8.80103 56 8.81251C56 8.81251 56 8.7146 56 8.81251C56 8.91043 56.29 8.97897 56.35 9.02793C56.745 9.32976 57.1191 9.65686 57.47 10.0071C58.0298 10.6175 58.7102 11.1105 59.47 11.4563C59.6424 11.4969 59.8221 11.4987 59.9953 11.4614C60.1686 11.424 60.3309 11.3486 60.47 11.2408C61.2571 10.7497 62.1081 10.3644 63 10.0952C64.5815 9.62964 66.2591 9.5723 67.87 9.92876C68.3333 9.99268 68.8055 9.94393 69.245 9.78683C69.6845 9.62972 70.0777 9.36909 70.39 9.02793C70.75 8.73418 71.1 8.41106 71.48 8.14668L72 7.83335C72.16 7.91168 72.15 8.68522 72.16 8.81251C72.16 9.33147 72.16 9.85043 72.16 10.3792C72.1051 11.1771 72.2209 11.9775 72.5 12.7292C72.82 13.3167 73.34 13.8454 73.69 14.4329C74.1198 15.1539 74.491 15.9069 74.8 16.685C75.6791 18.977 76.3941 21.3262 76.94 23.7154C78.2676 28.5605 79.1511 33.5118 79.58 38.5106C79.66 39.6941 79.66 40.8815 79.58 42.065C79.51 43.3771 79.21 44.65 79.02 45.9817C78.5472 48.8194 78.353 51.695 78.44 54.569C78.4706 58.1589 79.5084 61.6715 81.44 64.7229C82.9613 66.6612 84.6838 68.4398 86.58 70.03C89.48 72.7815 92.34 75.7875 95.71 78.02C98.4345 79.6258 101.253 81.0742 104.15 82.3577C105.43 83.004 106.69 83.6698 107.96 84.3161L107.78 83.6502C105.153 87.012 102.403 90.2759 99.53 93.4419L100.14 93.3636C97.74 91.8459 99.33 88.1838 100.37 86.3136C100.408 86.2481 100.43 86.1752 100.435 86.1002C100.44 86.0252 100.427 85.95 100.399 85.8804C100.37 85.8107 100.325 85.7484 100.268 85.6979C100.211 85.6474 100.144 85.6102 100.07 85.589C96.6749 84.9044 93.4354 83.6203 90.51 81.7996C87.6129 79.9422 84.8405 77.9046 82.21 75.6994C80.9371 74.7577 79.7186 73.7476 78.56 72.6738C77.6199 71.7387 76.7634 70.7265 76 69.6481C74.4576 67.3916 73.0776 65.0326 71.87 62.5884C69.55 58.1234 67.23 53.1688 62.92 50.1823C61.5914 49.3301 60.1562 48.6489 58.65 48.1554C56.7433 47.457 54.86 46.7813 53 46.1286C50.65 45.3159 48.29 44.5227 45.91 43.7884C43.9735 43.1542 42 42.6343 40 42.2315C39.66 42.1727 39.32 42.114 39 42.0846C38.68 42.0552 38.43 42.5154 38.57 42.819C40.1393 46.3533 41.1508 50.1006 41.57 53.9325C41.99 57.7709 42.06 61.6386 42.38 65.4867L42.75 65.0167C39.6761 65.4327 36.5696 65.5703 33.47 65.4279C31.68 65.3398 28.9 64.9481 28.54 62.8234L28.19 63.4304L36.78 61.4721C36.9069 61.4377 37.0148 61.3557 37.0803 61.2439C37.1459 61.1321 37.1637 60.9994 37.13 60.8748C35.02 54.8921 33.25 48.8311 31.48 42.7602C30.94 40.9194 30.38 39.0883 29.84 37.2573C29.37 35.7102 28.4 33.2623 29.84 31.96C30.1287 31.7065 30.4773 31.5273 30.8543 31.4384C31.2314 31.3495 31.625 31.3538 32 31.4508C33 31.6663 34 31.96 35 32.2146C36.67 32.6552 38.33 33.1154 40 33.6344C43.1025 34.5978 46.1138 35.8231 49 37.2965C49.0661 37.3335 49.1399 37.3552 49.2159 37.3601C49.2918 37.3649 49.3679 37.3527 49.4383 37.3244C49.5087 37.296 49.5716 37.2523 49.6222 37.1966C49.6727 37.1408 49.7096 37.0745 49.73 37.0027C50.28 35.0444 50.99 33.0861 51.65 31.1865C52.2607 29.3745 52.6697 27.5032 52.87 25.6052C52.94 24.9786 51.94 24.9883 51.87 25.6052C51.45 29.5219 49.81 33.0077 48.77 36.7383L49.5 36.4544C46.8279 35.0803 44.0493 33.9148 41.19 32.9686C39.49 32.4104 37.77 31.9306 36.04 31.4606L33.04 30.6871C32.2315 30.3991 31.3528 30.3581 30.52 30.5696C29.8 30.8112 29.1848 31.2843 28.7744 31.9119C28.3641 32.5395 28.1827 33.2847 28.26 34.0261C28.5607 36.1487 29.0834 38.2355 29.82 40.2536C30.77 43.4359 31.67 46.6279 32.6 49.8004C33.7333 53.6192 34.9666 57.402 36.3 61.149L36.65 60.5517L28.05 62.51C27.9237 62.5486 27.8173 62.6329 27.7522 62.7457C27.6872 62.8585 27.6685 62.9913 27.7 63.1171C28.1 65.4475 30.83 66.2015 32.89 66.3875C36.2658 66.6197 39.6576 66.4751 43 65.9567C43.1038 65.927 43.1951 65.8652 43.26 65.7804C43.3249 65.6957 43.36 65.5926 43.36 65.4867C43.03 61.5211 42.97 57.5261 42.51 53.5702C42.0582 49.6913 41.0202 45.8997 39.43 42.3196L39 43.0834C40.7486 43.338 42.4693 43.751 44.14 44.3171C46.48 45.0025 48.8 45.7663 51.14 46.5594C53.21 47.2644 55.29 47.9988 57.35 48.7429C58.6787 49.1762 59.9723 49.7064 61.22 50.3292C65.81 52.8554 68.22 57.8492 70.54 62.2554C71.737 64.6835 73.0725 67.0437 74.54 69.325C76.0641 71.608 77.9513 73.6376 80.13 75.3371C85.38 79.4986 90.59 83.9831 97.13 85.9415C97.9949 86.2005 98.8727 86.4162 99.76 86.5877L99.46 85.8631C98.12 88.2817 96.62 92.3746 99.59 94.2546C99.685 94.3112 99.7965 94.3352 99.907 94.3228C100.017 94.3104 100.121 94.2623 100.2 94.1861C103.12 90.9222 105.92 87.5832 108.6 84.1692C108.666 84.0574 108.683 83.9247 108.65 83.8C108.616 83.6754 108.533 83.5688 108.42 83.5034C106.14 82.2892 103.84 81.1207 101.52 79.9979C100.19 79.3517 98.84 78.7348 97.52 78.0396C94.6389 76.2398 91.9956 74.0989 89.65 71.6652C88.19 70.2944 86.77 68.904 85.28 67.5625C84.4568 66.7982 83.6946 65.9733 83 65.095C80.9775 62.4208 79.8021 59.2235 79.62 55.9006C79.4066 53.1251 79.4937 50.3353 79.88 47.5777C80.08 46.0502 80.42 44.5423 80.6 43.0148C80.7151 41.8892 80.7452 40.7568 80.69 39.6269C80.3714 34.4722 79.5272 29.3616 78.17 24.3715C77.6325 22.0919 76.9783 19.8403 76.21 17.625C75.7133 16.1438 75.0421 14.7242 74.21 13.395C73.8748 13.0168 73.5892 12.5991 73.36 12.1515C73.2717 11.7463 73.2381 11.3315 73.26 10.9177C73.26 9.93856 73.67 6.3548 71.69 6.93251C70.8236 7.35636 70.0333 7.91524 69.35 8.58731C69.0784 8.8472 68.727 9.01236 68.35 9.05731C68.0132 9.00596 67.6794 8.93732 67.35 8.85168C66.8711 8.76845 66.3863 8.72261 65.9 8.7146C64.279 8.69977 62.6744 9.03405 61.2 9.69376C60.8166 9.8635 60.4428 10.0531 60.08 10.2617C60.08 10.2617 59.66 10.4575 59.75 10.4673C59.84 10.4771 59.75 10.4673 59.75 10.4673C59.413 10.3147 59.1078 10.1023 58.85 9.84064C58.36 9.4196 55.67 6.5996 55.27 8.44043C55.2236 9.26288 55.3496 10.0859 55.64 10.859C55.85 11.7206 56.05 12.5823 56.19 13.4733C56.19 13.5419 56.19 13.7377 56.19 13.5811C56.01 13.8761 55.7989 14.1518 55.56 14.4036C55.0442 15.106 54.5892 15.8495 54.2 16.6263C53.4754 18.0559 52.9153 19.56 52.53 21.1108C52.1536 22.6015 51.8863 24.1165 51.73 25.6444C51.68 26.2319 52.69 26.2319 52.75 25.6052Z" fill="#231815"/>
<path d="M56.7002 20.2687C56.8607 20.2548 57.0223 20.2744 57.1745 20.3261C57.3267 20.3778 57.4659 20.4605 57.5831 20.5687C57.7003 20.677 57.7927 20.8083 57.8542 20.9541C57.9158 21.0998 57.9451 21.2567 57.9402 21.4143C57.9402 22.0116 56.9402 22.7754 56.2202 22.6971C56.0419 22.6904 55.867 22.6474 55.7067 22.5706C55.5464 22.4939 55.4042 22.3852 55.2893 22.2515C55.1745 22.1178 55.0894 21.9621 55.0396 21.7943C54.9898 21.6265 54.9764 21.4504 55.0002 21.2773C55.0002 20.4156 55.5502 20.161 56.7002 20.2687Z" fill="black"/>
<path d="M72 18.6042C72.1609 18.5917 72.3228 18.6126 72.475 18.6655C72.6271 18.7183 72.7662 18.802 72.8832 18.911C73.0002 19.02 73.0924 19.1519 73.1539 19.2981C73.2153 19.4443 73.2447 19.6015 73.24 19.7596C73.24 20.3569 72.24 21.1108 71.52 21.0423C71.3323 21.0445 71.1465 21.0066 70.9753 20.9313C70.8042 20.8559 70.6519 20.7449 70.5291 20.606C70.4063 20.4671 70.3159 20.3036 70.2642 20.127C70.2125 19.9504 70.2009 19.7648 70.23 19.5833C70.24 18.7315 70.81 18.4769 72 18.6042Z" fill="black"/>
<path d="M65.23 27.1915C64.6243 27.2471 64.0165 27.1081 63.4987 26.7953C62.9809 26.4826 62.5811 26.0133 62.36 25.4583C62.0039 24.7673 61.8319 23.9994 61.86 23.2258C61.9201 21.7332 62.4012 20.286 63.25 19.0448C60.46 17.0865 56.1 16.1073 51.42 16.6263L51.25 15.2456C56.25 14.6581 60.98 15.7646 64.08 17.9579C66.55 15.0988 70.87 12.9544 75.94 12.3669L76.11 13.7083C71.46 14.2469 67.44 16.2346 65.19 18.8098C66.396 19.8726 67.2435 21.2693 67.62 22.8146C67.7345 23.3605 67.7345 23.9235 67.62 24.4694C67.5954 25.1211 67.3456 25.7453 66.9114 26.2399C66.4772 26.7344 65.8844 27.0699 65.23 27.1915ZM64.36 19.9554C63.7028 20.9435 63.3297 22.0868 63.28 23.265C63.2545 23.804 63.3717 24.3402 63.62 24.8219C64.19 25.9088 64.84 25.801 65.06 25.801C65.7 25.7227 66.06 25.2038 66.28 24.2638C66.3496 23.8948 66.3496 23.5165 66.28 23.1475C65.9633 21.9262 65.2972 20.8188 64.36 19.9554Z" fill="#231815"/>
<path d="M50.8502 31.9894C51.6978 33.1072 52.7086 34.0969 53.8502 34.9269C55.9244 36.0357 58.2144 36.7031 60.5702 36.8852C64.3606 37.4459 68.2172 37.4228 72.0002 36.8167C74.6702 36.3663 77.2202 35.6025 79.8302 34.9269C79.9628 34.8918 80.0758 34.8066 80.1442 34.69C80.2127 34.5734 80.231 34.4349 80.1952 34.3051C80.1594 34.1753 80.0724 34.0647 79.9533 33.9976C79.8342 33.9306 79.6928 33.9126 79.5602 33.9477C77.2102 34.545 74.9102 35.25 72.5602 35.6906C68.7333 36.3933 64.8145 36.476 60.9602 35.9354C58.7402 35.6417 56.2802 35.2892 54.3602 34.0652C53.2961 33.2895 52.35 32.3697 51.5502 31.3333C51.1302 30.8535 50.4302 31.5487 50.8502 32.0187V31.9894Z" fill="#231815"/>
</g>
<defs>
<clipPath id="clip0_656_16000">
<rect width="118" height="94" fill="white"/>
</clipPath>
</defs>
</svg>
