<svg width="120" height="74" viewBox="0 0 120 74" fill="none" xmlns="http://www.w3.org/2000/svg">
<g clip-path="url(#clip0_465_12078)">
<path d="M90.1123 1.40626C90.0734 1.37462 90.0557 1.29024 90.1123 1.40626V1.40626Z" fill="#00ED84"/>
<path d="M117.842 56.0836C117.718 55.9148 117.601 55.732 117.488 55.5808C116.169 53.7009 114.741 51.8989 113.211 50.1841C109.875 46.4521 106.07 43.1613 101.89 40.3927C101.741 32.1658 99.8555 24.1041 98.03 17.2976C97.9415 16.9741 97.8566 16.6507 97.7717 16.3272C97.3544 14.4849 96.7622 12.6862 96.0028 10.9551C95.7912 10.5184 95.5476 10.0978 95.274 9.69648C95.3393 9.48094 95.3393 9.25106 95.274 9.03552C95.2085 8.83599 95.0855 8.65996 94.9202 8.52925C94.9041 8.45439 94.8804 8.38136 94.8495 8.31127C94.5844 7.65015 94.3715 6.96956 94.2127 6.27564C94.062 5.63682 93.873 5.00755 93.6466 4.39118C93.1201 3.09621 92.4834 1.84827 91.7432 0.660947C91.2692 -0.123071 90.5616 -0.478164 89.7974 -0.309407C89.1076 -0.161744 88.5875 0.344527 88.2479 1.19183C88.1488 1.43793 88.0568 1.68755 87.9648 1.93366C87.8375 2.28523 87.703 2.63681 87.5509 2.98839C87.3988 3.33997 87.2254 3.69154 87.0096 4.09234C84.7151 3.24397 82.336 2.6417 79.9127 2.29578C75.7557 1.67535 71.5213 1.78602 67.4029 2.62275C66.1443 2.87647 64.9016 3.20282 63.6811 3.60013C63.4848 3.39289 63.2168 3.26726 62.9311 3.24856C62.786 3.24856 62.4605 2.89698 62.3226 2.76338C62.2483 2.68955 62.1846 2.62275 62.128 2.57001C61.7176 2.19382 61.3072 1.80357 60.911 1.40629L60.7588 1.24808C60.6093 1.07149 60.4368 0.915427 60.2459 0.783999C60.0648 0.676999 59.8608 0.613918 59.6506 0.599869C59.4404 0.585819 59.2298 0.621198 59.0359 0.703136C58.9616 0.724231 58.8909 0.738294 58.8201 0.752357C58.6331 0.780195 58.4516 0.837145 58.2824 0.921114C57.9871 1.10028 57.7434 1.35217 57.5748 1.65239C56.4739 3.43687 55.8076 5.45219 55.629 7.5378C54.0229 8.79636 52.7853 10.4596 52.0451 12.3544C51.985 12.5056 51.9249 12.6568 51.8683 12.8079L51.7975 12.8572C51.5989 12.9906 51.4516 13.187 51.3797 13.4143C51.3077 13.6416 51.3153 13.8863 51.4013 14.1088C50.906 15.5819 50.5062 17.1042 50.117 18.5773L49.9967 19.0309C48.9002 23.1983 48.0415 27.4239 47.4247 31.6876C46.3634 31.1146 44.0744 30.1337 42.2736 30.1337C39.4717 30.1337 36.2593 31.7544 34.7946 33.8639C34.1835 33.6929 33.5584 33.5753 32.9267 33.5123C31.2753 33.3522 29.6103 33.6199 28.094 34.2893C26.1092 33.6073 23.9901 32.883 21.8532 32.2677C21.9735 31.2482 22.0584 30.1864 22.1079 29.1036C22.2424 26.1151 22.1079 23.1689 21.9947 20.9329C21.977 20.613 21.9629 20.2895 21.9487 19.9661C21.9348 18.9301 21.839 17.8968 21.6622 16.8757C21.3084 15.1741 20.0418 14.2635 18.9133 13.4619C16.0264 11.3876 12.9909 9.41522 9.90593 7.5835C9.74494 7.47912 9.55687 7.42354 9.36464 7.42354C9.17242 7.42354 8.98434 7.47912 8.82335 7.5835C8.64482 7.70976 8.50501 7.88274 8.41945 8.0832C8.33389 8.28367 8.30593 8.50379 8.33867 8.7191C8.67155 10.8899 9.41715 12.9779 10.5357 14.8717C11.0657 15.7285 11.6507 16.5506 12.2869 17.3327L12.3541 17.4206C12.9166 18.1449 13.4685 18.9254 13.511 19.843C13.4973 20.7729 13.3459 21.6957 13.0617 22.5818C13.0157 22.7576 12.9697 22.9334 12.9272 23.1056C12.6442 24.2237 12.3258 25.3487 11.9862 26.4456C11.6006 27.6937 11.1583 28.984 10.6666 30.2849C9.73258 30.2286 8.81274 30.2145 7.93536 30.2427H7.51082C6.53437 30.2638 5.43057 30.2884 4.50011 30.6821C4.29663 30.651 4.0885 30.6875 3.90807 30.7861C3.72765 30.8846 3.58505 31.0397 3.50244 31.2271L3.36801 31.4943C3.30786 31.5646 3.25126 31.6384 3.19465 31.7193C3.09479 31.862 3.03385 32.0279 3.01776 32.2009L2.38802 33.4701C1.68046 34.9093 0.972887 36.3484 0.265319 37.7875C-0.0601621 38.4485 -0.668671 39.679 -0.116768 40.7724C0.37853 41.7498 1.51771 42.126 2.7878 41.7322C3.83541 41.3846 4.8424 40.926 5.79143 40.3646C6.01077 40.2415 6.2195 40.1079 6.41408 39.9743C5.71058 41.7219 5.37815 43.5952 5.43764 45.4765C5.60746 48.8165 7.56034 51.9033 11.0982 54.396C13.7869 56.3016 16.8684 57.6552 19.8508 58.9665C20.4841 59.2443 21.1173 59.522 21.7435 59.8033C25.5538 61.5225 30.0822 63.5265 34.7699 65.3723C37.9221 66.6133 41.0177 67.7208 43.9683 68.6595C43.9683 68.7123 43.9683 68.7615 43.993 68.8142C44.315 70.5721 44.8386 71.7886 45.6417 72.6816C46.703 73.8769 48.2773 74.3445 49.7774 74.3445C50.5867 74.3458 51.3904 74.2115 52.1548 73.9472C53.5852 73.3899 54.9096 72.5945 56.0712 71.5952C58.1107 71.8967 60.1688 72.0564 62.2306 72.0733C71.8394 72.1226 81.0378 69.2396 89.9354 66.4481C92.0369 65.7906 94.057 65.077 95.6455 63.5898C96.746 62.4967 97.6294 61.2074 98.2493 59.7892C101.218 61.5471 104.77 63.4702 108.81 64.7113C111.513 65.541 113.802 65.9348 115.804 65.9172C117.141 65.9172 118.182 65.5656 118.988 64.9258C119.418 64.5467 119.762 64.0817 119.998 63.5612C120.234 63.0407 120.356 62.4766 120.357 61.9057C120.435 59.733 119.055 57.7923 117.842 56.0836ZM9.64767 32.8162C9.24436 33.7655 8.78798 34.7042 8.30683 35.6956L8.19008 35.9347C7.68086 36.2186 7.20605 36.5595 6.77494 36.9508L6.67235 37.0387C6.05125 37.6223 5.36931 38.1385 4.63809 38.5786C3.82982 39.0597 2.96784 39.4455 2.06962 39.7282C1.9689 39.761 1.86416 39.7799 1.75829 39.7845C1.78176 39.5271 1.85759 39.2771 1.98117 39.0497C2.68874 37.5133 3.45999 35.9769 4.21709 34.4792C4.51898 33.8932 4.81616 33.3072 5.10862 32.7213C5.39073 32.582 5.69949 32.5041 6.01431 32.4928C6.66173 32.4224 7.36223 32.3838 8.28206 32.3662C8.7809 32.3662 9.29035 32.3662 9.8281 32.3662C9.7715 32.5244 9.71135 32.6721 9.64767 32.8162ZM109.839 62.8233C105.753 61.6385 101.961 59.5607 99.0701 57.838L99.1409 57.6587L98.8189 57.5286C98.7346 57.4932 98.6541 57.4496 98.5784 57.3985L98.5324 57.3704C98.4496 57.3327 98.3703 57.288 98.2953 57.2368L98.2387 57.2051L98.1397 57.1278L98.0724 57.0715L97.9911 57.0504C97.8512 57.0174 97.7158 56.9678 97.5878 56.9028L97.4392 56.85C96.6078 56.3403 95.7799 55.8199 94.9627 55.3031C91.4249 53.0917 87.7915 50.8099 83.8892 49.1153C83.747 49.0537 83.5934 49.0219 83.4382 49.0219C83.2829 49.0219 83.1294 49.0537 82.9871 49.1153C83.2418 48.9923 83.4859 48.8868 83.723 48.7954C84.0201 48.6829 84.3244 48.595 84.6428 48.5036C84.9612 48.4122 85.2124 48.3384 85.4954 48.2364C85.9035 48.0994 86.2776 47.8778 86.5929 47.5863C86.9082 47.2947 87.1576 46.9399 87.3245 46.5453C87.4189 46.2797 87.4508 45.9961 87.4177 45.7164C87.3845 45.4366 87.2873 45.1681 87.1334 44.9316C87.0356 44.7775 86.9165 44.6379 86.7797 44.5167C86.7975 44.4626 86.8117 44.4074 86.8221 44.3515C87.355 44.4974 87.8765 44.6818 88.3823 44.9034C89.288 45.2796 90.1866 45.6699 91.0852 46.0601C92.5782 46.707 94.5381 47.5789 96.4627 48.5634C97.3543 49.0204 98.2316 49.495 99.056 49.9697L99.0277 50.1314L99.3284 50.2193C99.7043 50.3469 100.042 50.5656 100.312 50.8556L100.365 50.9154L100.443 50.9471L100.574 51.0033L100.984 51.1826L101.596 51.594C102.445 52.1811 103.284 52.8245 104.073 53.4433C104.688 53.9144 105.321 54.3995 105.962 54.8496C107.975 56.3051 109.723 57.2262 111.463 57.7466C111.631 57.802 111.81 57.8116 111.982 57.7745C112.155 57.7374 112.314 57.6549 112.443 57.5356C112.582 57.4009 112.683 57.2335 112.739 57.049C112.795 56.8646 112.803 56.6691 112.762 56.4809C112.721 56.3052 112.634 56.1434 112.51 56.0123C112.386 55.8812 112.228 55.7857 112.054 55.7355C109.489 54.9656 107.317 53.2921 105.219 51.6713C104.487 51.1088 103.733 50.5287 102.976 49.9943C102.498 49.6427 101.982 49.3157 101.359 48.9395C101.547 47.6739 101.685 46.4047 101.769 45.1601C101.815 44.4851 101.851 43.7538 101.869 42.9768C106.675 46.3297 110.926 50.4079 114.467 55.064C115.1 55.9008 115.719 56.7692 116.303 57.6376L116.49 57.9153C117.043 58.6748 117.517 59.4875 117.906 60.3412C118.128 60.8756 118.44 61.9092 118.029 62.8022C117.676 63.5898 116.791 63.8007 116.119 63.8394C113.975 63.9238 111.743 63.3788 109.839 62.8233ZM80.6627 67.0423C75.3878 68.5013 71.2875 69.3275 67.364 69.7213C64.3176 70.0242 61.2486 70.0301 58.201 69.7389C58.392 69.5666 58.5866 69.3873 58.7777 69.2326L72.4974 57.3528L74.4184 55.6793C75.922 54.3609 77.4751 52.9967 79.0459 51.7135C79.375 51.4463 79.7111 51.1826 80.0471 50.933C80.7972 52.0229 81.6852 52.9792 83.0048 53.0425C83.4202 53.0618 83.8343 52.9841 84.214 52.8155C84.5937 52.647 84.9284 52.3924 85.1912 52.0721C88.1736 53.5663 91.0569 55.3699 93.8483 57.1137C94.708 57.6516 95.5677 58.1895 96.4309 58.7204C95.4827 60.7772 94.4568 62.071 93.1195 62.8972C91.7043 63.7691 90.0522 64.2613 88.446 64.7359L87.4023 65.0488C85.3999 65.6535 83.0331 66.3778 80.6627 67.0317V67.0423ZM46.1476 68.8002C46.1409 68.7712 46.1409 68.7412 46.1476 68.7123V68.6384V68.5646C46.1263 68.4873 46.098 68.4099 46.0697 68.3326C46.0414 68.2552 46.0237 68.1779 46.0096 68.1216C45.9778 67.9212 45.9495 67.7173 45.9282 67.5345C45.9318 67.4665 45.9318 67.3985 45.9282 67.3306L45.8928 67.095C45.861 66.7434 45.8398 66.3497 45.8327 65.9418C45.7567 60.3328 47.11 54.7959 49.7668 49.8466C49.8345 49.7212 49.8759 49.5835 49.8886 49.4417C49.9014 49.3 49.8851 49.1572 49.8408 49.0218C49.7965 48.8865 49.7251 48.7615 49.6309 48.6543C49.5367 48.5471 49.4217 48.46 49.2927 48.3981C49.1762 48.3308 49.0471 48.2879 48.9133 48.2722C48.7794 48.2565 48.6438 48.2683 48.5147 48.3069C48.3857 48.3455 48.266 48.41 48.1631 48.4964C48.0602 48.5829 47.9762 48.6894 47.9165 48.8095C45.3245 53.7048 43.8884 59.1225 43.7171 64.6515C43.6994 65.2492 43.7171 65.8328 43.7171 66.4094C42.5743 66.0368 41.5378 65.6852 40.5649 65.3547C36.7511 64.0011 32.7462 62.4014 27.9631 60.3236C26.1092 59.515 24.1422 58.6396 21.595 57.4829L20.4133 56.952C18.9982 56.3227 17.5547 55.6687 16.1679 54.9691C13.3376 53.5628 10.1996 51.71 8.57571 48.8587C7.73748 47.3612 7.40513 45.6359 7.62756 43.9366C7.8646 41.9115 8.73491 39.9321 9.60168 38.0793L9.79626 37.668C10.6736 35.8011 11.5652 33.8674 12.3541 31.9056C13.1643 29.8454 13.8825 27.7219 14.4768 25.5772C14.7882 24.4838 15.0641 23.3975 15.3047 22.3498C15.5452 21.3021 15.7717 20.1278 15.5134 18.957C15.2764 17.8707 14.6219 16.9636 14.0275 16.2007C13.392 15.4211 12.8116 14.5988 12.2904 13.7396C11.7387 12.7795 11.295 11.762 10.9673 10.7055C12.8706 11.8798 14.7174 13.0857 16.4651 14.2986C17.0418 14.6959 17.6609 15.1284 18.28 15.5784C18.7641 15.8757 19.1626 16.2923 19.4369 16.7878C19.6166 17.2902 19.7099 17.8191 19.7128 18.3523V18.5351C19.7553 19.1715 19.7977 19.8078 19.8331 20.4477C20.1126 25.1553 20.3072 30.6083 19.1255 35.6956C18.5192 38.43 17.4123 41.0303 15.8601 43.367C15.7307 43.5447 15.6676 43.7616 15.6818 43.9804C15.696 44.1993 15.7866 44.4063 15.938 44.5659C16.1013 44.751 16.3213 44.8778 16.5642 44.9267C16.807 44.9756 17.0593 44.9439 17.2823 44.8366C17.8755 44.5419 18.5421 44.4249 19.201 44.4998C19.8599 44.5747 20.4826 44.8383 20.9935 45.2585C21.1251 45.3758 21.2832 45.4598 21.4545 45.5032C21.6257 45.5467 21.805 45.5484 21.977 45.5082C22.1514 45.4603 22.3115 45.3715 22.4439 45.249C22.5763 45.1266 22.6771 44.9743 22.7377 44.805C24.0113 41.5213 25.4972 38.1778 28.3982 36.5113C30.1789 35.5467 32.2716 35.323 34.218 35.889L34.2427 35.9558L34.4621 35.9839C34.5945 35.9964 34.7257 36.0187 34.8548 36.0507C34.9711 36.0822 35.0828 36.1282 35.1873 36.1878C35.2073 36.1988 35.2252 36.2131 35.2404 36.23L35.4208 36.4023L35.527 36.3566C35.7392 36.4515 35.9303 36.5429 36.1036 36.6379C37.4815 37.367 38.595 38.5067 39.2877 39.897C39.3408 40.0159 39.418 40.1227 39.5146 40.2107C39.6111 40.2986 39.7249 40.3658 39.8487 40.408C39.9726 40.4503 40.1039 40.4667 40.2344 40.4562C40.365 40.4456 40.4919 40.4085 40.6073 40.347C40.7404 40.2869 40.8601 40.201 40.9594 40.0944C41.0587 39.9878 41.1356 39.8626 41.1857 39.7261C41.2358 39.5896 41.258 39.4445 41.251 39.2994C41.244 39.1543 41.208 39.012 41.1451 38.8809C40.2166 37.0466 38.7094 35.5649 36.8537 34.662C37.4989 33.9324 38.2889 33.3431 39.1741 32.9311C40.0593 32.5191 41.0206 32.2933 41.9977 32.2677C43.947 32.1763 46.144 33.5194 47.1169 34.1206C46.8799 36.0367 46.6889 37.9598 46.5544 39.8337C46.5361 40.0017 46.5639 40.1715 46.635 40.325C46.706 40.4785 46.8175 40.61 46.9577 40.7056C47.1226 40.8116 47.3123 40.8731 47.5083 40.8842C47.7043 40.8953 47.8998 40.8556 48.0757 40.7689C48.2456 40.6874 48.3906 40.5623 48.4957 40.4066C48.6007 40.2508 48.6622 40.0701 48.6736 39.8829C49.008 35.2999 49.6271 30.7418 50.5274 26.2347C50.9696 24.0162 51.4862 21.7872 52.0628 19.6004L52.1194 19.3895C52.5687 17.6914 53.0322 15.9405 53.6159 14.2635C55.1655 13.5146 56.991 13.6377 58.2434 13.7994C60.4001 14.1182 62.5369 14.5584 64.6434 15.1178C68.9277 16.1725 71.9101 17.4523 74.2522 19.277C73.2651 20.5778 72.3347 22.4834 72.9538 24.6174C73.1115 25.1626 73.3817 25.6692 73.7472 26.105C74.1126 26.5408 74.5653 26.8963 75.0765 27.1488C75.5233 27.3726 76.0125 27.5005 76.5123 27.5241C77.0121 27.5477 77.5113 27.4666 77.9775 27.2859C78.4944 27.0897 78.9497 26.7608 79.2971 26.3328C79.6445 25.9048 79.8716 25.393 79.9552 24.8495C80.125 23.7701 79.8101 22.5572 79.0459 21.3337C78.5363 20.5313 77.9434 19.7842 77.277 19.1047C78.5959 17.9067 80.0351 16.8464 81.572 15.9405C85.2265 13.7396 89.2632 12.2384 93.4237 10.7829C93.8958 11.4743 94.2785 12.222 94.5629 13.0083C95.1567 14.7148 95.6621 16.4503 96.0771 18.2082C96.1832 18.6125 96.2858 19.0168 96.3884 19.4176C97.0288 21.8786 97.5488 24.0479 97.984 26.0976C98.9742 30.55 99.5662 35.0807 99.7529 39.6368C99.8459 42.3373 99.7276 45.0408 99.3991 47.7231C97.0723 46.4468 94.6824 45.2875 92.2385 44.2495C91.3116 43.8452 90.2149 43.3706 89.1146 42.91C88.055 42.424 86.9146 42.1356 85.7502 42.0592C85.4006 41.8369 85.0115 41.683 84.6039 41.6056L84.3598 41.5705C84.3378 41.3445 84.2755 41.1243 84.1758 40.9201C83.9815 40.56 83.6971 40.2557 83.3501 40.0365C83.0031 39.8173 82.6052 39.6905 82.1946 39.6685C81.296 39.5981 80.4752 39.9989 79.8137 40.3224C77.0593 41.6989 74.4517 43.348 72.0304 45.2445C69.8865 46.8899 67.7249 48.7602 65.029 51.274C64.3462 51.9104 63.6705 52.5573 62.9983 53.2042C61.5372 54.6105 60.0265 56.0449 58.4699 57.3844C56.5665 59.0834 54.4555 60.5374 52.1867 61.7124C52.9857 58.6339 54.2185 55.6832 55.8483 52.9475C55.9441 52.7974 55.997 52.6242 56.0013 52.4464C56.0057 52.2687 55.9614 52.0931 55.8731 51.9385C55.7745 51.7687 55.6335 51.627 55.4636 51.5273C55.2938 51.4275 55.101 51.373 54.9037 51.3689C54.7234 51.3671 54.5459 51.4138 54.3901 51.5042C54.2344 51.5946 54.1062 51.7252 54.0193 51.8823C51.9173 55.3957 50.4416 59.2434 49.6571 63.2558C49.6214 63.4573 49.6388 63.6646 49.7076 63.8574C49.7764 64.0503 49.8943 64.2221 50.0498 64.3562C50.1786 64.4668 50.3353 64.5403 50.503 64.5688C50.6707 64.5973 50.8431 64.5797 51.0015 64.5179C55.912 62.6651 59.747 59.2443 63.9004 55.2609C67.5833 51.7451 71.758 47.7547 76.435 44.6925C77.6958 43.8616 79.0021 43.101 80.3479 42.4143L80.6557 42.2525C80.8467 42.1471 81.059 42.0311 81.2712 41.9396C81.2256 42.0261 81.1923 42.1183 81.1722 42.2139C80.9281 42.3229 80.6663 42.4494 80.3479 42.6076C80.2279 42.67 80.122 42.7561 80.0368 42.8608C79.9516 42.9654 79.8889 43.0862 79.8526 43.2159C79.8104 43.3562 79.7971 43.5036 79.8135 43.6492C79.8299 43.7948 79.8757 43.9356 79.9481 44.0632C80.0629 44.2593 80.2394 44.4125 80.4505 44.4991C80.358 44.6722 80.3121 44.866 80.317 45.0618C80.322 45.2577 80.3777 45.4489 80.4788 45.6171C80.572 45.7643 80.7032 45.884 80.8587 45.9638C81.0143 46.0436 81.1885 46.0805 81.3632 46.0707L83.4859 46.0004C83.6381 46.0004 83.7937 46.0004 83.9494 45.9758C84.3327 45.9352 84.7194 45.9352 85.1027 45.9758C85.1424 45.98 85.1815 45.9883 85.2195 46.0004C84.9757 46.186 84.6883 46.307 84.3845 46.3519C84.2855 46.373 84.19 46.3976 84.105 46.4223C81.5755 47.143 79.4634 48.6688 77.9032 49.9169C76.4102 51.1158 74.9456 52.4026 73.5304 53.6437C72.9679 54.1359 72.409 54.6281 71.8429 55.1168L55.8979 68.9091C55.445 69.3029 54.9745 69.7107 54.511 70.0869L54.4403 70.1397C54.32 70.2276 54.1997 70.319 54.0865 70.3963L54.037 70.428L53.998 70.4737C53.9894 70.4886 53.9756 70.4998 53.9591 70.5053L53.6372 70.762C53.5275 70.8393 53.4214 70.9166 53.3117 70.987C52.3706 71.6128 49.9614 72.9382 47.9059 71.8167C47.1771 71.4194 46.6959 70.7338 46.3422 69.5912L46.2785 69.3803H46.3315L46.1476 68.8002ZM22.7164 34.7323C23.7212 35.0487 24.7118 35.3757 25.8333 35.7589C25.0308 36.4516 24.3178 37.2405 23.7106 38.1074C23.2073 38.8254 22.7568 39.5786 22.3627 40.3611L20.24 39.3555C20.8156 37.7347 21.2512 36.0681 21.5419 34.3737C21.9358 34.4885 22.3273 34.6081 22.7164 34.7323ZM18.9168 42.3826C19.0984 42.0428 19.2753 41.6842 19.4475 41.3068L21.4888 42.2736C21.3968 42.4916 21.3049 42.7096 21.2164 42.9276C20.4978 42.585 19.7137 42.3992 18.9168 42.3826ZM58.0206 8.19876C58.0206 8.13197 57.9852 8.06868 57.964 8.00188C57.9512 7.96738 57.9406 7.93216 57.9321 7.89641C57.9075 7.75683 57.891 7.61597 57.8826 7.47452C57.8826 7.30576 57.8826 7.12294 57.8826 6.96824V6.76433C57.8771 6.74002 57.8771 6.71481 57.8826 6.6905L57.9073 6.60964C58.0291 5.97615 58.2006 5.35313 58.4203 4.74628C58.6075 4.25019 58.8285 3.7674 59.0819 3.30129C59.1138 3.24504 59.1456 3.18176 59.1774 3.11847C59.2266 3.01619 59.2809 2.91645 59.3402 2.81963L59.7612 3.23449C60.0548 3.52279 60.3555 3.80756 60.6633 4.08531L60.7695 4.18375C61.0064 4.41061 61.2569 4.62311 61.5195 4.82011L61.5584 4.86581C61.5781 4.88747 61.5937 4.91248 61.6044 4.93964L61.6468 5.04512L61.7459 5.10488C61.8364 5.16069 61.9227 5.22297 62.0042 5.29122C62.0768 5.35112 62.1453 5.41571 62.2094 5.48459C62.3336 5.62267 62.4461 5.77085 62.5455 5.92758L62.6976 6.17016L62.97 6.06821C70.4001 3.33024 78.5684 3.3103 86.0119 6.01195C86.5002 6.19126 86.9778 6.36353 87.4271 6.56393L87.7243 6.68698L87.8764 6.40572C88.0043 6.19135 88.1562 5.99203 88.3292 5.81156L88.4071 5.72366C88.5146 5.59655 88.6329 5.47892 88.7608 5.37208L89.1854 5.02051L88.966 4.91503C89.3392 4.17743 89.6722 3.42045 89.9637 2.64736C89.9956 2.55946 90.0274 2.45399 90.0592 2.34149C90.0911 2.22898 90.1017 2.19031 90.13 2.10945C90.2503 2.31688 90.367 2.52431 90.4838 2.73174C91.0637 3.70699 91.538 4.74053 91.8989 5.81507C92.0192 6.20181 92.1253 6.59909 92.2315 6.98582C92.2845 7.19325 92.3411 7.40068 92.3978 7.60812C92.3978 7.62569 92.3978 7.64327 92.4154 7.66085C92.4313 7.7064 92.4313 7.75594 92.4154 7.80148L92.3518 7.93157L92.4048 8.08274C92.4133 8.13106 92.4045 8.18078 92.3801 8.22338L92.0263 8.81402L91.8706 9.06365L91.9201 9.10583C88.2231 10.4102 84.3456 11.8798 80.7724 13.9857C78.9518 15.0306 77.2538 16.2734 75.7098 17.6914C73.5871 16.0319 70.8594 14.6959 67.5904 13.7115C64.8713 12.9014 62.1009 12.2718 59.2977 11.827C58.3628 11.6659 57.4163 11.5801 56.4674 11.5704C55.882 11.5675 55.2974 11.6134 54.7198 11.7075C55.4186 10.5405 56.3711 9.54354 57.5076 8.78942L57.8083 8.59253L58.0489 8.43784L58.0206 8.19876ZM77.7617 24.8424C77.5247 25.31 76.9126 25.4471 76.4138 25.3698C76.1117 25.3203 75.8286 25.1911 75.5939 24.9957C75.3593 24.8002 75.1818 24.5458 75.08 24.2588C74.5387 22.9439 75.1366 21.6255 75.8336 20.6657C76.4242 21.26 76.9398 21.9235 77.369 22.6416C77.8997 23.5768 78.0341 24.3116 77.7617 24.8424ZM82.5095 49.4529C82.3885 49.6174 82.3212 49.8148 82.3168 50.0185C82.3124 50.2223 82.371 50.4224 82.4847 50.592C82.2215 50.3311 81.991 50.0395 81.7984 49.7236C81.8868 49.6673 81.9788 49.6146 82.0708 49.5618C82.3467 49.4036 82.6086 49.2665 82.8597 49.1399C82.721 49.223 82.6016 49.3345 82.5095 49.4669V49.4529ZM83.8256 43.6307H83.8609C84.1402 43.6289 84.4141 43.707 84.6499 43.8557C84.3952 43.8557 84.144 43.8557 83.914 43.8768L82.4989 43.9225C82.9209 43.7521 83.3702 43.658 83.8256 43.6448V43.6307Z" fill="black"/>
<path d="M62.3047 20.4759C62.8707 20.4759 67.8131 20.4337 67.8131 19.0203C67.8131 17.607 62.8707 17.5789 62.3047 17.5789C61.7386 17.5789 56.7998 17.621 56.7998 19.0309C56.7998 20.4407 61.7422 20.4759 62.3047 20.4759Z" fill="black"/>
<path d="M88.7999 19.3719C89.3624 19.3719 94.3048 19.3333 94.3048 17.9199C94.3048 16.5066 89.3518 16.4679 88.7999 16.4679C88.248 16.4679 83.3057 16.5241 83.3057 17.9305C83.3057 19.3368 88.248 19.3719 88.7999 19.3719Z" fill="black"/>
<path d="M79.842 34.103C79.9902 34.1025 80.1382 34.0896 80.2842 34.0644C80.6492 33.9978 80.9966 33.8577 81.305 33.6527C81.6135 33.4477 81.8765 33.1822 82.0779 32.8725C82.4276 33.0437 82.8105 33.1374 83.2002 33.1471C83.59 33.1569 83.9771 33.0823 84.335 32.9288C85.3433 32.5174 86.0544 31.5471 86.2844 30.2673C86.314 30.1313 86.306 29.9898 86.2611 29.8579C86.2163 29.7261 86.1363 29.6088 86.0297 29.5185C85.9043 29.4184 85.7548 29.3525 85.596 29.3273C85.4372 29.302 85.2746 29.3182 85.124 29.3743C84.9724 29.4285 84.8383 29.5225 84.7362 29.6463C84.634 29.7701 84.5675 29.9191 84.5438 30.0775C84.5082 30.3505 84.4048 30.6103 84.243 30.8337C84.0812 31.0571 83.866 31.237 83.6169 31.3572C83.1286 31.5471 82.7465 31.3572 82.1734 30.9072C82.063 30.818 81.9305 30.7602 81.7897 30.7397C81.649 30.7193 81.5053 30.7371 81.3739 30.7912C81.222 30.8536 81.0887 30.9536 80.9865 31.0815C80.8844 31.2095 80.8168 31.3613 80.7901 31.5225C80.7633 31.7275 80.6701 31.9183 80.5246 32.0661C80.3791 32.2138 80.1892 32.3106 79.9835 32.3416C79.7747 32.3789 79.5594 32.3492 79.3686 32.2569C79.1778 32.1647 79.0215 32.0146 78.9221 31.8283C78.8673 31.7249 78.7922 31.6336 78.7011 31.5596C78.6101 31.4856 78.505 31.4306 78.3921 31.3978C78.2792 31.365 78.1609 31.3551 78.0441 31.3687C77.9273 31.3822 77.8144 31.419 77.7122 31.4768C77.6115 31.5256 77.5219 31.5944 77.449 31.679C77.3761 31.7636 77.3213 31.8621 77.2882 31.9685C77.255 32.0749 77.2442 32.1869 77.2562 32.2977C77.2683 32.4084 77.3031 32.5155 77.3584 32.6123C77.6009 33.0585 77.959 33.432 78.3957 33.6941C78.8325 33.9562 79.3318 34.0974 79.842 34.103Z" fill="black"/>
</g>
<defs>
<clipPath id="clip0_465_12078">
<rect width="120" height="74" fill="white"/>
</clipPath>
</defs>
</svg>
