<svg width="30" height="30" viewBox="0 0 30 30" fill="none" xmlns="http://www.w3.org/2000/svg">
<path d="M15.0001 18.75C17.0711 18.75 18.7501 17.0711 18.7501 15C18.7501 12.9289 17.0711 11.25 15.0001 11.25C12.929 11.25 11.2501 12.9289 11.2501 15C11.2501 17.0711 12.929 18.75 15.0001 18.75Z" fill="black"/>
<path d="M23.134 8.27129C20.5723 6.51465 17.8307 5.62402 14.986 5.62402C12.426 5.62402 9.93053 6.38574 7.56861 7.87871C5.18678 9.3875 2.85182 12.1279 0.937561 14.999C2.48561 17.5771 4.60318 20.2279 6.80865 21.7478C9.33873 23.4904 12.0897 24.374 14.986 24.374C17.8571 24.374 20.6022 23.491 23.1481 21.7496C25.3893 20.2139 27.5221 17.5666 29.0626 14.999C27.5169 12.4543 25.377 9.80996 23.134 8.27129ZM15.0001 20.624C13.8875 20.624 12.8 20.2941 11.875 19.676C10.9499 19.058 10.229 18.1794 9.80324 17.1516C9.37749 16.1238 9.2661 14.9928 9.48314 13.9016C9.70018 12.8105 10.2359 11.8082 11.0226 11.0215C11.8093 10.2349 12.8115 9.69915 13.9027 9.48211C14.9938 9.26506 16.1248 9.37646 17.1527 9.8022C18.1805 10.2279 19.059 10.9489 19.6771 11.8739C20.2952 12.799 20.6251 13.8865 20.6251 14.999C20.6234 16.4903 20.0302 17.9201 18.9756 18.9746C17.9211 20.0291 16.4914 20.6223 15.0001 20.624Z" fill="black"/>
</svg>
