<svg width="20" height="21" viewBox="0 0 20 21" fill="none" xmlns="http://www.w3.org/2000/svg">
  <path d="M16.875 3.75317H13.125V2.81567C13.125 2.40127 12.9604 2.00384 12.6674 1.71082C12.3743 1.41779 11.9769 1.25317 11.5625 1.25317H8.4375C8.0231 1.25317 7.62567 1.41779 7.33264 1.71082C7.03962 2.00384 6.875 2.40127 6.875 2.81567V3.75317H3.125C2.95924 3.75317 2.80027 3.81902 2.68306 3.93623C2.56585 4.05344 2.5 4.21241 2.5 4.37817C2.5 4.54393 2.56585 4.7029 2.68306 4.82011C2.80027 4.93732 2.95924 5.00317 3.125 5.00317H3.78906L4.53125 16.9141C4.58672 17.9629 5.39062 18.7532 6.40625 18.7532H13.5937C14.6144 18.7532 15.4023 17.9805 15.4687 16.9172L16.2109 5.00317H16.875C17.0408 5.00317 17.1997 4.93732 17.3169 4.82011C17.4341 4.7029 17.5 4.54393 17.5 4.37817C17.5 4.21241 17.4341 4.05344 17.3169 3.93623C17.1997 3.81902 17.0408 3.75317 16.875 3.75317ZM7.52226 16.2532H7.5C7.33803 16.2533 7.18234 16.1905 7.06575 16.0781C6.94916 15.9656 6.88077 15.8123 6.875 15.6504L6.5625 6.90044C6.55659 6.73468 6.61678 6.57336 6.72981 6.45197C6.84285 6.33059 6.99947 6.25908 7.16523 6.25317C7.33099 6.24727 7.49231 6.30745 7.6137 6.42049C7.73508 6.53352 7.80659 6.69015 7.8125 6.85591L8.125 15.6059C8.12797 15.688 8.11474 15.7699 8.08605 15.8468C8.05736 15.9238 8.01378 15.9944 7.9578 16.0545C7.90183 16.1146 7.83455 16.1631 7.75981 16.1972C7.68508 16.2313 7.60436 16.2503 7.52226 16.2532ZM10.625 15.6282C10.625 15.7939 10.5591 15.9529 10.4419 16.0701C10.3247 16.1873 10.1658 16.2532 10 16.2532C9.83424 16.2532 9.67527 16.1873 9.55806 16.0701C9.44085 15.9529 9.375 15.7939 9.375 15.6282V6.87817C9.375 6.71241 9.44085 6.55344 9.55806 6.43623C9.67527 6.31902 9.83424 6.25317 10 6.25317C10.1658 6.25317 10.3247 6.31902 10.4419 6.43623C10.5591 6.55344 10.625 6.71241 10.625 6.87817V15.6282ZM11.875 3.75317H8.125V2.81567C8.12453 2.7745 8.13229 2.73366 8.14783 2.69553C8.16336 2.6574 8.18637 2.62277 8.21548 2.59365C8.24459 2.56454 8.27923 2.54154 8.31735 2.526C8.35548 2.51046 8.39633 2.5027 8.4375 2.50317H11.5625C11.6037 2.5027 11.6445 2.51046 11.6826 2.526C11.7208 2.54154 11.7554 2.56454 11.7845 2.59365C11.8136 2.62277 11.8366 2.6574 11.8522 2.69553C11.8677 2.73366 11.8755 2.7745 11.875 2.81567V3.75317ZM13.125 15.6504C13.1192 15.8123 13.0508 15.9656 12.9342 16.0781C12.8177 16.1905 12.662 16.2533 12.5 16.2532H12.4773C12.3953 16.2502 12.3146 16.2312 12.2399 16.1971C12.1652 16.163 12.098 16.1145 12.0421 16.0543C11.9861 15.9942 11.9426 15.9237 11.9139 15.8467C11.8852 15.7698 11.872 15.688 11.875 15.6059L12.1875 6.85591C12.1904 6.77383 12.2095 6.69313 12.2436 6.61842C12.2777 6.54371 12.3262 6.47646 12.3863 6.42049C12.4464 6.36452 12.5169 6.32093 12.5939 6.29223C12.6708 6.26352 12.7527 6.25025 12.8348 6.25317C12.9168 6.2561 12.9975 6.27516 13.0722 6.30927C13.147 6.34338 13.2142 6.39187 13.2702 6.45197C13.3262 6.51208 13.3697 6.58262 13.3984 6.65957C13.4272 6.73651 13.4404 6.81836 13.4375 6.90044L13.125 15.6504Z" fill="black"/>
  </svg>
